<svg width="200" height="201" viewBox="0 0 200 201" fill="none" xmlns="http://www.w3.org/2000/svg">
<path d="M71.5147 148.218C80.2736 148.218 87.3741 141.117 87.3741 132.358C87.3741 123.599 80.2736 116.499 71.5147 116.499C62.7558 116.499 55.6553 123.599 55.6553 132.358C55.6553 141.117 62.7558 148.218 71.5147 148.218Z" fill="#27B1FF"/>
<path d="M71.6677 133.759C72.7862 133.759 73.6928 132.853 73.6928 131.734C73.6928 130.616 72.7862 129.709 71.6677 129.709C70.5493 129.709 69.6426 130.616 69.6426 131.734C69.6426 132.853 70.5493 133.759 71.6677 133.759Z" fill="#B6E5FF"/>
<path d="M80.3805 128.638C81.3363 128.638 82.1112 127.863 82.1112 126.907C82.1112 125.951 81.3363 125.176 80.3805 125.176C79.4246 125.176 78.6497 125.951 78.6497 126.907C78.6497 127.863 79.4246 128.638 80.3805 128.638Z" fill="#B6E5FF"/>
<path d="M62.7077 129.062C63.6896 129.062 64.4856 128.266 64.4856 127.284C64.4856 126.302 63.6896 125.506 62.7077 125.506C61.7258 125.506 60.9299 126.302 60.9299 127.284C60.9299 128.266 61.7258 129.062 62.7077 129.062Z" fill="#B6E5FF"/>
<path d="M71.6912 143.661C72.7381 143.661 73.5868 142.813 73.5868 141.766C73.5868 140.719 72.7381 139.87 71.6912 139.87C70.6443 139.87 69.7956 140.719 69.7956 141.766C69.7956 142.813 70.6443 143.661 71.6912 143.661Z" fill="#B6E5FF"/>
<path d="M71.6678 142.366C68.5712 142.366 66.134 137.657 66.134 131.687C66.134 125.718 68.5712 121.008 71.6678 121.008C74.7643 121.008 77.2015 125.718 77.2015 131.687C77.2015 137.657 74.7172 142.366 71.6678 142.366ZM71.6678 122.28C69.313 122.28 67.4056 126.589 67.4056 131.699C67.4056 136.809 69.3601 141.118 71.6678 141.118C73.9754 141.118 75.8946 136.832 75.8946 131.77C75.8946 126.707 73.9754 122.351 71.6678 122.351V122.28Z" fill="#B6E5FF"/>
<path d="M76.5066 138.551C73.9972 138.472 71.535 137.849 69.2892 136.727C66.974 135.683 64.9192 134.139 63.2728 132.205C61.7893 130.345 61.3536 128.555 62.0248 127.143C62.6959 125.73 64.3795 124.941 66.7343 124.917C69.2751 124.987 71.7702 125.61 74.0459 126.742C76.3619 127.79 78.4167 129.338 80.0623 131.275C81.5459 133.124 81.9815 134.913 81.3104 136.326C80.6393 137.739 78.9556 138.528 76.6008 138.551H76.5066ZM66.8285 126.189H66.7461C64.9211 126.189 63.6142 126.754 63.2139 127.684C62.8136 128.614 63.2139 130.039 64.3089 131.405C65.8588 133.144 67.7377 134.56 69.8372 135.571C71.9367 136.581 74.2154 137.166 76.542 137.292H76.6361C78.4611 137.292 79.768 136.727 80.1683 135.796C80.5686 134.866 80.1683 133.5 79.0733 132.076C77.5551 130.293 75.6667 128.863 73.5396 127.884C71.4512 126.841 69.1617 126.263 66.8285 126.189Z" fill="#B6E5FF"/>
<path d="M66.5813 138.94C64.5798 138.94 63.1198 138.292 62.4134 137.08C60.871 134.395 63.7203 129.945 68.9008 126.942C71.0804 125.64 73.5208 124.836 76.0475 124.588C78.4023 124.423 80.1331 125.07 80.9219 126.424C81.7108 127.778 81.4047 129.603 80.0742 131.57C78.5499 133.598 76.6315 135.297 74.4343 136.566C72.2371 137.834 69.8063 138.646 67.2878 138.952C67.0523 138.94 66.8168 138.94 66.5813 138.94ZM76.7422 125.8C76.5383 125.789 76.3339 125.789 76.1299 125.8C73.795 126.047 71.5435 126.807 69.5366 128.026C65.1214 130.569 62.3663 134.419 63.5201 136.42C64.0382 137.315 65.3686 137.751 67.2053 137.598C71.8796 136.971 76.1141 134.515 78.9792 130.769C80.0036 129.25 80.2861 127.873 79.7681 126.966C79.4012 126.534 78.9321 126.202 78.4035 125.998C77.8749 125.794 77.3038 125.727 76.7422 125.8Z" fill="#B6E5FF"/>
<path d="M128.983 41.617C137.404 41.617 144.23 34.7906 144.23 26.3699C144.23 17.9491 137.404 11.1227 128.983 11.1227C120.562 11.1227 113.736 17.9491 113.736 26.3699C113.736 34.7906 120.562 41.617 128.983 41.617Z" fill="#27B1FF"/>
<path d="M130.584 36.8839C129.729 36.8521 128.891 36.6307 128.132 36.2357C127.372 35.8407 126.71 35.2819 126.193 34.5998C125.264 34.8158 124.291 34.7164 123.426 34.3172C122.816 34.0502 122.264 33.6651 121.804 33.1842C121.343 32.7033 120.982 32.136 120.741 31.515C120.386 30.3923 120.329 29.1968 120.575 28.0452C120.82 26.8937 121.36 25.8255 122.142 24.9452C123.648 23.2743 125.564 22.0245 127.7 21.3189L128.583 20.9892C129.649 20.6601 130.67 20.1972 131.62 19.6116C132.167 19.2924 132.625 18.84 132.95 18.2966C133.275 17.7531 133.458 17.1363 133.481 16.5033C133.474 16.3689 133.512 16.236 133.589 16.1254C133.665 16.0147 133.776 15.9324 133.904 15.8911C134.033 15.8462 134.173 15.8463 134.301 15.8912C134.429 15.9361 134.539 16.0232 134.611 16.1383C137.028 19.8691 138.023 24.3448 137.413 28.7482C137.237 30.5399 136.644 32.2657 135.682 33.7874C135.183 34.5813 134.524 35.2632 133.748 35.7901C132.972 36.3169 132.095 36.6773 131.173 36.8486C130.978 36.8721 130.781 36.8839 130.584 36.8839ZM126.452 33.2694C126.559 33.2669 126.666 33.2942 126.759 33.3482C126.853 33.4022 126.93 33.4808 126.981 33.5755C127.402 34.2464 127.996 34.7918 128.701 35.1543C129.405 35.5168 130.194 35.6831 130.985 35.6359C131.74 35.4935 132.457 35.1961 133.091 34.7624C133.726 34.3287 134.263 33.7682 134.67 33.1163C135.522 31.7474 136.046 30.2 136.2 28.5951C136.715 25.0136 136.08 21.3612 134.387 18.1635C133.938 19.1637 133.216 20.0168 132.303 20.6242C131.269 21.2678 130.157 21.7782 128.995 22.143L128.135 22.4609C126.193 23.0908 124.449 24.2147 123.072 25.7223C122.432 26.4407 121.987 27.3121 121.78 28.2525C121.574 29.1929 121.614 30.1705 121.895 31.0912C122.269 32.0355 123.001 32.7933 123.932 33.1987C124.296 33.3769 124.692 33.4792 125.097 33.4994C125.502 33.5197 125.907 33.4574 126.287 33.3165C126.339 33.2915 126.394 33.2756 126.452 33.2694Z" fill="#D0EEFF"/>
<path d="M126.451 34.482C126.313 34.4831 126.178 34.4371 126.069 34.3516C125.96 34.266 125.883 34.146 125.851 34.0111C125.744 33.1595 125.808 32.2953 126.039 31.4686C126.269 30.6419 126.662 29.8693 127.193 29.1956C127.874 28.3151 128.639 27.5029 129.477 26.7702L130.278 25.9931C131.807 24.5004 132.782 22.5325 133.045 20.4123C133.098 20.2838 133.193 20.1772 133.314 20.11C133.436 20.0427 133.577 20.0187 133.714 20.042C133.85 20.0653 133.975 20.1344 134.068 20.2381C134.16 20.3417 134.215 20.4737 134.222 20.6124C133.912 22.987 132.813 25.1887 131.102 26.8643L130.278 27.6532C129.499 28.3387 128.785 29.0955 128.147 29.9138C127.265 30.9838 126.841 32.3594 126.97 33.7403C126.987 33.8192 126.988 33.9007 126.974 33.9801C126.96 34.0596 126.93 34.1354 126.886 34.2033C126.842 34.2711 126.785 34.3296 126.719 34.3755C126.652 34.4213 126.578 34.4535 126.499 34.4703L126.451 34.482Z" fill="#D0EEFF"/>
<path d="M130.902 27.0409H130.69C130.53 27.0348 130.378 26.966 130.268 26.8493C130.158 26.7326 130.098 26.5773 130.101 26.4169C130.107 26.2575 130.174 26.1065 130.288 25.9948C130.402 25.8832 130.554 25.8193 130.714 25.8164C131.575 25.8667 132.436 25.7235 133.235 25.3976C134.033 25.0716 134.749 24.5711 135.329 23.9326C135.38 23.8715 135.443 23.8211 135.513 23.7842C135.584 23.7473 135.661 23.7247 135.74 23.7176C135.819 23.7105 135.899 23.719 135.975 23.7428C136.051 23.7666 136.122 23.8051 136.183 23.8561C136.244 23.9071 136.294 23.9697 136.331 24.0402C136.368 24.1107 136.391 24.1878 136.398 24.267C136.405 24.3463 136.396 24.4262 136.372 24.5021C136.349 24.5781 136.31 24.6486 136.259 24.7097C135.59 25.4646 134.763 26.0643 133.838 26.467C132.913 26.8696 131.911 27.0655 130.902 27.0409Z" fill="#D0EEFF"/>
<path d="M130.714 27.041C130.615 27.041 130.517 27.0175 130.429 26.9725C130.341 26.9274 130.265 26.8621 130.207 26.7819C129.695 26.124 129.36 25.3455 129.234 24.5209C129.108 23.6963 129.196 22.8533 129.489 22.0724C129.513 21.9951 129.552 21.9232 129.604 21.861C129.656 21.7987 129.719 21.7473 129.791 21.7096C129.862 21.6719 129.941 21.6486 130.021 21.6412C130.102 21.6337 130.183 21.6422 130.26 21.6662C130.338 21.6902 130.41 21.7291 130.472 21.7808C130.534 21.8326 130.585 21.896 130.623 21.9677C130.661 22.0393 130.684 22.1176 130.692 22.1982C130.699 22.2788 130.691 22.3601 130.667 22.4374C130.433 23.0353 130.361 23.6843 130.458 24.319C130.555 24.9536 130.818 25.5514 131.22 26.052C131.284 26.1432 131.323 26.2504 131.331 26.3619C131.339 26.4733 131.316 26.5848 131.265 26.6843C131.214 26.7838 131.137 26.8674 131.042 26.9261C130.947 26.9848 130.837 27.0164 130.725 27.0174L130.714 27.041Z" fill="#D0EEFF"/>
<path d="M127.97 29.7607C127.88 29.7621 127.79 29.7427 127.709 29.7039C127.627 29.6651 127.555 29.608 127.499 29.537C125.969 27.6414 126.087 25.8871 126.817 23.3086C126.863 23.1548 126.968 23.0254 127.109 22.9483C127.25 22.8712 127.416 22.8526 127.57 22.8966C127.648 22.9169 127.721 22.9528 127.785 23.002C127.849 23.0513 127.903 23.1129 127.942 23.1833C127.982 23.2536 128.007 23.3312 128.016 23.4114C128.024 23.4916 128.017 23.5728 127.994 23.6501C127.335 25.9224 127.24 27.2764 128.441 28.7717C128.493 28.8337 128.532 28.9055 128.555 28.9828C128.578 29.0601 128.586 29.1413 128.577 29.2215C128.568 29.3017 128.543 29.3794 128.504 29.4498C128.464 29.5202 128.411 29.5819 128.347 29.6312C128.239 29.7136 128.107 29.759 127.97 29.7607Z" fill="#D0EEFF"/>
<path d="M126.593 32.398C126.511 32.3993 126.43 32.3832 126.355 32.3507C126.28 32.3182 126.212 32.2702 126.157 32.2097C125.213 31.2033 124.498 30.0046 124.061 28.6957C123.624 27.3869 123.476 25.9989 123.626 24.6273C123.633 24.5476 123.656 24.4702 123.694 24.3998C123.732 24.3294 123.784 24.2675 123.847 24.2179C123.91 24.1684 123.982 24.1321 124.06 24.1114C124.137 24.0907 124.218 24.0859 124.297 24.0974C124.457 24.1152 124.604 24.1958 124.706 24.3215C124.807 24.4472 124.855 24.6079 124.838 24.7686C124.71 25.963 124.84 27.1712 125.22 28.3109C125.6 29.4506 126.221 30.4952 127.04 31.3737C127.097 31.4296 127.143 31.4965 127.174 31.5703C127.205 31.6441 127.221 31.7234 127.221 31.8035C127.221 31.8835 127.205 31.9628 127.174 32.0366C127.143 32.1104 127.097 32.1773 127.04 32.2332C126.918 32.3441 126.758 32.4032 126.593 32.398Z" fill="#D0EEFF"/>
<path d="M129.984 33.4107C128.643 33.4197 127.334 33.0079 126.24 32.2333C126.169 32.1884 126.109 32.1296 126.062 32.0604C126.015 31.9913 125.983 31.9133 125.967 31.8312C125.952 31.7492 125.953 31.6649 125.972 31.5834C125.99 31.5019 126.024 31.425 126.074 31.3575C126.123 31.2899 126.185 31.2331 126.257 31.1905C126.329 31.1479 126.408 31.1205 126.491 31.1099C126.574 31.0993 126.658 31.1058 126.738 31.1289C126.819 31.152 126.893 31.1913 126.958 31.2443C128.143 31.9766 129.546 32.2747 130.927 32.0879C132.307 31.9011 133.58 31.2409 134.528 30.22C134.583 30.1612 134.65 30.1143 134.724 30.0822C134.798 30.0502 134.878 30.0336 134.958 30.0336C135.039 30.0336 135.118 30.0502 135.192 30.0822C135.266 30.1143 135.333 30.1612 135.388 30.22C135.445 30.2759 135.491 30.3428 135.522 30.4166C135.553 30.4904 135.569 30.5696 135.569 30.6497C135.569 30.7298 135.553 30.8091 135.522 30.8829C135.491 30.9567 135.445 31.0235 135.388 31.0795C134.686 31.8065 133.847 32.387 132.92 32.7872C131.992 33.1874 130.994 33.3993 129.984 33.4107Z" fill="#D0EEFF"/>
<path d="M130.349 30.373C129.422 30.3774 128.509 30.1422 127.7 29.6901C127.629 29.6509 127.567 29.5981 127.517 29.5348C127.467 29.4714 127.43 29.3988 127.408 29.3211C127.386 29.2434 127.38 29.1622 127.389 29.0821C127.399 29.0019 127.424 28.9245 127.464 28.8542C127.502 28.7841 127.554 28.7222 127.616 28.6723C127.678 28.6224 127.75 28.5854 127.827 28.5635C127.904 28.5416 127.984 28.5351 128.063 28.5446C128.142 28.5541 128.219 28.5793 128.288 28.6187C130.431 29.7961 133.186 28.7718 134.964 27.2176C135.023 27.1552 135.094 27.1058 135.172 27.0725C135.251 27.0393 135.336 27.0229 135.422 27.0245C135.507 27.026 135.592 27.0455 135.669 27.0816C135.747 27.1178 135.816 27.1698 135.872 27.2343C135.928 27.2988 135.97 27.3743 135.996 27.4561C136.021 27.5378 136.029 27.624 136.018 27.7089C136.008 27.7939 135.981 27.8758 135.937 27.9493C135.893 28.0229 135.835 28.0865 135.765 28.136C134.275 29.4896 132.359 30.2808 130.349 30.373Z" fill="#D0EEFF"/>
<path d="M139.403 184.964C162.376 184.964 181 166.34 181 143.367C181 120.394 162.376 101.77 139.403 101.77C116.429 101.77 97.8056 120.394 97.8056 143.367C97.8056 166.34 116.429 184.964 139.403 184.964Z" fill="#06A5FF"/>
<path d="M156.228 125.059H122.59C121.778 125.059 120.999 125.381 120.425 125.955C119.851 126.529 119.529 127.308 119.529 128.12C119.529 128.932 119.851 129.71 120.425 130.284C120.999 130.858 121.778 131.181 122.59 131.181H131.291C130.113 141.024 127.759 148.489 120.93 155.906C120.653 156.201 120.44 156.548 120.301 156.928C120.162 157.307 120.101 157.711 120.122 158.114C120.143 158.518 120.245 158.913 120.422 159.276C120.6 159.639 120.848 159.962 121.153 160.227C121.738 160.735 122.486 161.016 123.261 161.016C123.702 161.02 124.139 160.932 124.545 160.758C124.95 160.583 125.315 160.326 125.616 160.003C133.74 151.244 136.436 142.343 137.637 131.169H141.628C140.357 137.621 139.438 145.498 140.062 151.503C141.039 160.922 147.127 161.652 152.754 161.652C153.156 161.652 153.555 161.573 153.926 161.419C154.297 161.265 154.635 161.039 154.919 160.755C155.203 160.471 155.429 160.133 155.583 159.762C155.736 159.391 155.816 158.993 155.816 158.591C155.816 158.189 155.736 157.791 155.583 157.419C155.429 157.048 155.203 156.71 154.919 156.426C154.635 156.142 154.297 155.916 153.926 155.762C153.555 155.609 153.156 155.529 152.754 155.529C147.586 155.529 146.75 154.929 146.326 150.879C145.725 145.157 146.75 137.339 148.057 131.169H156.24C157.051 131.169 157.83 130.847 158.404 130.273C158.978 129.699 159.301 128.92 159.301 128.108C159.301 127.296 158.978 126.518 158.404 125.943C157.83 125.369 157.051 125.047 156.24 125.047L156.228 125.059Z" fill="#D0EEFF"/>
<path d="M62.2721 109.293C88.3798 109.293 109.544 88.1289 109.544 62.0212C109.544 35.9135 88.3798 14.749 62.2721 14.749C36.1645 14.749 15 35.9135 15 62.0212C15 88.1289 36.1645 109.293 62.2721 109.293Z" fill="#06A5FF"/>
<path d="M58.7519 71.0752V77.3978H35.5102V48.4458H58.2338V54.7802H43.6106V59.6545H56.4677V65.8358H43.6106V71.1341L58.7519 71.0752Z" fill="#D0EEFF"/>
<path d="M90.8473 48.4458V77.3978H84.1362L71.3262 61.974V77.3978H63.2964V48.4458H70.0075L82.8175 63.8814V48.4458H90.8473Z" fill="#D0EEFF"/>
<path d="M143.465 94.364C155.93 94.364 166.035 84.2589 166.035 71.7935C166.035 59.3281 155.93 49.223 143.465 49.223C130.999 49.223 120.894 59.3281 120.894 71.7935C120.894 84.2589 130.999 94.364 143.465 94.364Z" fill="#27B1FF"/>
<path d="M148.351 79.3288H138.579L134.364 87.2879H152.272L148.351 79.3288Z" fill="#D0EEFF"/>
<path d="M135.2 88.3946H151.683C151.972 88.3839 152.254 88.2993 152.501 88.1488C152.749 87.9984 152.953 87.7871 153.096 87.5351L135.2 88.3946ZM135.2 88.3946C134.898 88.3949 134.603 88.3156 134.342 88.1646C134.082 88.0137 133.866 87.7965 133.716 87.5351L135.2 88.3946ZM152.241 87.7217C152.07 87.8263 151.874 87.8858 151.673 87.8946H135.2H135.199C134.986 87.8948 134.777 87.8387 134.593 87.732C134.409 87.6255 134.257 87.4725 134.151 87.2884C134.038 87.0868 133.978 86.8596 133.978 86.6286C133.978 86.399 134.037 86.1732 134.149 85.9726L141.315 74.0048L141.386 73.8862V73.7479V60.0015H145.426V73.7479V73.8863L145.497 74.005L152.664 85.9626C152.778 86.1638 152.839 86.3912 152.839 86.6227C152.839 86.8556 152.778 87.0846 152.662 87.2867L152.661 87.289C152.56 87.4666 152.416 87.6156 152.241 87.7217ZM134.935 86.3367L134.483 87.0932H135.364H151.565H152.447L151.994 86.3367L144.683 74.1044V61.2912V60.7912H144.183H142.747H142.247V61.2912V74.1044L134.935 86.3367Z" fill="#B6E5FF" stroke="#B6E5FF"/>
<path d="M136.353 69.6506C137.322 69.6506 138.108 68.8652 138.108 67.8963C138.108 66.9275 137.322 66.142 136.353 66.142C135.385 66.142 134.599 66.9275 134.599 67.8963C134.599 68.8652 135.385 69.6506 136.353 69.6506Z" stroke="#B6E5FF" stroke-width="2" stroke-miterlimit="10"/>
<path d="M146.114 57.8179C147.083 57.8179 147.868 57.0325 147.868 56.0636C147.868 55.0948 147.083 54.3093 146.114 54.3093C145.145 54.3093 144.36 55.0948 144.36 56.0636C144.36 57.0325 145.145 57.8179 146.114 57.8179Z" stroke="#B6E5FF" stroke-width="2" stroke-miterlimit="10"/>
<path d="M154.721 69.0031C156.567 69.0031 158.064 67.5061 158.064 65.6593C158.064 63.8126 156.567 62.3156 154.721 62.3156C152.874 62.3156 151.377 63.8126 151.377 65.6593C151.377 67.5061 152.874 69.0031 154.721 69.0031Z" stroke="#B6E5FF" stroke-width="2" stroke-miterlimit="10"/>
<path d="M132.244 77.8806C133.779 77.8806 135.023 76.6365 135.023 75.1019C135.023 73.5673 133.779 72.3233 132.244 72.3233C130.71 72.3233 129.466 73.5673 129.466 75.1019C129.466 76.6365 130.71 77.8806 132.244 77.8806Z" stroke="#B6E5FF" stroke-width="2" stroke-miterlimit="10"/>
<path d="M152.543 77.7511C153.674 77.7511 154.591 76.8338 154.591 75.7024C154.591 74.571 153.674 73.6537 152.543 73.6537C151.411 73.6537 150.494 74.571 150.494 75.7024C150.494 76.8338 151.411 77.7511 152.543 77.7511Z" stroke="#B6E5FF" stroke-width="2" stroke-miterlimit="10"/>
</svg>
