<svg width="44" height="84" viewBox="0 0 44 84" fill="none" xmlns="http://www.w3.org/2000/svg">
<g clip-path="url(#clip0_837_4572)">
<path d="M36.2955 32.683C36.6566 33.7077 35.6936 40.2778 32.8646 38.5901L33.5267 32.0803H33.5869C34.3092 30.8748 34.9111 30.8145 35.4528 31.2364C35.8741 31.5981 36.1751 32.2008 36.2955 32.683Z" fill="white"/>
<path d="M33.5868 31.4171L33.5267 32.0802L32.8645 38.59L31.3598 53.4781C31.2394 54.6234 30.3365 55.4673 29.1929 55.4673H25.5212L14.5663 55.5275H11.6771C10.5335 55.5275 9.63062 54.6837 9.51024 53.5384L7.88507 38.4694L7.22296 33.4063V33.1049L7.28315 26.7156C8.78794 23.8224 9.02871 19.6633 10.5937 16.6495C17.4555 17.9153 31.7209 14.7207 31.7209 14.7207L33.5868 31.4171Z" fill="white"/>
<path d="M24.6785 31.5376C25.4008 31.5376 26.0629 32.3815 26.0629 33.4062C26.0629 34.4308 25.461 35.2747 24.6785 35.2747C23.896 35.2747 23.2941 34.4308 23.2941 33.4062C23.2941 32.3815 23.9562 31.5376 24.6785 31.5376Z" fill="black"/>
<path d="M25.461 55.5276V61.3743L19.9836 66.2567L14.5062 61.3743V55.5276L25.461 55.4673V55.5276Z" fill="white"/>
<path d="M18.238 58.2398C19.9234 59.2645 21.4884 59.6864 23.4145 59.9878C24.0766 60.1083 24.7989 60.1686 25.461 60.2891V55.5273L14.5062 55.5876V56.1904C15.8304 56.7329 17.0342 57.4562 18.238 58.2398Z" fill="#AACFFA"/>
<path d="M25.461 63.7854L19.8632 66.2567L14.5062 63.7251H14.2654L3.37072 68.1855C1.32421 69.0897 0 71.0788 0 73.309V83.3751H40.0274V73.309C40.0274 71.0788 38.643 69.0294 36.5964 68.1855L25.461 63.7854Z" fill="#2C3D5B"/>
<path d="M15.7702 33.4062C15.7702 34.4308 15.1682 35.2747 14.3857 35.2747C13.6033 35.2747 13.0013 34.4308 13.0013 33.4062C13.0013 32.3815 13.6033 31.5376 14.3857 31.5376C15.1682 31.5376 15.7702 32.3815 15.7702 33.4062Z" fill="black"/>
<path d="M7.28319 26.7155C6.74147 28.5841 7.28319 31.1157 7.223 33.1048H7.10262C6.32013 31.839 5.7784 31.5376 5.29687 31.7184C4.27362 24.0634 0.481549 16.4686 3.91247 8.81357C4.63476 7.18612 5.65802 5.61895 6.92204 4.35315C7.9453 3.32846 8.78798 3.38873 10.1122 3.14763C11.1354 2.90653 11.6772 2.06266 12.6402 1.58046C15.4692 0.133833 19.5623 0.254385 22.632 0.736593C25.2203 1.2188 27.5075 2.18322 29.855 3.26818C31.8413 4.2326 33.7073 5.13674 35.3926 6.58336C37.1984 8.09026 39.1847 9.29578 40.7497 11.1041C42.3147 12.9123 43.4583 15.022 44.0602 17.3728C42.0137 16.0467 39.7264 15.2631 37.3188 15.0823C38.342 17.3728 39.3653 19.6632 40.3885 21.9537C39.4857 20.929 38.2818 20.2057 36.8974 19.9043C37.8003 20.0852 36.8974 25.9319 36.8974 26.7758C36.8372 28.2224 36.6567 30.3321 35.4528 31.3568C34.6703 30.6335 34.1286 31.6582 33.5267 32.0198C33.5869 32.2006 33.4063 27.1375 32.2025 23.9428C30.9987 20.7482 24.6184 17.4933 20.7661 17.6741C20.7661 18.518 21.6088 19.6632 22.0301 20.3263C22.3311 20.8085 23.6553 22.9784 24.2572 23.099C21.6088 22.4359 19.2011 21.8332 16.7333 20.6277C15.6498 20.0852 14.6266 19.5427 13.6033 18.9399C12.881 18.518 12.1587 17.7344 11.316 17.4933C10.7141 18.5783 10.2928 19.9043 9.99181 21.1099C9.75104 22.1346 9.3297 23.1593 8.84817 24.1237C8.42683 25.0278 7.52396 25.8717 7.28319 26.7758C7.28319 26.7155 7.28319 26.7155 7.28319 26.7155Z" fill="#2C3D5B"/>
<path d="M7.223 33.4062L7.76473 38.5297C4.87553 40.2174 4.27362 33.7076 4.57458 32.6829C4.69496 32.261 4.93573 31.839 5.29687 31.7185C5.71822 31.5376 6.32013 31.839 7.10262 33.1048H7.223V33.4062Z" fill="white"/>
<path d="M20.1039 78.9747L30.6977 65.8948L25.461 63.7852L19.9234 66.3167L14.5061 63.7852H14.3256L9.26947 65.8345L20.1039 78.9747Z" fill="#315D93"/>
<path d="M19.9836 66.2564L17.7565 66.7386L14.5062 67.3413V63.7851V61.374L19.9836 66.2564Z" fill="#55A0F5"/>
<path d="M25.461 63.7851V67.3413L22.4514 66.7386L19.9836 66.2564L25.461 61.374V63.7851Z" fill="#55A0F5"/>
<path d="M10.5937 12.5508C9.57048 16.7701 8.12589 20.8689 6.25995 24.7265" stroke="#ABB9CA" stroke-width="0.5" stroke-miterlimit="10" stroke-linecap="round"/>
<path d="M11.9179 12.4902C13.6033 15.0821 15.6498 17.4329 17.9973 19.422" stroke="#ABB9CA" stroke-width="0.5" stroke-miterlimit="10" stroke-linecap="round"/>
<path d="M13.6635 11.2245C18.238 7.60791 34.1286 13.8163 33.0451 19.9645" stroke="#ABB9CA" stroke-width="0.5" stroke-miterlimit="10" stroke-linecap="round"/>
<path d="M11.316 9.77822C20.7661 3.44924 31.6608 8.8138 36.3557 16.7702" stroke="#ABB9CA" stroke-width="0.5" stroke-miterlimit="10" stroke-linecap="round"/>
<path d="M11.316 8.21085C13.0616 4.23263 17.576 3.26822 24.6786 4.17236C31.7812 5.0765 37.6197 9.65747 40.0274 13.3946" stroke="#ABB9CA" stroke-width="0.5" stroke-miterlimit="10" stroke-linecap="round"/>
<path d="M8.90833 10.6221C8.36661 13.5756 7.34335 16.4688 5.83856 19.0607" stroke="#ABB9CA" stroke-width="0.5" stroke-miterlimit="10" stroke-linecap="round"/>
<path d="M8.54718 6.52295C7.58411 9.83813 6.07933 12.9725 4.1532 15.8055" stroke="#ABB9CA" stroke-width="0.5" stroke-miterlimit="10" stroke-linecap="round"/>
</g>
<defs>
<clipPath id="clip0_837_4572">
<rect width="44" height="83" fill="white" transform="translate(0 0.375)"/>
</clipPath>
</defs>
</svg>
