<svg width="786" height="776" viewBox="0 0 786 776" fill="none" xmlns="http://www.w3.org/2000/svg">
<path d="M785.5 388C785.5 602.01 611.787 775.5 397.5 775.5C183.213 775.5 9.5 602.01 9.5 388C9.5 173.99 183.213 0.5 397.5 0.5C611.787 0.5 785.5 173.99 785.5 388Z" stroke="#315D93"/>
<circle cx="756.5" cy="532.5" r="12.5" fill="#06A5FF"/>
<path d="M655.5 388C655.5 530.212 539.99 645.5 397.5 645.5C255.01 645.5 139.5 530.212 139.5 388C139.5 245.788 255.01 130.5 397.5 130.5C539.99 130.5 655.5 245.788 655.5 388Z" stroke="#5BC3FE"/>
<path d="M443.14 481.1C444.38 482.45 446.39 482.2 447.67 481.92C447.53 480.04 445.22 477.48 443.62 476.5C442.92 477.6 443.16 479.72 443.14 481.1ZM435.36 478.84L435.05 478.76C430.23 473.31 435.05 464.54 442.98 463.2C442.89 457.915 444.628 452.761 447.9 448.61C448.25 448.082 448.747 447.668 449.33 447.42C450.41 447.09 451.5 447.86 452.33 448.67C455.036 451.508 456.681 455.191 456.99 459.1C457.132 460.802 457.008 462.516 456.62 464.18C458.977 465.29 460.997 467.007 462.472 469.154C463.948 471.301 464.827 473.802 465.02 476.4L465.44 476.83C467.04 475.94 468.71 475.38 470.44 476.83C471.226 477.569 471.826 478.484 472.19 479.5L472.56 480.41C473.174 482.007 473.623 483.662 473.9 485.35C474.135 485.987 474.21 486.672 474.12 487.345C474.03 488.018 473.776 488.659 473.382 489.212C472.988 489.765 472.465 490.213 471.858 490.518C471.251 490.822 470.579 490.974 469.9 490.96C469.47 491.05 469.06 491.13 468.63 491.2C466.137 491.564 463.603 491.564 461.11 491.2C461.008 490.269 461.052 489.328 461.24 488.41H461.18C459.547 490.165 457.476 491.452 455.18 492.14C454.367 492.401 453.523 492.553 452.67 492.59C451.204 492.615 449.748 492.341 448.391 491.784C447.034 491.226 445.806 490.398 444.78 489.35L444.7 488.95C443.994 489.062 443.271 488.995 442.598 488.756C441.925 488.517 441.322 488.113 440.844 487.581C440.367 487.049 440.031 486.406 439.866 485.711C439.701 485.015 439.713 484.29 439.9 483.6C438.34 483.35 437.36 483.49 436.13 481.99C435.955 481.776 435.791 481.552 435.64 481.32C435.412 480.946 435.269 480.526 435.221 480.091C435.172 479.656 435.22 479.215 435.36 478.8V478.84Z" fill="#FDBA74"/>
<path d="M472.99 470.35C474.007 473.668 473.848 477.236 472.54 480.45L472.17 479.54C471.806 478.524 471.206 477.609 470.42 476.87C468.71 475.4 467.04 475.96 465.42 476.87L465 476.44C464.807 473.842 463.928 471.341 462.452 469.194C460.977 467.047 458.957 465.331 456.6 464.22C456.988 462.556 457.112 460.842 456.97 459.14H457.27C463.37 458.34 468.6 461.81 471.4 466.73C472.074 467.868 472.608 469.084 472.99 470.35Z" fill="#FDBA74"/>
<path d="M468.64 467.82C467.476 466.273 466.071 464.923 464.48 463.82C464.07 463.54 463.64 463.29 463.2 463.05L463.09 463C462.15 462.63 461.19 462.29 460.24 462L460 461.95H459.86H459.65C459.244 461.919 458.851 461.796 458.5 461.59L457.02 461.26C456.979 462.27 456.845 463.274 456.62 464.26C458.977 465.371 460.997 467.087 462.472 469.234C463.948 471.381 464.827 473.882 465.02 476.48L465.44 476.91C467.04 476.02 468.71 475.46 470.44 476.91C471.226 477.649 471.826 478.564 472.19 479.58L472.56 480.49C472.66 480.26 472.73 480.03 472.81 479.79C472.71 479.514 472.659 479.223 472.66 478.93C472.592 474.883 471.178 470.974 468.64 467.82Z" fill="#C8925B"/>
<path d="M444.92 463.2C445.761 463.496 446.65 463.628 447.54 463.59C447.979 463.555 448.398 463.398 448.752 463.136C449.106 462.875 449.379 462.519 449.54 462.11C449.665 461.584 449.665 461.036 449.54 460.51C449.28 458.98 449.03 457.45 448.76 455.93C448.52 454.56 448.54 453.59 447.5 454.74C447.04 455.26 445.11 463.27 444.92 463.2Z" fill="#C8925B"/>
<path d="M437.87 472.53C438.483 473.337 439.28 473.986 440.195 474.421C441.111 474.856 442.117 475.065 443.13 475.03C445.154 474.942 447.141 474.46 448.98 473.61C450.212 473.203 451.324 472.499 452.22 471.56C452.649 471.077 452.911 470.47 452.967 469.826C453.022 469.183 452.869 468.539 452.53 467.99C451.776 467.243 450.779 466.792 449.72 466.72L443.61 465.57C442.45 465.281 441.25 465.19 440.06 465.3C436.69 465.82 436.2 470.1 437.87 472.53Z" fill="#F9DBC1"/>
<path d="M230.42 388.03C257.239 388.03 278.98 366.289 278.98 339.47C278.98 312.651 257.239 290.91 230.42 290.91C203.601 290.91 181.86 312.651 181.86 339.47C181.86 366.289 203.601 388.03 230.42 388.03Z" fill="#06A5FF"/>
<path d="M230.42 395.89C261.58 395.89 286.84 370.63 286.84 339.47C286.84 308.31 261.58 283.05 230.42 283.05C199.26 283.05 174 308.31 174 339.47C174 370.63 199.26 395.89 230.42 395.89Z" stroke="#06A5FF" stroke-miterlimit="10"/>
<path d="M251.6 315.79H206.06C205.498 315.762 204.937 315.849 204.41 316.045C203.883 316.241 203.402 316.542 202.995 316.929C202.588 317.317 202.263 317.783 202.042 318.3C201.821 318.817 201.706 319.373 201.706 319.935C201.706 320.497 201.821 321.053 202.042 321.57C202.263 322.087 202.588 322.553 202.995 322.941C203.402 323.328 203.883 323.629 204.41 323.825C204.937 324.021 205.498 324.108 206.06 324.08H217.84C216.33 337.4 213.14 347.51 203.84 357.57C203.468 357.971 203.18 358.442 202.994 358.956C202.808 359.471 202.727 360.017 202.757 360.563C202.787 361.109 202.927 361.643 203.168 362.134C203.409 362.625 203.746 363.062 204.16 363.42C205.006 364.154 206.102 364.532 207.22 364.476C208.338 364.42 209.392 363.934 210.16 363.12C221.16 351.26 224.8 339.19 226.43 324.12H231.84C230.12 332.85 228.84 343.52 229.71 351.64C231.03 364.33 239.27 365.39 246.89 365.39C247.451 365.418 248.013 365.331 248.54 365.135C249.066 364.939 249.548 364.638 249.955 364.251C250.362 363.863 250.686 363.397 250.908 362.88C251.129 362.363 251.244 361.807 251.244 361.245C251.244 360.683 251.129 360.127 250.908 359.61C250.686 359.093 250.362 358.627 249.955 358.239C249.548 357.852 249.066 357.551 248.54 357.355C248.013 357.159 247.451 357.072 246.89 357.1C239.89 357.1 238.76 356.28 238.19 350.81C237.39 343.06 238.77 332.48 240.53 324.12H251.61C252.171 324.148 252.733 324.061 253.26 323.865C253.786 323.669 254.268 323.368 254.675 322.981C255.082 322.593 255.406 322.127 255.628 321.61C255.849 321.093 255.964 320.537 255.964 319.975C255.964 319.413 255.849 318.857 255.628 318.34C255.406 317.823 255.082 317.357 254.675 316.969C254.268 316.582 253.786 316.281 253.26 316.085C252.733 315.889 252.171 315.802 251.61 315.83L251.6 315.79Z" fill="white"/>
<path d="M396.99 380.32C396.449 384.013 395.381 387.61 393.82 391C393.48 391.72 393.11 392.43 392.71 393.12C389.727 398.361 385.051 402.434 379.45 404.67C371.9 407.8 363.6 406.99 355.93 403.79C355.18 403.48 354.44 403.14 353.7 402.79C351.347 401.645 349.092 400.307 346.96 398.79C339.61 393.56 334.19 386.09 329.96 378.2C322.79 364.96 320.9 348.2 330.85 335.84C341.65 322.4 361.29 313.44 377.75 321.51C399.25 328.3 395.47 334.89 391.11 343.28C392.54 349.77 397.73 375.64 396.99 380.32Z" fill="#F0C6BF"/>
<path d="M388.45 364.58C389.18 362.77 389.97 360.99 390.86 359.24C391.561 357.869 392.487 356.625 393.6 355.56C392.6 350.24 391.6 345.56 391.08 343.27C395.44 334.88 399.22 328.27 377.72 321.5C361.26 313.43 341.62 322.39 330.82 335.83C327.68 339.749 325.548 344.377 324.61 349.31C326.434 348.8 328.302 348.466 330.19 348.31C332.494 347.214 334.936 346.437 337.45 346C348.17 335.11 364.05 330.94 377.25 342.52C382.7 347.3 386.34 354.61 387.87 361.62C388.09 362.6 388.27 363.59 388.45 364.58Z" fill="#CF9B8E"/>
<path d="M355.68 404.35C353.93 412.35 366.25 422.04 382 416.54C397.75 411.04 401.63 397.75 393.38 393.54L392.71 393.16C393.11 392.47 393.48 391.76 393.82 391.04C403.91 391.8 408.82 412.26 385.02 420.57C361.22 428.88 347.78 412.64 353.64 402.87V402.81C354.38 403.17 355.12 403.51 355.87 403.81L355.68 404.35Z" fill="#D0EEFF"/>
<path d="M409.17 500.51C410.08 502.59 410.74 512.16 402.62 511.08C394.5 510 397.33 501.52 399.53 500.46C402.704 501.157 405.989 501.175 409.17 500.51Z" fill="#475569"/>
<path d="M415.31 494.72C417.67 494.12 425.37 498.3 420.01 504.06C414.85 509.59 409.27 503.29 408.22 500.98C411.092 499.556 413.535 497.396 415.3 494.72H415.31Z" fill="#475569"/>
<path d="M420.71 457.16C419.71 458.45 418.94 460.16 418.04 461.54C417.104 462.998 416.075 464.394 414.96 465.72C411.655 469.644 407.568 472.836 402.96 475.09C398.212 477.32 393.07 478.591 387.83 478.83C384.925 478.987 382.013 478.913 379.12 478.61C377.57 478.46 376.02 478.24 374.49 477.98C373.69 477.85 372.89 477.7 372.1 477.54C371.81 477.48 369.85 477.26 369.76 477.03C373.76 487.46 385.87 498.51 398.55 500.94C401.738 501.58 405.022 501.58 408.21 500.94C411.083 499.513 413.529 497.354 415.3 494.68L415.45 494.47C418.96 489.23 420.36 482.77 421.03 476.59C421.383 473.242 421.547 469.877 421.52 466.51C421.52 464.79 421.44 463.09 421.33 461.4C421.07 460.03 420.86 458.6 420.71 457.16Z" fill="#27B1FF"/>
<path d="M408.58 497.3C407.745 493.126 406.595 489.021 405.14 485.02C404.726 484.683 404.386 484.264 404.14 483.79C403.46 482.53 402.74 481.31 401.99 480.09C401.372 479.95 400.801 479.654 400.33 479.23L400.04 479.29C399.261 479.964 398.247 480.302 397.22 480.23C393.47 480.1 390.82 481.59 389.44 483.95L389.62 484.07C393.3 486.36 397.27 488.29 400.62 491.01C403.928 493.67 406.592 497.044 408.41 500.88C408.63 500.77 408.85 500.66 409.06 500.54C408.93 499.46 408.78 498.38 408.58 497.3Z" fill="#2778E0"/>
<path d="M245.77 441.81L245.09 442.49C243.445 444.066 242.209 446.019 241.49 448.18L241.13 448.09C235.97 446.93 213.82 442.41 211.04 439.2C210.743 438.889 210.526 438.512 210.406 438.099C210.286 437.687 210.267 437.251 210.35 436.83C210.483 436.426 210.708 436.059 211.009 435.759C211.309 435.458 211.676 435.233 212.08 435.1C212.893 434.85 213.74 434.728 214.59 434.74C222.4 434.45 236.13 437.92 243.76 440.04C244.53 440.67 245.2 441.27 245.77 441.81Z" fill="#F0C6BF"/>
<path d="M410.31 295.8C411.382 298.725 412.022 301.791 412.21 304.9C412.659 309.99 412.441 315.117 411.56 320.15C410.82 325.193 409.028 330.024 406.3 334.33C404.688 336.733 402.534 338.724 400.01 340.14C397.214 341.657 394.192 342.714 391.06 343.27C391.127 341.225 390.922 339.181 390.45 337.19C390.33 336.76 388.51 331.94 388.04 332.19C374.45 340.25 340.45 319.4 337.8 346.1H337.01C332.3 345.24 327.6 348.8 325.83 353.25C324.06 357.7 324.63 362.62 325.83 367.25C324.96 367.68 324.1 368.12 323.23 368.57C322.707 368.9 322.23 369.296 321.81 369.75L321.64 369.52C317.3 367.68 311.24 361.52 310.11 352.12C309.578 348.005 310.395 343.829 312.44 340.218C314.485 336.608 317.647 333.759 321.45 332.1C317.63 308.16 347.45 301.93 365.64 300.55C373.64 299.95 395 298.2 392.88 285.88C396.04 293.7 397.59 304.13 393.31 311.41C401.57 314.66 408.58 305.81 410.31 295.8Z" fill="#06A5FF"/>
<path d="M393.38 393.5C401.63 397.75 397.74 411.04 382 416.5C366.26 421.96 353.93 412.31 355.68 404.31L355.92 403.75C363.59 406.95 371.92 407.75 379.44 404.63C385.042 402.401 389.721 398.336 392.71 393.1L393.38 393.5Z" fill="#F0C6BF"/>
<path d="M369.25 411.99C369.83 412.13 370.42 412.26 371 412.37C375.24 413.187 379.602 413.133 383.82 412.21C385.508 411.716 387.239 411.381 388.99 411.21C391.32 411.1 392.32 410.73 393.89 408.93C397.73 404.49 399.75 396.81 393.38 393.53L392.71 393.15C389.721 398.38 385.047 402.442 379.45 404.67C371.9 407.8 363.6 406.99 355.93 403.79L355.69 404.35C355.614 404.726 355.567 405.107 355.55 405.49C355.55 404.95 358.47 406.96 358.65 407.09C359.893 408.003 361.211 408.809 362.59 409.5C364.71 410.577 366.944 411.413 369.25 411.99Z" fill="#CF9B8E"/>
<path d="M342.94 454.1H342.87C345.07 466.39 339.87 472.42 339.87 472.42C339.112 473.018 338.302 473.547 337.45 474C328.39 478.74 315.67 475 308.34 468.18C307.037 466.993 305.885 465.649 304.91 464.18C300.99 454.06 301.91 440.23 305.48 432.48C313.31 415.03 339.17 402.48 346.71 399.11L346.92 398.81C349.052 400.327 351.307 401.665 353.66 402.81V402.87C347.8 412.64 361.22 428.87 385.04 420.57C408.86 412.27 403.93 391.8 393.84 391.04C395.401 387.65 396.469 384.053 397.01 380.36L397.33 380.41C409.21 376.41 417.33 374.11 429.33 377.5C441.33 380.89 446.33 389.9 450.99 400.39C451.914 402.675 452.307 405.141 452.14 407.6C451.86 416.8 446.69 428.6 442.14 432.15C441.606 432.601 440.987 432.941 440.32 433.15C438.137 433.36 435.935 433.044 433.899 432.228C431.864 431.412 430.053 430.12 428.62 428.46H428.39C427.18 441.96 423.74 449.34 421.04 456.53C411.04 477.37 393.63 484.53 369.72 478.58C358.33 471.83 350.64 467.58 342.94 454.1Z" fill="#98D6FA"/>
<path d="M486.31 384.46V384.65C473.04 408.53 466.96 423.77 453.64 434.18C449.776 434.096 445.945 433.446 442.27 432.25L442.16 432.11C446.68 428.51 451.85 416.76 452.16 407.56H452.56L453.46 408.64C456.31 394.64 466.63 392.03 466.37 375.88C466.09 365.26 465.01 365.76 460.43 354.68C457.95 349.33 452.2 341.06 455.27 338.06C458.9 335.23 469.03 342.94 475.49 351.4C478.73 341.57 487.87 318.87 492.58 320.83C497.29 322.79 488.5 339.92 487.72 347.13C491.1 339.87 509.82 320.25 513.2 323.42C516.58 326.59 497.84 344.1 496.07 350.51C504.28 350.62 517.58 333.03 521.19 335.64C526 339.1 507.58 354.9 502.45 357.2C510.05 357.96 524.55 347.2 526.45 350.67C528.35 354.14 512.11 364.78 505.02 365.67C503.09 372.11 497.27 380.42 489.92 383.38C488.757 383.863 487.547 384.225 486.31 384.46Z" fill="#F0C6BF"/>
<path d="M271 467.1C269.361 467.52 267.688 467.794 266 467.92C261.932 468.23 257.883 467.112 254.55 464.76C253.149 463.89 251.836 462.885 250.63 461.76C248.731 459.95 246.482 458.547 244.02 457.64C237.39 458.25 230.02 458.87 223.41 459.48C223.001 459.576 222.576 459.581 222.164 459.495C221.753 459.408 221.366 459.233 221.03 458.98C220.782 458.652 220.648 458.252 220.648 457.84C220.648 457.428 220.782 457.028 221.03 456.7C221.505 456.022 222.14 455.472 222.88 455.1C228.13 452.1 234.76 449.24 240.79 449.1H241.42C241.41 448.913 241.41 448.727 241.42 448.54C241.42 448.43 241.42 448.31 241.47 448.19C242.189 446.029 243.425 444.076 245.07 442.5L245.75 441.82C245.18 441.28 244.51 440.68 243.75 440.02C235.6 432.89 218.35 419.81 220.75 415.25C223.44 410.12 244.09 426.58 250.15 431.43L250.44 431.36C248.15 422.23 242 406.36 244.59 404.25C249.05 400.66 260.33 426.39 266.42 432.49L267.24 432.78C269.56 426.1 273.24 419.43 277.29 415.78C278.8 414.39 280.96 413.07 282.79 414C283.329 414.326 283.78 414.779 284.104 415.319C284.428 415.86 284.616 416.471 284.65 417.1C284.683 418.363 284.545 419.624 284.24 420.85C282.54 430.14 280.24 444.19 285.24 452.2C295.46 464.45 304.35 466.86 310.42 472.8L310.5 472.72C309.03 471.23 307.98 470 308.23 468.4L308.42 468.2C315.75 475.05 328.47 478.76 337.53 474.02L337.75 474.43C337.18 481.29 336.42 486.43 333.75 491.77C312.85 503.12 286.86 484.64 271.22 467.63L271 467.1Z" fill="#F0C6BF"/>
<path d="M334.15 389.43C331.89 389.43 330.54 389.19 329.87 387.9L322.18 373.21C321.921 372.761 321.82 372.237 321.894 371.724C321.969 371.211 322.214 370.737 322.59 370.38C322.945 369.992 323.352 369.656 323.8 369.38C324.58 368.98 325.43 368.54 326.3 368.11C334.09 364.098 342.365 361.107 350.92 359.21C351.189 359.174 351.459 359.154 351.73 359.15C352.194 359.112 352.661 359.183 353.093 359.356C353.525 359.53 353.911 359.801 354.22 360.15C354.415 360.426 354.551 360.739 354.62 361.07L358.18 377.33C358.47 378.66 357.78 379.85 355.88 381.28C350.035 384.776 343.678 387.333 337.04 388.86C336.11 389.07 335.19 389.26 334.28 389.41L334.15 389.43Z" fill="white"/>
<path d="M351.73 360.15C352.038 360.122 352.348 360.162 352.638 360.267C352.929 360.373 353.192 360.541 353.41 360.76C353.526 360.924 353.604 361.112 353.64 361.31L353.75 361.81L357.2 377.56C357.34 378.19 357.2 379.03 355.32 380.47C349.576 383.9 343.33 386.41 336.81 387.91C335.94 388.11 335.06 388.28 334.2 388.43H334.15C332 388.43 331.15 388.18 330.76 387.43L323.07 372.74C322.901 372.476 322.833 372.159 322.878 371.848C322.924 371.537 323.081 371.254 323.32 371.05C323.6 370.75 323.916 370.484 324.26 370.26C325.09 369.83 325.91 369.41 326.74 369C334.432 365.034 342.603 362.073 351.05 360.19C351.277 360.176 351.504 360.176 351.73 360.19V360.15ZM351.73 358.19C351.395 358.193 351.061 358.22 350.73 358.27C342.092 360.193 333.737 363.218 325.87 367.27C325 367.7 324.14 368.14 323.27 368.59C322.747 368.92 322.27 369.316 321.85 369.77C321.333 370.285 321 370.955 320.902 371.679C320.805 372.402 320.948 373.137 321.31 373.77L329 388.46C330 390.35 332.05 390.52 334.17 390.52H334.38C335.38 390.36 336.31 390.17 337.27 389.95C344.036 388.356 350.508 385.707 356.45 382.1C358.21 380.78 359.63 379.21 359.17 377.1L355.72 361.34L355.61 360.84C355.514 360.376 355.324 359.937 355.05 359.55C354.658 359.06 354.153 358.673 353.578 358.422C353.003 358.171 352.376 358.064 351.75 358.11L351.73 358.19Z" fill="black"/>
<path d="M376.31 373.34C374.5 373.34 373.44 372.88 372.87 371.84L364.87 357.25C364.639 356.857 364.528 356.405 364.55 355.95C364.649 355.402 364.873 354.885 365.204 354.437C365.536 353.99 365.965 353.625 366.46 353.37C374.265 349.116 382.592 345.899 391.23 343.8L393.61 343.19C393.862 343.158 394.116 343.141 394.37 343.14H394.63C396.13 343.14 396.98 343.8 397.26 345.02L401.14 361.14C401.48 362.55 400.59 363.66 398.82 365.14C398.28 365.48 397.72 365.8 397.16 366.14C390.946 369.597 384.206 372.01 377.21 373.28L376.31 373.34Z" fill="white"/>
<path d="M394.36 344.1H394.63C396.03 344.1 396.19 344.83 396.28 345.22L400.16 361.33C400.35 362.15 399.88 362.89 398.22 364.33C397.66 364.67 397.16 364.97 396.65 365.25C390.552 368.636 383.942 371 377.08 372.25H376.31C374.31 372.25 373.92 371.58 373.75 371.25L366.91 358.79L365.74 356.66C365.599 356.432 365.529 356.168 365.54 355.9C365.637 355.523 365.811 355.171 366.052 354.867C366.293 354.562 366.596 354.311 366.94 354.13C374.671 349.96 382.909 346.811 391.45 344.76L393.72 344.18C393.923 344.167 394.127 344.167 394.33 344.18L394.36 344.1ZM394.33 342.18C393.995 342.183 393.661 342.21 393.33 342.26L390.93 342.87C382.192 345.006 373.769 348.267 365.87 352.57C365.242 352.907 364.701 353.387 364.291 353.97C363.882 354.553 363.614 355.225 363.51 355.93C363.476 356.573 363.629 357.212 363.95 357.77L365.12 359.9L371.96 372.36C372.84 373.95 374.48 374.36 376.28 374.36C376.62 374.36 376.96 374.36 377.28 374.36C384.4 373.08 391.26 370.63 397.58 367.11C398.18 366.78 398.77 366.43 399.35 366.11C401.02 364.67 402.56 363.16 402.05 361.02L398.17 344.9C397.995 344.11 397.543 343.408 396.895 342.922C396.248 342.436 395.448 342.197 394.64 342.25L394.33 342.18Z" fill="black"/>
<path d="M365.45 360.41C362.112 360.852 358.959 362.197 356.33 364.3L354.53 359.05C357.291 357.323 360.404 356.236 363.64 355.87L365.45 360.41Z" fill="black"/>
<path d="M371.45 375.1C372.02 375.501 372.526 375.986 372.95 376.54C373.1 376.74 373.17 377.03 373.32 377.21C373.47 377.39 373.8 377.57 373.98 377.82C374.076 377.937 374.143 378.075 374.174 378.223C374.205 378.371 374.201 378.524 374.16 378.67C374.024 378.939 373.807 379.16 373.54 379.3C372.764 379.721 372.059 380.261 371.45 380.9C370.99 381.47 370.34 381.9 369.59 381.46C369.492 381.39 369.409 381.3 369.349 381.195C369.288 381.091 369.25 380.975 369.238 380.854C369.226 380.734 369.239 380.613 369.277 380.498C369.316 380.384 369.378 380.279 369.46 380.19C369.74 379.82 370.08 379.83 370.46 379.6C370.604 379.527 370.73 379.422 370.828 379.294C370.927 379.166 370.996 379.018 371.03 378.86C371.028 378.617 370.974 378.378 370.87 378.159C370.766 377.94 370.616 377.745 370.43 377.59L368.19 375.1C368.01 374.9 366.6 373.63 367.3 373.3C368 372.97 369.85 373.96 371.45 375.1Z" fill="#CF9B8E"/>
<g style="mix-blend-mode:multiply">
<path d="M451.01 400.35C446.38 389.86 441.4 380.84 429.35 377.46C417.3 374.08 409.19 376.46 397.35 380.37L397.03 380.32C396.485 384.013 395.425 387.611 393.88 391.01C395.468 391.192 396.978 391.799 398.251 392.767C399.523 393.735 400.511 395.028 401.11 396.51H402.11L402.6 396.06C409.42 390.13 419.35 385.32 428.6 386.06C434.43 386.56 439.3 390.75 442.98 394.98C444.937 397.216 446.681 399.63 448.19 402.19C449.19 403.89 452.28 407.56 452.09 409.44C452.16 408.79 452.21 408.14 452.22 407.51C452.36 405.063 451.947 402.615 451.01 400.35Z" fill="#98D6FA"/>
</g>
<g style="mix-blend-mode:multiply">
<path d="M343.86 455.68C342.974 446.632 338.889 438.196 332.34 431.89C332.98 445.66 328.15 457.82 327.4 471.08C327.258 472.769 327.455 474.469 327.98 476.08C331.273 476.171 334.538 475.443 337.48 473.96C338.316 473.527 339.112 473.022 339.86 472.45C339.86 472.45 345.07 466.45 342.86 454.13H342.93C343.25 454.67 343.56 455.17 343.86 455.68Z" fill="#98D6FA"/>
</g>
<g style="mix-blend-mode:multiply">
<path d="M421.09 456.47C423.58 449.85 426.68 443.07 428.09 431.47C427.556 425.019 426.553 418.616 425.09 412.31C424.52 409.77 422.53 400.46 418.47 403.7C417.1 404.8 417.1 407.99 416.93 409.59C416.06 418.21 414.62 432.1 407 437.59C405.677 438.377 404.449 439.313 403.34 440.38C402.34 441.54 401.8 443.32 402.62 444.62C403.62 446.21 405.85 446.23 407.62 446.78C415.32 449.16 412.74 459.04 409.62 463.84C405.515 470.061 400.212 475.402 394.02 479.55C405.78 477.1 414.85 469.42 421.09 456.47Z" fill="#98D6FA"/>
</g>
<path d="M451.86 410.97C450.737 418.823 447.408 426.195 442.26 432.23C446.87 433.75 451.87 434.62 454.84 429.98C458.03 424.98 458.68 417.45 456.29 412.13C456.06 411.62 453.6 408.06 453.64 407.9C453.58 408.14 453.53 408.39 453.46 408.65L453.01 408.11L452.56 407.57H452.16C452.74 407.57 452.45 409.19 451.86 410.97Z" fill="#CF9B8E"/>
<path d="M477.99 381.71C477.215 381.037 476.515 380.282 475.9 379.46C475.01 378.35 474.03 376.07 472.53 375.65C472.39 375.603 472.238 375.6 472.097 375.643C471.955 375.686 471.83 375.773 471.74 375.89C471.53 376.23 471.74 376.66 471.96 376.99C474.35 380.67 476.29 383.64 477.22 387.99C477.794 390.686 477.886 393.462 477.49 396.19C477.051 398.674 476.138 401.051 474.8 403.19L464.09 422.96L464.5 422.84C468.802 416.742 472.665 410.346 476.06 403.7C478.19 399.7 480.29 395.76 482.43 391.79C482.99 390.79 486.19 386.41 485.81 385.38C485.347 384.684 484.709 384.122 483.96 383.75C483.384 383.574 482.791 383.463 482.19 383.42C480.651 383.28 479.189 382.684 477.99 381.71Z" fill="#CF9B8E"/>
<path d="M476.25 352.34C476.66 353.06 477.25 353.78 477.54 354.34C478.13 355.34 478.9 356.34 479.44 357.34C479.98 358.34 480.35 359.4 480.81 360.42L482.72 364.61C482.93 365.08 483.65 367.76 484.5 366.91C484.622 366.747 484.708 366.561 484.755 366.363C484.801 366.165 484.806 365.96 484.77 365.76C484.678 364.224 484.423 362.702 484.01 361.22C483.61 359.83 482.93 358.56 482.47 357.22C481.568 354.494 480.216 351.939 478.47 349.66C478 349.007 477.383 348.473 476.67 348.1C476.38 348.9 475.6 350.23 475.74 351.1C475.836 351.54 476.008 351.96 476.25 352.34Z" fill="#CF9B8E"/>
<path d="M337.7 474.41L337.48 474C328.42 478.74 315.7 475 308.37 468.18L308.18 468.38C307.93 469.98 308.98 471.21 310.45 472.7L310.37 472.78C309.809 472.222 309.218 471.695 308.6 471.2C310.41 474.58 315.13 476.8 317.98 478.81C320.375 480.398 322.609 482.217 324.65 484.24C325.46 485.1 328.29 490.62 328.83 490.77C329.837 491.011 330.884 491.024 331.897 490.808C332.909 490.591 333.86 490.151 334.68 489.52C336.58 484.94 337.21 480.31 337.7 474.41Z" fill="#CF9B8E"/>
<path d="M300.87 465.86L300.8 465.81L300.06 465.32L299.79 465.14C299.59 465.02 299.4 464.89 299.21 464.75L298.89 464.54L298.35 464.16C298.23 464.09 298.12 464 298 463.92L297.47 463.54C297.35 463.46 297.23 463.38 297.12 463.29L296.56 462.89L296.22 462.63L295.64 462.2L295.3 461.94L294.65 461.43L294.39 461.22C294.08 460.98 293.76 460.72 293.45 460.46L293.34 460.37L292.51 459.67L292.19 459.38L291.57 458.83L291.19 458.48L290.6 457.94L290.2 457.56L289.62 456.99L289.21 456.59L288.63 455.99L288.22 455.57L287.61 454.92L287.22 454.5L286.55 453.75L286.21 453.37L285.21 452.21C281.8 446.74 281.55 439.99 282.44 433.45C282.82 428.95 283.59 424.53 284.26 420.86C284.565 419.634 284.703 418.373 284.67 417.11C284.643 416.478 284.461 415.862 284.14 415.316C283.819 414.77 283.369 414.311 282.83 413.98C282.233 413.734 281.583 413.643 280.941 413.717C280.299 413.79 279.686 414.025 279.16 414.4C279.126 414.539 279.13 414.684 279.17 414.821C279.21 414.958 279.286 415.082 279.39 415.18C279.88 415.63 280.65 415.33 281.31 415.43C281.639 415.508 281.942 415.668 282.192 415.896C282.443 416.123 282.631 416.41 282.74 416.73C282.938 417.377 283.003 418.057 282.93 418.73C282.68 422.27 280.93 425.32 280.34 428.73C279.621 433.006 279.499 437.361 279.98 441.67C280.53 446.43 281.47 451.16 281.44 455.96C281.44 457.96 281.44 460.16 280.44 461.96C279.73 463.22 277.27 465.37 278.24 466.96C278.464 467.264 278.776 467.492 279.133 467.614C279.491 467.735 279.877 467.744 280.24 467.64C280.948 467.419 281.621 467.099 282.24 466.69C285.297 465.163 288.76 464.645 292.13 465.21C295.472 465.78 298.744 466.705 301.89 467.97C301.56 467.29 301.21 466.58 300.87 465.86ZM266.73 432.58L266.44 432.48C261.78 427.81 254.09 411.66 248.73 405.94C248.551 406.1 248.413 406.301 248.328 406.525C248.243 406.75 248.212 406.991 248.24 407.23C248.362 407.859 248.614 408.455 248.98 408.98C250.29 411.22 250.98 413.54 252.62 415.58C254.5 417.96 256.17 420.53 257.94 422.99C260.42 426.45 262.81 430.47 262.94 434.85C262.929 438.548 263.163 442.243 263.64 445.91C263.83 447.11 264.49 448.61 265.64 448.44C266.79 448.27 267.04 446.77 267.02 445.63C267 443.96 267.3 436.98 266.73 432.58Z" fill="#CF9B8E"/>
<path d="M356.52 393.2C351.9 389.5 380.15 383.59 384.57 379.2C388.46 382.84 386.12 394.52 376.78 397.38C367.44 400.24 361.45 399.43 356.52 393.2Z" fill="#CF9B8E"/>
<path d="M226.53 415.27C226.18 415.88 226.53 416.92 228.29 418.37L251.37 437.96C251.482 435.654 251.01 433.356 250 431.28C245.51 427.68 233.78 418.37 226.53 415.27Z" fill="#CF9B8E"/>
<path d="M443.62 476.46C445.22 477.46 447.53 480 447.67 481.88C446.39 482.16 444.38 482.41 443.14 481.06C443.16 479.72 442.92 477.6 443.62 476.46Z" fill="black"/>
<path d="M455.92 477.95C456.027 478.344 456.023 478.76 455.908 479.152C455.794 479.544 455.574 479.897 455.272 480.172C454.97 480.447 454.599 480.633 454.198 480.71C453.797 480.788 453.382 480.753 453 480.61C452.653 480.458 452.353 480.217 452.13 479.91C451.85 479.499 451.717 479.006 451.754 478.51C451.79 478.014 451.993 477.546 452.33 477.18C452.578 476.901 452.896 476.693 453.25 476.577C453.605 476.461 453.984 476.441 454.349 476.519C454.714 476.597 455.052 476.771 455.328 477.022C455.604 477.274 455.808 477.594 455.92 477.95Z" fill="black"/>
<path d="M445.03 469.04C445.37 469.206 445.638 469.49 445.783 469.84C445.929 470.189 445.941 470.58 445.818 470.938C445.695 471.295 445.445 471.596 445.116 471.783C444.786 471.969 444.4 472.029 444.03 471.95C443.815 471.904 443.613 471.814 443.436 471.684C443.259 471.554 443.111 471.389 443.003 471.198C442.895 471.007 442.829 470.795 442.808 470.576C442.788 470.358 442.815 470.138 442.886 469.93C442.957 469.723 443.072 469.533 443.222 469.373C443.372 469.213 443.555 469.086 443.758 469.002C443.96 468.918 444.178 468.878 444.398 468.885C444.617 468.891 444.833 468.944 445.03 469.04Z" fill="black"/>
<path d="M433.24 492.85C433.395 492.135 433.766 491.485 434.302 490.988C434.839 490.491 435.515 490.17 436.24 490.07C434.85 486.96 435 483.5 436.11 482.07C437.34 483.57 438.32 483.43 439.88 483.68C439.693 484.37 439.681 485.095 439.846 485.791C440.011 486.486 440.347 487.129 440.824 487.661C441.302 488.193 441.905 488.597 442.578 488.836C443.252 489.075 443.974 489.142 444.68 489.03L444.76 489.43C445.786 490.478 447.014 491.306 448.371 491.864C449.728 492.421 451.184 492.695 452.65 492.67C453.503 492.633 454.347 492.481 455.16 492.22L455.24 492.45C452.182 494.853 448.388 496.125 444.5 496.05V496.17C445.75 497.17 446.77 500.01 443.64 501.29C440.51 502.57 437.19 499.2 438.95 496.19C438.398 496.672 437.709 496.968 436.98 497.037C436.251 497.107 435.519 496.946 434.886 496.577C434.253 496.208 433.752 495.65 433.453 494.981C433.155 494.313 433.073 493.567 433.22 492.85H433.24Z" fill="#FDBA74"/>
<path d="M436.07 484.78C436.669 485.261 437.221 485.796 437.72 486.38C438.488 487.435 438.985 488.662 439.17 489.953C439.355 491.245 439.221 492.562 438.78 493.79C438.44 494.71 438.02 495.79 436.83 495.79C436.54 495.79 436.25 495.7 435.96 495.7C435.812 495.688 435.664 495.718 435.533 495.787C435.402 495.856 435.294 495.961 435.22 496.09C435.177 496.206 435.168 496.332 435.194 496.452C435.221 496.573 435.282 496.683 435.37 496.77C435.545 496.947 435.767 497.068 436.01 497.12C438.83 497.87 439.55 494.48 440.56 492.64C441.09 491.64 441.89 490.5 443.13 490.47C444.19 490.47 444.79 491.35 445.59 491.99C446.646 492.829 447.759 493.594 448.92 494.28L445.73 494.49C444.38 494.58 442.89 495.16 442.88 496.76C443.368 498.098 444.071 499.348 444.96 500.46C446.27 499.3 445.75 497.16 444.52 496.16V496.04C448.408 496.115 452.202 494.843 455.26 492.44L455.18 492.21C454.367 492.471 453.523 492.623 452.67 492.66C451.204 492.685 449.748 492.411 448.391 491.854C447.034 491.296 445.806 490.468 444.78 489.42L444.7 489.02C443.994 489.132 443.272 489.065 442.598 488.826C441.925 488.587 441.322 488.183 440.844 487.651C440.367 487.119 440.031 486.476 439.866 485.781C439.701 485.085 439.713 484.36 439.9 483.67C438.34 483.42 437.36 483.56 436.13 482.06C435.07 483.41 435.39 484.1 436.07 484.78Z" fill="#C8925B"/>
<path d="M461.1 491.28C463.593 491.644 466.127 491.644 468.62 491.28C466.06 492.99 464.28 493.37 462.12 497.28C461.386 498.534 460.567 499.737 459.67 500.88C455.67 505.88 450.1 502.29 454.28 497.75C458.08 493.61 453.99 493.68 457.9 491.19V491.13C459.138 490.45 460.256 489.572 461.21 488.53H461.27C461.073 489.433 461.015 490.36 461.1 491.28Z" fill="#FDBA74"/>
<path d="M461.1 491.28C460.998 490.349 461.042 489.408 461.23 488.49H461.17C460.216 489.532 459.098 490.41 457.86 491.09V491.15C456.7 491.89 456.26 492.4 456.09 492.86C456.379 492.532 456.753 492.29 457.17 492.16C457.744 492.004 458.357 492.081 458.874 492.375C459.392 492.669 459.771 493.157 459.93 493.73C459.93 493.88 459.93 494.02 460 494.17C460.121 494.291 460.231 494.421 460.33 494.56C461.077 495.652 461.471 496.947 461.46 498.27C461.7 497.9 461.92 497.54 462.08 497.27C464.24 493.37 466.02 492.99 468.58 491.27C466.1 491.634 463.581 491.637 461.1 491.28Z" fill="#C8925B"/>
<path d="M478.65 449.41C483.29 451.12 485.77 455.65 485.11 461.85C484.45 468.05 477.45 472.1 473.45 470.21L472.98 470.35C472.607 469.071 472.08 467.842 471.41 466.69L471.54 466.61C474.6 466.45 478.18 465.75 479.88 461.54C481.58 457.33 479.45 452.26 478.65 449.41Z" fill="#FDBA74"/>
<path d="M461.12 486.34C461.12 486.55 461.06 486.75 461.04 486.95C461.02 487.15 461.04 487.47 461.23 487.6C461.332 487.653 461.45 487.669 461.563 487.646C461.676 487.622 461.778 487.56 461.85 487.47C461.987 487.286 462.098 487.084 462.18 486.87C462.65 485.87 463.53 485.75 464.39 485.28C465.267 484.783 466.072 484.167 466.78 483.45C468.62 481.63 467.09 478.45 464.67 479.94C462.78 481.1 461.45 484.1 461.12 486.34Z" fill="#C8925B"/>
<path d="M440.28 482.1C439.99 482.21 439.65 482.38 439.62 482.7C439.59 483.02 439.69 483.52 439.92 483.7C440.15 483.88 440.67 483.79 441.01 483.77C441.193 483.733 441.367 483.661 441.522 483.556C441.676 483.451 441.808 483.317 441.91 483.16C442.19 482.82 443.07 481.83 442.45 481.47C442 481.17 440.73 481.93 440.28 482.1Z" fill="#C8925B"/>
<path d="M270.45 334.1C280.84 346.78 290.02 352.43 298.73 355.29C288.87 359.55 277.58 361 264.61 359.14C262.26 350.41 263.58 340.1 270.45 334.1Z" fill="#06A5FF"/>
<path d="M486.12 297.94C517.076 297.94 542.17 272.846 542.17 241.89C542.17 210.934 517.076 185.84 486.12 185.84C455.165 185.84 430.07 210.934 430.07 241.89C430.07 272.846 455.165 297.94 486.12 297.94Z" fill="#06A5FF"/>
<path d="M486.12 303.78C520.301 303.78 548.01 276.071 548.01 241.89C548.01 207.709 520.301 180 486.12 180C451.939 180 424.23 207.709 424.23 241.89C424.23 276.071 451.939 303.78 486.12 303.78Z" stroke="#06A5FF" stroke-miterlimit="10"/>
<path d="M481.95 252.63V260.1H454.39V225.8H481.31V233.31H464.01V239.1H479.26V246.36H464.01V252.64L481.95 252.63Z" fill="white"/>
<path d="M520.01 225.8V260.1H512.01L496.86 241.84V260.1H487.35V225.8H495.35L510.45 244.1V225.8H520.01Z" fill="white"/>
<path d="M488.53 289.56C484.05 305.24 455.18 322 448.79 316.8C458.91 299.18 464.28 282.08 455.08 278.87L488.53 289.56Z" fill="#06A5FF"/>
<path d="M348.96 591.39C367.417 591.39 382.38 576.427 382.38 557.97C382.38 539.513 367.417 524.55 348.96 524.55C330.503 524.55 315.54 539.513 315.54 557.97C315.54 576.427 330.503 591.39 348.96 591.39Z" fill="#06A5FF"/>
<path d="M348.96 597.9C371.013 597.9 388.89 580.023 388.89 557.97C388.89 535.917 371.013 518.04 348.96 518.04C326.907 518.04 309.03 535.917 309.03 557.97C309.03 580.023 326.907 597.9 348.96 597.9Z" stroke="#06A5FF" stroke-miterlimit="10"/>
<path d="M361.11 582.54H336.8C336.355 582.541 335.918 582.424 335.533 582.201C335.148 581.978 334.83 581.657 334.61 581.27C334.377 580.862 334.254 580.4 334.254 579.93C334.254 579.46 334.377 578.998 334.61 578.59L345.23 560.85V539.76H352.7V560.85L363.3 578.56C363.538 578.972 363.663 579.439 363.663 579.915C363.663 580.391 363.538 580.858 363.3 581.27C363.08 581.657 362.762 581.978 362.377 582.201C361.992 582.424 361.555 582.541 361.11 582.54ZM336.95 579.87H360.95L350.01 561.59V542.44H347.9V561.59L336.95 579.87Z" fill="white"/>
<path d="M356.19 569.12H341.72L335.49 580.91H361.99L356.19 569.12Z" fill="white"/>
<path d="M338.45 555.67C337.761 555.67 337.088 555.466 336.516 555.083C335.943 554.7 335.497 554.156 335.234 553.519C334.971 552.883 334.902 552.183 335.038 551.507C335.173 550.832 335.505 550.212 335.993 549.726C336.48 549.239 337.101 548.909 337.777 548.776C338.453 548.643 339.153 548.713 339.789 548.978C340.424 549.243 340.967 549.69 341.348 550.264C341.73 550.838 341.932 551.511 341.93 552.2C341.927 553.121 341.559 554.004 340.907 554.654C340.255 555.305 339.371 555.67 338.45 555.67ZM338.45 550.49C338.215 550.472 337.979 550.503 337.757 550.58C337.534 550.658 337.33 550.78 337.157 550.941C336.984 551.101 336.847 551.295 336.752 551.511C336.658 551.726 336.609 551.959 336.609 552.195C336.609 552.431 336.658 552.664 336.752 552.879C336.847 553.095 336.984 553.289 337.157 553.45C337.33 553.61 337.534 553.732 337.757 553.81C337.979 553.887 338.215 553.918 338.45 553.9C338.88 553.867 339.281 553.673 339.574 553.357C339.867 553.041 340.029 552.626 340.029 552.195C340.029 551.764 339.867 551.349 339.574 551.033C339.281 550.717 338.88 550.523 338.45 550.49Z" fill="white"/>
<path d="M352.87 538.16C352.179 538.162 351.504 537.959 350.928 537.577C350.353 537.194 349.904 536.65 349.639 536.013C349.373 535.375 349.302 534.673 349.436 533.995C349.569 533.318 349.901 532.695 350.389 532.206C350.876 531.717 351.498 531.383 352.175 531.248C352.853 531.112 353.555 531.181 354.193 531.445C354.832 531.709 355.377 532.156 355.761 532.73C356.145 533.304 356.35 533.979 356.35 534.67C356.347 535.593 355.98 536.478 355.328 537.131C354.677 537.785 353.793 538.155 352.87 538.16ZM352.87 532.96C352.532 532.96 352.201 533.06 351.92 533.248C351.639 533.436 351.42 533.703 351.29 534.016C351.161 534.328 351.127 534.672 351.193 535.004C351.259 535.335 351.422 535.64 351.661 535.879C351.9 536.118 352.205 536.281 352.536 536.347C352.868 536.413 353.212 536.379 353.524 536.25C353.837 536.12 354.104 535.901 354.292 535.62C354.48 535.339 354.58 535.008 354.58 534.67C354.577 534.217 354.396 533.784 354.076 533.464C353.756 533.144 353.323 532.963 352.87 532.96Z" fill="white"/>
<path d="M365.62 554.72C364.464 554.722 363.334 554.381 362.372 553.74C361.41 553.099 360.66 552.187 360.216 551.12C359.773 550.052 359.657 548.877 359.882 547.743C360.107 546.609 360.663 545.568 361.481 544.751C362.298 543.933 363.339 543.377 364.473 543.152C365.607 542.927 366.782 543.043 367.85 543.487C368.917 543.93 369.829 544.68 370.47 545.642C371.111 546.604 371.452 547.734 371.45 548.89C371.447 550.435 370.832 551.917 369.74 553.01C368.647 554.102 367.165 554.717 365.62 554.72ZM365.62 544.83C364.817 544.83 364.032 545.068 363.364 545.514C362.697 545.96 362.176 546.594 361.869 547.336C361.562 548.078 361.481 548.895 361.638 549.682C361.795 550.47 362.181 551.193 362.749 551.761C363.317 552.329 364.04 552.715 364.828 552.872C365.616 553.029 366.432 552.948 367.174 552.641C367.916 552.334 368.55 551.813 368.996 551.146C369.442 550.478 369.68 549.693 369.68 548.89C369.677 547.814 369.249 546.783 368.488 546.022C367.727 545.261 366.696 544.833 365.62 544.83Z" fill="white"/>
<path d="M332.35 567.88C331.361 567.88 330.394 567.587 329.572 567.037C328.75 566.488 328.109 565.707 327.731 564.793C327.352 563.88 327.253 562.874 327.446 561.905C327.639 560.935 328.115 560.044 328.814 559.344C329.514 558.645 330.405 558.169 331.375 557.976C332.344 557.783 333.35 557.882 334.263 558.261C335.177 558.639 335.958 559.28 336.507 560.102C337.057 560.924 337.35 561.891 337.35 562.88C337.35 563.537 337.221 564.187 336.969 564.793C336.718 565.4 336.35 565.951 335.886 566.416C335.421 566.88 334.87 567.248 334.263 567.499C333.657 567.751 333.007 567.88 332.35 567.88ZM332.35 559.64C331.711 559.64 331.087 559.829 330.555 560.184C330.024 560.539 329.61 561.044 329.366 561.634C329.121 562.224 329.057 562.874 329.182 563.5C329.307 564.127 329.614 564.702 330.066 565.154C330.518 565.606 331.093 565.913 331.72 566.038C332.346 566.163 332.996 566.099 333.586 565.854C334.176 565.61 334.681 565.196 335.036 564.664C335.391 564.133 335.58 563.509 335.58 562.87C335.577 562.014 335.236 561.194 334.631 560.589C334.026 559.984 333.206 559.643 332.35 559.64Z" fill="white"/>
<path d="M362.39 567.67C361.614 567.672 360.855 567.444 360.209 567.014C359.563 566.585 359.059 565.973 358.761 565.257C358.463 564.541 358.384 563.752 358.534 562.991C358.684 562.23 359.057 561.531 359.605 560.982C360.152 560.432 360.851 560.058 361.612 559.906C362.372 559.754 363.161 559.831 363.878 560.127C364.595 560.424 365.207 560.926 365.639 561.571C366.07 562.216 366.3 562.974 366.3 563.75C366.3 564.788 365.888 565.783 365.155 566.518C364.422 567.253 363.428 567.667 362.39 567.67ZM362.39 561.62C361.966 561.62 361.552 561.746 361.2 561.981C360.848 562.217 360.574 562.552 360.412 562.943C360.25 563.335 360.208 563.766 360.292 564.181C360.375 564.597 360.58 564.978 360.88 565.277C361.181 565.576 361.563 565.779 361.979 565.86C362.394 565.942 362.825 565.898 363.216 565.734C363.607 565.571 363.94 565.295 364.174 564.942C364.408 564.588 364.532 564.174 364.53 563.75C364.527 563.184 364.301 562.642 363.9 562.243C363.499 561.844 362.956 561.62 362.39 561.62Z" fill="white"/>
<path d="M371.14 543.63C377.77 544.43 385.43 519.92 381.61 514.05C375.51 521.38 369.8 523.99 360.82 527.05C362.45 532.1 371.14 543.63 371.14 543.63Z" fill="#06A5FF"/>
<path d="M557.81 504.66C576.577 504.66 591.79 489.447 591.79 470.68C591.79 451.913 576.577 436.7 557.81 436.7C539.043 436.7 523.83 451.913 523.83 470.68C523.83 489.447 539.043 504.66 557.81 504.66Z" fill="#06A5FF"/>
<path d="M557.81 507.96C578.399 507.96 595.09 491.269 595.09 470.68C595.09 450.091 578.399 433.4 557.81 433.4C537.221 433.4 520.53 450.091 520.53 470.68C520.53 491.269 537.221 507.96 557.81 507.96Z" stroke="#06A5FF" stroke-miterlimit="10"/>
<path d="M561.38 494.1C559.471 494.029 557.601 493.535 555.906 492.653C554.211 491.771 552.733 490.523 551.58 489C549.511 489.485 547.338 489.264 545.41 488.37C542.671 487.159 540.517 484.922 539.41 482.14C537.7 477.57 538.92 471.82 542.52 467.49C545.27 464.18 549.33 461.54 554.92 459.41L556.92 458.68C559.296 457.943 561.57 456.911 563.69 455.61C565.8 454.18 568.01 451.61 567.85 448.67C567.83 448.37 567.91 448.072 568.078 447.822C568.247 447.573 568.493 447.387 568.779 447.294C569.065 447.201 569.374 447.206 569.657 447.309C569.94 447.411 570.18 447.605 570.34 447.86C575.735 456.17 577.954 466.146 576.59 475.96C576.197 479.959 574.875 483.812 572.73 487.21C571.619 488.968 570.158 490.479 568.437 491.647C566.717 492.815 564.774 493.616 562.73 494C562.284 494.072 561.832 494.106 561.38 494.1ZM552.16 486.03C552.4 486.033 552.635 486.098 552.841 486.219C553.048 486.34 553.22 486.512 553.34 486.72C555 489.64 559.17 491.78 562.26 491.32C563.938 490.995 565.53 490.328 566.939 489.361C568.348 488.395 569.543 487.148 570.45 485.7C572.352 482.65 573.52 479.199 573.86 475.62C575.021 467.652 573.62 459.521 569.86 452.4C568.854 454.624 567.243 456.519 565.21 457.87C562.907 459.299 560.434 460.434 557.85 461.25L555.92 461.96C550.77 463.96 547.09 466.29 544.64 469.23C541.64 472.83 540.64 477.52 541.99 481.23C542.821 483.333 544.449 485.022 546.52 485.93C547.318 486.313 548.185 486.533 549.07 486.576C549.954 486.619 550.838 486.484 551.67 486.18C551.824 486.105 551.99 486.057 552.16 486.04V486.03Z" fill="white"/>
<path d="M552.16 488.76C551.851 488.761 551.551 488.656 551.309 488.464C551.067 488.271 550.898 488.002 550.83 487.7C550 483.95 551.83 479.7 553.83 476.98C555.354 475.018 557.058 473.204 558.92 471.56C559.52 470.99 560.13 470.42 560.72 469.84C564.15 466.46 565.99 462.74 566.88 457.4C566.953 457.057 567.155 456.755 567.445 456.558C567.735 456.361 568.09 456.283 568.436 456.341C568.781 456.399 569.091 456.589 569.301 456.87C569.51 457.151 569.603 457.502 569.56 457.85C568.872 463.137 566.428 468.039 562.62 471.77C562.02 472.37 561.4 472.95 560.78 473.53C559.044 475.063 557.454 476.753 556.03 478.58C554.47 480.72 552.87 484.24 553.51 487.11C553.586 487.457 553.524 487.82 553.337 488.122C553.151 488.424 552.854 488.642 552.51 488.73L552.16 488.76Z" fill="white"/>
<path d="M562.07 472.17H561.62C561.281 472.141 560.965 471.985 560.734 471.735C560.504 471.484 560.376 471.156 560.376 470.815C560.376 470.474 560.504 470.146 560.734 469.895C560.965 469.645 561.281 469.489 561.62 469.46C563.54 469.569 565.46 469.247 567.239 468.517C569.018 467.786 570.611 466.667 571.9 465.24C572.012 465.096 572.153 464.976 572.313 464.888C572.473 464.799 572.649 464.744 572.83 464.725C573.012 464.706 573.196 464.724 573.37 464.778C573.545 464.831 573.707 464.919 573.847 465.037C573.987 465.155 574.101 465.299 574.184 465.462C574.267 465.625 574.316 465.803 574.328 465.985C574.341 466.168 574.316 466.35 574.256 466.523C574.197 466.696 574.103 466.855 573.98 466.99C572.491 468.668 570.654 470.001 568.597 470.896C566.54 471.791 564.313 472.226 562.07 472.17Z" fill="white"/>
<path d="M561.65 472.16C561.431 472.16 561.214 472.107 561.019 472.007C560.825 471.906 560.657 471.759 560.53 471.58C559.399 470.121 558.658 468.398 558.376 466.573C558.094 464.749 558.282 462.882 558.92 461.15C558.967 460.972 559.05 460.805 559.163 460.66C559.276 460.515 559.418 460.394 559.579 460.305C559.741 460.216 559.918 460.161 560.102 460.143C560.285 460.125 560.47 460.144 560.646 460.2C560.821 460.255 560.984 460.346 561.124 460.466C561.263 460.587 561.377 460.734 561.457 460.9C561.538 461.065 561.585 461.245 561.594 461.429C561.603 461.613 561.574 461.797 561.51 461.97C561 463.307 560.847 464.754 561.068 466.168C561.289 467.581 561.876 468.913 562.77 470.03C562.975 470.326 563.054 470.691 562.991 471.045C562.927 471.4 562.725 471.714 562.43 471.92C562.202 472.08 561.929 472.164 561.65 472.16Z" fill="white"/>
<path d="M555.54 478.23C555.337 478.231 555.137 478.187 554.954 478.1C554.77 478.014 554.608 477.887 554.48 477.73C551.09 473.51 551.33 469.6 552.98 463.86C553.021 463.68 553.098 463.509 553.208 463.36C553.317 463.21 553.455 463.084 553.614 462.99C553.774 462.896 553.951 462.835 554.134 462.812C554.318 462.788 554.504 462.803 554.682 462.854C554.86 462.905 555.026 462.992 555.169 463.109C555.312 463.226 555.43 463.372 555.515 463.536C555.6 463.701 555.65 463.881 555.663 464.065C555.676 464.25 555.651 464.435 555.59 464.61C554.14 469.69 553.92 472.69 556.59 476.02C556.703 476.159 556.787 476.318 556.837 476.49C556.888 476.661 556.904 476.841 556.884 477.019C556.865 477.197 556.81 477.369 556.724 477.525C556.637 477.681 556.52 477.819 556.38 477.93C556.144 478.126 555.847 478.232 555.54 478.23Z" fill="white"/>
<path d="M552.45 484.1C552.262 484.102 552.077 484.065 551.904 483.991C551.732 483.917 551.577 483.808 551.45 483.67C549.354 481.426 547.765 478.757 546.792 475.844C545.819 472.932 545.484 469.844 545.81 466.79C545.821 466.606 545.87 466.426 545.952 466.262C546.035 466.097 546.151 465.951 546.292 465.832C546.433 465.713 546.596 465.625 546.773 465.571C546.949 465.518 547.134 465.501 547.318 465.521C547.501 465.541 547.678 465.599 547.838 465.69C547.999 465.78 548.139 465.903 548.25 466.05C548.362 466.197 548.442 466.364 548.487 466.543C548.532 466.722 548.539 466.908 548.51 467.09C548.226 469.756 548.521 472.452 549.373 474.994C550.226 477.536 551.616 479.864 553.45 481.82C553.696 482.083 553.828 482.433 553.817 482.792C553.806 483.152 553.652 483.493 553.39 483.74C553.136 483.979 552.799 484.109 552.45 484.1Z" fill="white"/>
<path d="M560.02 486.37C557.046 486.415 554.132 485.534 551.68 483.85C551.536 483.745 551.413 483.612 551.32 483.46C551.227 483.308 551.164 483.139 551.137 482.962C551.109 482.786 551.116 482.606 551.158 482.432C551.199 482.258 551.275 482.094 551.38 481.95C551.485 481.806 551.618 481.683 551.77 481.59C551.922 481.497 552.091 481.434 552.268 481.406C552.444 481.379 552.625 481.386 552.798 481.428C552.972 481.469 553.136 481.545 553.28 481.65C556.8 484.19 564.36 485.17 570.16 479.35C570.415 479.094 570.76 478.95 571.122 478.949C571.483 478.948 571.829 479.09 572.085 479.345C572.341 479.6 572.485 479.945 572.486 480.306C572.487 480.667 572.345 481.014 572.09 481.27C570.516 482.876 568.638 484.154 566.566 485.03C564.494 485.905 562.269 486.361 560.02 486.37Z" fill="white"/>
<path d="M560.84 479.58C558.743 479.598 556.676 479.075 554.84 478.06C554.671 477.981 554.519 477.868 554.395 477.728C554.271 477.588 554.178 477.424 554.12 477.246C554.062 477.069 554.042 476.881 554.06 476.695C554.078 476.509 554.135 476.328 554.226 476.165C554.317 476.002 554.44 475.859 554.589 475.746C554.737 475.632 554.908 475.551 555.089 475.506C555.271 475.462 555.46 475.455 555.644 475.487C555.828 475.518 556.004 475.587 556.16 475.69C560.95 478.33 567.08 476.02 571.03 472.56C571.154 472.406 571.309 472.281 571.486 472.194C571.663 472.107 571.857 472.059 572.054 472.054C572.251 472.048 572.447 472.086 572.628 472.164C572.809 472.242 572.971 472.359 573.103 472.506C573.234 472.653 573.332 472.827 573.39 473.015C573.448 473.204 573.464 473.403 573.437 473.598C573.41 473.794 573.341 473.981 573.234 474.147C573.128 474.313 572.986 474.454 572.82 474.56C569.85 477.24 565.45 479.58 560.84 479.58Z" fill="white"/>
<path d="M528.88 472.76C530.11 478.94 511.67 498.29 498.24 498.29C502.38 504.83 536.61 502.29 541.97 494.85C535.79 488.25 528.88 472.76 528.88 472.76Z" fill="#06A5FF"/>
<path d="M569.59 334.79L538.79 353.81L533.19 353.53L561.95 335.78L569.59 334.79Z" fill="#E2E8F0"/>
<path d="M567.45 400.16L565.28 405.43C562.67 395.23 558.95 383.9 552 379.43L550.51 377.1C549.6 368.87 541.15 360.47 533.19 353.56L539.11 353.63L538.79 353.84C547.35 360.53 554.19 367.59 553.09 377.02C561.71 380.46 565.06 389.65 567.45 400.16Z" fill="#CBD5E1"/>
<path d="M593.98 387.69L565.23 405.44L567.4 400.16L598.2 381.15L598.29 381.29L593.98 387.69Z" fill="#E2E8F0"/>
<path d="M553.09 376.99L583.9 357.99C591.09 361.09 595.08 370.3 598.2 381.17L567.4 400.17C565.06 389.65 561.71 380.46 553.09 376.99Z" fill="#F1F5F9"/>
<path d="M585.75 358.97C585.16 358.59 584.541 358.256 583.9 357.97L553.09 376.97C553.757 377.239 554.406 377.553 555.03 377.91L585.75 358.97Z" fill="#E2E8F0"/>
<path d="M583.9 357.97L553.09 376.97C554.19 367.54 547.35 360.48 538.79 353.79L539.11 353.58L569.59 334.77C577.91 342.46 584.36 350.16 583.9 357.97Z" fill="#F1F5F9"/>
<path d="M289.94 248.85L309.85 285.47L308.94 292.01L290.35 257.83L289.94 248.85Z" fill="#E2E8F0"/>
<path d="M369.18 253.2L375.36 255.89C362.68 258.67 348.52 262.72 342.36 270.73L339.36 272.36C329.26 273.21 318.17 282.88 308.95 292.01L309.65 285.08L309.86 285.47C318.86 275.61 328.18 267.79 339.53 269.33C344.63 259.34 356.15 255.66 369.18 253.2Z" fill="#CBD5E1"/>
<path d="M356.77 221.71L375.36 255.89L369.18 253.2L349.26 216.59L349.44 216.49L356.77 221.71Z" fill="#E2E8F0"/>
<path d="M339.52 269.33L319.6 232.72C324.11 224.37 335.73 219.95 349.26 216.59L369.18 253.2C356.15 255.66 344.63 259.34 339.52 269.33Z" fill="#F1F5F9"/>
<path d="M339.52 269.33L319.6 232.72C324.11 224.37 327.41 214.03 340.95 210.67L360.86 247.28C347.84 249.74 344.63 259.34 339.52 269.33Z" fill="#F8FAFC"/>
<path d="M319.6 232.72L339.52 269.33C328.17 267.79 318.88 275.61 309.85 285.47L309.64 285.08L289.94 248.85C300.12 239.31 310.15 231.97 319.6 232.72Z" fill="#F1F5F9"/>
<path d="M319.6 232.72L339.52 269.33C328.17 267.79 315.72 266.56 306.69 276.42L286.78 239.81C296.96 230.26 310.15 231.97 319.6 232.72Z" fill="#F8FAFC"/>
<path d="M319.6 232.72L339.52 269.33" stroke="#E2E8F0" stroke-miterlimit="10"/>
<path d="M92 396.5C92 565.775 229.225 703 398.5 703C567.775 703 705 565.775 705 396.5C705 227.225 567.775 90 398.5 90" stroke="#06A5FF"/>
<circle cx="80" cy="160" r="12" fill="#B6E5FF"/>
<circle cx="705" cy="377" r="12" fill="#B6E5FF"/>
<circle cx="237" cy="657" r="16" fill="#B6E5FF"/>
<circle cx="322" cy="144" r="16" fill="#B6E5FF"/>
<circle cx="648.5" cy="571.5" r="22.5" fill="#06A5FF"/>
<circle cx="181.5" cy="70.5" r="8.5" fill="#06A5FF"/>
<circle cx="644.5" cy="312.5" r="8.5" fill="#06A5FF"/>
<path d="M665.539 205.657C666.36 205.543 666.955 206.42 666.546 207.141L660.922 217.049C660.759 217.335 660.748 217.683 660.892 217.979L665.865 228.23C666.227 228.976 665.577 229.813 664.765 229.646L653.603 227.359C653.281 227.293 652.947 227.39 652.71 227.618L644.498 235.516C643.9 236.09 642.903 235.73 642.811 234.907L641.537 223.585C641.5 223.257 641.305 222.969 641.015 222.814L630.966 217.445C630.235 217.054 630.269 215.995 631.024 215.652L641.398 210.942C641.698 210.806 641.911 210.532 641.969 210.207L643.97 198.991C644.116 198.175 645.134 197.88 645.693 198.492L653.378 206.903C653.6 207.146 653.928 207.265 654.254 207.219L665.539 205.657Z" fill="#27B1FF"/>
<path d="M153.857 450.92C154.415 450.307 155.433 450.6 155.58 451.416L157.013 459.361C157.072 459.685 157.286 459.959 157.586 460.095L164.943 463.418C165.698 463.76 165.734 464.819 165.004 465.211L157.891 469.029C157.601 469.184 157.406 469.473 157.37 469.8L156.482 477.824C156.391 478.648 155.395 479.01 154.797 478.436L148.967 472.851C148.73 472.623 148.395 472.527 148.073 472.594L140.167 474.229C139.356 474.397 138.704 473.561 139.064 472.815L142.575 465.545C142.718 465.249 142.706 464.901 142.543 464.615L138.545 457.602C138.134 456.882 138.727 456.004 139.549 456.116L147.548 457.208C147.874 457.253 148.201 457.134 148.422 456.89L153.857 450.92Z" fill="#27B1FF"/>
<path d="M130.209 638.02L133.739 636.125C133.87 636.368 134.173 636.459 134.416 636.329L136.622 635.145C136.714 635.095 136.805 635.079 136.889 635.084C137.121 635.099 137.327 634.954 137.396 634.743C137.425 634.761 137.453 634.781 137.48 634.802C137.303 634.937 137.232 635.179 137.322 635.393C137.354 635.471 137.368 635.562 137.352 635.666L136.95 638.136C136.905 638.409 137.09 638.666 137.363 638.71L136.72 642.665C136.447 642.621 136.19 642.806 136.146 643.078L135.343 648.02C135.298 648.292 135.483 648.549 135.756 648.594L135.113 652.548C134.84 652.504 134.583 652.689 134.539 652.961L134.137 655.432C134.117 655.553 134.113 655.675 134.123 655.794C134.133 655.924 134.192 656.038 134.281 656.12C134.26 656.239 134.281 656.366 134.351 656.476C134.415 656.577 134.492 656.671 134.58 656.756L136.388 658.488C136.587 658.679 136.904 658.672 137.095 658.473L139.988 661.244C139.797 661.444 139.803 661.76 140.003 661.951L143.618 665.415C143.818 665.606 144.134 665.599 144.325 665.4L147.218 668.171C147.027 668.371 147.034 668.687 147.233 668.878L149.041 670.61C149.117 670.683 149.161 670.764 149.181 670.846C149.239 671.071 149.441 671.222 149.663 671.223C149.654 671.256 149.644 671.288 149.632 671.32C149.449 671.194 149.198 671.201 149.021 671.353C148.958 671.408 148.875 671.449 148.771 671.465L146.297 671.847C146.024 671.889 145.837 672.144 145.879 672.417L141.919 673.027C141.877 672.755 141.622 672.567 141.349 672.61L136.401 673.372C136.128 673.414 135.941 673.67 135.983 673.943L132.023 674.553C131.981 674.28 131.726 674.093 131.453 674.135L128.979 674.516C128.858 674.535 128.741 674.568 128.63 674.614C128.51 674.665 128.42 674.756 128.369 674.866C128.249 674.882 128.135 674.942 128.052 675.042C127.976 675.134 127.91 675.236 127.857 675.347L126.768 677.601C126.648 677.85 126.752 678.149 127.001 678.269L125.259 681.877C125.01 681.757 124.711 681.861 124.591 682.11L122.414 686.618C122.294 686.867 122.399 687.166 122.647 687.286L120.905 690.894C120.657 690.774 120.358 690.878 120.238 691.127L119.149 693.381C119.103 693.476 119.04 693.542 118.969 693.587C118.772 693.711 118.691 693.95 118.759 694.162C118.725 694.164 118.691 694.164 118.656 694.163C118.72 693.95 118.636 693.713 118.437 693.592C118.365 693.548 118.3 693.483 118.253 693.389L117.125 691.154C117.001 690.907 116.7 690.808 116.454 690.932L114.65 687.355C114.896 687.231 114.995 686.93 114.871 686.683L112.616 682.213C112.492 681.967 112.191 681.868 111.945 681.992L110.141 678.415C110.387 678.29 110.486 677.99 110.362 677.743L109.235 675.508C109.179 675.399 109.112 675.298 109.034 675.207C108.949 675.108 108.834 675.05 108.714 675.036C108.661 674.927 108.569 674.837 108.448 674.789C108.337 674.745 108.219 674.714 108.098 674.697L105.618 674.359C105.344 674.321 105.092 674.513 105.055 674.786L101.085 674.245C101.122 673.971 100.931 673.719 100.657 673.682L95.6967 673.005C95.4231 672.967 95.171 673.159 95.1336 673.432L91.1639 672.891C91.2012 672.617 91.0097 672.365 90.7361 672.328L88.2558 671.989C88.1514 671.975 88.0684 671.935 88.0039 671.881C87.825 671.732 87.5731 671.729 87.3925 671.859C87.3801 671.827 87.3692 671.795 87.36 671.762C87.5823 671.757 87.7818 671.603 87.8351 671.376C87.8544 671.295 87.8965 671.213 87.9713 671.139L89.7487 669.376C89.9448 669.181 89.9461 668.865 89.7516 668.669L92.5964 665.847C92.7908 666.043 93.1074 666.045 93.3035 665.85L96.8582 662.325C97.0543 662.13 97.0556 661.814 96.8611 661.618L99.7059 658.796C99.9003 658.992 100.217 658.994 100.413 658.799L102.19 657.036C102.277 656.95 102.352 656.855 102.415 656.752C102.483 656.641 102.502 656.514 102.479 656.395C102.566 656.312 102.623 656.197 102.631 656.067C102.639 655.947 102.632 655.826 102.61 655.705L102.166 653.242C102.117 652.97 101.857 652.789 101.585 652.838L100.873 648.895C101.145 648.846 101.326 648.586 101.277 648.315L100.388 643.388C100.339 643.116 100.079 642.935 99.8069 642.984L99.0955 639.041C99.3672 638.992 99.5478 638.732 99.4987 638.461L99.0542 635.997C99.0355 635.893 99.048 635.802 99.0791 635.724C99.1654 635.508 99.0903 635.267 98.9111 635.136C98.9375 635.114 98.965 635.094 98.9935 635.075C99.0669 635.285 99.275 635.427 99.5068 635.408C99.5905 635.401 99.6815 635.415 99.7751 635.464L102.001 636.609C102.246 636.736 102.548 636.639 102.674 636.394L106.237 638.227C106.11 638.473 106.207 638.774 106.452 638.901L110.904 641.192C111.149 641.318 111.451 641.222 111.577 640.976L115.14 642.81C115.013 643.055 115.11 643.357 115.355 643.483L117.581 644.629C117.69 644.685 117.804 644.727 117.921 644.755C118.047 644.785 118.174 644.764 118.28 644.705C118.386 644.762 118.513 644.781 118.64 644.748C118.756 644.719 118.869 644.675 118.977 644.617L121.183 643.433C121.426 643.302 121.517 642.999 121.387 642.756L124.917 640.861C125.047 641.104 125.35 641.196 125.594 641.065L130.005 638.697C130.248 638.566 130.339 638.263 130.209 638.02Z" fill="#2C3D5B" stroke="#06A5FF" stroke-linecap="round" stroke-dasharray="5 5"/>
<path d="M715.209 129.02L718.739 127.125C718.869 127.368 719.173 127.459 719.416 127.329L721.621 126.145C721.714 126.095 721.805 126.079 721.889 126.084C722.121 126.099 722.326 125.954 722.396 125.743C722.425 125.761 722.453 125.781 722.48 125.802C722.303 125.937 722.232 126.179 722.322 126.393C722.354 126.471 722.368 126.562 722.351 126.666L721.95 129.136C721.905 129.409 722.09 129.666 722.363 129.71L721.72 133.665C721.447 133.621 721.19 133.806 721.146 134.078L720.342 139.02C720.298 139.292 720.483 139.549 720.756 139.594L720.113 143.548C719.84 143.504 719.583 143.689 719.539 143.961L719.137 146.432C719.117 146.553 719.113 146.675 719.122 146.794C719.133 146.924 719.192 147.038 719.281 147.12C719.259 147.239 719.281 147.366 719.351 147.476C719.415 147.577 719.491 147.671 719.58 147.756L721.387 149.488C721.587 149.679 721.903 149.672 722.094 149.473L724.988 152.244C724.797 152.444 724.803 152.76 725.003 152.951L728.618 156.415C728.817 156.606 729.134 156.599 729.325 156.4L732.218 159.171C732.027 159.371 732.034 159.687 732.233 159.878L734.041 161.61C734.117 161.683 734.16 161.764 734.181 161.846C734.238 162.071 734.441 162.222 734.663 162.223C734.654 162.256 734.644 162.288 734.632 162.32C734.449 162.194 734.197 162.201 734.021 162.353C733.958 162.408 733.875 162.449 733.771 162.465L731.297 162.847C731.024 162.889 730.837 163.144 730.879 163.417L726.919 164.027C726.877 163.755 726.622 163.567 726.349 163.61L721.401 164.372C721.128 164.414 720.941 164.67 720.983 164.943L717.023 165.553C716.981 165.28 716.726 165.093 716.453 165.135L713.979 165.516C713.858 165.535 713.741 165.568 713.63 165.614C713.51 165.665 713.419 165.756 713.369 165.866C713.249 165.882 713.135 165.942 713.052 166.042C712.976 166.134 712.91 166.236 712.856 166.347L711.768 168.601C711.648 168.85 711.752 169.149 712.001 169.269L710.259 172.877C710.01 172.757 709.711 172.861 709.591 173.11L707.414 177.618C707.294 177.867 707.399 178.166 707.647 178.286L705.905 181.894C705.657 181.774 705.358 181.878 705.238 182.127L704.149 184.381C704.103 184.476 704.04 184.542 703.969 184.587C703.772 184.711 703.691 184.95 703.759 185.162C703.725 185.164 703.69 185.164 703.656 185.163C703.72 184.95 703.635 184.713 703.437 184.592C703.365 184.548 703.3 184.483 703.252 184.389L702.125 182.154C702.001 181.907 701.7 181.808 701.454 181.932L699.649 178.355C699.896 178.231 699.995 177.93 699.871 177.683L697.616 173.213C697.492 172.967 697.191 172.868 696.945 172.992L695.14 169.415C695.387 169.29 695.486 168.99 695.362 168.743L694.234 166.508C694.179 166.399 694.112 166.298 694.034 166.207C693.949 166.108 693.834 166.05 693.714 166.036C693.661 165.927 693.569 165.837 693.448 165.789C693.337 165.745 693.219 165.714 693.098 165.697L690.618 165.359C690.344 165.321 690.092 165.513 690.055 165.786L686.085 165.245C686.122 164.971 685.931 164.719 685.657 164.682L680.697 164.005C680.423 163.967 680.171 164.159 680.134 164.432L676.164 163.891C676.201 163.617 676.01 163.365 675.736 163.328L673.256 162.989C673.151 162.975 673.068 162.935 673.004 162.881C672.825 162.732 672.573 162.729 672.392 162.859C672.38 162.827 672.369 162.795 672.36 162.762C672.582 162.757 672.782 162.603 672.835 162.376C672.854 162.295 672.896 162.213 672.971 162.139L674.749 160.376C674.945 160.181 674.946 159.865 674.751 159.669L677.596 156.847C677.791 157.043 678.107 157.045 678.303 156.85L681.858 153.325C682.054 153.13 682.055 152.814 681.861 152.618L684.706 149.796C684.9 149.992 685.217 149.994 685.413 149.799L687.19 148.036C687.277 147.95 687.352 147.855 687.415 147.752C687.483 147.641 687.502 147.514 687.478 147.395C687.565 147.312 687.623 147.197 687.631 147.067C687.639 146.947 687.632 146.826 687.61 146.705L687.166 144.242C687.117 143.97 686.857 143.789 686.585 143.838L685.873 139.895C686.145 139.846 686.326 139.586 686.277 139.315L685.388 134.388C685.339 134.116 685.079 133.935 684.807 133.984L684.095 130.041C684.367 129.992 684.548 129.732 684.499 129.461L684.054 126.997C684.035 126.893 684.048 126.802 684.079 126.724C684.165 126.508 684.09 126.267 683.911 126.136C683.937 126.114 683.965 126.094 683.993 126.075C684.067 126.285 684.275 126.427 684.507 126.408C684.59 126.401 684.681 126.415 684.775 126.464L687.001 127.609C687.246 127.736 687.548 127.639 687.674 127.394L691.236 129.227C691.11 129.473 691.207 129.774 691.452 129.901L695.904 132.192C696.149 132.318 696.451 132.222 696.577 131.976L700.139 133.81C700.013 134.055 700.11 134.357 700.355 134.483L702.581 135.629C702.69 135.685 702.804 135.727 702.921 135.755C703.047 135.785 703.174 135.764 703.28 135.705C703.386 135.762 703.513 135.781 703.639 135.748C703.756 135.719 703.869 135.675 703.977 135.617L706.182 134.433C706.426 134.302 706.517 133.999 706.386 133.756L709.917 131.861C710.047 132.104 710.35 132.196 710.594 132.065L715.005 129.697C715.248 129.566 715.339 129.263 715.209 129.02Z" fill="#2C3D5B" stroke="#06A5FF" stroke-linecap="round" stroke-dasharray="5 5"/>
<path d="M493.056 616.535L496.036 614.617C496.186 614.849 496.495 614.917 496.727 614.767L498.638 613.538C498.727 613.481 498.816 613.457 498.9 613.456C499.132 613.453 499.326 613.291 499.379 613.075C499.409 613.091 499.438 613.109 499.467 613.128C499.301 613.276 499.249 613.523 499.356 613.73C499.394 613.804 499.416 613.894 499.407 613.999L499.221 616.264C499.198 616.539 499.403 616.78 499.678 616.803L499.387 620.335C499.112 620.313 498.871 620.517 498.848 620.793L498.662 623.057C498.652 623.179 498.657 623.301 498.676 623.419C498.697 623.548 498.765 623.657 498.859 623.732C498.848 623.852 498.879 623.976 498.957 624.081C499.029 624.177 499.113 624.264 499.208 624.342L500.968 625.779C501.182 625.954 501.497 625.922 501.671 625.708L504.416 627.95C504.242 628.164 504.274 628.479 504.487 628.654L506.247 630.091C506.329 630.158 506.379 630.235 506.406 630.315C506.481 630.535 506.694 630.669 506.916 630.652C506.91 630.686 506.902 630.719 506.893 630.752C506.701 630.641 506.45 630.668 506.286 630.833C506.227 630.893 506.149 630.941 506.046 630.965L503.835 631.487C503.566 631.551 503.4 631.82 503.463 632.089L500.014 632.904C499.95 632.635 499.681 632.469 499.412 632.533L497.201 633.055C497.082 633.083 496.968 633.126 496.861 633.18C496.745 633.24 496.663 633.338 496.621 633.452C496.503 633.477 496.394 633.546 496.319 633.652C496.25 633.75 496.192 633.857 496.148 633.972L495.325 636.089C495.225 636.347 495.352 636.637 495.61 636.737L494.326 640.04C494.068 639.94 493.779 640.068 493.679 640.325L492.855 642.443C492.817 642.541 492.759 642.613 492.692 642.663C492.505 642.802 492.444 643.046 492.528 643.252C492.494 643.257 492.46 643.26 492.426 643.261C492.473 643.044 492.37 642.814 492.162 642.709C492.087 642.672 492.017 642.612 491.962 642.522L490.782 640.58C490.638 640.344 490.331 640.269 490.095 640.412L488.254 637.384C488.49 637.24 488.565 636.933 488.421 636.697L487.241 634.755C487.177 634.651 487.102 634.555 487.017 634.471C486.924 634.379 486.805 634.331 486.685 634.326C486.624 634.222 486.525 634.139 486.4 634.101C486.286 634.066 486.166 634.044 486.044 634.037L483.775 633.909C483.5 633.893 483.263 634.104 483.248 634.38L479.709 634.179C479.725 633.904 479.514 633.667 479.238 633.652L476.97 633.524C476.865 633.518 476.779 633.484 476.71 633.436C476.52 633.302 476.269 633.319 476.099 633.462C476.084 633.431 476.071 633.4 476.059 633.368C476.28 633.345 476.467 633.176 476.502 632.946C476.515 632.863 476.55 632.778 476.619 632.698L478.101 630.976C478.281 630.766 478.257 630.451 478.048 630.271L480.359 627.584C480.568 627.764 480.884 627.74 481.064 627.531L482.546 625.808C482.626 625.715 482.693 625.614 482.747 625.507C482.806 625.391 482.815 625.263 482.783 625.146C482.863 625.056 482.911 624.937 482.909 624.807C482.907 624.687 482.891 624.566 482.859 624.448L482.28 622.251C482.21 621.984 481.937 621.824 481.67 621.894L480.766 618.467C481.034 618.397 481.193 618.123 481.123 617.856L480.544 615.659C480.517 615.557 480.522 615.465 480.547 615.385C480.616 615.163 480.522 614.929 480.333 614.812C480.358 614.788 480.383 614.766 480.41 614.745C480.5 614.948 480.719 615.073 480.948 615.036C481.031 615.022 481.123 615.03 481.22 615.07L483.316 615.947C483.571 616.054 483.864 615.934 483.97 615.679L487.24 617.047C487.134 617.302 487.254 617.595 487.508 617.701L489.605 618.578C489.718 618.625 489.835 618.658 489.953 618.677C490.082 618.697 490.207 618.666 490.307 618.599C490.418 618.647 490.546 618.656 490.669 618.614C490.783 618.575 490.892 618.522 490.995 618.456L492.906 617.226C493.138 617.077 493.205 616.767 493.056 616.535Z" fill="#2C3D5B" stroke="#06A5FF" stroke-linecap="round" stroke-dasharray="5 5"/>
<path d="M18.0868 349.982C18.9149 349.948 19.4231 350.878 18.9468 351.556L16.9787 354.359C16.7895 354.628 16.745 354.973 16.8597 355.282L18.0526 358.492C18.3413 359.269 17.6138 360.039 16.8215 359.796L13.5479 358.79C13.2333 358.694 12.8913 358.758 12.6333 358.962L9.9489 361.089C9.29922 361.604 8.3414 361.15 8.32807 360.321L8.273 356.897C8.26771 356.568 8.10083 356.262 7.82673 356.08L4.97474 354.184C4.2845 353.725 4.42002 352.674 5.20407 352.406L8.44366 351.295C8.75501 351.188 8.9939 350.935 9.08249 350.618L10.0043 347.32C10.2273 346.522 11.2689 346.326 11.7668 346.988L13.824 349.726C14.0218 349.989 14.3363 350.138 14.6651 350.125L18.0868 349.982Z" fill="#06A5FF"/>
</svg>
