<svg width="675" height="675" viewBox="0 0 675 675" fill="none" xmlns="http://www.w3.org/2000/svg">
<circle cx="337.5" cy="337.5" r="252.5" fill="#2C3D5B"/>
<circle cx="337.5" cy="337.5" r="262" stroke="#06A5FF"/>
<circle cx="337.5" cy="337.5" r="299" stroke="#06A5FF"/>
<path d="M674 337.5C674 523.344 523.344 674 337.5 674C151.656 674 1 523.344 1 337.5C1 151.656 151.656 1 337.5 1" stroke="#06A5FF" stroke-linecap="round" stroke-dasharray="15 15"/>
<path d="M298.021 230H149.979C148.886 230 148 231.242 148 232.775V239.225C148 240.758 148.886 242 149.979 242H298.021C299.114 242 300 240.758 300 239.225V232.775C300 231.242 299.114 230 298.021 230Z" fill="#CBD5E1"/>
<path d="M222.687 154.189H215V230.194H222.687V154.189Z" fill="#E2E8F0"/>
<path d="M215 160.33H222.687" stroke="#27B1FF" stroke-miterlimit="10"/>
<path d="M215 224.165H222.687" stroke="#27B1FF" stroke-miterlimit="10"/>
<path d="M249.081 154.189H241.393V230.194H249.081V154.189Z" fill="#E2E8F0"/>
<path d="M241.393 160.33H249.067" stroke="#27B1FF" stroke-miterlimit="10"/>
<path d="M241.393 224.165H249.067" stroke="#27B1FF" stroke-miterlimit="10"/>
<path d="M258.614 154L250.962 154.735L258.212 230.393L265.864 229.658L258.614 154Z" fill="#E2E8F0"/>
<path d="M251.55 160.844L259.21 160.107" stroke="#27B1FF" stroke-miterlimit="10"/>
<path d="M257.642 224.387L265.302 223.651" stroke="#27B1FF" stroke-miterlimit="10"/>
<path d="M238.868 154.189H226.545V230.194H238.868V154.189Z" fill="#E2E8F0"/>
<path d="M226.545 160.052H238.854" stroke="#27B1FF" stroke-miterlimit="10"/>
<path d="M226.545 163.344H238.854" stroke="#27B1FF" stroke-miterlimit="10"/>
<path d="M295.729 315.907C286.163 316.345 276.706 318.117 267.629 321.172C251.88 326.729 252.157 341.357 254.1 355.722L262.051 414.695C264.23 430.879 265.479 463.096 279.605 473.654C284.67 477.432 293.051 477.933 299.032 479.1C310.202 481.281 321.525 480.989 332.834 480.6C351.29 479.975 372.396 477.96 383.316 462.429C392.488 449.398 393.03 429.504 395.555 414.125L405.102 357.347C406.198 350.873 407.281 344.219 405.99 337.801C402.798 321.88 384.163 321.13 371.396 319.032C355.092 316.365 338.912 317.254 322.649 316.254C313.691 315.586 304.701 315.47 295.729 315.907Z" fill="#94A3B8"/>
<path d="M339.12 522.152C395.509 522.152 441.222 506.976 441.222 488.255C441.222 469.534 395.509 454.357 339.12 454.357C282.731 454.357 237.018 469.534 237.018 488.255C237.018 506.976 282.731 522.152 339.12 522.152Z" fill="#94A3B8"/>
<path d="M530.807 372.462C532.625 372.712 534.387 373.018 536.039 373.351V373.462C533.014 377.227 533.083 388.98 534.082 393.412L533.999 394.009C510.95 390.856 487.388 391.62 464.076 392.189V391.272L463.021 370.628C463.021 370.628 466.865 370.42 472.971 370.267C486.819 369.906 512.435 369.711 530.807 372.462Z" fill="#CBCBCB"/>
<path d="M242.694 383.59L245.469 379.589C245.562 379.487 245.631 379.365 245.672 379.233C245.713 379.101 245.724 378.962 245.705 378.825C245.644 378.707 245.558 378.605 245.452 378.525C245.347 378.446 245.224 378.392 245.094 378.366C244.012 378.047 241.639 377.713 241.029 378.95C240.418 380.186 241.958 382.673 242.694 383.59Z" fill="#6F98AA"/>
<path d="M143.7 659.047H143.436C143.022 659.012 142.618 658.895 142.248 658.704C141.878 658.512 141.55 658.25 141.282 657.931C141.014 657.612 140.811 657.243 140.686 656.846C140.56 656.449 140.514 656.031 140.55 655.615L156.161 428.337L160.102 428.629V428.893L146.045 632.096L172.799 427.879L176.739 428.518L176.656 429.032L146.864 656.241C146.778 657.018 146.406 657.735 145.822 658.254C145.237 658.772 144.481 659.055 143.7 659.047Z" fill="#94A3B8"/>
<path d="M158.006 459.192L160.088 428.907V428.643L156.147 428.337L154.357 455.358C155.55 456.622 156.771 457.9 158.006 459.192Z" fill="#475569"/>
<path d="M170.953 473.765L176.615 429.059L176.74 428.518L172.84 427.892L167.54 469.653C168.664 471.028 169.801 472.39 170.953 473.765Z" fill="#475569"/>
<path d="M550.012 659.047C549.236 659.053 548.485 658.773 547.901 658.261C547.318 657.748 546.943 657.039 546.848 656.268L517 428.518L520.899 427.906L520.982 428.434L547.653 632.11L533.665 428.629L537.592 428.309V428.559L553.189 655.602C553.226 656.017 553.18 656.435 553.054 656.832C552.928 657.23 552.726 657.598 552.458 657.917C552.189 658.236 551.861 658.498 551.491 658.69C551.122 658.881 550.718 658.998 550.303 659.033L550.012 659.047Z" fill="#94A3B8"/>
<path d="M542.713 505.314L537.62 428.587V428.323L533.693 428.657L538.286 497.771C539.799 500.258 541.27 502.772 542.713 505.314Z" fill="#475569"/>
<path d="M527.81 482.295L520.983 428.518L520.899 427.976L517 428.601L523.022 476.154C524.646 478.141 526.256 480.197 527.81 482.295Z" fill="#475569"/>
<path d="M277.953 406.471L380.568 403.692C379.181 410.555 378.529 450.523 377.196 457.4C372.004 464.459 364.589 469.563 356.146 471.889C347.89 474.279 334.388 473.626 326.451 470.292C320.095 467.597 298.365 457.719 279.146 460.984C275.261 453.26 277.953 406.471 277.953 406.471Z" fill="#98D6FA"/>
<path d="M277.953 406.471L380.568 403.692C379.181 410.555 378.529 450.523 377.196 457.4C372.004 464.459 364.589 469.563 356.146 471.889C347.89 474.279 334.388 473.626 326.451 470.292C320.095 467.597 298.365 457.719 279.146 460.984C275.261 453.26 277.953 406.471 277.953 406.471Z" fill="#98D6FA"/>
<path d="M530.654 350.999C534.082 355.041 537.426 365.002 530.807 372.462C512.435 369.684 486.819 369.906 472.929 370.267V370.087C476.815 366.725 477.55 358.445 472.138 351.193C475.635 351.193 479.562 351.193 483.725 351.193H487.888C502.833 351.068 519.762 351.04 530.654 350.999Z" fill="#CBCBCB"/>
<path d="M337.954 603.422C337.954 608.118 338.343 613.522 338.551 618.481C338.662 620.885 336.414 622.843 335.665 625.122C335.277 626.347 334.736 627.519 334.055 628.609C333.805 628.998 332.071 630.776 332.112 631.096C331.488 626.275 328.935 622.524 327.006 618.217C325.827 615.55 324.716 612.841 323.648 610.132C329.07 609.701 334.153 607.317 337.954 603.422Z" fill="#F0C6BF"/>
<path d="M337.954 603.422C337.954 608.118 338.343 613.522 338.551 618.481C338.662 620.885 336.414 622.843 335.665 625.122C335.277 626.347 334.736 627.519 334.055 628.609C333.805 628.998 332.071 630.776 332.112 631.096C331.488 626.275 328.935 622.524 327.006 618.217C325.827 615.55 324.716 612.841 323.648 610.132C329.07 609.701 334.153 607.317 337.954 603.422Z" fill="#D19D90"/>
<path d="M461.509 410.763H536.4H555.424V428.726H535.65H519.026H380.569H277.884H174.672H158.048H128.783V410.763H153.996H214.969H218.854H260.511H267.324H338.44H338.912H350.277H350.859H413.691H424.709H461.509Z" fill="#475569"/>
<path d="M536.219 394.301C538.786 397.246 538.869 407.29 536.399 410.305H461.467C463.049 406.04 463.146 396.718 461.981 392.245H464.021C487.333 391.675 510.895 390.856 533.943 394.065C534.748 394.079 535.47 394.176 536.219 394.301Z" fill="#CBCBCB"/>
<path d="M335.568 622.288L334.79 621.899H334.541C334.642 620.477 334.822 619.063 335.082 617.662C335.609 614.411 336.47 609.812 337.76 604.283C334.171 607.911 329.316 610.003 324.217 610.118C323.394 610.166 322.569 610.166 321.747 610.118C319.499 609.66 250.797 504.787 248.827 485.768C247.3 470.973 254.03 464.929 279.147 461.067C298.351 457.803 320.095 467.68 326.451 470.375C334.388 473.709 347.89 474.362 356.146 471.973C364.589 469.646 372.004 464.543 377.196 457.483C395.638 452.065 420.366 470.528 426.652 483.128C432.938 495.729 390.809 609.84 368.801 632.332C366.532 631.767 364.202 631.478 361.863 631.471C361.031 631.471 360.226 631.471 359.393 631.568C348.486 629.165 343.727 626.358 335.568 622.288ZM328.907 511.872C330.378 515.664 331.765 519.499 333.07 523.305C337.746 536.517 343.089 551.631 347.779 564.815C352.968 546.602 359.213 526.945 365.596 510.83C366.65 508.162 367.719 505.592 368.801 503.147L368.135 502.842C365.526 499.424 333.597 496.854 325.035 502.981C326.451 505.898 327.714 508.871 328.907 511.872Z" fill="#27B1FF"/>
<path d="M424.709 410.763H413.691L409.154 401.664C399.912 401.664 389.172 398.024 378.626 395.69V395.579C380.652 395.287 383.58 394.968 386.952 394.704C389.838 394.495 393.071 394.287 396.346 394.176C403.659 390.842 410.68 387.091 415.634 382.923L415.939 383.284C418.187 388.022 428.803 407.276 424.709 410.763Z" fill="#F0C6BF"/>
<path d="M418.382 380.381C417.51 381.28 416.583 382.125 415.606 382.909C410.653 387.077 403.631 390.828 396.318 394.162C393.044 394.273 389.81 394.481 386.924 394.69C383.552 394.954 380.624 395.273 378.598 395.565V395.676C366.026 392.898 353.621 392.023 344.463 401.4C340.397 394.912 334.194 392.662 326.659 392.481V391.536C327.922 381.548 316.238 380.992 310.452 381.2C308.87 381.2 307.094 381.353 305.207 381.603L305.109 380.825L280.812 356.444C280.329 355.981 279.696 355.707 279.028 355.674C278.36 355.641 277.702 355.85 277.176 356.264C276.869 356.514 276.621 356.829 276.45 357.187C276.28 357.545 276.191 357.937 276.191 358.334C276.191 359.061 276.475 359.759 276.982 360.279L299.587 382.909C295.993 383.987 292.756 386.017 290.22 388.786C285.96 389.216 281.894 389.508 277.926 389.772C272.139 390.119 266.825 390.355 262.135 390.675V390.078C257.801 384.705 251.798 380.935 245.081 379.367C243.763 379.081 242.418 378.941 241.07 378.95C244.942 370.337 251.713 357.806 254.808 352.652C261.344 341.857 272.847 335.078 284.226 329.743C295.113 324.411 307.088 321.681 319.208 321.769C319.111 322.38 319.027 323.019 318.958 323.631C312.797 323.005 308.495 328.924 308.245 334.203C307.996 339.482 310.882 345.692 314.476 349.568C319.454 354.674 326.095 357.824 333.195 358.445C339.315 359.07 348.542 358.445 353.094 353.652C358.45 348.095 358.131 335.967 351.595 331.299C352.067 329.757 352.469 328.521 352.705 327.729L352.344 327.132C353.595 326.325 354.783 325.424 355.897 324.436L356.091 324.673C381.235 326.895 403.881 343.219 418.382 380.381Z" fill="#98D6FA"/>
<path d="M368.802 632.29C379.403 634.999 388.145 643.974 381.374 659.116C367.497 663.048 347.737 659.95 331.155 657.727C331.067 657.734 330.979 657.734 330.892 657.727C331.197 656.463 331.544 655.24 331.946 654.073C336.636 639.862 348.015 632.554 359.366 631.623C360.198 631.554 361.003 631.526 361.836 631.526C364.18 631.499 366.519 631.756 368.802 632.29Z" fill="#475569"/>
<path d="M373.464 295.846C371.746 300.728 369.625 305.459 367.122 309.988C366.276 311.517 365.36 313.003 364.416 314.42C362.043 318.15 359.15 321.523 355.827 324.436C354.712 325.415 353.525 326.306 352.275 327.104C347.83 330.095 342.44 331.341 337.136 330.605C330.003 329.577 324.244 324.673 319.638 318.504C315.494 312.692 312.038 306.417 309.341 299.805C309.452 297.972 310.202 294.471 310.576 291.123C310.79 289.558 310.85 287.976 310.757 286.399C310.706 285.764 310.613 285.133 310.479 284.51C310.479 275.786 314.198 266.172 322.052 260.282C322.052 260.282 328.56 275.021 340.591 285.51C341.648 286.466 342.755 287.366 343.907 288.205C345.828 289.639 347.86 290.917 349.985 292.026C351.838 292.977 353.769 293.768 355.758 294.387C361.442 296.361 367.533 296.863 373.464 295.846Z" fill="#F0C6BF"/>
<path d="M359.366 631.498C348.015 632.429 336.636 639.736 331.946 653.948H331.724C330.355 653.602 329.167 652.752 328.396 651.567C327.624 650.383 327.326 648.952 327.561 647.558C329.082 638.814 331.795 630.321 335.623 622.316C343.727 626.358 348.487 629.164 359.366 631.498Z" fill="#F0C6BF"/>
<path d="M339.411 624.233C338.676 625.733 337.843 627.178 336.969 628.595C339.372 632.228 340.359 636.618 339.744 640.931C344.921 635.498 351.906 632.152 359.379 631.526C352.402 630.087 345.675 627.63 339.411 624.233Z" fill="#D19D90"/>
<path d="M351.581 331.271C358.117 335.939 358.436 348.039 353.08 353.624C348.528 358.375 339.301 359.042 333.181 358.417C326.081 357.796 319.44 354.646 314.462 349.54C310.868 345.664 307.968 339.454 308.232 334.175C308.495 328.896 312.783 322.978 318.944 323.603C318.805 324.478 318.68 325.326 318.569 326.187L317.945 326.117C311.798 326.465 310.257 334.925 312.131 339.593C314.615 345.719 321.983 350.568 328.019 352.443C334.055 354.319 343.838 354.652 348.986 350.304C352.941 346.984 355.064 338.996 350.721 335.245L350.429 335.161C350.776 333.73 351.165 332.424 351.581 331.271Z" fill="#D0EEFF"/>
<path d="M318.542 326.215C318.653 325.353 318.777 324.506 318.916 323.631C318.916 323.019 319.069 322.38 319.166 321.769C319.319 320.685 319.485 319.616 319.638 318.532C324.245 324.7 330.003 329.646 337.136 330.632C342.444 331.361 347.834 330.105 352.275 327.104L352.636 327.701C352.4 328.507 351.997 329.729 351.526 331.271C351.165 332.397 350.776 333.703 350.402 335.161L350.693 335.245C355.036 338.996 352.913 346.984 348.958 350.304C343.81 354.652 333.958 354.277 327.991 352.443C322.025 350.61 314.587 345.719 312.103 339.593C310.23 334.925 311.77 326.465 317.917 326.117L318.542 326.215Z" fill="#F0C6BF"/>
<path d="M346.391 351.943C347.312 351.519 348.175 350.977 348.958 350.332C352.913 347.011 355.036 339.023 350.693 335.272L350.401 335.189C350.776 333.8 351.165 332.411 351.525 331.299C351.997 329.757 352.4 328.521 352.635 327.729L352.275 327.132C347.83 330.123 342.44 331.369 337.136 330.632C330.003 329.604 324.245 324.7 319.638 318.532C319.485 319.616 319.318 320.685 319.166 321.769C319.069 322.38 318.985 323.019 318.916 323.631C318.847 324.02 318.805 324.395 318.75 324.784C322.538 337.759 334.277 346.345 346.391 351.943Z" fill="#D19D90"/>
<path d="M409.154 401.664L413.691 410.763H348.806C348.806 408.304 346.697 407.221 344.643 407.221L344.49 401.414C353.718 392.036 366.054 392.926 378.626 395.69C389.172 398.024 399.912 401.664 409.154 401.664Z" fill="white"/>
<path d="M344.476 401.414L344.629 407.221C341.451 407.318 340.771 408.388 340.771 410.763H267.324L272.875 399.649C292.232 399.649 312.02 392.078 326.673 392.439C334.208 392.675 340.48 394.926 344.476 401.414Z" fill="white"/>
<path d="M299.545 382.909C301.399 382.308 303.303 381.876 305.234 381.617C307.121 381.367 308.898 381.27 310.48 381.214C316.266 381.006 327.95 381.562 326.687 391.55V392.495C312.034 392.134 292.246 399.705 272.889 399.705L267.338 410.819H245.608L239.821 405.859C233.341 399.469 240.376 385.299 245.039 379.464C251.757 381.032 257.759 384.802 262.093 390.175V390.772C266.769 390.453 272.098 390.217 277.884 389.869C281.797 389.605 285.919 389.314 290.179 388.883C292.703 386.079 295.94 384.014 299.545 382.909Z" fill="#F0C6BF"/>
<path d="M260.511 410.541V410.763H218.882L216.689 405.873L216.842 405.804H257.222C258.092 405.804 258.926 406.149 259.543 406.763C260.159 407.378 260.507 408.211 260.511 409.082V410.541Z" fill="#94A3B8"/>
<path d="M260.386 408.221C260.195 407.527 259.782 406.915 259.211 406.479C258.639 406.042 257.941 405.805 257.222 405.804H216.814L216.662 405.873L217.716 408.221H260.386Z" fill="#CBD5E1"/>
<path d="M216.662 405.873L218.854 410.763H209.418L175.657 333.091L179.501 331.799C180.446 331.476 181.478 331.518 182.394 331.916C183.31 332.314 184.045 333.041 184.455 333.953L216.662 405.873Z" fill="#475569"/>
<path d="M181.027 335.189L214.969 410.763H153.996L127.826 352.86C127.655 352.468 127.567 352.045 127.568 351.617C127.569 351.189 127.658 350.766 127.83 350.375C128.002 349.983 128.253 349.632 128.568 349.342C128.882 349.053 129.253 348.831 129.657 348.692L175.99 333.022C176.95 332.711 177.989 332.759 178.915 333.158C179.842 333.557 180.592 334.278 181.027 335.189Z" fill="#CBD5E1"/>
<path d="M185.065 344.275C183.678 344.803 182.484 345.303 181.485 345.761C176.407 348.081 176.67 349.929 175.796 355.944C173.992 368.614 174.2 381.2 169.94 393.453C167.822 399.58 164.881 405.389 161.198 410.722H214.927L185.065 344.275Z" fill="#94A3B8"/>
<path d="M373.436 295.888C371.737 300.759 369.625 305.477 367.123 309.988C367.511 313.003 369.898 313.864 372.59 313.309C372.839 313.273 373.085 313.217 373.325 313.142C376.17 312.294 383.136 301.403 381.193 294.457C378.642 295.105 376.051 295.583 373.436 295.888Z" fill="#98D6FA"/>
<path d="M415.315 408.277H267.143C266.891 408.277 266.686 408.482 266.686 408.735V410.305C266.686 410.558 266.891 410.763 267.143 410.763H415.315C415.568 410.763 415.773 410.558 415.773 410.305V408.735C415.773 408.482 415.568 408.277 415.315 408.277Z" fill="#2C3D5B"/>
<path d="M354.176 288.817C350.574 288.897 347.039 287.837 344.074 285.788L342.242 291.928C345.12 294.162 348.728 295.238 352.358 294.943L354.176 288.817Z" fill="black"/>
<path d="M334.61 305.307C329.089 304.653 323.722 303.045 318.75 300.556C316.086 298.791 314.753 297.458 315.045 295.11L316.53 283.162C317.001 279.356 321.123 278.995 322.371 278.995H323.079C329.647 279.742 336.032 281.647 341.937 284.621C345.142 286.844 346.239 288.969 345.309 291.275L340.896 302.389C340.105 304.376 338.26 305.251 334.916 305.251L334.61 305.307Z" fill="white"/>
<path d="M322.441 279.759H323.065C329.523 280.504 335.799 282.386 341.604 285.316C345.392 287.955 345.267 289.803 344.74 291.136L340.313 302.25C339.633 303.945 338.037 304.668 334.985 304.668H334.777C329.355 304.024 324.085 302.454 319.193 300.028C316.418 298.152 315.586 297.041 315.808 295.249L317.292 283.301C317.695 280.064 321.33 279.814 322.441 279.814V279.759ZM322.441 278.425C319.166 278.425 316.307 279.912 315.905 283.135L314.434 295.082C314.087 297.86 315.697 299.375 318.5 301.222C323.568 303.758 329.038 305.394 334.666 306.057H334.929C337.954 306.057 340.48 305.39 341.548 302.764L345.975 291.651C347.21 288.566 345.184 286.094 342.27 284.121C336.285 281.095 329.81 279.162 323.148 278.411H322.385L322.441 278.425Z" fill="black"/>
<path d="M367.705 314.239C367.24 314.235 366.776 314.193 366.317 314.114C361.197 313.101 356.183 311.603 351.345 309.641C350.216 309.318 349.251 308.581 348.641 307.577C348.031 306.572 347.823 305.375 348.056 304.223L350.318 293.109C350.534 292.055 351.106 291.107 351.937 290.424C352.768 289.741 353.808 289.365 354.883 289.358C355.353 289.355 355.82 289.421 356.271 289.553C362.408 290.482 368.387 292.264 374.033 294.846C377.085 296.374 378.196 298.902 376.988 301.417L371.979 311.711C371.626 312.508 371.038 313.177 370.294 313.629C369.55 314.081 368.685 314.294 367.816 314.239H367.705Z" fill="white"/>
<path d="M354.842 290.053C355.227 290.054 355.61 290.11 355.98 290.22H356.049H356.132C362.176 291.125 368.062 292.878 373.616 295.429C374.629 295.929 377.779 297.846 376.267 301.069L371.257 311.364C370.964 312.051 370.462 312.629 369.821 313.013C369.181 313.397 368.435 313.569 367.691 313.503C367.263 313.506 366.836 313.468 366.415 313.392C361.346 312.404 356.381 310.949 351.581 309.044C350.607 308.775 349.772 308.147 349.244 307.285C348.716 306.424 348.535 305.394 348.736 304.404L350.998 293.29C351.182 292.392 351.669 291.585 352.376 291.004C353.083 290.422 353.968 290.101 354.883 290.095L354.842 290.053ZM354.883 288.705C353.648 288.709 352.451 289.14 351.496 289.925C350.54 290.709 349.884 291.799 349.638 293.012L347.376 304.126C347.106 305.439 347.338 306.806 348.027 307.957C348.715 309.107 349.811 309.956 351.095 310.336C355.979 312.313 361.039 313.824 366.206 314.851C366.711 314.931 367.222 314.973 367.733 314.976C368.737 315.038 369.735 314.792 370.596 314.271C371.456 313.749 372.137 312.977 372.548 312.058L377.557 301.764C378.945 298.777 377.557 295.888 374.282 294.262C368.6 291.664 362.585 289.868 356.41 288.928C355.914 288.78 355.4 288.705 354.883 288.705Z" fill="black"/>
<g style="mix-blend-mode:multiply" opacity="0.57">
<path d="M381.373 299.93C381.366 299.903 381.366 299.874 381.373 299.847C381.373 299.652 381.373 299.444 381.373 299.236C381.373 298.722 381.373 298.208 381.373 297.694C381.373 296.749 381.262 295.818 381.165 294.915C381.068 294.012 380.901 292.679 380.79 291.553C370.09 283.971 360.618 274.788 352.705 264.324C350.013 260.74 347.362 256.864 343.144 254.739C340.874 253.71 338.419 253.156 335.928 253.11C333.437 253.065 330.963 253.529 328.657 254.475C325.493 255.739 320.04 258.865 319.027 262.074C318.181 264.852 320.873 269.326 322.066 271.798C325.652 279.263 330.874 285.821 337.344 290.984C341.129 294.057 345.283 296.647 349.708 298.694C356.22 301.799 363.311 303.503 370.522 303.695C373.965 303.736 377.399 303.325 380.735 302.473C380.943 301.611 381.179 300.778 381.373 299.93Z" fill="#D19D90"/>
</g>
<path d="M408.654 276.786C404.949 284.218 389.463 295.777 367.455 296.36C361.383 296.215 355.418 294.731 349.985 292.012C345.173 289.459 340.813 286.131 337.08 282.162C334.831 279.856 332.74 277.401 330.822 274.813C328.407 271.566 326.214 268.159 324.258 264.616C323.422 263.22 322.685 261.767 322.052 260.268C314.198 266.158 310.507 275.772 310.479 284.496C309.772 280.634 307.815 277.286 303.763 277.55C303.37 277.572 302.979 277.633 302.598 277.73C302.205 277.809 301.822 277.935 301.46 278.105C297.824 246.153 334.027 225.704 361.419 235.803C369.259 238.693 373.811 244.903 379.694 250.376C384.398 254.753 397.109 261.143 402.937 250.89C409.043 264.255 395.208 273.382 395.208 273.382C395.208 273.382 398.427 279.564 408.654 276.786Z" fill="#06A5FF"/>
<path d="M317.709 284.038L300.239 278.856L300.808 276.897C300.925 276.494 301.186 276.149 301.543 275.928C301.899 275.708 302.324 275.627 302.737 275.702L320.359 278.87L317.709 284.038Z" fill="black"/>
<path d="M310.479 284.538C310.613 285.161 310.706 285.792 310.757 286.427C310.85 288.004 310.79 289.586 310.576 291.15C310.202 294.498 309.452 297.999 309.341 299.833C309.328 299.986 309.328 300.139 309.341 300.292C308.217 303.653 305.498 305.251 299.753 304.279C294.008 303.306 295.063 294.776 295.465 290.845C295.607 288.152 296.154 285.497 297.088 282.968C297.912 280.87 299.478 279.15 301.487 278.133C301.85 277.963 302.232 277.837 302.625 277.758C303.007 277.661 303.397 277.6 303.791 277.578C307.843 277.286 309.799 280.634 310.507 284.524L310.479 284.538Z" fill="#98D6FA"/>
<path d="M310.757 286.427C310.706 285.792 310.613 285.161 310.479 284.538C310.356 283.858 310.18 283.189 309.952 282.537C309.869 282.287 309.799 282.023 309.702 281.787C309.605 281.551 309.536 281.467 309.466 281.301C309.397 281.134 309.244 280.801 309.119 280.578C308.994 280.356 308.897 280.287 308.8 280.134C308.673 279.919 308.529 279.715 308.37 279.523C308.261 279.404 308.145 279.293 308.023 279.189C307.853 279.003 307.672 278.826 307.482 278.661C307.334 278.56 307.181 278.468 307.024 278.383C306.832 278.256 306.633 278.14 306.427 278.036C306.247 277.966 306.061 277.91 305.872 277.869C305.651 277.788 305.423 277.723 305.192 277.675C304.984 277.675 304.762 277.675 304.54 277.675C304.286 277.661 304.031 277.661 303.777 277.675L303.361 277.744C303.262 277.756 303.167 277.789 303.083 277.842C303.666 279.328 305.595 279.578 306.358 281.217C306.845 282.398 307.095 283.663 307.093 284.94C307.288 289.247 305.539 306.543 297.796 301.375C296.873 300.747 296.05 299.984 295.354 299.111C295.798 301.722 296.991 303.917 299.753 304.376C305.498 305.348 308.217 303.751 309.341 300.389C309.328 300.236 309.328 300.083 309.341 299.93C309.452 298.097 310.202 294.596 310.576 291.248C310.796 289.651 310.857 288.036 310.757 286.427Z" fill="#66B5DC"/>
<path d="M397.859 567.802C390.199 579.208 382.026 590.252 373.825 601.269C369.662 606.826 365.097 612.716 361.142 618.606C359.213 621.482 355.355 630.734 350.721 629.164C353.557 630.11 356.443 630.898 359.366 631.526C360.198 631.457 361.003 631.429 361.836 631.429C364.174 631.436 366.504 631.725 368.774 632.29C381.096 619.704 399.704 578.43 412.609 542.31C412.109 543.435 411.596 544.56 411.041 545.672C407.107 553.314 402.705 560.705 397.859 567.802Z" fill="#2778E2"/>
<path d="M347.737 564.662L347.626 564.357L340.924 545.435C339.745 542.129 337.746 538.364 337.164 534.836L335.526 530.223L335.027 528.834C334.375 527 333.736 525.18 333.112 523.402C331.724 519.596 330.337 515.761 328.949 511.969C327.756 508.954 326.493 505.967 325.077 503.064C333.639 496.937 365.568 499.507 368.177 502.925L368.538 503.092C371.174 504.231 377.266 490.894 378.099 489.088C381.387 481.934 385.828 476.057 393.266 472.834C398.213 470.713 403.663 470.052 408.974 470.931C414.33 471.82 417.133 474.612 421.31 477.766C422.073 478.349 423.613 479.294 425.028 480.336C416.827 468.013 394.334 452.551 377.238 457.525C372.046 464.584 364.631 469.688 356.188 472.014C350.84 473.353 345.303 473.776 339.814 473.265C335.224 473.324 330.677 472.375 326.493 470.486H326.41L324.73 469.778L324.148 469.528L323.107 469.097L322.649 468.903L320.401 467.986L319.763 467.736L318.375 467.208L317.626 466.93C316.516 466.513 315.35 466.096 314.129 465.666C297.575 460.887 279.577 457.191 266.769 470.014C260.067 475.029 255.585 481.531 267.199 481.628C286.626 481.795 300.003 495.604 310.133 510.635C321.954 528.328 329.412 548.578 331.891 569.719C332.279 572.956 337.15 608.09 331.03 608.618C332.027 608.487 332.979 608.12 333.806 607.548L334.083 607.381L334.916 606.742C335.221 606.52 335.554 606.325 335.887 606.131L336.026 606.02L336.581 605.561C336.969 605.228 337.372 604.881 337.746 604.506C338.995 598.421 345.517 576.721 346.697 570.664C347.085 568.511 347.418 566.552 347.737 564.662Z" fill="#2778E2"/>
<path d="M262.093 390.675V390.078C257.759 384.705 251.757 380.935 245.039 379.367C243.055 381.941 241.378 384.738 240.043 387.702C244.562 387.893 248.964 389.19 252.865 391.481L241.764 397.163L264.049 390.55L262.093 390.675Z" fill="#D19D90"/>
<path d="M423.918 400.733C421.504 394.023 417.244 386.118 415.953 383.298L415.648 382.937C416.05 383.437 399.69 392.495 398.025 393.565C401.397 391.37 422.503 396.774 423.918 400.733Z" fill="#D19D90"/>
<path d="M532.153 373.921L530.696 372.532L529.309 371.142C534.096 365.766 532.958 358.639 530.53 354.305C530.295 353.878 529.95 353.523 529.529 353.279C529.109 353.034 528.629 352.908 528.143 352.916H514.836C506.288 352.916 496.797 352.916 487.971 352.999H483.808C479.645 352.999 475.691 352.999 472.208 352.999H468.364C467.841 352.999 467.34 352.791 466.971 352.421C466.601 352.051 466.394 351.55 466.394 351.026C466.394 350.503 466.601 350.001 466.971 349.631C467.34 349.261 467.841 349.054 468.364 349.054H472.194C475.677 349.054 479.618 349.054 483.781 349.054C485.168 349.054 486.556 349.054 487.943 349.054L514.808 348.97H528.115C529.306 348.962 530.478 349.273 531.507 349.872C532.537 350.47 533.388 351.334 533.971 352.374C537.01 357.931 538.384 366.822 532.264 373.712L532.153 373.921Z" fill="#64748B"/>
<g style="mix-blend-mode:multiply">
<path d="M356.021 324.673L355.827 324.436C354.712 325.415 353.525 326.306 352.275 327.104L352.635 327.701C352.4 328.507 351.997 329.729 351.525 331.271C351.923 331.564 352.303 331.879 352.663 332.216C352.868 332.419 353.063 332.632 353.246 332.855C353.385 333.008 353.524 333.147 353.662 333.314C353.801 333.48 353.898 333.647 354.009 333.814C354.12 333.98 354.342 334.272 354.495 334.508C354.9 335.182 355.248 335.888 355.536 336.62C355.619 336.842 355.716 337.051 355.799 337.273C355.952 337.717 356.077 338.162 356.202 338.662C356.208 338.704 356.208 338.746 356.202 338.787C356.285 339.134 356.354 339.482 356.424 339.829C356.424 339.968 356.424 340.107 356.493 340.246C356.562 340.649 356.604 341.066 356.646 341.482C356.646 341.482 356.646 341.607 356.646 341.663C356.646 342.163 356.646 342.649 356.646 343.149V343.386C356.644 343.878 356.616 344.369 356.562 344.858C356.035 350.665 353.787 354.208 348.375 356.222C342.926 358.248 337.104 359.072 331.308 358.639C332.418 358.723 334.541 360.765 335.582 361.334C337.307 362.308 339.124 363.109 341.007 363.724C344.762 365.016 348.839 365.016 352.594 363.724C357.908 361.696 357.562 355.472 361.919 352.291C373.117 344.136 381.914 360.487 385.134 368.961C385.259 369.281 385.384 369.614 385.495 369.948C388.353 377.838 391.628 386.007 393.293 394.245L396.263 394.106C398.39 393.18 400.467 392.18 402.493 391.106C403.534 390.564 404.561 390.022 405.574 389.466L405.92 389.272C406.947 388.702 407.946 388.133 408.904 387.535C409.473 387.202 410.028 386.841 410.569 386.479C411.11 386.118 411.832 385.646 412.428 385.229C413.497 384.465 414.552 383.701 415.551 382.854C416.527 382.069 417.454 381.224 418.326 380.325C403.881 343.219 381.235 326.895 356.021 324.673Z" fill="#98D6FA"/>
</g>
<g style="mix-blend-mode:multiply">
<path d="M378.959 428.726H277.121C277.121 431.963 277.024 435.297 277.037 438.562C283.684 437.867 291.843 434.172 297.463 433.658C316.234 431.895 335.02 436.852 350.485 447.647C354.412 450.426 358.228 453.704 362.904 454.857C365.572 455.433 368.341 455.331 370.959 454.559C373.577 453.787 375.96 452.371 377.89 450.44C378.279 444.702 378.612 436.617 378.959 428.726Z" fill="#98D6FA"/>
</g>
<g style="mix-blend-mode:multiply">
<path d="M284.642 367.989C284.253 368.795 283.67 370.142 283.101 371.49C280.334 378.354 276.363 384.668 271.376 390.133C273.485 390.022 275.636 389.911 277.884 389.772C280.659 389.591 283.434 389.369 286.349 389.119C286.487 382.576 286.668 371.545 286.654 370.226C286.66 370.147 286.66 370.068 286.654 369.989L284.642 367.989ZM377.946 395.551C377.078 387.675 374.803 380.019 371.23 372.948C371.618 380.058 371.119 387.189 369.745 394.176C372.5 394.495 375.237 394.954 377.946 395.551Z" fill="#98D6FA"/>
</g>
<path d="M368.801 632.29C366.532 631.725 364.202 631.436 361.863 631.429C361.031 631.429 360.226 631.429 359.393 631.526C353.166 632.04 347.242 634.438 342.409 638.403C344.518 638.986 348.473 636.902 350.623 636.666C354.002 636.23 357.434 636.491 360.709 637.432C363.983 638.373 367.031 639.975 369.664 642.139C372.298 644.303 374.461 646.983 376.021 650.015C377.581 653.047 378.506 656.366 378.737 659.769C379.639 659.575 380.541 659.366 381.401 659.116C388.145 643.974 379.403 634.999 368.801 632.29Z" fill="#334155"/>
<path d="M305.137 380.839L305.234 381.617C303.303 381.876 301.399 382.308 299.545 382.909L276.94 360.279C276.433 359.759 276.149 359.061 276.149 358.334C276.15 357.937 276.238 357.545 276.409 357.187C276.579 356.829 276.827 356.514 277.135 356.264C277.661 355.85 278.318 355.641 278.986 355.674C279.654 355.707 280.288 355.981 280.77 356.444L305.137 380.839Z" fill="#06A5FF"/>
<path d="M139.19 416.015C156.009 416.015 173.562 414.445 190.061 417.279C218.063 422.072 246.621 421.057 274.873 420.057C304.124 419.029 333.015 416.542 362.294 416.779L391.767 417.001C429.413 417.307 466.699 419.46 504.29 420.835L547.306 422.405" stroke="#64748B" stroke-width="0.25" stroke-miterlimit="10"/>
<path d="M202.161 416.015C234.653 416.849 267.166 416.014 299.573 413.514" stroke="#64748B" stroke-width="0.25" stroke-miterlimit="10"/>
<path d="M289.235 424.35C337.247 421.238 385.351 420.312 433.548 421.571" stroke="#64748B" stroke-width="0.25" stroke-miterlimit="10"/>
<path d="M132.835 422.391C141.979 418.223 152.539 419.613 162.475 421.002L197.304 425.989" stroke="#64748B" stroke-width="0.25" stroke-miterlimit="10"/>
<path d="M551.83 419.835L515.516 417.904C497.033 416.918 478.411 416.431 460.011 415.487C441.222 414.514 422.433 412.792 403.603 413.264L390.754 413.597" stroke="#64748B" stroke-width="0.25" stroke-miterlimit="10"/>
<path d="M446.439 422.336L551.899 424.169" stroke="#64748B" stroke-width="0.25" stroke-miterlimit="10"/>
<path d="M509.938 414.417L552.038 416.445" stroke="#64748B" stroke-width="0.25" stroke-miterlimit="10"/>
<path d="M358.713 425.586L472.124 425.92" stroke="#64748B" stroke-width="0.25" stroke-miterlimit="10"/>
<path d="M172.84 417.834C206.143 425.836 240.834 424.906 274.984 423.933" stroke="#64748B" stroke-width="0.25" stroke-miterlimit="10"/>
<path d="M526.658 352.985H528.143C528.629 352.978 529.109 353.103 529.529 353.348C529.95 353.593 530.295 353.948 530.53 354.374C532.51 357.904 533.08 362.054 532.126 365.988C533.225 364.449 534.021 362.714 534.471 360.876C534.395 359.726 534.209 358.586 533.916 357.472C533.333 355.402 532.528 352.777 530.502 351.818H530.336C527.782 350.693 524.785 351.124 522.107 351.137H511.269L487.943 351.221H483.781C479.978 351.221 470.64 351.221 466.394 351.221C466.393 351.731 466.592 352.221 466.947 352.587C467.302 352.952 467.785 353.165 468.295 353.18H483.808H487.971C496.769 353.18 506.288 353.11 514.836 353.096H526.672L526.658 352.985Z" fill="#475569"/>
<path d="M477.259 355.18H523.37" stroke="#B2B2B2" stroke-width="0.25" stroke-miterlimit="10"/>
<path d="M476.509 357.32H526.131" stroke="#B2B2B2" stroke-width="0.25" stroke-miterlimit="10"/>
<path d="M479.506 359.89H527.158" stroke="#B2B2B2" stroke-width="0.25" stroke-miterlimit="10"/>
<path d="M476.301 362.043H499.849" stroke="#B2B2B2" stroke-width="0.25" stroke-miterlimit="10"/>
<path d="M475.982 363.641H499.502" stroke="#B2B2B2" stroke-width="0.25" stroke-miterlimit="10"/>
<path d="M476.079 365.683H524.147" stroke="#B2B2B2" stroke-width="0.25" stroke-miterlimit="10"/>
<g style="mix-blend-mode:multiply" opacity="0.64">
<path d="M530.585 354.333C530.351 353.906 530.005 353.551 529.585 353.306C529.164 353.062 528.685 352.936 528.199 352.943H514.891C506.344 352.943 496.852 352.943 488.027 353.027H483.864C480.173 353.027 476.704 353.027 473.54 353.027L473.762 353.402C474.124 354.056 474.453 354.729 474.747 355.416V355.555C475.313 356.932 475.705 358.374 475.913 359.848H532.5C532.178 357.914 531.53 356.05 530.585 354.333Z" fill="#989898"/>
</g>
<path d="M540.298 372.268C539.077 371.962 537.801 371.67 536.482 371.406C534.817 371.073 533.013 370.767 531.14 370.503C513.656 367.892 489.83 367.85 472.859 368.294C470.389 368.294 468.294 368.419 466.657 368.489C465.902 368.51 465.16 368.684 464.475 369.002C463.791 369.32 463.178 369.774 462.674 370.337C462.16 370.897 461.763 371.554 461.506 372.269C461.249 372.985 461.136 373.745 461.176 374.504L461.994 390.272L465.949 390.175L465.144 374.338C465.131 374.105 465.165 373.871 465.243 373.652C465.322 373.432 465.444 373.231 465.602 373.059C465.756 372.886 465.944 372.746 466.154 372.648C466.364 372.55 466.592 372.496 466.823 372.49L472.97 372.295C486.68 371.948 512.407 371.768 530.529 374.477C532.347 374.727 534.068 375.018 535.664 375.338C536.926 375.588 538.134 375.866 539.299 376.157C539.807 376.285 540.345 376.205 540.793 375.935C541.242 375.665 541.566 375.228 541.693 374.72C541.82 374.211 541.74 373.673 541.47 373.224C541.201 372.774 540.765 372.45 540.257 372.323L540.298 372.268Z" fill="#64748B"/>
<path d="M539.3 376.102C539.798 376.222 540.323 376.144 540.765 375.885C541.208 375.626 541.533 375.206 541.672 374.713L536.039 373.323C534.387 372.99 532.625 372.684 530.807 372.434C512.435 369.656 486.82 369.878 472.929 370.239L467.129 370.42C466.319 370.379 465.519 370.618 464.862 371.095C464.206 371.573 463.733 372.261 463.521 373.046C463.172 375.005 463.134 377.007 463.41 378.978L463.702 384.743C463.799 386.535 463.924 388.327 463.993 390.105H465.963L465.145 374.338C465.131 374.105 465.165 373.871 465.244 373.652C465.322 373.432 465.445 373.231 465.603 373.059C465.756 372.886 465.944 372.746 466.154 372.648C466.364 372.55 466.592 372.496 466.824 372.49L472.971 372.295C486.681 371.948 512.407 371.768 530.53 374.477C532.348 374.727 534.068 375.018 535.664 375.338C536.927 375.532 538.134 375.81 539.3 376.102Z" fill="#475569"/>
<path d="M465.228 376.046C487.11 373.685 514.35 374.449 534.082 377.963" stroke="#B2B2B2" stroke-width="0.25" stroke-miterlimit="10"/>
<path d="M513.365 377.324C520.303 377.894 527.158 378.714 533.874 379.811" stroke="#B2B2B2" stroke-width="0.25" stroke-miterlimit="10"/>
<path d="M465.644 377.964C475.165 376.93 484.735 376.415 494.312 376.421" stroke="#B2B2B2" stroke-width="0.25" stroke-miterlimit="10"/>
<path d="M533.652 381.659C511.128 378.528 488.334 377.811 465.658 379.519" stroke="#B2B2B2" stroke-width="0.25" stroke-miterlimit="10"/>
<path d="M500.058 380.909C506.635 381.089 513.157 381.395 518.721 381.77" stroke="#B2B2B2" stroke-width="0.25" stroke-miterlimit="10"/>
<path d="M465.519 381.659C469.767 381.065 474.051 380.768 478.341 380.77" stroke="#B2B2B2" stroke-width="0.25" stroke-miterlimit="10"/>
<path d="M467.212 383.215L490.996 382.617" stroke="#B2B2B2" stroke-width="0.25" stroke-miterlimit="10"/>
<path d="M532.736 384.937C525.797 383.573 518.722 383.037 511.658 383.34" stroke="#B2B2B2" stroke-width="0.25" stroke-miterlimit="10"/>
<path d="M533.361 386.16C523.016 384.915 512.578 384.627 502.181 385.299" stroke="#B2B2B2" stroke-width="0.25" stroke-miterlimit="10"/>
<path d="M473.512 386.16C487.166 386.702 522.87 385.66 532.736 387.327" stroke="#B2B2B2" stroke-width="0.25" stroke-miterlimit="10"/>
<path d="M502.985 388.133C512.746 387.449 522.549 387.691 532.264 388.855" stroke="#B2B2B2" stroke-width="0.25" stroke-miterlimit="10"/>
<path d="M465.367 374.657C471.373 373.67 477.463 373.298 483.545 373.546" stroke="#B2B2B2" stroke-width="0.25" stroke-miterlimit="10"/>
<g style="mix-blend-mode:multiply" opacity="0.64">
<path d="M530.585 374.421C512.463 371.712 486.736 371.893 473.026 372.24L466.879 372.434C466.647 372.441 466.42 372.494 466.21 372.592C465.999 372.69 465.812 372.83 465.658 373.004C465.5 373.175 465.378 373.377 465.299 373.596C465.22 373.816 465.187 374.049 465.2 374.282L465.478 379.644H533.916C534.116 378.115 534.508 376.617 535.081 375.185C533.652 374.907 532.139 374.643 530.585 374.421Z" fill="#989898"/>
</g>
<path d="M463.229 398.733C484.044 398.205 504.387 398.33 525.243 397.802" stroke="#B2B2B2" stroke-width="0.25" stroke-miterlimit="10"/>
<path d="M462.98 396.732L502.028 396.218" stroke="#B2B2B2" stroke-width="0.25" stroke-miterlimit="10"/>
<path d="M463.229 400.302C468.974 400.066 490.649 400.302 490.372 400.233" stroke="#B2B2B2" stroke-width="0.25" stroke-miterlimit="10"/>
<path d="M536.039 401.539C529.711 402.428 509.674 402.039 503.374 401.289" stroke="#B2B2B2" stroke-width="0.25" stroke-miterlimit="10"/>
<path d="M535.497 399.441L516.07 400.038" stroke="#B2B2B2" stroke-width="0.25" stroke-miterlimit="10"/>
<path d="M535.914 403.678C531.001 403.984 524.66 404.762 519.706 404.151" stroke="#B2B2B2" stroke-width="0.25" stroke-miterlimit="10"/>
<path d="M535.664 406.679C531.987 407.61 522.62 407.332 518.874 406.818" stroke="#B2B2B2" stroke-width="0.25" stroke-miterlimit="10"/>
<path d="M514.822 409.235C521.45 409.957 528.134 410.027 534.776 409.443" stroke="#B2B2B2" stroke-width="0.25" stroke-miterlimit="10"/>
<path d="M536.399 410.763H458.761C458.266 410.722 457.804 410.495 457.467 410.128C457.13 409.762 456.943 409.282 456.943 408.784C456.943 408.285 457.13 407.805 457.467 407.439C457.804 407.072 458.266 406.846 458.761 406.804H535.345C536.44 403.644 536.523 400.219 535.581 397.01C535.485 396.7 535.304 396.424 535.059 396.212C534.813 396.001 534.513 395.863 534.193 395.815H533.86C511.866 393.037 489.123 393.578 467.129 394.079L458.428 394.273C457.906 394.273 457.405 394.065 457.035 393.695C456.666 393.325 456.458 392.824 456.458 392.3C456.458 391.777 456.666 391.275 457.035 390.905C457.405 390.535 457.906 390.328 458.428 390.328L467.101 390.133C489.303 389.619 512.13 389.091 534.36 391.884H534.679C535.766 392.001 536.797 392.431 537.646 393.121C538.495 393.811 539.127 394.732 539.466 395.773C540.854 400.15 540.576 407.207 537.995 410.096C537.797 410.321 537.55 410.498 537.274 410.613C536.997 410.728 536.698 410.78 536.399 410.763Z" fill="#64748B"/>
<path d="M463.257 402.247L482.254 401.858" stroke="#B2B2B2" stroke-width="0.25" stroke-miterlimit="10"/>
<path d="M463.493 403.817C474.011 404.188 484.534 404.188 495.062 403.817" stroke="#B2B2B2" stroke-width="0.25" stroke-miterlimit="10"/>
<g style="mix-blend-mode:multiply" opacity="0.64">
<path d="M535.581 397.01C535.485 396.7 535.304 396.424 535.059 396.212C534.813 396.001 534.513 395.863 534.193 395.815H533.86C511.866 393.037 489.123 393.578 467.129 394.079L462.466 394.19C462.782 396.542 462.912 398.916 462.855 401.289H536.274C536.254 399.836 536.02 398.394 535.581 397.01Z" fill="#989898"/>
</g>
<g style="mix-blend-mode:multiply" opacity="0.57">
<path d="M343.255 312.92C342.922 312.92 342.561 312.989 342.228 313.031C341.895 313.072 341.715 313.128 341.645 313.35C341.34 314.378 344.421 314.114 344.878 314.087C346.807 314.087 345.558 311.308 345.35 310.391C345.35 310.155 345.184 309.877 344.948 309.849C344.864 310.583 344.739 311.311 344.573 312.031C344.471 312.296 344.29 312.524 344.054 312.683C343.818 312.842 343.539 312.924 343.255 312.92Z" fill="#D19D90"/>
</g>
<path d="M504.97 349.095C505.622 319.088 507.537 226.843 507.856 211.408C507.861 211.119 507.809 210.832 507.702 210.563C507.595 210.294 507.435 210.05 507.232 209.844C507.029 209.638 506.787 209.475 506.52 209.364C506.253 209.254 505.966 209.198 505.677 209.2C505.103 209.199 504.551 209.425 504.141 209.828C503.732 210.23 503.496 210.778 503.485 211.353C503.221 226.815 501.639 320.977 500.404 349.318L504.97 349.095Z" fill="#94A3B8"/>
<path d="M447.369 192.723L442.457 189.306L437.558 185.888L433.507 183.082L394.514 212.311L416.022 227.301L437.503 242.305L451.379 195.53L447.369 192.723Z" fill="#CBD5E1"/>
<path d="M439.973 219.688C440.944 221.244 441.874 222.842 442.748 224.467L451.337 195.53L447.327 192.751L442.415 189.334L437.614 185.888L433.562 183.11L419.033 194.001C427.046 201.665 434.08 210.293 439.973 219.688Z" fill="#94A3B8"/>
<path d="M447.328 192.723L437.517 185.874L439.03 183.652L439.959 182.262C440.213 181.897 440.522 181.574 440.875 181.304C441.608 180.738 442.501 180.42 443.427 180.395C444.352 180.37 445.261 180.639 446.023 181.165L448.701 183.054C449.407 183.546 449.951 184.236 450.265 185.037C450.579 185.838 450.648 186.715 450.464 187.555C450.353 188.115 450.126 188.645 449.798 189.111L449.09 190.125L447.328 192.723Z" fill="#64748B"/>
<path d="M546.682 251.766C546.585 251.94 546.453 252.093 546.294 252.215C546.135 252.337 545.954 252.424 545.76 252.472C545.566 252.521 545.364 252.528 545.167 252.495C544.97 252.462 544.782 252.389 544.614 252.28L506.898 227.746L503.929 225.829L449.131 190.195L439.071 183.666L436.74 182.137C436.581 182.043 436.442 181.918 436.332 181.769C436.221 181.621 436.142 181.451 436.098 181.271C436.054 181.091 436.046 180.904 436.076 180.722C436.105 180.539 436.17 180.364 436.268 180.206C436.359 180.027 436.487 179.869 436.644 179.743C436.802 179.618 436.984 179.529 437.18 179.481C437.375 179.434 437.578 179.429 437.775 179.468C437.973 179.507 438.159 179.588 438.322 179.706L440.917 181.373L450.505 187.625L504.054 222.439L506.996 224.301L546.252 249.821C546.411 249.915 546.55 250.04 546.66 250.189C546.77 250.338 546.85 250.507 546.894 250.687C546.938 250.867 546.945 251.054 546.916 251.237C546.887 251.419 546.821 251.595 546.723 251.752L546.682 251.766Z" fill="#94A3B8"/>
<path d="M510.7 215.548H499.821V237.318H510.7V215.548Z" fill="#94A3B8"/>
<circle cx="54.5" cy="156.5" r="9.5" fill="#06A5FF"/>
<circle cx="44.5" cy="400.5" r="14.5" fill="#06A5FF"/>
<circle cx="214.5" cy="110.5" r="18.5" fill="#06A5FF"/>
<circle cx="541.5" cy="119.5" r="23.5" fill="#B6E5FF"/>
<path d="M95.1033 494.817C95.4701 494.074 96.5299 494.074 96.8967 494.817L101.939 505.034C102.085 505.329 102.366 505.534 102.692 505.581L113.967 507.219C114.787 507.338 115.115 508.346 114.521 508.925L106.363 516.878C106.127 517.107 106.019 517.438 106.075 517.763L108.001 528.992C108.141 529.809 107.284 530.432 106.55 530.046L96.4653 524.745C96.174 524.591 95.826 524.591 95.5347 524.745L85.45 530.046C84.7164 530.432 83.8589 529.809 83.999 528.992L85.925 517.763C85.9807 517.438 85.8731 517.107 85.6374 516.878L77.4788 508.925C76.8852 508.346 77.2128 507.338 78.033 507.219L89.308 505.581C89.6337 505.534 89.9153 505.329 90.0609 505.034L95.1033 494.817Z" fill="#B6E5FF"/>
<path d="M496.004 612.898C496.117 612.077 497.122 611.741 497.705 612.33L505.821 620.517C506.053 620.751 506.385 620.855 506.709 620.797L518.054 618.753C518.87 618.606 519.5 619.458 519.12 620.195L513.842 630.444C513.691 630.736 513.694 631.084 513.85 631.374L519.3 641.533C519.692 642.263 519.076 643.126 518.258 642.992L506.88 641.139C506.555 641.086 506.225 641.197 505.997 641.434L498.02 649.757C497.446 650.355 496.436 650.036 496.31 649.217L494.556 637.823C494.506 637.498 494.299 637.218 494.003 637.075L483.622 632.06C482.876 631.699 482.867 630.639 483.607 630.266L493.902 625.078C494.196 624.929 494.398 624.646 494.442 624.32L496.004 612.898Z" fill="#06A5FF"/>
<path d="M574.779 160.99L574.128 157.788C574.399 157.733 574.574 157.469 574.519 157.198L574.094 155.107C574.073 155.004 574.083 154.912 574.113 154.834C574.194 154.616 574.114 154.377 573.932 154.249C573.958 154.227 573.985 154.206 574.013 154.187C574.091 154.395 574.302 154.532 574.533 154.508C574.617 154.499 574.708 154.512 574.803 154.558L576.721 155.493C576.969 155.614 577.268 155.511 577.389 155.263L580.326 156.694C580.205 156.942 580.309 157.241 580.557 157.362L582.475 158.297C582.585 158.351 582.7 158.39 582.817 158.415C582.945 158.443 583.071 158.419 583.175 158.358C583.283 158.412 583.41 158.428 583.536 158.393C583.651 158.361 583.764 158.315 583.87 158.254L585.728 157.204C585.968 157.068 586.053 156.763 585.917 156.523L588.761 154.915C588.897 155.155 589.202 155.24 589.442 155.104L591.3 154.054C591.391 154.002 591.482 153.984 591.566 153.987C591.798 153.998 592 153.847 592.065 153.635C592.095 153.653 592.123 153.672 592.15 153.693C591.976 153.831 591.911 154.074 592.005 154.287C592.039 154.364 592.055 154.454 592.041 154.559L591.745 156.672C591.706 156.945 591.897 157.198 592.17 157.236L591.717 160.472C591.443 160.434 591.19 160.624 591.152 160.898L590.856 163.011C590.839 163.132 590.837 163.253 590.849 163.373C590.863 163.502 590.924 163.615 591.014 163.695C590.996 163.815 591.02 163.941 591.092 164.049C591.158 164.149 591.237 164.242 591.328 164.324L592.9 165.766C593.104 165.953 593.42 165.939 593.607 165.736L596.015 167.944C595.828 168.147 595.842 168.464 596.046 168.65L597.618 170.092C597.696 170.163 597.741 170.244 597.764 170.325C597.826 170.549 598.031 170.695 598.253 170.691C598.246 170.724 598.236 170.757 598.225 170.789C598.039 170.667 597.788 170.68 597.615 170.835C597.552 170.891 597.471 170.935 597.367 170.953L595.266 171.324C594.994 171.372 594.813 171.632 594.861 171.904L591.643 172.472C591.595 172.2 591.336 172.019 591.064 172.067L588.963 172.438C588.842 172.459 588.726 172.495 588.616 172.543C588.497 172.596 588.409 172.69 588.361 172.8C588.242 172.819 588.129 172.882 588.048 172.984C587.974 173.078 587.91 173.181 587.859 173.293L586.974 175.234C586.859 175.485 586.97 175.782 587.221 175.896L585.865 178.869C585.614 178.754 585.317 178.865 585.203 179.116L584.317 181.058C584.274 181.154 584.211 181.221 584.141 181.268C583.947 181.396 583.872 181.637 583.944 181.847C583.91 181.85 583.876 181.851 583.842 181.85C583.901 181.636 583.811 181.4 583.61 181.284C583.537 181.242 583.471 181.178 583.421 181.085L582.419 179.201C582.289 178.958 581.986 178.865 581.743 178.995L580.208 176.111C580.452 175.981 580.544 175.678 580.414 175.434L579.412 173.551C579.354 173.443 579.285 173.343 579.205 173.254C579.118 173.157 579.001 173.102 578.881 173.09C578.826 172.983 578.732 172.895 578.61 172.849C578.498 172.808 578.38 172.779 578.258 172.765L576.138 172.523C575.864 172.492 575.616 172.689 575.585 172.963L572.338 172.592C572.37 172.318 572.173 172.07 571.898 172.039L569.779 171.796C569.674 171.784 569.59 171.746 569.524 171.694C569.342 171.549 569.09 171.552 568.913 171.685C568.9 171.654 568.888 171.622 568.878 171.589C569.1 171.579 569.296 171.421 569.345 171.193C569.362 171.111 569.402 171.028 569.476 170.952L570.957 169.417C571.149 169.218 571.143 168.902 570.945 168.71L573.214 166.359C573.412 166.551 573.729 166.545 573.921 166.347L575.402 164.811C575.487 164.723 575.56 164.626 575.62 164.522C575.686 164.41 575.702 164.282 575.676 164.164C575.761 164.079 575.816 163.962 575.822 163.832C575.827 163.712 575.817 163.591 575.793 163.471L575.368 161.38C575.313 161.109 575.049 160.935 574.779 160.99Z" fill="#F1F5F9" stroke="#06A5FF" stroke-linecap="round" stroke-dasharray="5 5"/>
</svg>
