<svg width="790" height="767" viewBox="0 0 790 767" fill="none" xmlns="http://www.w3.org/2000/svg">
<circle cx="395" cy="395" r="394.5" stroke="#06A5FF"/>
<circle cx="395" cy="395" r="329.5" stroke="#06A5FF"/>
<circle cx="395" cy="395" r="357" stroke="#06A5FF" stroke-width="2" stroke-linecap="round" stroke-dasharray="10 10"/>
<circle cx="395" cy="395" r="315" fill="#2C3D5B"/>
<circle cx="386" cy="616" r="79" fill="#315D93" stroke="#06A5FF" stroke-width="2" stroke-linecap="round" stroke-dasharray="12 12"/>
<path d="M374.387 651.349C385.687 657.206 412.809 661.869 424.078 637.024C435.347 612.178 411.727 585.088 397.768 580.457C399.359 584.054 398.293 590.755 392.993 592.76C386.945 595.052 380.753 596.532 374.896 599.254C370.628 601.163 366.907 604.111 364.071 607.828C361.235 611.545 359.375 615.914 358.661 620.534C358.171 625.612 358.876 630.734 360.719 635.49C362.563 640.246 365.493 644.505 369.277 647.926C370.849 649.253 372.562 650.4 374.387 651.349V651.349Z" fill="#F8FAFC"/>
<path d="M383.761 648.324C397.765 648.324 409.116 636.972 409.116 622.969C409.116 608.966 397.765 597.614 383.761 597.614C369.758 597.614 358.406 608.966 358.406 622.969C358.406 636.972 369.758 648.324 383.761 648.324Z" fill="#27B1FF"/>
<path d="M382.408 615.806C398.738 604.092 391.544 581.809 387.724 576.015C388.202 583.098 382.345 588.382 369.468 593.603C356.592 598.823 346.612 605.811 344.432 617.318C343.437 623.11 344.17 629.067 346.539 634.445C348.908 639.823 352.809 644.384 357.754 647.56C364.407 651.682 376.758 653.576 380.641 647.894C372.874 645.14 363.165 629.049 382.408 615.806Z" fill="#E2E8F0"/>
<path d="M382.886 608.103C383.167 604.801 384.195 601.606 385.894 598.761C385.926 598.702 385.943 598.636 385.943 598.57C385.943 598.503 385.926 598.437 385.894 598.379C388.507 595.979 390.664 593.126 392.261 589.959C392.261 589.513 392.133 589.067 392.07 588.622C390.058 592.881 387.051 596.594 383.303 599.448C379.555 602.301 375.176 604.211 370.535 605.016L372.811 603.535C375.337 602.037 377.733 600.327 379.973 598.426C384.127 594.702 390.175 584.786 388.584 577.592C388.319 577.044 388.022 576.512 387.693 576C387.693 576.43 387.693 576.859 387.693 577.273C389.618 584.165 383.554 594.113 379.416 597.821C377.213 599.688 374.86 601.37 372.381 602.851C369.173 604.697 366.228 606.967 363.627 609.6L364.677 606.894C365.425 604.936 366.189 602.915 366.985 601.116C368.148 598.662 369.06 596.097 369.707 593.46L369.42 593.588L368.816 593.842C368.168 596.232 367.311 598.559 366.253 600.798C365.457 602.612 364.661 604.65 363.929 606.607C363.197 608.565 362.497 610.348 361.765 612.067C359.529 615.812 358.423 620.123 358.581 624.482C358.581 624.609 358.581 624.72 358.581 624.832C355.011 618.393 353.88 610.883 355.398 603.679V603.679C356.098 602.214 356.83 600.83 357.594 599.572C357.085 599.907 356.576 600.241 356.082 600.591C352.597 606.958 349.636 615.6 349.827 622.667C349.9 625.248 350.247 627.815 350.862 630.323C347.145 625.212 345.378 618.94 345.88 612.64C345.88 612.64 345.88 612.64 345.88 612.544C345.559 613.304 345.277 614.079 345.036 614.868C345.058 621.004 347.137 626.956 350.941 631.771C350.98 631.818 351.029 631.855 351.084 631.88C351.139 631.905 351.199 631.916 351.26 631.915C352.635 636.804 354.978 641.367 358.152 645.332C359.538 647.158 361.235 648.726 363.165 649.964L363.277 650.043C364.088 650.298 364.868 650.521 365.76 650.728C365.777 650.681 365.784 650.631 365.782 650.581C365.779 650.531 365.766 650.482 365.744 650.437C365.721 650.393 365.69 650.353 365.652 650.321C365.613 650.289 365.569 650.265 365.521 650.25C364.853 649.987 364.209 649.667 363.595 649.295C362.933 648.819 362.389 648.199 362.003 647.481C361.474 646.335 361.115 645.118 360.937 643.868C360.318 640.378 359.993 636.843 359.966 633.299C360.673 635.469 361.686 637.527 362.974 639.411C364.22 641.184 365.741 642.748 367.479 644.043L367.813 644.552C367.85 644.602 367.898 644.642 367.953 644.669C368.008 644.697 368.069 644.711 368.131 644.711C368.204 644.735 368.282 644.735 368.354 644.711C370.657 646.281 373.295 647.289 376.058 647.656V647.656C376.155 647.657 376.25 647.621 376.323 647.557C376.397 647.492 376.444 647.403 376.455 647.306C376.462 647.254 376.458 647.202 376.444 647.152C376.43 647.102 376.406 647.056 376.373 647.016C376.34 646.975 376.299 646.942 376.253 646.918C376.207 646.894 376.157 646.88 376.105 646.876C373.167 646.477 370.382 645.325 368.02 643.534C365.636 639.993 364.419 635.795 364.539 631.529C364.659 627.262 366.11 623.14 368.688 619.738C368.148 620.862 367.773 622.057 367.574 623.288C366.778 628.063 368.943 633.172 371.394 636.578C371.261 635.952 371.16 635.32 371.092 634.684C368.896 631.36 367.928 627.375 368.354 623.415C369.103 619.728 371.147 616.431 374.116 614.12C376.29 612.455 378.638 611.03 381.119 609.87L382.042 609.377C382.042 609.377 382.138 609.456 382.185 609.456C382.285 609.453 382.379 609.415 382.452 609.347C382.525 609.28 382.572 609.189 382.583 609.09C385.957 607.557 388.98 605.346 391.465 602.596C391.672 601.832 391.847 601.005 391.974 600.289C390.573 603.663 386.849 605.987 382.886 608.103ZM360.284 644.043C360.471 645.24 360.802 646.411 361.271 647.529C360.388 646.706 359.569 645.817 358.82 644.871C353.769 638.549 350.914 630.755 350.687 622.667C350.791 617.095 351.997 611.599 354.236 606.496C353.466 613.255 354.913 620.081 358.358 625.946C358.394 626.008 358.445 626.059 358.506 626.095C358.568 626.132 358.637 626.151 358.709 626.153V626.153C358.813 627.76 359.042 629.356 359.393 630.928C359.358 630.963 359.33 631.005 359.31 631.052C359.291 631.098 359.281 631.148 359.282 631.198C359.17 635.502 359.501 639.806 360.268 644.043H360.284ZM382.026 608.549L380.928 609.122C378.391 610.315 375.99 611.777 373.766 613.483C372.883 614.26 372.053 615.094 371.283 615.982C371.23 615.969 371.176 615.969 371.123 615.982C367.535 619.153 365.114 623.436 364.249 628.145C363.383 632.855 364.122 637.718 366.349 641.958C365.365 641.039 364.479 640.02 363.706 638.918C360.851 634.637 359.354 629.595 359.409 624.45C359.29 620.399 360.263 616.392 362.226 612.847C362.287 612.8 362.336 612.74 362.369 612.672L362.465 612.433L362.783 611.908C364.599 609.446 366.855 607.341 369.436 605.7C369.469 605.756 369.515 605.803 369.571 605.837C369.626 605.87 369.69 605.889 369.755 605.891V605.891C375.187 605.129 380.304 602.882 384.541 599.397C383.063 602.236 382.201 605.354 382.01 608.549H382.026Z" fill="#CBD5E1"/>
<path d="M360.083 538.702C362.102 498.433 338.939 460.773 310.325 432.38C281.711 403.987 247.219 382.136 217.721 354.642C194.907 333.378 175.276 308.938 159.432 282.076" stroke="#06A5FF" stroke-linecap="round" stroke-linejoin="round" stroke-dasharray="6 6"/>
<path d="M356.193 148.524C309.043 236.738 306.303 347.319 349.047 437.757C365.372 472.309 382.214 499.803 380.519 537.95" stroke="#06A5FF" stroke-linecap="round" stroke-linejoin="round" stroke-dasharray="6 6"/>
<path d="M401.265 537.405C393.456 511.193 405.332 482.152 424.84 462.968C444.348 443.784 470.31 432.748 496.124 423.686C521.939 414.625 548.564 406.993 572.02 392.907C609.136 370.643 636.277 341.941 644.896 299.536" stroke="#06A5FF" stroke-linecap="round" stroke-linejoin="round" stroke-dasharray="6 6"/>
<path d="M398.908 510.898C377.838 467.963 367.775 441.647 404.227 402.734C440.68 363.821 479.622 361.11 512.376 319.014C545.131 276.918 554.222 213.37 552.159 173.057" stroke="#06A5FF" stroke-linecap="round" stroke-linejoin="round" stroke-dasharray="6 6"/>
<path d="M465.168 143.19C483.143 305.974 420.081 289.855 423.072 384.729" stroke="#06A5FF" stroke-linecap="round" stroke-linejoin="round" stroke-dasharray="6 6"/>
<path d="M404.418 494.735C426.122 476.008 461.617 475.05 481.921 476.553C502.224 478.056 522.366 482.063 542.729 482.447C580.601 482.926 617.55 470.756 647.725 447.865" stroke="#06A5FF" stroke-linecap="round" stroke-linejoin="round" stroke-dasharray="6 6"/>
<path d="M355.25 503.001C341.076 484.48 307.703 472.059 275.98 469.289C249.856 467.064 223.452 469.289 197.461 465.841C171.47 462.393 144.757 452.285 129.301 431.127" stroke="#06A5FF" stroke-linecap="round" stroke-linejoin="round" stroke-dasharray="6 6"/>
<path d="M337.171 404.502C406.57 391.684 440.12 259.768 433.445 136" stroke="#06A5FF" stroke-linecap="round" stroke-linejoin="round" stroke-dasharray="6 6"/>
<path d="M229.331 196.086C234.444 248.525 274.344 302.865 319.917 329.313" stroke="#06A5FF" stroke-linecap="round" stroke-linejoin="round" stroke-dasharray="6 6"/>
<path d="M256.31 384.95C264.384 348.512 242.209 286.82 191.243 231.522" stroke="#06A5FF" stroke-linecap="round" stroke-linejoin="round" stroke-dasharray="6 6"/>
<path d="M319.593 276.859C337.643 268.637 350.196 249.645 355.766 230.608C361.335 211.572 363.133 191.474 369.955 172.85" stroke="#06A5FF" stroke-linecap="round" stroke-linejoin="round" stroke-dasharray="6 6"/>
<path d="M398.672 347.923C386.428 329.298 380.829 228.575 398.672 147.861" stroke="#06A5FF" stroke-linecap="round" stroke-linejoin="round" stroke-dasharray="6 6"/>
<path d="M512.538 319.678C554.015 318.764 582.29 261.654 585.06 221.076" stroke="#06A5FF" stroke-linecap="round" stroke-linejoin="round" stroke-dasharray="6 6"/>
<path d="M325.487 233.26C304.623 208.212 293.956 166.264 306.155 136.014" stroke="#06A5FF" stroke-linecap="round" stroke-linejoin="round" stroke-dasharray="6 6"/>
<path d="M275.936 292.257C283.141 269.625 277.012 245.107 270.691 222.254C264.37 199.402 257.813 175.105 264.207 152.237" stroke="#06A5FF" stroke-linecap="round" stroke-linejoin="round" stroke-dasharray="6 6"/>
<path d="M431.279 329.814C462.545 320.664 484.322 286.496 496.566 257.248C508.81 228.001 510.991 188.984 503.933 158.072" stroke="#06A5FF" stroke-linecap="round" stroke-linejoin="round" stroke-dasharray="6 6"/>
<path d="M368.806 388.206C351.64 367.151 350.02 301.127 366.139 267.842" stroke="#06A5FF" stroke-linecap="round" stroke-linejoin="round" stroke-dasharray="6 6"/>
<path d="M384.232 433.293C422.849 426.278 459.504 411.031 491.704 388.589C504.354 379.821 515.453 369.005 524.547 356.586" stroke="#06A5FF" stroke-linecap="round" stroke-linejoin="round" stroke-dasharray="6 6"/>
<path d="M525.991 413.195C525.077 397.489 534.478 382.917 545.779 371.94C557.08 360.963 570.562 352.446 581.48 341.115C590.984 331.133 598.305 319.28 602.975 306.312C607.646 293.343 609.563 279.544 608.606 265.794" stroke="#06A5FF" stroke-linecap="round" stroke-linejoin="round" stroke-dasharray="6 6"/>
<path d="M309.206 475.182C300.719 460.227 283.391 443.4 266.123 436.461C249.679 429.86 231.482 429.256 214.361 424.673C197.24 420.091 179.691 410.027 174.49 393.083" stroke="#06A5FF" stroke-linecap="round" stroke-linejoin="round" stroke-dasharray="6 6"/>
<path d="M134.634 312.487C148.823 328.518 163.189 344.725 180.664 357.249C198.139 369.774 221.92 379.248 243.299 377.877" stroke="#06A5FF" stroke-linecap="round" stroke-linejoin="round" stroke-dasharray="6 6"/>
<path d="M335.492 404.886C325.679 406.521 313.39 399.758 306.421 392.597C289.359 374.916 277.468 344.475 276.952 319.898" stroke="#06A5FF" stroke-linecap="round" stroke-linejoin="round" stroke-dasharray="6 6"/>
<path d="M476.749 431.348C534.861 444.609 604.038 421.034 639.179 372.868" stroke="#06A5FF" stroke-linecap="round" stroke-linejoin="round" stroke-dasharray="6 6"/>
<path d="M520.819 480.531C531.826 465.399 549.698 454.334 567.468 448.469C585.237 442.605 603.817 439.187 621.13 432.1C638.443 425.012 655.019 413.402 662.577 396.31" stroke="#06A5FF" stroke-linecap="round" stroke-linejoin="round" stroke-dasharray="6 6"/>
<path d="M202.795 466.239C194.927 453.081 181.902 440.985 170.276 430.98C158.651 420.976 146.702 410.971 138.111 398.285C129.521 385.599 124.468 369.612 128.298 354.76" stroke="#06A5FF" stroke-linecap="round" stroke-linejoin="round" stroke-dasharray="6 6"/>
<circle cx="64.5" cy="262.5" r="14.5" fill="#06A5FF"/>
<circle cx="621" cy="120" r="12" fill="#06A5FF"/>
<circle cx="746" cy="574" r="24" fill="#06A5FF"/>
<path d="M717.092 147.796C717.496 147.073 718.555 147.127 718.883 147.888L723.393 158.351C723.523 158.653 723.794 158.872 724.116 158.936L735.292 161.153C736.105 161.314 736.38 162.337 735.758 162.884L727.201 170.407C726.954 170.624 726.829 170.949 726.868 171.276L728.214 182.59C728.312 183.413 727.423 183.991 726.711 183.568L716.912 177.754C716.629 177.586 716.281 177.568 715.983 177.706L705.639 182.482C704.886 182.83 704.062 182.164 704.244 181.355L706.745 170.239C706.817 169.918 706.727 169.582 706.503 169.341L698.765 160.979C698.202 160.37 698.581 159.381 699.406 159.304L710.75 158.248C711.078 158.217 711.37 158.027 711.53 157.74L717.092 147.796Z" fill="#B6E5FF"/>
<path d="M48.9371 611.651L51.2684 609.823C51.4388 610.04 51.7531 610.079 51.9704 609.908L53.5295 608.686C53.6259 608.61 53.7116 608.524 53.7855 608.43C53.8658 608.327 53.8996 608.203 53.8902 608.083C53.9864 608.01 54.0566 607.902 54.0799 607.774C54.1014 607.656 54.1088 607.535 54.1012 607.412L53.9782 605.435C53.9611 605.159 53.7238 604.95 53.4481 604.967L53.2642 602.01C53.5399 601.993 53.7494 601.756 53.7322 601.48L53.4863 597.526C53.4691 597.25 53.2318 597.041 52.9562 597.058L52.7723 594.101C53.0479 594.084 53.2574 593.847 53.2403 593.571L53.1173 591.594C53.1107 591.489 53.1338 591.399 53.1737 591.325C53.2845 591.121 53.2378 590.873 53.0751 590.722C53.1039 590.703 53.1336 590.686 53.1641 590.671C53.2126 590.888 53.4027 591.053 53.6352 591.061C53.7191 591.064 53.8078 591.089 53.8952 591.148L55.5395 592.253C55.7687 592.407 56.0794 592.346 56.2334 592.117L58.692 593.769C58.5379 593.998 58.5989 594.309 58.828 594.463L62.1166 596.673C62.3458 596.827 62.6564 596.766 62.8105 596.537L65.2691 598.19C65.115 598.419 65.1759 598.73 65.4051 598.884L67.0494 599.989C67.151 600.057 67.2595 600.112 67.3721 600.153C67.4945 600.198 67.623 600.191 67.7345 600.145C67.8336 600.214 67.9578 600.248 68.0869 600.23C68.2057 600.214 68.3234 600.184 68.4373 600.139L70.2799 599.411C70.5367 599.309 70.6626 599.019 70.5611 598.762L73.3162 597.674C73.4177 597.93 73.7081 598.056 73.9649 597.955L77.65 596.499C77.9068 596.397 78.0328 596.107 77.9313 595.85L80.6863 594.762C80.7878 595.018 81.0783 595.144 81.3351 595.043L83.1776 594.315C83.2756 594.276 83.3676 594.27 83.4502 594.286C83.679 594.328 83.9 594.207 83.9939 594.005C84.0203 594.027 84.0457 594.05 84.0699 594.074C83.8785 594.187 83.78 594.419 83.8444 594.643C83.8677 594.723 83.8711 594.816 83.8422 594.917L83.2993 596.822C83.2236 597.088 83.3775 597.364 83.6431 597.44L82.8313 600.289C82.5657 600.213 82.2891 600.367 82.2134 600.633L81.1276 604.443C81.0519 604.709 81.2058 604.986 81.4714 605.061L80.6596 607.91C80.394 607.834 80.1174 607.988 80.0417 608.254L79.4988 610.159C79.4652 610.277 79.4465 610.397 79.4423 610.517C79.4376 610.647 79.4832 610.767 79.5616 610.859C79.5266 610.975 79.5332 611.103 79.5896 611.221C79.6416 611.329 79.7069 611.431 79.7849 611.526L81.0466 613.053C81.2225 613.266 81.5377 613.296 81.7506 613.12L83.6372 615.404C83.4243 615.58 83.3942 615.895 83.5701 616.108L86.0936 619.163C86.2695 619.376 86.5846 619.406 86.7975 619.23L88.6841 621.513C88.4712 621.689 88.4412 622.005 88.6171 622.217L89.8788 623.745C89.9459 623.826 89.9798 623.912 89.9908 623.995C90.0215 624.226 90.2048 624.398 90.4255 624.425C90.413 624.457 90.399 624.489 90.3835 624.519C90.2167 624.372 89.9657 624.35 89.773 624.48C89.7034 624.527 89.6169 624.559 89.5116 624.563L87.5318 624.635C87.2558 624.645 87.0403 624.877 87.0504 625.153L84.0901 625.262C84.08 624.986 83.8481 624.77 83.5722 624.78L79.6125 624.925C79.3366 624.935 79.121 625.167 79.1311 625.443L76.1708 625.551C76.1607 625.275 75.9288 625.06 75.6529 625.07L73.6731 625.142C73.5507 625.147 73.4307 625.166 73.3154 625.199C73.1902 625.235 73.0898 625.315 73.0267 625.418C72.906 625.421 72.7859 625.467 72.6917 625.557C72.605 625.639 72.5277 625.733 72.462 625.837L71.3992 627.509C71.2511 627.742 71.3199 628.051 71.553 628.199L69.9639 630.699C69.7309 630.551 69.4219 630.619 69.2738 630.852L67.1483 634.196C67.0001 634.429 67.069 634.739 67.302 634.887L65.713 637.387C65.4799 637.239 65.1709 637.307 65.0228 637.54L63.9601 639.212C63.9035 639.301 63.8325 639.36 63.7567 639.396C63.5469 639.497 63.4391 639.724 63.4817 639.943C63.4475 639.941 63.4135 639.937 63.3797 639.932C63.4679 639.728 63.4113 639.482 63.2278 639.339C63.1616 639.287 63.1047 639.215 63.0685 639.116L62.3879 637.255C62.293 636.996 62.0058 636.863 61.7465 636.958L60.7287 634.176C60.9881 634.081 61.1214 633.794 61.0265 633.534L59.6652 629.813C59.5703 629.554 59.2832 629.421 59.0238 629.515L58.0061 626.733C58.2654 626.639 58.3987 626.351 58.3039 626.092L57.6232 624.232C57.5811 624.117 57.5256 624.008 57.4586 623.909C57.3859 623.801 57.2783 623.73 57.1609 623.702C57.1213 623.588 57.0405 623.488 56.9258 623.426C56.8203 623.369 56.7072 623.325 56.5886 623.294L54.67 622.8C54.4026 622.731 54.13 622.892 54.0611 623.16L51.1924 622.421C51.2613 622.154 51.1003 621.881 50.8329 621.812L46.9958 620.824C46.7284 620.755 46.4558 620.916 46.3869 621.184L43.5182 620.445C43.5871 620.177 43.4261 619.905 43.1587 619.836L41.2402 619.342C41.1381 619.316 41.0604 619.266 41.0025 619.205C40.8421 619.037 40.5922 619.005 40.3979 619.113C40.3892 619.079 40.3822 619.046 40.3768 619.012C40.5982 619.033 40.8142 618.903 40.8935 618.685C40.9221 618.606 40.9735 618.529 41.0564 618.464L42.6155 617.242C42.8329 617.072 42.8709 616.757 42.7005 616.54L45.0318 614.712C45.2022 614.93 45.5165 614.968 45.7338 614.797L48.8521 612.353C49.0694 612.182 49.1075 611.868 48.9371 611.651Z" fill="#F1F5F9" stroke="#06A5FF" stroke-linecap="round" stroke-dasharray="5 5"/>
<circle cx="111.5" cy="119.5" r="23.5" fill="#B6E5FF"/>
</svg>
