<svg width="810" height="485" viewBox="0 0 810 485" fill="none" xmlns="http://www.w3.org/2000/svg">
<path d="M158.858 389.421C178.997 387.391 201.23 377.851 215.933 384.051C234.684 391.958 209.365 409.791 221.369 413.742C233.373 417.692 261.266 408.374 258.515 434.591C255.708 461.354 197.802 474.212 172.478 456.324C159.959 447.481 140.602 444.206 109.589 441.763C83.6989 439.724 80.9604 408.625 101.707 398.712C122.454 388.798 133.685 391.959 158.858 389.421Z" fill="#D0EEFF"/>
<path d="M649.516 25.3586C633.374 41.4555 620.888 36.4826 610.171 43.9707C600.711 50.5796 594.014 60.0563 599.073 71.6376C605.252 85.7794 628.33 76.1649 635.896 96.7891C643.463 117.413 678.268 110.874 691.383 102.825C704.498 94.777 714.082 85.2194 736.781 102.825C759.481 120.431 808.41 107.856 809.923 85.2194C811.436 62.5831 790.251 52.5225 777.135 51.5165C764.02 50.5104 743.843 43.9707 731.233 25.3586C718.622 6.74652 669.693 5.23744 649.516 25.3586Z" fill="#D0EEFF"/>
<path d="M189.185 91.5761C196.36 89.504 203.874 89.7713 210.932 92.3496C217.989 94.9278 224.325 99.7209 229.267 106.22C238.389 117.857 255.012 133.218 278.804 132.223C316.718 130.534 364.497 81.3276 408.173 80.4948C451.85 79.6619 491.718 121.28 539.731 106.382C587.744 91.4835 645.211 131.205 649.391 195.749C653.572 260.294 614.895 321.044 523.421 358.499C431.946 395.953 403.954 323.358 341.311 322.085C278.667 320.813 279.546 355.306 221.044 358.499C162.541 361.691 120.74 330.599 111.461 300.2C101.148 266.471 104.058 207.247 130.35 190.868C152.091 177.358 149.883 103.583 189.185 91.5761Z" fill="#B6E5FF"/>
<path d="M372.134 164.4C372.134 164.4 384.313 176.138 377.931 190.173C369.36 209.056 321.313 245.015 321.313 245.015C316.443 249.361 312.832 254.984 310.873 261.275C308.913 267.565 308.68 274.282 310.198 280.697C310.843 284.05 312.455 287.131 314.827 289.544C314.827 289.544 331.511 309.022 372.676 289.544C413.842 270.065 422.726 236.658 422.413 209.8C422.1 182.943 415.802 150.79 380.997 144.262C348.256 138.223 372.134 164.4 372.134 164.4Z" fill="#76878B"/>
<path d="M637.917 158.506C707.173 184.471 727.36 164.418 727.36 164.418C678.312 140.878 644.174 26.6214 644.174 26.6214C610.015 60.4538 612.434 116.359 612.434 116.359C582.133 133.031 546.556 129.118 509.52 126.162C472.483 123.206 356.598 64.3878 350.342 60.4538C344.086 56.5198 245.03 3.57031 231.475 3.57031C217.92 3.57031 215.605 21.7305 216.085 50.1616C216.418 69.3 226.512 103.324 233.122 123.525C246.577 136.875 264.412 144.657 283.172 145.364C315.203 146.853 326.965 132.606 342.897 129.012C358.83 125.418 366.546 125.461 398.577 134.179C407.326 136.839 415.871 140.151 424.144 144.089C433.403 149.022 439.138 152.19 442.913 155.72C446.687 159.25 454.945 171.712 464.559 173.434C474.173 175.157 489.73 167.756 499.427 171.308C499.427 171.308 505.537 218.962 563.886 223.407C563.886 223.407 551.207 215.943 546.682 208.734C546.682 208.734 542.99 211.328 538.34 207.011C533.69 202.695 532.876 204.885 533.106 202.928C533.335 200.972 534.732 200.589 534.315 199.016C533.898 197.442 530.249 194.763 533.085 187.724C535.921 180.685 538.194 179.941 541.26 181.834C544.325 183.726 556.316 192.466 563.365 190.893C570.413 189.319 575.648 182.004 583.614 183.046C591.58 184.088 598.483 188.809 604.572 185.81C610.661 182.812 608.326 174.582 611.725 171.329C615.124 168.075 619.191 172.371 623.945 170.691C632.204 167.99 637.917 158.506 637.917 158.506Z" fill="#475569"/>
<path d="M314.757 289.742C314.757 289.742 352.928 335.642 454.382 319.332C574.855 300.002 637.229 158.91 637.229 158.91C633.496 165.757 624.905 171.839 619.191 170.542C612.935 169.138 611.829 170.967 611.829 170.967C608.764 174.22 610.411 176.772 607.659 182.705C604.906 188.638 596.043 186.384 589.307 184.428C580.09 181.769 577.775 182.599 568.453 188.553C559.131 194.507 551.895 188.064 546.035 184.874C540.175 181.684 537.694 177.644 533.523 185.98C529.873 193.614 532.709 195.74 533.523 198.526C534.336 201.312 533.085 201.163 532.876 203.417C532.668 205.671 534.628 202.673 538.59 207.67C538.994 208.337 539.536 208.906 540.177 209.338C540.818 209.77 541.544 210.055 542.304 210.172C543.064 210.29 543.84 210.237 544.578 210.018C545.316 209.799 545.998 209.418 546.577 208.903C549.08 214.368 563.782 223.576 563.782 223.576C508.206 219.6 499.322 171.477 499.322 171.477C490.584 168.181 479.157 172.583 470.961 173.88C462.765 175.177 453.777 169.053 449.606 162.971C446.178 158.552 442.047 154.749 437.386 151.722C437.386 151.722 418.096 137.368 376.618 128.586C335.139 119.804 327.006 144.088 291.367 145.598C269.882 146.293 248.976 138.43 233.08 123.674C234.057 126.662 234.895 129.384 235.588 131.726C237.252 137.35 240.454 142.521 245.426 145.634C257.715 153.329 271.666 157.951 286.133 159.059C315.14 161.185 350.383 139.197 377.389 144.173C404.395 149.149 429.003 170.563 420.411 229.573C412.403 284.521 355.034 298.024 342.939 298.11C333.421 297.791 325.067 296.413 315.261 289.742" fill="#CBD5E1"/>
<path d="M309.406 267.769C309.406 267.769 311.346 256.86 324.004 247.12C336.662 237.381 355.285 223.878 364.148 214.989C373.011 206.1 386.67 195.426 382.916 177.265C382.916 177.265 382.395 168.398 369.716 157.936L366.608 161.614C366.608 161.614 378.328 168.696 379.538 180.753C380.747 192.81 365.2 206.746 358.496 213.99C350.822 221.092 306.687 250.007 309.385 267.854" fill="#8BA2A9"/>
<path d="M421.829 196.912C421.829 196.912 400.975 177.369 384.855 187.151C368.735 196.933 363.667 239.378 365.669 262.642C365.669 262.642 366.378 283.354 372.509 289.924C372.509 289.924 429.262 267.61 421.829 196.912Z" fill="#FB7200"/>
<path d="M380.955 207.289C377.681 209.416 367.984 236.805 376.534 238.06C383.708 239.08 390.694 201.463 380.955 207.289Z" fill="#FDBA74"/>
<path d="M424.145 138.924C424.145 138.924 442.496 164.101 436.386 217.604C443.923 202.749 446.771 185.881 444.54 169.311C441.599 146.048 424.145 138.924 424.145 138.924Z" fill="#E2E8F0"/>
<path d="M449.732 137.479C449.732 137.479 463.308 160.87 449.732 219.731C459.059 207.514 464.469 192.664 465.227 177.201C466.562 154.214 449.732 137.479 449.732 137.479Z" fill="#E2E8F0"/>
<path d="M476.426 152.088C476.426 152.088 481.076 188.663 466.52 214.989C466.52 214.989 497.821 191.896 476.426 152.088Z" fill="#E2E8F0"/>
<path d="M390.257 95.4373C390.279 95.3675 390.314 95.3027 390.361 95.2468C390.407 95.1908 390.464 95.1448 390.528 95.1112C390.592 95.0776 390.662 95.0572 390.733 95.0511C390.805 95.0451 390.877 95.0534 390.945 95.0758C391.014 95.0981 391.077 95.134 391.132 95.1813C391.187 95.2287 391.232 95.2866 391.265 95.3518C391.298 95.4169 391.318 95.4881 391.324 95.5611C391.33 95.6342 391.322 95.7077 391.3 95.7775C389.798 104.496 385.044 121.295 370.321 118.169C355.368 115.001 357.078 93.2683 358.747 83.1037C358.747 82.957 358.804 82.8164 358.906 82.7127C359.007 82.609 359.145 82.5508 359.289 82.5508C359.433 82.5508 359.571 82.609 359.672 82.7127C359.774 82.8164 359.831 82.957 359.831 83.1037C360.186 91.8223 361.917 108.621 370.258 111.79C380.414 115.639 387.275 102.752 390.257 95.4373Z" fill="#0F172A"/>
<path d="M494.86 123.953L494.735 107.877C489.96 107.111 480.012 101.646 480.575 96.3086C481.139 90.9711 495.298 96.3086 495.298 96.3086V61.0727L488.229 55.0335L495.924 54.2467V49.8661C491.037 46.2544 486.946 41.6404 483.912 36.3204C489.272 42.1257 497.822 41.4878 497.822 41.4878C495.903 27.942 499.907 0 499.907 0C452.256 15.3532 411.924 91.4389 411.924 91.4389C411.924 91.4389 470.482 116.829 494.86 123.953Z" fill="#334155"/>
<path d="M425.417 68.9824C425.417 68.9824 439.014 77.2545 444.186 91.6933" stroke="#95A5AB" stroke-miterlimit="10" stroke-linecap="round"/>
<path d="M506.561 161.379C506.561 161.379 519.886 167.078 526.288 178.221" stroke="#95A5AB" stroke-miterlimit="10" stroke-linecap="round"/>
<path d="M550.666 149.574C550.666 149.574 564.701 162.971 567.537 177.431" stroke="#95A5AB" stroke-miterlimit="10" stroke-linecap="round"/>
<path d="M594.792 123.953C594.792 123.953 603.134 131.566 605.345 140.051" stroke="#95A5AB" stroke-miterlimit="10" stroke-linecap="round"/>
<path d="M254.632 104.531C256.544 104.315 257.694 100.459 257.201 95.9184C256.708 91.3777 254.758 87.8717 252.846 88.0876C250.935 88.3035 249.785 92.1595 250.278 96.7003C250.771 101.241 252.721 104.747 254.632 104.531Z" fill="#475569"/>
<path d="M236.711 100.987C238.038 100.837 238.836 98.1508 238.493 94.9874C238.149 91.8241 236.794 89.3812 235.466 89.5312C234.138 89.6812 233.341 92.3671 233.684 95.5305C234.028 98.6939 235.383 101.137 236.711 100.987Z" fill="#475569"/>
<path d="M416.595 173.818C419.681 183.643 394.469 155.063 394.469 155.063C394.469 155.063 392.947 164.164 387.733 164.781C382.52 165.397 375.992 151.193 375.992 151.193C375.992 151.193 372.51 169.034 367.296 171.033C362.083 173.032 351.635 152.405 351.635 152.405C351.635 152.405 351.197 161.059 347.715 162.378C344.232 163.696 339.686 156.615 339.686 156.615C339.686 156.615 340.77 179.241 336.412 182.346C332.053 185.45 314.89 160.528 314.89 160.528C314.89 160.528 314.661 176.136 309.01 177.901C303.358 179.666 291.409 164.079 291.409 164.079C291.409 164.079 285.758 181.24 282.275 181.24C278.792 181.24 271.389 163.058 271.389 163.058C271.389 163.058 268.574 174.584 263.048 173.903C257.521 173.223 247.824 146.94 247.824 146.94C247.824 146.94 266.593 159.401 296.184 158.635C313.66 158.189 350.008 139.093 378.537 143.856C403.186 147.982 413.05 162.484 416.595 173.818Z" fill="white"/>
<path d="M318.477 269.019C318.234 269.815 317.83 270.549 317.291 271.176C316.753 271.802 316.091 272.306 315.349 272.656C314.758 272.959 314.105 273.115 313.444 273.111C312.782 273.106 312.131 272.942 311.544 272.63C310.958 272.318 310.452 271.869 310.069 271.319C309.686 270.769 309.438 270.133 309.343 269.466C308.78 264.596 308.238 256.707 310.49 255.729C313.743 254.283 318.373 263.49 318.644 267.722L318.477 269.019Z" fill="white"/>
<path d="M323.419 267.767C327.59 267.767 331.031 260.643 329.947 256.454C329.154 253.434 320.375 240.718 316.246 242.057C312.117 243.397 314.348 258.559 314.348 258.559C314.348 258.559 316.767 267.767 323.419 267.767Z" fill="white"/>
<path d="M329.239 256.35C330.481 257.262 331.973 257.753 333.503 257.753C335.034 257.753 336.526 257.262 337.768 256.35C341.939 253.097 342.71 246.653 340.959 241.762C339.624 238.041 328.029 227.409 325.297 229.897C322.565 232.385 324.839 247.674 324.839 247.674C325.594 250.887 327.104 253.865 329.239 256.35Z" fill="white"/>
<path d="M339.915 242.419C338.83 241.453 337.962 240.259 337.372 238.919C336.782 237.58 336.483 236.126 336.495 234.657C336.495 232.105 336.745 228.852 338.08 227.81C340.353 226.023 352.448 230.212 352.844 235.869C353.24 241.525 343.898 245.8 339.978 242.461L339.915 242.419Z" fill="white"/>
<path d="M349.8 231.785C349.8 231.785 347.235 209.415 351.489 207.565C355.743 205.715 367.317 216.241 367.859 222.067C368.401 227.894 367.63 240.61 354.617 237.655C354.617 237.612 351.614 237.527 349.8 231.785Z" fill="white"/>
<path d="M422.2 216.806C422.2 216.806 413.571 208.438 410.568 210.501C406.042 213.542 413.612 233.999 413.612 233.999C413.612 233.999 406.084 227.938 403.832 228.47C399.327 229.533 401.872 258.623 401.872 258.623C401.872 258.623 395.344 241.76 391.862 243.1C388.379 244.44 386.44 262.238 386.002 271.701C386.002 271.701 380.767 257.071 377.306 258.623C373.844 260.176 374.261 273.913 374.261 273.913C374.261 273.913 366.42 259.283 362.291 262.175C358.162 265.067 352.281 289.819 352.281 289.819C352.281 289.819 343.939 274.933 339.768 276.082C335.598 277.23 332.199 287.82 332.199 287.82C332.199 287.82 328.674 268.32 323.461 269.426C318.247 270.532 316.266 281.164 316.266 281.164C316.266 281.164 314.66 289.16 317.017 291.797C319.373 294.433 336.4 302.182 357.129 295.781C409.18 281.619 422.116 240.58 422.2 216.806Z" fill="white"/>
<path d="M320.584 282.055C320.324 283.024 319.869 283.928 319.248 284.707C318.627 285.487 317.853 286.127 316.976 286.585C316.284 287.01 315.5 287.255 314.694 287.298C313.887 287.34 313.082 287.178 312.351 286.827C311.621 286.475 310.987 285.945 310.505 285.283C310.024 284.621 309.711 283.848 309.594 283.033C308.676 277.228 307.654 267.765 310.303 266.468C314.161 264.554 320.167 275.399 320.73 280.481L320.605 282.055" fill="white"/>
<path d="M339.64 194.709C339.64 194.709 328.538 171.544 321.843 179.103C314.872 187.21 336.757 186.647 339.64 194.709Z" fill="#06A5FF"/>
<path d="M334.593 213.632C334.593 213.632 305.935 199.315 305.014 212.006C304.006 225.54 325.793 207.798 334.593 213.632Z" fill="#06A5FF"/>
<path d="M348 226C348 226 319.632 240.581 328.838 249.194C338.66 258.399 338.178 229.603 348 226Z" fill="#06A5FF"/>
<path d="M207.139 270.637C211.828 271.672 216.645 271.973 221.423 271.53C228.451 270.68 235.312 263.854 237.147 263.854C239.233 263.854 238.315 266.235 238.315 266.235C233.891 269.125 229.126 271.433 224.135 273.104C217.023 275.06 206.263 272.721 206.263 272.721C206.263 272.721 206.304 271.147 207.139 270.637Z" fill="#FB7200"/>
<path d="M201.172 271.953C205.491 274.061 210.095 275.495 214.832 276.206C221.859 277.078 230.097 272.123 231.89 272.549C233.684 272.974 232.474 275.164 232.474 275.164C227.504 276.89 222.34 277.969 217.105 278.375C209.723 278.545 199.817 273.676 199.817 273.676C199.817 273.676 200.192 272.251 201.172 271.953Z" fill="#FB7200"/>
<path d="M198.949 282.563C203.433 280.806 208.164 279.794 212.962 279.565C220.053 279.565 227.81 285.604 229.645 285.327C231.731 285.03 230.459 282.669 230.459 282.669C225.678 280.305 220.617 278.582 215.402 277.544C208.083 276.502 197.781 280.5 197.781 280.5C197.781 280.5 198.052 282.138 198.949 282.563Z" fill="#FB7200"/>
<path d="M67.6465 346.191C36.4907 346.191 13.4262 330.072 2.74903 320.907C1.90491 320.172 1.22347 319.263 0.749779 318.239C0.27609 317.215 0.0209501 316.101 0.00123671 314.969C-0.0184767 313.837 0.197685 312.714 0.635425 311.674C1.07316 310.634 1.7225 309.7 2.54049 308.935L8.60898 303.257L2.47793 308.999L3.83343 307.723C5.08429 306.545 6.71483 305.876 8.41698 305.84C10.1191 305.805 11.775 306.407 13.0717 307.532C23.4987 316.718 51.2761 336.452 88.1459 326.351C107.728 320.992 120.741 308.51 133.336 296.41C152.439 278.059 172.208 259.09 211.351 268.213C209.34 270.391 207.935 273.075 207.279 275.99C206.623 278.905 206.74 281.946 207.618 284.8C177.171 277.697 162.865 291.413 144.785 308.786C131.334 321.694 116.111 336.431 92.4626 342.81C84.3701 345.034 76.0276 346.17 67.6465 346.191Z" fill="#475569"/>
<path d="M280.945 290.035C276.79 288.974 272.817 287.275 269.163 284.996C263.887 281.487 261.051 273.279 259.57 272.534C258.089 271.79 257.714 273.959 257.714 273.959C260.137 278.054 263.059 281.82 266.41 285.166C271.332 289.589 280.841 292.056 280.841 292.056C280.841 292.056 281.425 290.78 280.945 290.035Z" fill="#FB7200"/>
<path d="M288.16 291.395C284.005 290.334 280.032 288.634 276.378 286.355C271.102 282.846 268.245 274.638 266.785 273.894C265.325 273.15 264.929 275.319 264.929 275.319C267.346 279.406 270.261 283.164 273.604 286.504C278.547 290.948 288.056 293.415 288.056 293.415C288.056 293.415 288.619 292.139 288.16 291.395Z" fill="#FB7200"/>
<path d="M285.637 301.538C282.8 298.272 279.512 295.442 275.878 293.139C270.456 289.885 262.177 290.736 260.863 289.736C259.549 288.737 261.217 287.482 261.217 287.482C265.829 287.961 270.367 289.011 274.731 290.608C280.778 293.16 287.243 300.603 287.243 300.603C287.243 300.603 286.492 301.645 285.637 301.538Z" fill="#FB7200"/>
<path d="M508.356 448.265C422.855 448.265 360.752 398.399 331.202 349.745C306.636 309.341 275.751 299.368 275.438 299.262C277.663 297.281 279.288 294.695 280.123 291.806C280.957 288.917 280.967 285.846 280.151 282.952C281.653 283.398 317.251 294.435 345.383 340.792C377.31 393.359 450.653 447.414 552.295 426.702C597.673 417.452 632.937 387.702 657.086 338.283C667.097 317.491 674.416 295.46 678.858 272.745C679.259 270.615 680.444 268.722 682.169 267.453C683.894 266.184 686.029 265.635 688.138 265.918C689.267 266.066 690.355 266.448 691.334 267.041C692.314 267.633 693.164 268.424 693.832 269.365C694.5 270.305 694.972 271.375 695.22 272.508C695.467 273.642 695.484 274.815 695.27 275.956C690.618 300.025 682.906 323.372 672.33 345.407C646.138 399.292 605.785 433.167 555.548 443.374C540.015 446.592 524.207 448.231 508.356 448.265Z" fill="#475569"/>
</svg>
