<svg width="551" height="532" viewBox="0 0 551 532" fill="none" xmlns="http://www.w3.org/2000/svg">
<circle cx="266" cy="266" r="148.5" stroke="#315D93"/>
<circle cx="266" cy="266" r="186.5" stroke="#CBD5E1"/>
<circle cx="266" cy="266" r="265.5" stroke="#64748B" stroke-linecap="round" stroke-dasharray="5 5"/>
<path d="M39.2048 120.172C40.4209 119.045 42.4008 119.802 42.5552 121.453L43.4098 130.586C43.4711 131.242 43.851 131.825 44.4257 132.146L52.4342 136.62C53.8814 137.429 53.7733 139.546 52.2513 140.202L43.8288 143.838C43.2245 144.098 42.7871 144.64 42.6594 145.286L40.8791 154.285C40.5574 155.911 38.5107 156.462 37.4157 155.218L31.3557 148.331C30.9209 147.837 30.2707 147.588 29.6171 147.666L20.5083 148.754C18.8623 148.951 17.7054 147.174 18.5506 145.748L23.2279 137.857C23.5635 137.291 23.599 136.595 23.3228 135.998L19.4735 127.671C18.7779 126.166 20.1096 124.517 21.727 124.88L30.6777 126.89C31.32 127.034 31.9921 126.853 32.475 126.406L39.2048 120.172Z" fill="#98D6FA"/>
<path d="M328.868 81.1328C329.46 79.5841 331.57 79.3856 332.44 80.7969L334.77 84.5796C335.116 85.14 335.715 85.4946 336.372 85.5278L340.81 85.7521C342.465 85.8358 343.306 87.7815 342.233 89.0447L339.356 92.4305C338.929 92.9321 338.777 93.6113 338.949 94.2468L340.107 98.5365C340.539 100.137 338.948 101.538 337.415 100.907L333.306 99.2172C332.697 98.9668 332.004 99.032 331.453 99.3915L327.731 101.818C326.342 102.724 324.518 101.644 324.644 99.9911L324.982 95.5607C325.032 94.9044 324.756 94.2654 324.243 93.8521L320.785 91.0623C319.495 90.0215 319.958 87.9531 321.569 87.5621L325.887 86.5142C326.527 86.3589 327.049 85.8988 327.284 85.2839L328.868 81.1328Z" fill="#98D6FA"/>
<path d="M388.836 186.441C388.694 184.789 390.507 183.691 391.905 184.583L401.01 190.393C401.564 190.747 402.258 190.805 402.864 190.549L412.812 186.342C414.339 185.696 415.943 187.082 415.527 188.686L412.815 199.141C412.65 199.778 412.809 200.456 413.24 200.953L420.315 209.114C421.401 210.367 420.579 212.321 418.924 212.421L408.143 213.072C407.486 213.112 406.891 213.472 406.551 214.036L400.976 223.287C400.12 224.706 398.008 224.529 397.401 222.986L393.45 212.934C393.209 212.321 392.683 211.866 392.041 211.717L381.521 209.274C379.906 208.898 379.422 206.835 380.702 205.781L389.041 198.917C389.55 198.499 389.819 197.857 389.763 197.201L388.836 186.441Z" fill="#06A5FF"/>
<path d="M45.6068 396.841C46.3931 395.382 48.5114 395.458 49.1914 396.97L52.9545 405.336C53.2245 405.936 53.7727 406.365 54.4203 406.483L63.4455 408.126C65.0763 408.423 65.6588 410.461 64.4312 411.575L57.6373 417.739C57.1498 418.181 56.9112 418.835 56.9992 419.488L58.2256 428.579C58.4472 430.222 56.6888 431.405 55.2501 430.582L47.2882 426.025C46.7169 425.699 46.0213 425.674 45.428 425.959L37.1608 429.935C35.6669 430.653 33.9977 429.347 34.3362 427.724L36.2093 418.744C36.3437 418.099 36.1524 417.43 35.6978 416.954L29.362 410.32C28.2171 409.121 28.9438 407.13 30.5917 406.95L39.7113 405.957C40.3656 405.885 40.943 405.497 41.2553 404.917L45.6068 396.841Z" fill="#06A5FF"/>
<path d="M463.084 101.787C461.825 102.866 462.349 104.92 463.971 105.263L468.282 106.176C468.926 106.313 469.461 106.757 469.714 107.365L471.406 111.434C472.042 112.965 474.158 113.101 474.986 111.665L477.186 107.847C477.515 107.276 478.103 106.904 478.759 106.852L483.152 106.5C484.804 106.368 485.588 104.398 484.478 103.167L481.527 99.8945C481.086 99.4056 480.914 98.7311 481.067 98.0909L482.089 93.8044C482.474 92.192 480.843 90.8383 479.329 91.5137L475.305 93.309C474.704 93.5772 474.009 93.5324 473.447 93.1893L469.687 90.8918C468.272 90.0276 466.481 91.1605 466.655 92.809L467.119 97.1914C467.188 97.846 466.931 98.4927 466.431 98.9209L463.084 101.787Z" fill="#06A5FF"/>
<path d="M481.556 390.022L483.27 386.84C483.513 386.971 483.817 386.881 483.948 386.637L485.042 384.607C485.187 384.338 485.387 384.143 485.614 384.014C485.835 383.887 485.923 383.618 485.828 383.389C486.223 383.282 486.647 383.297 487.033 383.432C486.922 383.654 486.991 383.929 487.203 384.071C487.419 384.215 487.605 384.424 487.73 384.703L488.677 386.807C488.79 387.059 489.086 387.171 489.338 387.058L490.82 390.353C490.568 390.466 490.456 390.762 490.569 391.014L492.462 395.222C492.575 395.474 492.871 395.586 493.123 395.473L494.605 398.768C494.353 398.882 494.241 399.178 494.354 399.429L495.301 401.533C495.384 401.719 495.49 401.893 495.613 402.05C495.778 402.261 496.08 402.303 496.296 402.149C496.199 402.396 496.312 402.678 496.556 402.788C496.739 402.87 496.932 402.931 497.133 402.967L499.402 403.38C499.674 403.43 499.934 403.25 499.984 402.978L503.539 403.625C503.49 403.897 503.67 404.157 503.941 404.207L508.48 405.033C508.752 405.083 509.012 404.902 509.062 404.631L512.617 405.278C512.568 405.55 512.748 405.81 513.019 405.859L515.289 406.273C515.59 406.327 515.837 406.458 516.03 406.633C516.218 406.804 516.501 406.805 516.69 406.644C516.914 406.987 517.031 407.394 517.022 407.803C516.776 407.766 516.536 407.917 516.467 408.162C516.396 408.412 516.255 408.654 516.028 408.859L514.32 410.409C514.115 410.595 514.1 410.911 514.285 411.115L511.609 413.544C511.424 413.339 511.108 413.324 510.903 413.509L507.486 416.609C507.282 416.795 507.266 417.111 507.452 417.316L504.776 419.744C504.59 419.539 504.274 419.524 504.069 419.71L502.361 421.26C502.21 421.397 502.078 421.55 501.966 421.716C501.816 421.939 501.87 422.239 502.083 422.397C501.818 422.38 501.584 422.575 501.555 422.842C501.534 423.041 501.536 423.243 501.563 423.445L501.872 425.731C501.909 426.005 502.16 426.197 502.434 426.16L502.917 429.741C502.643 429.778 502.452 430.03 502.488 430.304L503.105 434.876C503.142 435.15 503.394 435.341 503.668 435.305L504.151 438.886C503.877 438.923 503.685 439.174 503.722 439.448L504.03 441.734C504.071 442.037 504.024 442.313 503.917 442.55C503.812 442.782 503.899 443.052 504.11 443.182C503.853 443.501 503.502 443.737 503.11 443.855C503.069 443.61 502.852 443.428 502.597 443.438C502.337 443.448 502.064 443.388 501.799 443.237L499.797 442.091C499.557 441.954 499.252 442.037 499.114 442.276L495.978 440.482C496.115 440.242 496.032 439.936 495.792 439.799L491.788 437.508C491.548 437.37 491.243 437.454 491.106 437.693L487.97 435.898C488.107 435.659 488.024 435.353 487.784 435.216L485.782 434.07C485.605 433.969 485.418 433.891 485.226 433.836C484.968 433.762 484.699 433.906 484.615 434.157C484.548 433.9 484.291 433.738 484.028 433.793C483.833 433.834 483.641 433.899 483.457 433.987L481.378 434.987C481.129 435.106 481.024 435.405 481.144 435.654L477.887 437.22C477.767 436.971 477.469 436.867 477.22 436.986L473.062 438.986C472.813 439.105 472.708 439.404 472.828 439.653L469.571 441.219C469.452 440.97 469.153 440.866 468.904 440.985L466.825 441.985C466.55 442.117 466.273 442.157 466.014 442.129C465.761 442.101 465.531 442.267 465.473 442.508C465.091 442.362 464.757 442.101 464.524 441.765C464.744 441.651 464.85 441.388 464.762 441.149C464.672 440.904 464.644 440.626 464.707 440.327L465.178 438.069C465.234 437.798 465.061 437.533 464.79 437.477L465.528 433.94C465.799 433.996 466.063 433.823 466.12 433.552L467.062 429.036C467.118 428.765 466.945 428.501 466.674 428.444L467.412 424.907C467.683 424.963 467.948 424.79 468.004 424.519L468.475 422.261C468.517 422.061 468.533 421.859 468.526 421.66C468.516 421.392 468.297 421.181 468.031 421.178C468.256 421.036 468.33 420.74 468.197 420.508C468.097 420.334 467.977 420.172 467.836 420.024L466.242 418.356C466.052 418.156 465.735 418.149 465.535 418.34L463.04 415.726C463.239 415.536 463.247 415.219 463.056 415.019L459.869 411.683C459.679 411.483 459.362 411.476 459.162 411.667L456.667 409.053C456.866 408.863 456.874 408.546 456.683 408.346L455.09 406.678C454.879 406.457 454.755 406.206 454.702 405.951C454.651 405.702 454.422 405.535 454.174 405.554C454.195 405.145 454.34 404.747 454.588 404.421C454.765 404.595 455.047 404.615 455.247 404.458C455.452 404.297 455.708 404.184 456.012 404.151L458.305 403.901C458.58 403.871 458.778 403.624 458.748 403.35L462.341 402.959C462.37 403.233 462.617 403.431 462.892 403.401L467.478 402.902C467.753 402.872 467.951 402.625 467.921 402.351L471.513 401.959C471.543 402.234 471.79 402.432 472.065 402.402L474.358 402.152C474.561 402.13 474.758 402.084 474.946 402.015C475.198 401.923 475.331 401.649 475.251 401.396C475.456 401.565 475.759 401.545 475.94 401.346C476.074 401.198 476.191 401.033 476.288 400.853L477.382 398.822C477.513 398.579 477.422 398.276 477.179 398.145L478.893 394.964C479.136 395.095 479.44 395.004 479.571 394.761L481.759 390.699C481.89 390.456 481.799 390.153 481.556 390.022Z" fill="#F1F5F9" stroke="#06A5FF" stroke-linecap="round" stroke-dasharray="6 6"/>
<path d="M229.487 113.399L229.113 111.067C229.386 111.024 229.572 110.767 229.528 110.494L229.262 108.835C229.214 108.533 229.254 108.256 229.356 108.016C229.455 107.782 229.361 107.514 229.146 107.39C229.395 107.064 229.741 106.819 230.13 106.692C230.177 106.935 230.398 107.112 230.652 107.096C230.912 107.079 231.187 107.132 231.456 107.278L232.935 108.076C233.178 108.207 233.481 108.117 233.612 107.874L235.691 108.996C235.56 109.239 235.65 109.542 235.893 109.673L237.372 110.472C237.552 110.569 237.741 110.643 237.934 110.693C238.194 110.76 238.459 110.61 238.537 110.356C238.61 110.612 238.871 110.767 239.132 110.706C239.327 110.66 239.517 110.591 239.699 110.498L241.195 109.732C241.441 109.606 241.538 109.305 241.413 109.059L243.515 107.983C243.641 108.229 243.942 108.326 244.188 108.2L245.685 107.435C245.957 107.295 246.233 107.249 246.492 107.271C246.746 107.292 246.971 107.121 247.023 106.878C247.409 107.014 247.749 107.267 247.991 107.598C247.774 107.717 247.674 107.983 247.768 108.22C247.864 108.462 247.898 108.739 247.843 109.04L247.541 110.693C247.491 110.965 247.671 111.226 247.943 111.275L247.518 113.599C247.246 113.549 246.986 113.729 246.936 114L246.634 115.654C246.597 115.855 246.585 116.057 246.598 116.257C246.614 116.524 246.838 116.73 247.104 116.726C246.883 116.874 246.816 117.171 246.955 117.4C247.059 117.571 247.184 117.731 247.328 117.875L248.519 119.061C248.715 119.256 249.031 119.256 249.226 119.06L250.899 120.727C250.704 120.923 250.705 121.239 250.9 121.434L252.091 122.621C252.307 122.837 252.437 123.084 252.496 123.338C252.554 123.586 252.787 123.747 253.034 123.722C253.024 124.131 252.888 124.533 252.649 124.865C252.468 124.695 252.184 124.682 251.988 124.845C251.788 125.011 251.534 125.13 251.231 125.17L249.565 125.393C249.292 125.43 249.1 125.682 249.136 125.955L246.795 126.269C246.759 125.996 246.507 125.803 246.233 125.84L244.567 126.063C244.365 126.091 244.169 126.142 243.983 126.215C243.733 126.314 243.607 126.59 243.693 126.842C243.484 126.678 243.181 126.706 243.006 126.909C242.875 127.06 242.762 127.228 242.67 127.41L241.909 128.909C241.784 129.156 241.883 129.456 242.129 129.581L241.06 131.688C240.814 131.563 240.513 131.661 240.388 131.907L239.628 133.406C239.489 133.679 239.294 133.879 239.071 134.014C238.853 134.145 238.771 134.417 238.872 134.643C238.479 134.76 238.056 134.756 237.666 134.63C237.771 134.406 237.696 134.132 237.481 133.996C237.261 133.857 237.07 133.652 236.938 133.377L236.21 131.861C236.091 131.612 235.792 131.507 235.543 131.627L234.521 129.497C234.77 129.378 234.875 129.079 234.756 128.83L234.029 127.315C233.94 127.131 233.831 126.96 233.704 126.806C233.533 126.599 233.231 126.565 233.018 126.724C233.11 126.475 232.99 126.195 232.742 126.091C232.558 126.014 232.363 125.958 232.162 125.926L230.501 125.666C230.228 125.624 229.972 125.81 229.929 126.083L227.596 125.718C227.639 125.445 227.452 125.189 227.179 125.146L225.519 124.886C225.217 124.839 224.966 124.715 224.769 124.544C224.577 124.378 224.293 124.384 224.109 124.55C223.876 124.212 223.75 123.808 223.749 123.399C223.995 123.429 224.231 123.273 224.295 123.027C224.359 122.774 224.494 122.529 224.716 122.319L225.932 121.159C226.132 120.968 226.14 120.652 225.949 120.452L227.659 118.822C227.849 119.022 228.166 119.029 228.365 118.839L229.582 117.679C229.73 117.538 229.858 117.381 229.965 117.213C230.11 116.986 230.049 116.688 229.832 116.535C230.097 116.545 230.326 116.344 230.348 116.077C230.365 115.878 230.358 115.676 230.325 115.474L230.06 113.814C230.016 113.541 229.759 113.356 229.487 113.399Z" fill="#F1F5F9" stroke="#06A5FF" stroke-linecap="round" stroke-dasharray="6 6"/>
<path d="M139.269 315.951C140.901 315.656 142.162 317.36 141.404 318.834L138.739 324.017C138.438 324.603 138.444 325.299 138.756 325.878L141.515 331.012C142.3 332.473 141.07 334.199 139.433 333.933L133.68 333.001C133.03 332.895 132.37 333.116 131.915 333.592L127.885 337.802C126.739 339 124.717 338.363 124.464 336.725L123.573 330.965C123.473 330.315 123.058 329.755 122.465 329.469L117.216 326.938C115.722 326.218 115.703 324.098 117.183 323.351L122.386 320.724C122.973 320.427 123.377 319.86 123.466 319.208L124.251 313.433C124.475 311.79 126.485 311.117 127.653 312.293L131.759 316.43C132.222 316.897 132.886 317.106 133.534 316.989L139.269 315.951Z" fill="#B6E5FF"/>
<path d="M118.357 63.269C119.298 65.0141 121.475 65.6659 123.221 64.7248C124.966 63.7837 125.617 61.6061 124.676 59.861C123.735 58.1159 121.558 57.4641 119.813 58.4052C118.067 59.3462 117.416 61.5238 118.357 63.269Z" fill="#98D6FA"/>
<path d="M100.576 57.6217C100.43 58.0883 100.471 58.5931 100.69 59.0302C100.909 59.4672 101.288 59.8025 101.749 59.9658C102.455 60.2213 103.146 60.4505 103.815 60.658C111.147 62.9413 113.035 61.4691 113.759 59.1469C114.484 56.8247 113.761 54.5786 106.415 52.2689C105.755 52.0566 105.06 51.8634 104.334 51.6755C103.861 51.5449 103.357 51.6018 102.925 51.8344C102.494 52.0671 102.169 52.4574 102.019 52.9239L100.576 57.6217Z" fill="#98D6FA"/>
<path d="M102.584 52.2449C102.63 52.1326 102.651 52.0113 102.645 51.8899C102.639 51.7685 102.605 51.65 102.548 51.5431C102.49 51.4361 102.409 51.3432 102.311 51.2713C102.213 51.1994 102.101 51.1501 101.981 51.1271C95.2501 49.6216 87.7373 49.0262 87.1513 50.9101C86.5652 52.794 93.0987 56.5875 99.5446 59.1443C99.6562 59.1891 99.7762 59.2088 99.8963 59.202C100.016 59.1952 100.133 59.1621 100.239 59.105C100.345 59.048 100.437 58.9683 100.509 58.8718C100.58 58.7752 100.63 58.6641 100.654 58.5462C101.03 56.3731 101.679 54.256 102.584 52.2449Z" fill="#06A5FF"/>
<path d="M114.816 63.2233C117.927 64.1909 120.927 63.4404 121.516 61.5471C122.104 59.6539 120.059 57.3347 116.948 56.3671C113.836 55.3996 110.837 56.15 110.248 58.0433C109.659 59.9366 111.704 62.2558 114.816 63.2233Z" fill="#06A5FF"/>
<path d="M116.6 60.1377C116.613 61.1305 111.944 77.2705 108.087 82.7589C104.23 88.2473 99.5032 90.7961 96.2524 88.9817C93.0017 87.1672 95.5182 80.2885 98.1179 76.3871C100.718 72.4857 114.367 60.5691 115.62 59.8369L116.6 60.1377Z" fill="white"/>
<path d="M96.353 87.1666C99.056 81.6211 102.436 76.4323 106.417 71.7189C107.935 69.9001 109.644 67.8652 111.302 65.9034C112.959 63.9416 114.664 61.9202 116.139 60.1252L116.272 60.2463C114.771 62.0556 113.057 64.0818 111.435 66.0245C109.813 67.9673 108.06 70.026 106.55 71.8401C102.578 76.5441 99.203 81.7222 96.5034 87.2559L96.353 87.1666Z" fill="#2C3D5B"/>
<path d="M100.171 87.232C102.759 83.7002 105.148 80.0264 107.325 76.2278L113.038 66.6596C114.031 65.1904 114.657 63.5048 114.864 61.744L115.039 61.7521C114.83 63.5435 114.198 65.2594 113.194 66.7577L107.481 76.3259C105.301 80.1335 102.909 83.8164 100.318 87.3572L100.171 87.232Z" fill="#2C3D5B"/>
<path d="M95.9697 83.3172C96.8789 81.2425 97.9863 79.2603 99.2766 77.3984C100.37 75.9334 101.552 74.5371 102.816 73.2173L107.664 68.092C108.76 66.9217 110.12 65.4613 111.914 65.0389L112 65.1973C110.254 65.6048 108.916 67.0421 107.833 68.1942L103.008 73.3412C101.74 74.6445 100.552 76.0245 99.4534 77.4735C98.1578 79.3385 97.0445 81.3237 96.1289 83.4018L95.9697 83.3172Z" fill="#2C3D5B"/>
<path d="M99.3543 85.5477L101.347 82.1215C101.826 81.2834 102.324 80.4581 102.862 79.6227C104.37 77.4485 106.324 75.6204 108.594 74.2598L108.655 74.3742C106.408 75.7277 104.475 77.5447 102.986 79.7039C102.442 80.5082 101.973 81.3862 101.483 82.1844L99.5168 85.5964L99.3543 85.5477Z" fill="#2C3D5B"/>
<path d="M105.416 84.5062C106.714 83.1633 107.764 81.6008 108.517 79.8912L108.935 79.0864C109.713 77.6216 110.371 76.0397 111.008 74.5032L111.709 72.8529C111.8 72.6219 111.927 72.3719 112.048 72.1131C112.721 70.7277 113.564 69.0238 112.351 67.8711L112.481 67.7329C113.772 68.9681 112.877 70.8258 112.216 72.193C112.086 72.4565 111.968 72.7017 111.872 72.924L111.172 74.5743C110.511 76.0667 109.868 77.6974 109.103 79.1662L108.694 79.9663C107.921 81.6961 106.851 83.2769 105.532 84.6368L105.416 84.5062Z" fill="#2C3D5B"/>
<path d="M102.111 87.9015L102.182 87.8635C103.834 85.45 106.326 81.8114 108.539 79.8906L108.62 80.0403C106.419 81.9428 103.932 85.5678 102.307 87.9894L102.268 88.0443L102.111 87.9015Z" fill="#2C3D5B"/>
<path d="M106.691 73.0712C107.927 71.5784 109.497 70.3972 111.273 69.623L111.359 69.7814C109.61 70.5427 108.065 71.7066 106.851 73.1781L106.691 73.0712Z" fill="#2C3D5B"/>
<path d="M103.431 80.5094C104.33 79.2676 105.049 77.9047 105.566 76.4613L105.738 76.5275C105.219 77.9864 104.491 79.3623 103.578 80.6122L103.431 80.5094Z" fill="#2C3D5B"/>
<path d="M100.634 81.2C100.958 80.4763 101.426 79.826 102.009 79.2888C102.593 78.7516 103.279 78.3386 104.027 78.0749L104.112 78.2333C103.387 78.4888 102.722 78.8894 102.158 79.4108C101.593 79.9322 101.14 80.5633 100.828 81.2655L100.634 81.2Z" fill="#2C3D5B"/>
<path d="M107.2 79.2606L110.688 72.6874C110.868 72.3871 110.994 72.0576 111.061 71.7139C111.09 71.5512 111.075 71.3834 111.016 71.2289C110.956 71.0745 110.856 70.9393 110.725 70.8383L110.823 70.6832C110.982 70.8024 111.105 70.9633 111.179 71.1482C111.253 71.333 111.274 71.5346 111.24 71.7307C111.178 72.0999 111.044 72.4536 110.847 72.7719L107.359 79.3451L107.2 79.2606Z" fill="#2C3D5B"/>
<path d="M110.147 65.1739C111.921 63.6931 113.52 62.0149 114.914 60.1719L115.056 60.2883C113.653 62.1417 112.044 63.8292 110.259 65.3181L110.147 65.1739Z" fill="#2C3D5B"/>
<path d="M113.796 69.7277C113.954 66.551 114.858 63.4561 116.434 60.6931L116.589 60.7912C115.031 63.5287 114.139 66.594 113.984 69.7398L113.796 69.7277Z" fill="#2C3D5B"/>
<path d="M116.041 59.8601C115.403 60.7836 109.164 79.4061 109.224 87.2476C109.283 95.0892 112.166 100.647 116.487 101.054C120.809 101.462 122.946 93.1857 123.032 87.7199C123.118 82.2542 117.885 61.7628 117.153 60.2149L116.041 59.8601Z" fill="white"/>
<path d="M117.379 99.2096C118.456 92.105 118.651 84.8944 117.959 77.742C117.712 74.989 117.406 71.8933 117.113 68.9046C116.819 65.9159 116.523 62.8602 116.278 60.1295L116.46 60.1104C116.706 62.8411 117.002 65.9192 117.296 68.8855C117.589 71.8518 117.887 74.9746 118.137 77.7364C118.847 84.9004 118.663 92.1247 117.59 99.2433L117.379 99.2096Z" fill="#2C3D5B"/>
<path d="M113.693 96.7776C113.554 91.6595 113.697 86.5377 114.122 81.4354L114.974 68.4784C115.001 66.3758 115.526 64.3096 116.506 62.449L116.661 62.5471C115.701 64.3797 115.186 66.4129 115.158 68.4817L114.297 81.4435C113.87 86.5366 113.729 91.6496 113.876 96.7585L113.693 96.7776Z" fill="#2C3D5B"/>
<path d="M120.337 95.7627C120.832 93.1808 121.076 90.557 121.065 87.9281C120.973 85.8079 120.745 83.6957 120.382 81.6047L119.159 73.459C118.888 71.6285 118.54 69.3619 117.137 67.8124L117.295 67.727C118.727 69.3069 119.076 71.6182 119.342 73.44L120.556 81.5903C120.924 83.6868 121.156 85.8049 121.249 87.9313C121.254 90.5721 121.009 93.2074 120.517 95.8019L120.337 95.7627Z" fill="#2C3D5B"/>
<path d="M115.601 95.6812L115.974 91.1059C116.069 89.9978 116.163 88.845 116.16 87.722C116.169 84.6563 115.518 81.6246 114.252 78.8325L114.41 78.7471C115.688 81.5644 116.345 84.6231 116.339 87.7165C116.338 88.853 116.258 90.0322 116.157 91.1091L115.776 95.6892L115.601 95.6812Z" fill="#2C3D5B"/>
<path d="M110.472 90.7208C110.107 88.5484 110.129 86.3285 110.538 84.1639L110.666 83.1174C110.897 81.1864 111.307 79.2274 111.709 77.3402L112.133 75.2824C112.196 74.9985 112.24 74.6795 112.288 74.3469C112.556 72.6116 112.925 70.2198 114.969 69.9016L114.997 70.0797C113.082 70.385 112.739 72.5925 112.472 74.3726C112.415 74.7099 112.371 75.0289 112.309 75.3127C112.178 75.9969 112.038 76.6858 111.885 77.3706C111.487 79.2666 111.073 81.2167 110.851 83.1431L110.717 84.1808C110.311 86.3275 110.287 88.5289 110.645 90.6841L110.472 90.7208Z" fill="#2C3D5B"/>
<path d="M111.391 96.1335L111.343 96.0454C111.345 92.636 111.37 87.5211 110.517 84.2321L110.667 84.1514C111.53 87.458 111.515 92.6128 111.508 96.0135L111.502 96.13L111.391 96.1335Z" fill="#2C3D5B"/>
<path d="M116.788 78.8165C116.584 76.5973 115.865 74.4564 114.689 72.5637L114.856 72.4735C116.046 74.3917 116.769 76.5624 116.967 78.811L116.788 78.8165Z" fill="#2C3D5B"/>
<path d="M115.019 88.1559C114.972 86.3498 115.181 84.5461 115.641 82.7989L115.826 82.8468C115.361 84.5751 115.15 86.3615 115.198 88.1504L115.019 88.1559Z" fill="#2C3D5B"/>
<path d="M117.243 90.6366C117.406 89.7588 117.389 88.8572 117.194 87.986C117 87.1148 116.631 86.2918 116.111 85.5665L116.269 85.481C116.811 86.2304 117.195 87.0818 117.398 87.9837C117.601 88.8856 117.62 89.8194 117.452 90.7286L117.243 90.6366Z" fill="#2C3D5B"/>
<path d="M112.214 84.4297L113.24 75.7984C113.25 75.3547 113.345 74.917 113.523 74.51C113.62 74.3033 113.772 74.127 113.962 74.0005C114.152 73.8739 114.373 73.8018 114.601 73.7921L114.602 73.9621C114.406 73.9769 114.218 74.0432 114.057 74.1543C113.895 74.2654 113.766 74.4173 113.682 74.5946C113.517 74.9693 113.422 75.3711 113.401 75.78L112.38 84.4201L112.214 84.4297Z" fill="#2C3D5B"/>
<path d="M118.722 69.0249C117.988 66.4133 117.556 63.7257 117.437 61.0154L117.616 61.0099C117.739 63.705 118.17 66.3772 118.9 68.9746L118.722 69.0249Z" fill="#2C3D5B"/>
<path d="M112.224 70.837C114.147 67.7019 115.315 64.1627 115.636 60.4988L115.819 60.5021C115.494 64.2023 114.308 67.7753 112.357 70.9358L112.224 70.837Z" fill="#2C3D5B"/>
<path d="M116.647 59.9305C117.19 59.1039 121.809 42.9565 121.454 36.2516C121.099 29.5467 118.444 24.8771 114.734 24.6966C111.024 24.516 109.487 31.6732 109.649 36.3348C109.811 40.9965 115.019 58.3656 115.69 59.6514L116.647 59.9305Z" fill="white"/>
<path d="M116.27 59.7369C115.955 57.3842 115.583 54.7559 115.231 52.2075C114.88 49.6591 114.495 47.0491 114.19 44.714C113.312 38.6046 113.2 32.4095 113.857 26.2724L114.041 26.298C113.386 32.4172 113.496 38.594 114.368 44.6861C114.678 47.03 115.045 49.6495 115.41 52.1796C115.774 54.7097 116.138 57.3651 116.448 59.709L116.27 59.7369Z" fill="#2C3D5B"/>
<path d="M116.022 57.6545C116.775 56.0554 117.141 54.3011 117.089 52.5342L117.326 41.3859C117.508 37.0089 117.442 32.6251 117.131 28.2555L117.313 28.2364C117.621 32.6137 117.687 37.0047 117.51 41.3892L117.268 52.5287C117.324 54.3318 116.95 56.1224 116.177 57.7526L116.022 57.6545Z" fill="#2C3D5B"/>
<path d="M114.436 52.0791C113.889 50.9271 113.515 49.701 113.325 48.4401L111.97 41.5021C111.583 39.722 111.309 37.9193 111.15 36.1047C111.052 33.8384 111.17 31.5679 111.504 29.3241L111.688 29.3497C111.359 31.5757 111.245 33.8283 111.35 36.0761C111.506 37.8847 111.777 39.6816 112.161 41.4559L113.516 48.3939C113.828 49.9413 114.196 51.8673 115.453 53.1438L115.327 53.2685C114.975 52.9162 114.675 52.5158 114.436 52.0791Z" fill="#2C3D5B"/>
<path d="M117.335 43.6989C116.14 41.3316 115.465 38.7363 115.355 36.0868C115.307 35.1129 115.352 34.1227 115.386 33.1731L115.542 29.2488L115.725 29.2521L115.569 33.1764C115.536 34.1259 115.482 35.1209 115.534 36.0813C115.642 38.7031 116.311 41.2713 117.494 43.6135L117.335 43.6989Z" fill="#2C3D5B"/>
<path d="M117.199 51.3055L117.162 51.1322C118.79 50.8 118.995 48.9055 119.158 47.3747C119.194 47.0828 119.225 46.8044 119.267 46.566L119.548 44.79C119.806 43.1623 120.107 41.4662 120.261 39.7925L120.341 38.8862C120.604 37.0301 120.54 35.142 120.15 33.3082L120.3 33.2275C120.684 35.0656 120.742 36.9568 120.473 38.815L120.397 39.7077C120.274 41.376 119.952 43.0951 119.693 44.7228L119.399 46.4948L119.303 47.3076C119.174 48.8999 118.951 50.9516 117.199 51.3055Z" fill="#2C3D5B"/>
<path d="M120.288 38.9368C119.428 36.1401 119.251 31.725 119.134 28.8114L119.091 28.7322L119.27 28.7267L119.269 28.8296C119.39 31.7297 119.557 36.1272 120.422 38.9103L120.288 38.9368Z" fill="#2C3D5B"/>
<path d="M116.528 47.9972C115.816 46.6776 115.349 45.2398 115.149 43.7535L115.327 43.7257C115.583 45.616 116.276 47.4205 117.351 48.9964L117.193 49.0818C116.951 48.7332 116.729 48.3711 116.528 47.9972Z" fill="#2C3D5B"/>
<path d="M115.98 40.2377C116.312 38.7432 116.426 37.2085 116.318 35.6814L116.492 35.6671C116.609 37.2116 116.497 38.765 116.16 40.2769L115.98 40.2377Z" fill="#2C3D5B"/>
<path d="M114.974 37.2126C114.372 36.1103 114.143 34.8429 114.32 33.5997L114.496 33.63C114.39 34.3919 114.44 35.1675 114.645 35.9091C114.849 36.6507 115.203 37.3426 115.685 37.9422L115.527 38.0277C115.317 37.7738 115.132 37.5009 114.974 37.2126Z" fill="#2C3D5B"/>
<path d="M117.368 47.931L117.362 47.7522C117.527 47.7344 117.683 47.6726 117.816 47.5732C117.948 47.4739 118.051 47.3406 118.114 47.1876C118.241 46.8602 118.308 46.5125 118.311 46.1613L118.855 38.744L119.03 38.7521L118.49 46.1782C118.487 46.5532 118.413 46.9242 118.273 47.2721C118.196 47.4536 118.071 47.6108 117.912 47.7268C117.752 47.8429 117.564 47.9134 117.368 47.931Z" fill="#2C3D5B"/>
<path d="M115.249 59.0031C115.049 56.7023 114.587 54.4319 113.872 52.2358L114.03 52.1504C114.75 54.3583 115.218 56.6401 115.426 58.9528L115.249 59.0031Z" fill="#2C3D5B"/>
<path d="M116.805 59.3801C116.947 56.1905 117.838 53.0792 119.405 50.2975L119.564 50.382C118.033 53.1359 117.161 56.2077 117.019 59.3556L116.805 59.3801Z" fill="#2C3D5B"/>
<path d="M116.041 59.8597C116.033 58.728 121.472 39.8886 125.963 33.4679C130.453 27.0471 135.995 24.0927 139.774 26.213C143.553 28.3333 140.643 36.3562 137.607 40.902C134.57 45.4478 118.639 59.3678 117.175 60.2139L116.041 59.8597Z" fill="white"/>
<path d="M116.383 59.7779C118.162 57.6826 120.146 55.2946 122.079 53.0021C124.013 50.7097 125.998 48.344 127.762 46.2223C132.402 40.7307 136.338 34.6809 139.478 28.2135L139.638 28.298C136.484 34.7684 132.54 40.8223 127.895 46.3212C126.117 48.4164 124.137 50.8132 122.203 53.1057C120.27 55.3981 118.309 57.8078 116.53 59.9031L116.383 59.7779Z" fill="#2C3D5B"/>
<path d="M117.895 58.0309C118.14 55.9449 118.877 53.947 120.045 52.2015L126.693 41.016C129.241 36.5729 132.031 32.273 135.051 28.1356L135.197 28.2385C132.18 32.3683 129.394 36.6623 126.852 41.1006L120.177 52.2556C119.018 53.9596 118.281 55.9148 118.027 57.9597L117.895 58.0309Z" fill="#2C3D5B"/>
<path d="M121.47 54.1261L121.384 53.9677C123.401 53.4937 124.991 51.8069 126.3 50.442L131.931 44.429C133.409 42.9118 134.793 41.3045 136.073 39.6163C137.574 37.4554 138.864 35.1545 139.923 32.7456L140.086 32.8166C139.027 35.2392 137.732 37.5513 136.219 39.7192C134.922 41.4235 133.52 43.0449 132.02 44.5739L126.381 50.5917C125.164 51.9179 123.571 53.6182 121.47 54.1261Z" fill="#2C3D5B"/>
<path d="M125.33 43.2278C127.956 41.6482 130.211 39.5213 131.942 36.992C132.576 36.0596 133.171 35.0569 133.71 34.0962L135.984 30.0974L136.139 30.1955L133.859 34.1631C133.303 35.1333 132.73 36.1354 132.079 37.0772C130.334 39.6267 128.061 41.7708 125.414 43.3639L125.33 43.2278Z" fill="#2C3D5B"/>
<path d="M120.36 50.3618C119.624 48.9975 120.465 47.2489 121.168 45.8133C121.31 45.5091 121.449 45.2184 121.566 44.9508L122.379 43.0241C123.129 41.2336 123.904 39.3841 124.804 37.6606L125.289 36.7283C126.195 34.7272 127.444 32.9001 128.979 31.3301L129.065 31.4885C127.542 33.0508 126.307 34.8703 125.419 36.863L124.933 37.7953C124.029 39.51 123.263 41.3548 122.521 43.1405L121.704 45.0808C121.587 45.3484 121.449 45.639 121.297 45.948C120.519 47.5604 119.539 49.5773 120.949 50.9073L120.828 51.0408C120.636 50.8416 120.478 50.6122 120.36 50.3618Z" fill="#2C3D5B"/>
<path d="M125.334 36.7045C127.901 34.4909 130.803 30.2446 132.721 27.438L132.776 27.3513L132.931 27.4494L132.867 27.5409C130.972 30.3467 128.043 34.6073 125.454 36.844L125.334 36.7045Z" fill="#2C3D5B"/>
<path d="M122.205 48.8101L122.119 48.6517C124.158 47.7522 125.96 46.3915 127.383 44.6768L127.526 44.7932C126.088 46.527 124.266 47.9023 122.205 48.8101Z" fill="#2C3D5B"/>
<path d="M128.721 40.7521C129.332 39.0492 130.183 37.4424 131.249 35.9804L131.4 36.092C130.348 37.5472 129.511 39.1463 128.916 40.84L128.721 40.7521Z" fill="#2C3D5B"/>
<path d="M130.7 38.9234L130.615 38.765C131.463 38.4666 132.242 37.9988 132.904 37.3899C133.566 36.781 134.097 36.0438 134.465 35.2231L134.628 35.2941C134.253 36.1335 133.712 36.8879 133.036 37.5118C132.361 38.1357 131.566 38.6159 130.7 38.9234Z" fill="#2C3D5B"/>
<path d="M122.449 47.1781C122.316 46.9192 122.265 46.6258 122.303 46.337C122.386 45.9057 122.549 45.4939 122.784 45.123L126.86 37.4488L127.019 37.5334L122.943 45.2075C122.729 45.557 122.583 45.9442 122.513 46.3484C122.477 46.5409 122.494 46.7398 122.565 46.9226C122.635 47.1055 122.756 47.2649 122.912 47.383L122.809 47.5294C122.661 47.4448 122.538 47.3239 122.449 47.1781Z" fill="#2C3D5B"/>
<path d="M117.843 59.7057C119.481 57.5457 121.36 55.5796 123.443 53.8457L123.524 53.9953C121.454 55.7256 119.587 57.6851 117.959 59.8363L117.843 59.7057Z" fill="#2C3D5B"/>
<path d="M116.063 59.1211C117.883 55.9205 118.928 52.3375 119.113 48.6599L119.301 48.672C119.116 52.3704 118.072 55.9749 116.253 59.2003L116.063 59.1211Z" fill="#2C3D5B"/>
<path d="M128.475 81.8651C128.902 75.6863 127.196 69.5481 123.642 64.4754L123.8 64.39C127.38 69.489 129.104 75.6606 128.686 81.8765L128.475 81.8651Z" fill="#98D6FA"/>
<path d="M124.352 61.241L124.391 61.0608C128.763 62.1112 135.304 60.6293 138.999 57.8529L139.084 58.0113C135.376 60.8061 128.755 62.2636 124.352 61.241Z" fill="#98D6FA"/>
<path d="M98.934 58.7918C98.6505 57.799 98.5804 56.7574 98.7285 55.7357C98.8766 54.7139 99.2395 53.735 99.7932 52.8636C99.921 52.5864 100.111 52.3421 100.347 52.1494C100.584 51.9567 100.862 51.8208 101.159 51.752L101.178 51.9349C100.909 52 100.658 52.1254 100.444 52.3018C100.23 52.4782 100.059 52.7008 99.9436 52.9529C99.4054 53.8041 99.052 54.7589 98.9063 55.7554C98.7606 56.7519 98.8259 57.7678 99.0979 58.7375L98.934 58.7918Z" fill="#2C3D5B"/>
<path d="M90.4098 53.4135C90.2541 53.1268 90.1611 52.8102 90.1371 52.4848C90.1131 52.1594 90.1586 51.8326 90.2706 51.5262C90.3825 51.2197 90.5584 50.9406 90.7866 50.7073C91.0147 50.4741 91.2899 50.292 91.5938 50.1733L91.6792 50.3317C91.3871 50.4479 91.1243 50.6273 90.9098 50.8571C90.6952 51.0869 90.5342 51.3613 90.4382 51.6607C90.3423 51.96 90.3138 52.2769 90.3548 52.5886C90.3958 52.9003 90.5053 53.199 90.6754 53.4634L90.4905 53.5631L90.4098 53.4135Z" fill="#2C3D5B"/>
<path d="M92.9422 55.5805C92.6747 54.6259 92.6591 53.6184 92.8967 52.6561C93.1343 51.6937 93.6171 50.8092 94.2981 50.0889L94.3788 50.2385C93.7173 50.9399 93.2488 51.8007 93.019 52.737C92.7892 53.6733 92.8059 54.6531 93.0675 55.5811L92.9422 55.5805Z" fill="#2C3D5B"/>
<path d="M96.0161 57.1724C95.7759 55.9834 95.834 54.7535 96.1854 53.5925C96.5368 52.4315 97.1704 51.3757 98.0296 50.5195L98.1103 50.6692C97.2749 51.5064 96.6586 52.5365 96.3159 53.6685C95.9732 54.8005 95.9147 55.9995 96.1454 57.1595L96.0161 57.1724Z" fill="#2C3D5B"/>
<path d="M523.892 308.489C524.245 307.229 523.51 305.921 522.25 305.568C520.99 305.215 519.683 305.95 519.33 307.21C518.976 308.47 519.712 309.777 520.972 310.131C522.232 310.484 523.539 309.749 523.892 308.489Z" fill="#98D6FA"/>
<path d="M529.746 319.32C530.029 319.165 530.241 318.907 530.338 318.599C530.434 318.291 530.408 317.958 530.264 317.67C530.046 317.225 529.823 316.799 529.6 316.394C527.165 311.948 525.594 311.782 524.186 312.553C522.777 313.323 522.091 314.721 524.52 319.185C524.736 319.589 524.978 319.999 525.236 320.421C525.401 320.7 525.667 320.904 525.978 320.991C526.289 321.078 526.623 321.042 526.908 320.889L529.746 319.32Z" fill="#98D6FA"/>
<path d="M526.328 320.953C526.254 320.985 526.189 321.033 526.136 321.093C526.084 321.154 526.045 321.225 526.023 321.302C526.002 321.38 525.997 321.461 526.011 321.54C526.025 321.619 526.055 321.694 526.102 321.76C528.607 325.56 531.902 329.287 533.044 328.661C534.185 328.035 532.822 323.239 530.934 319.07C530.901 318.998 530.853 318.933 530.793 318.881C530.733 318.83 530.662 318.792 530.586 318.77C530.509 318.749 530.429 318.744 530.351 318.757C530.273 318.771 530.198 318.801 530.133 318.846C528.958 319.705 527.68 320.413 526.328 320.953Z" fill="#06A5FF"/>
<path d="M525.553 310.133C524.519 308.247 522.751 307.228 521.603 307.857C520.456 308.486 520.364 310.525 521.398 312.411C522.431 314.297 524.2 315.315 525.347 314.686C526.495 314.057 526.587 312.018 525.553 310.133Z" fill="#06A5FF"/>
<path d="M523.291 310.78C523.74 310.303 533.356 304.78 537.703 303.942C542.05 303.104 545.463 304.06 546.174 306.412C546.886 308.764 542.538 310.876 539.515 311.537C536.493 312.198 524.549 311.599 523.619 311.372L523.291 310.78Z" fill="white"/>
<path d="M545.295 307.228C541.469 308.622 537.486 309.536 533.435 309.95C531.88 310.117 530.136 310.3 528.45 310.472C526.764 310.643 525.028 310.822 523.505 310.998L523.497 310.879C525.039 310.708 526.781 310.532 528.442 310.353C530.103 310.174 531.879 310 533.427 309.831C537.47 309.418 541.446 308.507 545.264 307.117L545.295 307.228Z" fill="#2C3D5B"/>
<path d="M543.512 305.446C540.664 305.937 537.846 306.586 535.071 307.392L527.972 309.316C526.827 309.558 525.757 310.072 524.852 310.813L524.773 310.729C525.693 309.974 526.78 309.449 527.943 309.198L535.042 307.274C537.822 306.465 540.646 305.813 543.499 305.319L543.512 305.446Z" fill="#2C3D5B"/>
<path d="M543.712 309.232C542.329 309.8 540.895 310.233 539.429 310.526C538.238 310.721 537.037 310.842 535.832 310.889L531.18 311.1C530.123 311.153 528.808 311.223 527.763 310.601L527.795 310.487C528.81 311.094 530.105 311.025 531.147 310.974L535.797 310.742C536.997 310.705 538.193 310.593 539.379 310.409C540.849 310.118 542.288 309.685 543.675 309.118L543.712 309.232Z" fill="#2C3D5B"/>
<path d="M543.128 306.621L540.611 307.334C539.999 307.512 539.384 307.676 538.746 307.826C537.033 308.167 535.268 308.139 533.566 307.745L533.589 307.663C535.277 308.05 537.027 308.073 538.725 307.731C539.351 307.598 539.977 307.396 540.575 307.242L543.073 306.523L543.128 306.621Z" fill="#2C3D5B"/>
<path d="M539.772 304.336C538.54 304.378 537.325 304.639 536.184 305.105L535.617 305.296C534.576 305.635 533.538 306.084 532.531 306.522L531.442 306.984C531.293 307.052 531.118 307.113 530.942 307.18C529.987 307.529 528.806 307.952 528.854 309.055L528.728 309.061C528.682 307.883 529.958 307.411 530.899 307.065C531.081 307 531.25 306.937 531.397 306.876L532.486 306.413C533.484 306.007 534.537 305.528 535.573 305.181L536.134 304.989C537.294 304.522 538.527 304.262 539.777 304.221L539.772 304.336Z" fill="#2C3D5B"/>
<path d="M542.897 304.239L542.846 304.224C540.955 304.613 538.105 305.198 536.173 305.096L536.203 304.988C538.12 305.093 540.963 304.512 542.845 304.107L542.888 304.099L542.897 304.239Z" fill="#2C3D5B"/>
<path d="M533.924 309.182C532.653 309.324 531.366 309.165 530.168 308.719L530.2 308.604C531.379 309.045 532.646 309.2 533.897 309.058L533.924 309.182Z" fill="#2C3D5B"/>
<path d="M538.882 307.144C537.886 307.321 536.92 307.639 536.013 308.088L535.962 307.977C536.877 307.522 537.853 307.203 538.86 307.028L538.882 307.144Z" fill="#2C3D5B"/>
<path d="M540.527 308.098C540.041 308.293 539.521 308.387 538.998 308.375C538.474 308.363 537.959 308.244 537.483 308.026L537.515 307.912C537.977 308.123 538.476 308.238 538.983 308.249C539.49 308.26 539.994 308.168 540.465 307.978L540.527 308.098Z" fill="#2C3D5B"/>
<path d="M536.521 306.008L531.851 307.53C531.628 307.59 531.417 307.689 531.228 307.822C531.139 307.885 531.07 307.972 531.027 308.073C530.985 308.173 530.97 308.283 530.986 308.391L530.869 308.42C530.848 308.291 530.863 308.158 530.913 308.036C530.962 307.915 531.045 307.809 531.151 307.732C531.349 307.585 531.575 307.478 531.814 307.417L536.484 305.895L536.521 306.008Z" fill="#2C3D5B"/>
<path d="M528.664 311.346C527.143 311.236 525.614 311.3 524.108 311.536L524.093 311.415C525.609 311.179 527.147 311.115 528.677 311.226L528.664 311.346Z" fill="#2C3D5B"/>
<path d="M529.019 307.512C527.487 308.947 525.639 310.003 523.625 310.592L523.596 310.474C525.59 309.889 527.419 308.842 528.935 307.42L529.019 307.512Z" fill="#2C3D5B"/>
<path d="M523.429 311.169C524.156 311.023 535.654 305.04 539.221 301.29C542.787 297.54 543.966 293.579 542.101 291.405C540.236 289.23 535.427 292.18 532.881 294.736C530.334 297.292 523.426 309.42 523.064 310.491L523.429 311.169Z" fill="white"/>
<path d="M540.832 291.87C537.064 294.75 533.666 298.084 530.716 301.798C529.571 303.218 528.297 304.828 527.066 306.381C525.836 307.935 524.576 309.522 523.441 310.931L523.345 310.856C524.48 309.447 525.75 307.849 526.971 306.307C528.192 304.764 529.482 303.145 530.628 301.718C533.575 297.991 536.974 294.646 540.747 291.757L540.832 291.87Z" fill="#2C3D5B"/>
<path d="M541.467 294.715C539.187 297.209 536.771 299.575 534.231 301.803L527.887 307.564C526.91 308.55 525.714 309.291 524.396 309.725L524.367 309.607C525.663 309.177 526.839 308.448 527.801 307.479L534.151 301.719C536.689 299.496 539.099 297.133 541.372 294.64L541.467 294.715Z" fill="#2C3D5B"/>
<path d="M537.847 292.152C536.429 293.151 535.11 294.285 533.91 295.538C532.982 296.588 532.122 297.695 531.336 298.854L528.182 303.282C527.472 304.276 526.598 305.511 526.554 306.89L526.44 306.858C526.484 305.452 527.378 304.195 528.087 303.207L531.246 298.781C532.033 297.617 532.894 296.505 533.824 295.453C535.032 294.196 536.357 293.057 537.78 292.051L537.847 292.152Z" fill="#2C3D5B"/>
<path d="M540.058 294.361L537.784 296.363C537.231 296.845 536.658 297.349 536.144 297.884C534.735 299.336 533.654 301.073 532.975 302.979L532.861 302.947C533.546 301.024 534.636 299.27 536.057 297.805C536.578 297.265 537.157 296.742 537.698 296.277L539.979 294.277L540.058 294.361Z" fill="#2C3D5B"/>
<path d="M540.22 299.068C539.398 300.267 538.37 301.311 537.183 302.151L536.642 302.589C535.648 303.4 534.555 304.142 533.499 304.854L532.354 305.637C532.195 305.743 532.027 305.874 531.852 306.01C530.929 306.711 529.658 307.677 528.541 306.892L528.61 306.794C529.659 307.527 530.834 306.636 531.777 305.913C531.958 305.779 532.125 305.648 532.285 305.542C532.661 305.277 533.043 305.014 533.43 304.759C534.488 304.041 535.578 303.305 536.567 302.492L537.106 302.061C538.283 301.228 539.303 300.193 540.121 299.006L540.22 299.068Z" fill="#2C3D5B"/>
<path d="M542.265 296.077L542.247 296.14C540.683 297.758 538.327 300.175 537.224 302.128L537.116 302.098C538.222 300.132 540.593 297.691 542.155 296.08L542.21 296.027L542.265 296.077Z" fill="#2C3D5B"/>
<path d="M531.764 301.824C530.844 302.971 530.204 304.317 529.895 305.755L529.774 305.722C530.088 304.265 530.74 302.903 531.677 301.745L531.764 301.824Z" fill="#2C3D5B"/>
<path d="M536.885 298.202C536.079 299.081 535.153 299.842 534.134 300.46L534.068 300.353C535.081 299.745 536 298.994 536.798 298.123L536.885 298.202Z" fill="#2C3D5B"/>
<path d="M536.966 296.004C536.487 296.346 536.082 296.782 535.775 297.285C535.468 297.788 535.265 298.347 535.18 298.93L535.065 298.898C535.152 298.294 535.36 297.714 535.677 297.192C535.994 296.671 536.413 296.219 536.909 295.865L536.966 296.004Z" fill="#2C3D5B"/>
<path d="M536.509 301.257L532.065 304.884C531.858 305.091 531.612 305.255 531.341 305.367C531.2 305.42 531.047 305.434 530.899 305.407C530.751 305.38 530.612 305.313 530.5 305.213L530.577 305.132C530.677 305.215 530.797 305.27 530.924 305.291C531.052 305.312 531.183 305.299 531.304 305.254C531.554 305.151 531.784 305.004 531.981 304.82L536.426 301.185L536.509 301.257Z" fill="#2C3D5B"/>
<path d="M526.357 305.587C525.509 307.164 524.482 308.638 523.296 309.98L523.209 309.9C524.386 308.564 525.406 307.098 526.25 305.53L526.357 305.587Z" fill="#2C3D5B"/>
<path d="M530.274 307.706C527.923 308.313 525.746 309.458 523.915 311.051L523.829 310.965C525.68 309.357 527.88 308.205 530.256 307.598L530.274 307.706Z" fill="#2C3D5B"/>
<path d="M523.174 310.856C522.537 311 512.942 316.55 510.037 319.896C507.132 323.242 506.252 326.676 507.931 328.463C509.61 330.249 513.621 327.556 515.681 325.268C517.74 322.98 523.229 312.346 523.5 311.428L523.174 310.856Z" fill="white"/>
<path d="M523.264 311.122C522.335 312.383 521.307 313.802 520.306 315.173C519.304 316.544 518.291 317.96 517.365 319.209C514.982 322.512 512.195 325.505 509.07 328.118L508.994 328.021C512.11 325.415 514.889 322.432 517.268 319.14C518.195 317.885 519.222 316.473 520.208 315.105C521.195 313.736 522.239 312.309 523.167 311.054L523.264 311.122Z" fill="#2C3D5B"/>
<path d="M522.427 312.224C521.337 312.638 520.359 313.303 519.573 314.166L514.351 319.351C512.258 321.346 510.28 323.457 508.425 325.675L508.329 325.6C510.189 323.381 512.171 321.266 514.265 319.265L519.486 314.087C520.286 313.205 521.285 312.526 522.399 312.106L522.427 312.224Z" fill="#2C3D5B"/>
<path d="M520.625 315.598C520.356 316.396 519.972 317.149 519.484 317.835L516.947 321.751C516.315 322.773 515.619 323.755 514.862 324.689C513.87 325.81 512.773 326.834 511.586 327.746L511.51 327.65C512.687 326.744 513.773 325.726 514.754 324.611C515.509 323.681 516.204 322.703 516.835 321.685L519.372 317.769C519.933 316.892 520.641 315.808 520.63 314.626L520.747 314.625C520.753 314.953 520.711 315.281 520.625 315.598Z" fill="#2C3D5B"/>
<path d="M515.407 318.249C514.889 319.92 514.02 321.462 512.857 322.771C512.434 323.255 511.958 323.704 511.507 324.14L509.634 325.932L509.549 325.846L511.422 324.054C511.873 323.619 512.355 323.171 512.77 322.691C513.92 321.397 514.78 319.871 515.292 318.217L515.407 318.249Z" fill="#2C3D5B"/>
<path d="M518.958 314.699L518.896 314.798C517.971 314.21 517.005 315.015 516.226 315.668C516.075 315.79 515.933 315.907 515.803 316.002L514.856 316.716C513.987 317.371 513.067 318.038 512.227 318.762L511.773 319.156C510.797 319.916 509.962 320.842 509.307 321.892L509.199 321.861C509.859 320.813 510.698 319.888 511.678 319.129L512.123 318.74C512.946 318.004 513.887 317.336 514.756 316.681L515.708 315.975L516.126 315.633C516.918 314.936 517.964 314.064 518.958 314.699Z" fill="#2C3D5B"/>
<path d="M511.821 319.156C510.948 320.878 509.008 323.056 507.728 324.493L507.712 324.55L507.624 324.471L507.672 324.422C508.944 322.99 510.88 320.825 511.746 319.107L511.821 319.156Z" fill="#2C3D5B"/>
<path d="M517.76 316.577C517.493 317.53 517.056 318.427 516.469 319.225L516.372 319.156C517.117 318.141 517.615 316.967 517.827 315.726L517.941 315.758C517.897 316.034 517.836 316.308 517.76 316.577Z" fill="#2C3D5B"/>
<path d="M514.463 320.513C513.621 321.071 512.863 321.747 512.214 322.522L512.125 322.449C512.778 321.662 513.543 320.975 514.396 320.412L514.463 320.513Z" fill="#2C3D5B"/>
<path d="M513.555 322.411C513.335 323.21 512.863 323.917 512.209 324.425L512.139 324.33C512.539 324.017 512.87 323.626 513.113 323.18C513.356 322.734 513.505 322.243 513.551 321.738L513.666 321.77C513.649 321.986 513.612 322.201 513.555 322.411Z" fill="#2C3D5B"/>
<path d="M517.331 316.225L517.251 316.312C517.165 316.245 517.062 316.203 516.954 316.189C516.846 316.176 516.736 316.192 516.635 316.235C516.425 316.333 516.234 316.467 516.072 316.633L512.413 319.905L512.334 319.821L515.994 316.542C516.168 316.366 516.373 316.223 516.599 316.122C516.718 316.071 516.85 316.054 516.979 316.072C517.108 316.09 517.229 316.143 517.331 316.225Z" fill="#2C3D5B"/>
<path d="M523.412 311.938C522.453 313.122 521.631 314.412 520.964 315.782L520.85 315.75C521.52 314.372 522.344 313.074 523.305 311.88L523.412 311.938Z" fill="#2C3D5B"/>
<path d="M522.846 311.046C521.317 312.495 519.467 313.564 517.448 314.166L517.411 314.053C519.401 313.448 521.223 312.389 522.734 310.959L522.846 311.046Z" fill="#2C3D5B"/>
<path d="M523.429 311.168C522.914 311.709 511.696 318.161 506.62 319.151C501.545 320.141 497.559 319.004 496.737 316.265C495.914 313.526 500.974 311.05 504.499 310.284C508.025 309.517 521.97 310.211 523.053 310.48L523.429 311.168Z" fill="white"/>
<path d="M523.229 311.05C521.424 311.23 519.387 311.454 517.418 311.656C515.449 311.858 513.422 312.072 511.612 312.27C506.892 312.751 502.25 313.819 497.794 315.45L497.757 315.337C502.221 313.711 506.868 312.644 511.594 312.162C513.399 311.983 515.438 311.752 517.407 311.55C519.376 311.348 521.412 311.103 523.217 310.923L523.229 311.05Z" fill="#2C3D5B"/>
<path d="M521.711 311.187C520.638 312.065 519.372 312.676 518.017 312.969L509.734 315.233C506.487 316.174 503.191 316.937 499.861 317.517L499.839 317.401C503.164 316.823 506.455 316.062 509.697 315.12L517.98 312.883C519.311 312.605 520.557 312.015 521.615 311.16L521.711 311.187Z" fill="#2C3D5B"/>
<path d="M518.223 311.402L518.191 311.516C517.016 310.817 515.488 310.889 514.241 310.937L508.811 311.211C507.413 311.254 506.02 311.383 504.638 311.597C502.935 311.935 501.268 312.437 499.661 313.095L499.616 312.986C501.229 312.321 502.904 311.817 504.616 311.481C506.013 311.267 507.422 311.14 508.835 311.101L514.271 310.829C515.457 310.757 516.993 310.68 518.223 311.402Z" fill="#2C3D5B"/>
<path d="M511.395 314.807C509.423 314.353 507.378 314.329 505.396 314.737C504.668 314.889 503.926 315.092 503.23 315.302L500.317 316.158L500.288 316.04L503.189 315.201C503.898 314.995 504.63 314.782 505.37 314.634C507.368 314.223 509.43 314.247 511.417 314.704L511.395 314.807Z" fill="#2C3D5B"/>
<path d="M517.024 313.698C516.748 314.683 515.548 315.128 514.556 315.487C514.349 315.566 514.15 315.641 513.971 315.714L512.702 316.256C511.525 316.763 510.31 317.286 509.092 317.692L508.434 317.912C507.087 318.447 505.657 318.742 504.208 318.783L504.24 318.669C505.679 318.625 507.099 318.327 508.435 317.788L509.093 317.568C510.308 317.169 511.518 316.644 512.688 316.136L513.965 315.589C514.144 315.516 514.343 315.441 514.556 315.364C515.665 314.955 517.055 314.447 516.995 313.169L517.113 313.161C517.113 313.344 517.083 313.525 517.024 313.698Z" fill="#2C3D5B"/>
<path d="M508.402 317.903C506.169 317.777 502.844 318.463 500.647 318.916L500.581 318.932L500.552 318.814L500.625 318.8C502.811 318.337 506.155 317.656 508.409 317.781L508.402 317.903Z" fill="#2C3D5B"/>
<path d="M515.437 313.589L515.405 313.703C514.025 313.196 512.546 313.016 511.084 313.178L511.07 313.057C512.547 312.893 514.043 313.075 515.437 313.589Z" fill="#2C3D5B"/>
<path d="M508.65 314.429C507.579 314.957 506.438 315.33 505.262 315.536L505.242 315.413C506.408 315.205 507.538 314.829 508.597 314.298L508.65 314.429Z" fill="#2C3D5B"/>
<path d="M506.872 314.389L506.839 314.503C506.3 314.256 505.716 314.121 505.122 314.107C504.529 314.092 503.939 314.199 503.388 314.42L503.343 314.311C503.906 314.085 504.509 313.975 505.115 313.988C505.722 314.001 506.319 314.138 506.872 314.389Z" fill="#2C3D5B"/>
<path d="M514.573 314.252C514.518 314.436 514.408 314.599 514.257 314.719C514.02 314.886 513.754 315.006 513.472 315.074L508.019 316.85L507.982 316.737L513.435 314.961C513.698 314.894 513.944 314.777 514.163 314.617C514.268 314.542 514.351 314.44 514.401 314.32C514.452 314.201 514.468 314.07 514.447 313.943L514.563 313.92C514.595 314.028 514.598 314.142 514.573 314.252Z" fill="#2C3D5B"/>
<path d="M522.503 310.414C520.735 310.689 518.942 310.762 517.158 310.63L517.188 310.522C518.964 310.649 520.748 310.574 522.507 310.299L522.503 310.414Z" fill="#2C3D5B"/>
<path d="M523.08 311.509C520.749 312.195 518.61 313.417 516.837 315.078L516.753 314.986C518.536 313.315 520.684 312.082 523.026 311.385L523.08 311.509Z" fill="#2C3D5B"/>
<path d="M527.612 295.02C524.577 297.758 522.574 301.455 521.936 305.492L521.821 305.46C522.459 301.398 524.469 297.678 527.517 294.918L527.612 295.02Z" fill="#98D6FA"/>
<path d="M520.116 306.703L520.015 306.77C518.42 304.267 514.635 301.973 511.608 301.597L511.64 301.483C514.682 301.855 518.494 304.199 520.116 306.703Z" fill="#98D6FA"/>
<path d="M531.062 319.517C530.741 320.118 530.297 320.645 529.759 321.062C529.22 321.48 528.599 321.778 527.936 321.938C527.749 322.011 527.547 322.04 527.346 322.023C527.145 322.006 526.951 321.943 526.778 321.84L526.853 321.744C527.011 321.837 527.188 321.892 527.37 321.907C527.552 321.921 527.736 321.894 527.906 321.827C528.552 321.669 529.157 321.378 529.683 320.972C530.209 320.565 530.644 320.053 530.959 319.468L531.062 319.517Z" fill="#2C3D5B"/>
<path d="M532.644 325.979C532.586 326.186 532.485 326.379 532.348 326.545C532.21 326.71 532.039 326.844 531.845 326.939C531.651 327.033 531.44 327.085 531.225 327.091C531.009 327.097 530.795 327.057 530.596 326.974L530.629 326.86C530.821 326.939 531.028 326.974 531.235 326.963C531.442 326.953 531.644 326.896 531.827 326.798C532.01 326.7 532.169 326.562 532.292 326.396C532.415 326.229 532.5 326.037 532.541 325.833L532.674 325.871L532.644 325.979Z" fill="#2C3D5B"/>
<path d="M532.435 323.788C532.125 324.364 531.67 324.85 531.116 325.198C530.562 325.546 529.928 325.745 529.274 325.774L529.304 325.666C529.94 325.637 530.557 325.443 531.095 325.103C531.633 324.764 532.075 324.291 532.376 323.731L532.435 323.788Z" fill="#2C3D5B"/>
<path d="M531.706 321.624C531.275 322.298 530.683 322.855 529.984 323.246C529.285 323.636 528.5 323.847 527.7 323.859L527.73 323.751C528.511 323.737 529.275 323.53 529.957 323.15C530.639 322.769 531.216 322.227 531.638 321.57L531.706 321.624Z" fill="#2C3D5B"/>
</svg>
