<svg width="359" height="120" viewBox="0 0 359 120" fill="none" xmlns="http://www.w3.org/2000/svg">
<path d="M2.73696 56.2801L10.9675 56.9554L9.941 69.0106L0.170654 65.6675L2.73696 56.2801Z" fill="#B6E5FF"/>
<path d="M62.5663 5L70.7969 5.67535L69.7704 17.7305L60 14.3874L62.5663 5Z" fill="#B6E5FF"/>
<path d="M36.5745 36.6828L31.7352 39.2491C31.7352 39.2491 35.4013 28.1226 30.067 26.2316C24.7328 24.3406 27.9773 16 27.9773 16H33.4766C33.4766 16 31.7352 22.3146 35.713 25.3199C39.6907 28.3252 36.5745 36.6828 36.5745 36.6828Z" fill="#B6E5FF"/>
<path d="M61.3591 70.6481L59.196 81.2681L70.4695 81.6564L61.3591 70.6481Z" fill="#B6E5FF"/>
<path d="M71.0174 114.472C70.8157 111.703 72.3922 109.255 74.5186 109.019C76.6449 108.782 78.5147 110.808 78.698 113.577C78.8813 116.346 77.3232 118.778 75.1968 119.031C73.0704 119.284 71.2007 117.224 71.0174 114.472Z" fill="#B6E5FF"/>
<path d="M286.652 13L281.922 22.1004L292.481 27.3006L286.652 13Z" fill="#98D6FA"/>
<path d="M240 39.6597L241.503 29.1073L250.577 31.91L246.837 44.134L240 39.6597Z" fill="#98D6FA"/>
<path d="M347.785 24.4472L349.288 13.8948L358.344 16.6975L354.604 28.9214L347.785 24.4472Z" fill="#98D6FA"/>
<path d="M340.251 86.6473L341.754 76.0948L350.828 78.8976L347.089 91.1215L340.251 86.6473Z" fill="#98D6FA"/>
<path d="M314.716 73.5793L309.51 74.3391C309.51 74.3391 315.303 64.901 310.628 61.2203C305.954 57.5396 310.72 50.6341 310.72 50.6341L316.073 52.6433C316.073 52.6433 313.085 58.0968 316.311 62.3853C319.537 66.6738 314.716 73.5793 314.716 73.5793Z" fill="#98D6FA"/>
<path d="M252.83 96.5839L248.292 93.9223C248.292 93.9223 258.713 90.1774 257.366 84.3824C256.019 78.5874 264.056 76.1774 264.056 76.1774L266.977 81.0918C266.977 81.0918 261.236 83.4802 261.073 88.8443C260.91 94.2083 252.83 96.5839 252.83 96.5839Z" fill="#98D6FA"/>
<path d="M185.025 59.0584L191.134 60.6403C191.134 60.6403 181.982 68.6499 186.243 74.9374C190.504 81.2249 183.199 86.8516 183.199 86.8516L177.699 82.0859C179.123 80.5904 180.096 78.7777 180.524 76.8281C180.951 74.8784 180.816 72.8597 180.134 70.9727C177.699 64.6251 185.025 59.0584 185.025 59.0584Z" fill="#06A5FF"/>
<path opacity="0.5" d="M185.025 59.0579L191.134 60.6398C191.134 60.6398 181.982 68.6494 186.243 74.9369C190.504 81.2244 183.199 86.8511 183.199 86.8511L177.699 82.0854C179.123 80.5899 180.097 78.7772 180.524 76.8276C180.951 74.8779 180.816 72.8592 180.134 70.9722C177.699 64.6246 185.025 59.0579 185.025 59.0579Z" fill="#06A5FF"/>
<path d="M88.0218 36.5104L88.3716 36.4705L88.3497 36.4306L88.3935 36.4106L88.3716 36.3309L88.0218 36.5104Z" fill="#FEFFFF"/>
<path d="M221.092 10.9605L219.853 11.1207L130.828 16.8876L89.0869 35.7101L88.3477 35.7501L102 111L186.656 105.513L232.788 84.8888L221.092 10.9605Z" fill="#FEFFFF"/>
<path opacity="0.2" d="M99.109 41.0368L102.783 43.7601L107.305 42.4986L105.631 46.5634L108.305 50.1277L103.609 49.9274L100.761 53.3715L99.522 49.1866L95.0653 47.7448L99.0003 45.382L99.109 41.0368Z" fill="#06A5FF"/>
<path opacity="0.2" d="M147.807 44.1403V48.4854L151.698 50.9284L147.22 52.27L145.893 56.4349L143.111 52.9308L138.415 53.0709L141.176 49.5467L139.589 45.4618L144.067 46.7834L147.807 44.1403Z" fill="#06A5FF"/>
<path opacity="0.2" d="M149.785 90.856V95.2012L153.676 97.6441L149.22 99.0057L147.893 103.171L145.111 99.6665L140.393 99.7866L143.154 96.2624L141.567 92.1775L146.046 93.5191L149.785 90.856Z" fill="#06A5FF"/>
<path opacity="0.2" d="M128.328 80.5438L128.349 84.8689L132.241 87.3319L127.762 88.6735L126.436 92.8384L123.654 89.3343L118.936 89.4744L121.697 85.9502L120.11 81.8653L124.61 83.1869L128.328 80.5438Z" fill="#06A5FF"/>
<path opacity="0.2" d="M151.611 77.5801L151.633 80.1232L153.894 81.5649L151.285 82.3458L150.502 84.7888L148.872 82.7463L146.111 82.8064L147.741 80.764L146.807 78.3611L149.437 79.142L151.611 77.5801Z" fill="#06A5FF"/>
<path opacity="0.2" d="M113.414 97.6443V100.187L115.697 101.609L113.088 102.41L112.305 104.833L110.675 102.79L107.914 102.871L109.523 100.808L108.61 98.4052L111.24 99.1862L113.414 97.6443Z" fill="#06A5FF"/>
<path opacity="0.2" d="M108.349 73.0749L108.37 75.6179L110.631 77.0396L108.023 77.8406L107.24 80.2835L105.609 78.2211L102.87 78.3011L104.479 76.2387L103.544 73.8558L106.175 74.6368L108.349 73.0749Z" fill="#06A5FF"/>
<path opacity="0.2" d="M164.09 32.8469V35.39L166.372 36.8317L163.764 37.6126L162.981 40.0555L161.35 38.0131L158.589 38.0932L160.198 36.0307L159.285 33.6279L161.916 34.4088L164.09 32.8469Z" fill="#06A5FF"/>
<path opacity="0.2" d="M115.653 53.3115L118.805 58.2774L125.023 58.6979L120.871 62.983L122.349 68.5497L116.653 66.2469L111.349 69.2705L111.979 63.5637L107.218 59.8393L113.305 58.6178L115.653 53.3115Z" fill="#06A5FF"/>
<path opacity="0.2" d="M157.068 61.1207L162.872 63.1831L168.025 59.9593L167.677 65.6861L172.59 69.1903L166.568 70.6721L164.481 76.0585L161.09 71.2528L154.872 71.0725L158.807 66.6272L157.068 61.1207Z" fill="#06A5FF"/>
<path opacity="0.2" d="M170.525 84.889L173.677 89.8549L179.895 90.2754L175.742 94.5605L177.221 100.127L171.525 97.8244L166.22 100.828L166.851 95.1212L162.09 91.4168L168.177 90.1953L170.525 84.889Z" fill="#06A5FF"/>
<path opacity="0.2" d="M182.047 33.0471L184.199 35.4499L186.373 33.8079L185.938 38.013L187.656 41.337L185.243 41.5372L184.134 45.2416L183.069 41.1568L180.655 40.1155L182.416 37.3922L182.047 33.0471Z" fill="#06A5FF"/>
<path opacity="0.2" d="M207.243 31.9659L207.7 36.3111L209.939 38.4336L207.787 40.1757L207.526 44.4408L205.765 41.1769L203.352 41.7176L204.417 37.953L203.178 34.0083L205.613 34.9495L207.243 31.9659Z" fill="#06A5FF"/>
<path opacity="0.2" d="M213.026 78.5615L213.461 82.8867L215.7 85.0092L213.548 86.7513L213.287 91.0164L211.526 87.7525L209.113 88.2932L210.178 84.5286L208.961 80.5839L211.374 81.5251L213.026 78.5615Z" fill="#06A5FF"/>
<path opacity="0.2" d="M201.004 70.0712L201.439 74.3964L203.678 76.5189L201.526 78.261L201.265 82.5462L199.504 79.2622L197.113 79.8029L198.156 76.0384L196.917 72.0937L199.352 73.0348L201.004 70.0712Z" fill="#06A5FF"/>
<path opacity="0.2" d="M212.613 65.1254L212.874 67.6485L214.178 68.8899L212.918 69.9112L212.765 72.4142L211.722 70.5119L210.331 70.8122L210.939 68.6096L210.222 66.3069L211.657 66.8475L212.613 65.1254Z" fill="#06A5FF"/>
<path opacity="0.2" d="M195.113 88.4534L195.373 90.9965L196.678 92.238L195.417 93.2391L195.265 95.7622L194.221 93.8398L192.83 94.1602L193.439 91.9576L192.721 89.6348L194.134 90.1955L195.113 88.4534Z" fill="#06A5FF"/>
<path opacity="0.2" d="M190.026 64.3046L190.286 66.8476L191.591 68.0891L190.33 69.1103L190.178 71.6133L189.134 69.691L187.743 70.0114L188.352 67.8088L187.634 65.486L189.069 66.0466L190.026 64.3046Z" fill="#06A5FF"/>
<path opacity="0.2" d="M214.439 19.2906L214.7 21.8337L216.005 23.0752L214.744 24.0764L214.613 26.5994L213.57 24.6771L212.157 24.9775L212.765 22.7948L212.048 20.4721L213.483 21.0328L214.439 19.2906Z" fill="#06A5FF"/>
<path opacity="0.2" d="M191.743 43.9003L193.852 48.6059L197.069 48.4857L195.395 53.1313L196.721 58.5778L193.569 56.7556L191.156 60.2398L190.895 54.4729L188.091 51.169L191.091 49.4269L191.743 43.9003Z" fill="#06A5FF"/>
<path opacity="0.2" d="M213.722 48.1651L216.896 49.747L219.2 46.0626L219.614 51.8295L222.483 54.9332L219.548 56.8956L219.027 62.4822L216.809 57.9568L213.613 58.3173L215.179 53.5315L213.722 48.1651Z" fill="#06A5FF"/>
<path opacity="0.2" d="M223.027 70.7922L225.136 75.4779L228.353 75.3777L226.679 80.0233L228.005 85.4698L224.853 83.6476L222.44 87.1318L222.179 81.3649L219.374 78.0609L222.353 76.3189L223.027 70.7922Z" fill="#06A5FF"/>
<path opacity="0.2" d="M172.96 30.4841L221.114 11.3011L232.831 85.4898L186.721 106.375L172.96 30.4841Z" fill="#000103"/>
<path opacity="0.2" d="M88 36.0707L130.828 16.8878L220.461 11.0809L172.938 29.9835L88 36.0707Z" fill="#06A5FF"/>
<path d="M216.918 92.8986L205.374 16.4473L117.979 22.114L110.022 26.6194L190.004 23.4356L205.917 97.424L216.918 92.8986Z" fill="#06A5FF"/>
<path d="M174.329 14.0644L134.523 32.3863L145.241 108.197L132.588 109.018L118.066 33.7079L162.72 14.8253L174.329 14.0644Z" fill="#06A5FF"/>
<path opacity="0.2" d="M205.417 17.1079L190.025 23.5957L205.939 97.6842L216.939 93.2188L205.417 17.1079Z" fill="#000103"/>
<path opacity="0.1" d="M118.11 34.0282L134.545 32.5665L145.241 108.197L132.589 109.018L118.11 34.0282Z" fill="#000103"/>
<path d="M148.589 21.7335C148.589 21.7335 123.566 6.75557 113.61 11.5613C105.718 15.3458 107.653 25.0575 128.458 26.1988C120.762 27.3402 111.697 29.0622 106.37 31.345L122.045 32.0458C131.228 29.0815 140.658 26.8113 150.241 25.2577C150.755 26.8549 150.881 28.5365 150.611 30.1836L161.177 28.6417C161.177 28.6417 157.829 26.0987 155.111 24.2365C167.22 22.3342 193.069 17.0278 194.895 6.21492C197.156 -7.82185 160.242 3.89215 148.589 21.7335ZM113.805 14.3447C115.979 10.5401 147.176 23.035 147.176 23.035C133.241 25.7583 111.588 18.2093 113.827 14.3447H113.805ZM151.328 22.154C151.328 22.154 181.895 -1.17391 190.025 3.05114C198.156 7.27619 161.111 22.3742 151.35 22.2141L151.328 22.154Z" fill="#06A5FF"/>
<path opacity="0.1" d="M148.589 21.7335C148.589 21.7335 123.566 6.75557 113.61 11.5613C105.718 15.3458 107.653 25.0575 128.458 26.1988C120.762 27.3402 111.697 29.0622 106.37 31.345L122.045 32.0458C131.228 29.0815 140.658 26.8113 150.241 25.2577C150.755 26.8549 150.881 28.5365 150.611 30.1836L161.177 28.6417C161.177 28.6417 157.829 26.0987 155.111 24.2365C167.22 22.3342 193.069 17.0278 194.895 6.21492C197.156 -7.82185 160.242 3.89215 148.589 21.7335ZM113.805 14.3447C115.979 10.5401 147.176 23.035 147.176 23.035C133.241 25.7583 111.588 18.2093 113.827 14.3447H113.805ZM151.328 22.154C151.328 22.154 181.895 -1.17391 190.025 3.05114C198.156 7.27619 161.111 22.3742 151.35 22.2141L151.328 22.154Z" fill="#000103"/>
</svg>
