<svg width="745" height="712" viewBox="0 0 745 712" fill="none" xmlns="http://www.w3.org/2000/svg">
<circle cx="378" cy="350" r="349.5" stroke="#315D93" stroke-dasharray="10 10"/>
<circle cx="378" cy="350" r="208.5" stroke="#06A5FF"/>
<path d="M161.578 592.871L164.879 590.601C165.036 590.829 165.347 590.886 165.574 590.73L167.637 589.312C167.724 589.252 167.812 589.226 167.896 589.222C168.129 589.212 168.317 589.045 168.363 588.827C168.394 588.842 168.424 588.859 168.453 588.877C168.292 589.03 168.248 589.279 168.361 589.482C168.401 589.555 168.425 589.644 168.42 589.75L168.291 592.25C168.277 592.525 168.489 592.76 168.764 592.775L168.558 596.776C168.282 596.762 168.047 596.974 168.033 597.249L167.775 602.249C167.76 602.525 167.972 602.76 168.248 602.774L168.041 606.776C167.766 606.761 167.531 606.973 167.516 607.249L167.387 609.749C167.381 609.871 167.39 609.993 167.412 610.11C167.437 610.238 167.508 610.345 167.605 610.417C167.597 610.538 167.632 610.661 167.714 610.763C167.789 610.857 167.875 610.942 167.972 611.017L169.959 612.54C170.178 612.708 170.492 612.667 170.66 612.448L173.839 614.886C173.671 615.106 173.712 615.419 173.931 615.587L177.903 618.635C178.123 618.803 178.436 618.761 178.605 618.542L181.784 620.981C181.615 621.2 181.657 621.514 181.876 621.682L183.862 623.205C183.946 623.27 183.998 623.346 184.027 623.424C184.109 623.642 184.326 623.769 184.547 623.746C184.542 623.78 184.536 623.814 184.527 623.847C184.332 623.741 184.082 623.776 183.924 623.946C183.867 624.007 183.789 624.058 183.688 624.085L181.27 624.735C181.003 624.806 180.845 625.081 180.917 625.347L177.048 626.387C176.976 626.121 176.702 625.963 176.435 626.034L171.6 627.334C171.334 627.406 171.175 627.68 171.247 627.947L167.378 628.987C167.306 628.72 167.032 628.562 166.765 628.633L164.348 629.283C164.229 629.315 164.117 629.361 164.012 629.419C163.898 629.482 163.818 629.583 163.78 629.697C163.663 629.727 163.556 629.798 163.484 629.907C163.418 630.007 163.364 630.116 163.323 630.231L162.488 632.591C162.396 632.851 162.532 633.137 162.792 633.229L161.456 637.006C161.195 636.914 160.909 637.05 160.817 637.311L159.147 642.03C159.055 642.291 159.191 642.576 159.451 642.669L158.115 646.446C157.854 646.353 157.569 646.49 157.476 646.75L156.641 649.11C156.606 649.209 156.55 649.282 156.484 649.335C156.302 649.48 156.248 649.726 156.339 649.929C156.305 649.935 156.271 649.939 156.237 649.941C156.277 649.722 156.167 649.496 155.956 649.397C155.88 649.362 155.808 649.304 155.751 649.216L154.386 647.117C154.235 646.886 153.925 646.82 153.694 646.971L151.509 643.612C151.741 643.462 151.806 643.152 151.656 642.921L148.926 638.724C148.775 638.492 148.465 638.427 148.234 638.577L146.049 635.219C146.281 635.068 146.346 634.759 146.196 634.527L144.831 632.429C144.764 632.326 144.685 632.233 144.598 632.151C144.503 632.062 144.382 632.018 144.261 632.016C144.197 631.914 144.096 631.835 143.97 631.8C143.855 631.769 143.735 631.75 143.612 631.747L141.11 631.682C140.834 631.675 140.604 631.893 140.597 632.169L136.592 632.065C136.599 631.789 136.381 631.559 136.105 631.552L131.1 631.422C130.824 631.414 130.594 631.632 130.587 631.908L126.582 631.804C126.589 631.528 126.371 631.298 126.095 631.291L123.593 631.226C123.487 631.223 123.401 631.193 123.33 631.146C123.136 631.018 122.886 631.043 122.72 631.191C122.705 631.161 122.69 631.13 122.677 631.098C122.898 631.069 123.079 630.894 123.108 630.663C123.118 630.58 123.151 630.494 123.217 630.412L124.791 628.465C124.964 628.251 124.931 627.936 124.716 627.762L127.235 624.646C127.45 624.82 127.765 624.787 127.938 624.572L131.086 620.679C131.26 620.464 131.226 620.149 131.012 619.976L133.531 616.86C133.745 617.034 134.06 617 134.234 616.785L135.808 614.839C135.885 614.744 135.949 614.64 136 614.532C136.055 614.414 136.06 614.285 136.024 614.17C136.101 614.078 136.146 613.957 136.14 613.827C136.134 613.707 136.114 613.587 136.079 613.47L135.368 611.069C135.29 610.805 135.011 610.654 134.747 610.732L133.608 606.891C133.873 606.812 134.024 606.534 133.945 606.269L132.523 601.469C132.444 601.204 132.166 601.053 131.901 601.132L130.763 597.29C131.028 597.212 131.179 596.934 131.1 596.669L130.389 594.269C130.359 594.168 130.361 594.076 130.384 593.995C130.446 593.771 130.345 593.54 130.152 593.429C130.176 593.404 130.201 593.381 130.227 593.359C130.323 593.559 130.546 593.678 130.774 593.633C130.856 593.617 130.949 593.622 131.047 593.66L133.385 594.555C133.642 594.654 133.932 594.525 134.03 594.267L137.772 595.7C137.673 595.958 137.802 596.247 138.06 596.346L142.735 598.136C142.993 598.235 143.282 598.106 143.381 597.848L147.123 599.281C147.024 599.539 147.153 599.828 147.411 599.927L149.749 600.822C149.863 600.866 149.981 600.895 150.1 600.91C150.229 600.926 150.353 600.891 150.451 600.821C150.563 600.866 150.692 600.871 150.814 600.825C150.926 600.783 151.034 600.727 151.135 600.657L153.198 599.239C153.425 599.083 153.483 598.771 153.326 598.544L156.628 596.274C156.784 596.502 157.096 596.559 157.323 596.403L161.449 593.566C161.676 593.41 161.734 593.099 161.578 592.871Z" fill="#2C3D5B" stroke="#06A5FF" stroke-linecap="round" stroke-dasharray="5 5"/>
<path d="M720.619 106H506.762C493.639 106 483 116.639 483 129.762V581.238C483 594.361 493.639 605 506.762 605H720.619C733.742 605 744.381 594.361 744.381 581.238V129.762C744.381 116.639 733.742 106 720.619 106Z" fill="#06A5FF"/>
<path d="M714.726 111.94H677.634C675.772 111.94 673.986 112.68 672.669 113.997C671.352 115.314 670.612 117.1 670.612 118.962V131.14C670.612 134.291 669.36 137.313 667.132 139.541C664.904 141.769 661.882 143.021 658.731 143.021H568.757C565.606 143.021 562.584 141.769 560.356 139.541C558.128 137.313 556.876 134.291 556.876 131.14V118.962C556.876 118.04 556.694 117.127 556.341 116.275C555.988 115.423 555.471 114.649 554.819 113.997C554.167 113.345 553.393 112.828 552.541 112.475C551.689 112.122 550.776 111.94 549.854 111.94H512.75C506.448 111.94 500.404 114.444 495.948 118.9C491.492 123.356 488.988 129.4 488.988 135.702V575.298C488.988 581.6 491.492 587.644 495.948 592.1C500.404 596.556 506.448 599.06 512.75 599.06H714.726C721.028 599.06 727.072 596.556 731.528 592.1C735.985 587.644 738.488 581.6 738.488 575.298V135.702C738.488 132.582 737.873 129.492 736.679 126.609C735.485 123.726 733.735 121.107 731.528 118.9C729.322 116.694 726.702 114.943 723.819 113.749C720.936 112.555 717.847 111.94 714.726 111.94Z" fill="#F8FAFC"/>
<path d="M627.948 121.089H599.433C597.465 121.089 595.869 122.685 595.869 124.653C595.869 126.622 597.465 128.217 599.433 128.217H627.948C629.916 128.217 631.512 126.622 631.512 124.653C631.512 122.685 629.916 121.089 627.948 121.089Z" fill="black"/>
<path d="M610.34 200.465C611.54 198.735 612.927 197.141 614.474 195.713C615.369 194.874 616.206 193.977 616.981 193.028C617.482 192.404 617.758 191.63 617.765 190.83C617.777 190.354 617.662 189.883 617.432 189.466C617.203 189.048 616.867 188.699 616.459 188.454C615.468 187.854 614.324 187.557 613.168 187.598C611.693 187.6 610.254 188.043 609.033 188.87C607.746 189.723 606.706 190.899 606.015 192.279L593.778 186.161C595.603 182.674 598.44 179.821 601.916 177.975C606.038 175.909 610.616 174.92 615.223 175.1C620.815 175.1 625.353 176.244 628.839 178.533C630.488 179.545 631.84 180.974 632.758 182.677C633.676 184.379 634.127 186.295 634.066 188.228C634.104 189.968 633.763 191.694 633.068 193.289C632.475 194.62 631.673 195.848 630.692 196.925C629.594 198.087 628.423 199.178 627.187 200.192C626.057 201.145 625 202.181 624.027 203.293C623.403 204.021 623.061 204.948 623.064 205.907H608.902C608.821 203.99 609.322 202.093 610.34 200.465ZM609.425 222.623C608.61 221.886 607.962 220.983 607.524 219.975C607.085 218.967 606.867 217.877 606.883 216.778C606.855 215.683 607.069 214.594 607.508 213.591C607.947 212.587 608.602 211.691 609.425 210.968C611.277 209.477 613.582 208.665 615.96 208.665C618.337 208.665 620.642 209.477 622.494 210.968C623.315 211.693 623.969 212.588 624.408 213.592C624.847 214.596 625.062 215.683 625.037 216.778C625.05 217.877 624.831 218.966 624.392 219.973C623.954 220.981 623.307 221.884 622.494 222.623C620.672 224.179 618.355 225.034 615.96 225.034C613.564 225.034 611.247 224.179 609.425 222.623Z" fill="#06A5FF"/>
<path d="M682.826 252.86H510.98C509.667 252.86 508.604 253.924 508.604 255.237V257.613C508.604 258.925 509.667 259.989 510.98 259.989H682.826C684.138 259.989 685.202 258.925 685.202 257.613V255.237C685.202 253.924 684.138 252.86 682.826 252.86Z" fill="#98D6FA"/>
<path d="M706.267 267.118H510.98C509.667 267.118 508.604 268.181 508.604 269.494V271.87C508.604 273.182 509.667 274.246 510.98 274.246H706.267C707.579 274.246 708.643 273.182 708.643 271.87V269.494C708.643 268.181 707.579 267.118 706.267 267.118Z" fill="#98D6FA"/>
<path d="M656.117 281.375H510.397C509.085 281.375 508.021 282.439 508.021 283.751V286.127C508.021 287.439 509.085 288.503 510.397 288.503H656.117C657.43 288.503 658.493 287.439 658.493 286.127V283.751C658.493 282.439 657.43 281.375 656.117 281.375Z" fill="#98D6FA"/>
<path d="M682.826 305.707H510.98C509.667 305.707 508.604 306.771 508.604 308.083V310.459C508.604 311.772 509.667 312.835 510.98 312.835H682.826C684.138 312.835 685.202 311.772 685.202 310.459V308.083C685.202 306.771 684.138 305.707 682.826 305.707Z" fill="#98D6FA"/>
<path d="M706.267 319.964H510.98C509.667 319.964 508.604 321.028 508.604 322.34V324.716C508.604 326.029 509.667 327.093 510.98 327.093H706.267C707.579 327.093 708.643 326.029 708.643 324.716V322.34C708.643 321.028 707.579 319.964 706.267 319.964Z" fill="#98D6FA"/>
<path d="M656.117 334.221H510.397C509.085 334.221 508.021 335.285 508.021 336.597V338.974C508.021 340.286 509.085 341.35 510.397 341.35H656.117C657.43 341.35 658.493 340.286 658.493 338.974V336.597C658.493 335.285 657.43 334.221 656.117 334.221Z" fill="#98D6FA"/>
<path d="M604.85 373.692H618.259L616.024 395.145H607.085L604.85 373.692ZM611.554 408.951C609.634 408.951 608.062 408.372 606.837 407.213C605.612 406.054 604.999 404.647 604.999 402.992C604.999 401.303 605.612 399.913 606.837 398.82C608.062 397.695 609.634 397.132 611.554 397.132C613.475 397.132 615.047 397.695 616.272 398.82C617.497 399.913 618.11 401.303 618.11 402.992C618.11 404.647 617.497 406.054 616.272 407.213C615.047 408.372 613.475 408.951 611.554 408.951Z" fill="#06A5FF"/>
<path d="M702.002 446.651H524.821C518.259 446.651 512.94 451.97 512.94 458.532V541.77C512.94 548.331 518.259 553.651 524.821 553.651H702.002C708.563 553.651 713.883 548.331 713.883 541.77V458.532C713.883 451.97 708.563 446.651 702.002 446.651Z" fill="#CBD5E1"/>
<circle cx="183.5" cy="422.5" r="15.5" fill="#06A5FF"/>
<circle cx="127.5" cy="105.5" r="27.5" fill="#D0EEFF"/>
<path d="M52.7718 214.62C53.4017 214.081 54.3759 214.498 54.4203 215.326L54.8525 223.388C54.8701 223.716 55.0483 224.015 55.3291 224.187L62.215 228.401C62.9219 228.834 62.8259 229.889 62.0525 230.187L54.5191 233.089C54.212 233.208 53.9827 233.47 53.9061 233.79L52.0261 241.641C51.833 242.447 50.7995 242.682 50.2772 242.038L45.189 235.77C44.9816 235.515 44.6617 235.378 44.3336 235.404L36.2858 236.042C35.4595 236.107 34.9168 235.197 35.3674 234.501L39.7562 227.725C39.9351 227.449 39.9666 227.103 39.8405 226.799L36.7467 219.342C36.429 218.576 37.1271 217.779 37.928 217.992L45.7285 220.072C46.0465 220.157 46.3859 220.08 46.6361 219.866L52.7718 214.62Z" fill="#27B1FF"/>
<circle cx="48" cy="474" r="48" fill="#06A5FF"/>
<path d="M56.04 488.68H40.08L37.26 496H22.86L41.22 454H55.14L73.5 496H58.86L56.04 488.68ZM52.14 478.48L48.06 467.92L43.98 478.48H52.14Z" fill="white"/>
<circle cx="334" cy="146" r="48" fill="#06A5FF"/>
<path d="M347.02 146.04C349.5 146.96 351.42 148.3 352.78 150.06C354.14 151.82 354.82 153.94 354.82 156.42C354.82 160.1 353.3 162.96 350.26 165C347.22 167 342.82 168 337.06 168H313.42V126H335.86C341.46 126 345.68 127 348.52 129C351.4 131 352.84 133.66 352.84 136.98C352.84 138.94 352.34 140.7 351.34 142.26C350.38 143.82 348.94 145.08 347.02 146.04ZM327.34 135.9V142.14H333.94C337.02 142.14 338.56 141.1 338.56 139.02C338.56 136.94 337.02 135.9 333.94 135.9H327.34ZM335.86 158.1C338.98 158.1 340.54 157 340.54 154.8C340.54 152.6 338.98 151.5 335.86 151.5H327.34V158.1H335.86Z" fill="white"/>
<circle cx="337" cy="664" r="48" fill="#06A5FF"/>
<path d="M338.14 686.96C333.7 686.96 329.7 686.04 326.14 684.2C322.58 682.32 319.78 679.72 317.74 676.4C315.74 673.04 314.74 669.24 314.74 665C314.74 660.76 315.74 656.98 317.74 653.66C319.78 650.3 322.58 647.7 326.14 645.86C329.7 643.98 333.7 643.04 338.14 643.04C342.22 643.04 345.86 643.76 349.06 645.2C352.26 646.64 354.9 648.72 356.98 651.44L348.04 659.42C345.44 656.14 342.38 654.5 338.86 654.5C335.9 654.5 333.52 655.46 331.72 657.38C329.92 659.26 329.02 661.8 329.02 665C329.02 668.2 329.92 670.76 331.72 672.68C333.52 674.56 335.9 675.5 338.86 675.5C342.38 675.5 345.44 673.86 348.04 670.58L356.98 678.56C354.9 681.28 352.26 683.36 349.06 684.8C345.86 686.24 342.22 686.96 338.14 686.96Z" fill="white"/>
<path d="M378 486C454.768 486 517 423.768 517 347C517 270.232 454.768 208 378 208C301.232 208 239 270.232 239 347C239 423.768 301.232 486 378 486Z" fill="#315D93"/>
<path d="M334.984 340.801C345.423 342.535 363.178 364.767 364.77 366.798C372.644 376.869 393.641 355.408 402.323 359.672C403.486 360.276 404.401 361.268 404.912 362.475C405.125 363.294 402.774 366.738 399.65 371.346C395.256 377.771 389.33 386.429 386.682 393.341C385.945 394.909 386.682 399.398 390.601 405.609C404.211 426.915 419.531 439.267 429.792 453.198L430.006 453.043C430.268 452.248 430.529 451.464 430.766 450.668H430.861C441.289 456.012 457.571 455.787 468.865 448.827L469.032 449.112C468.022 481.024 440.849 500.798 437.286 500.798C434.389 500.798 415.992 496.404 404.805 484.967C402.174 482.325 400.028 479.242 398.463 475.858C396.622 471.748 394.413 466.903 392.014 461.737C383.701 443.922 373.012 422.545 366.302 414.54C362.822 409.362 356.468 406.75 349.414 404.398C343.737 402.557 333.203 390.99 333.048 387.569C332.894 384.897 336.611 376.952 341.564 372.57C342.781 371.42 344.214 370.524 345.78 369.933C346.457 363.556 333.987 347.131 329.794 342.618C330.399 341.855 331.207 341.279 332.126 340.957C333.045 340.635 334.036 340.581 334.984 340.801Z" fill="#F0C6BF"/>
<path d="M317.609 455.276C301.148 461.369 289.854 460.027 281.268 454.647C279.212 453.329 277.291 451.814 275.531 450.122C268.774 425.894 280.507 408.282 292.514 394.042C304.236 380.147 331.908 372.296 341.54 372.57C336.599 376.952 332.87 384.897 333.024 387.569C333.226 390.99 343.713 402.569 349.509 404.493C356.563 406.868 362.917 409.457 366.397 414.635C373.154 422.628 383.831 444.077 392.109 461.832L391.681 462.034C374.77 468.482 344.913 465.003 322.3 473.399L322.015 472.651C320.174 468.566 318.713 462.307 317.609 455.276Z" fill="#5BC3FE"/>
<path d="M430.778 450.739C430.541 451.511 430.279 452.295 430.018 453.115L429.804 453.269C419.531 439.338 404.211 426.987 390.613 405.681C386.646 399.469 385.957 394.992 386.694 393.413C389.342 386.501 395.268 377.843 399.662 371.418L399.947 371.608C449.127 369.957 466.668 400.942 475.647 443.34C473.725 445.552 471.464 447.444 468.949 448.946C457.595 455.905 441.313 456.072 430.945 450.787L430.778 450.739Z" fill="#5BC3FE"/>
<path d="M413.178 309.21C411.562 308.295 409.805 307.594 407.833 306.466C397.275 300.421 387.24 293.189 377.014 286.597C371.908 283.296 366.326 279.875 360.245 280.327C355.186 280.718 350.649 283.889 347.442 287.785C343.701 292.381 341.504 298.058 338.796 303.224C335.83 308.863 334.4 315.183 334.652 321.549C334.652 321.715 334.652 321.882 334.652 322.048C334.211 322.565 333.851 323.146 333.583 323.77C331.766 328.295 333.82 336.347 334.949 340.812C345.388 342.546 363.143 364.779 364.734 366.81C372.608 376.881 393.606 355.42 402.287 359.684C405.985 356.344 408.835 352.171 410.6 347.511C410.993 347.108 411.332 346.657 411.61 346.169C413.617 342.606 414.686 338.497 416.693 334.957C418.201 332.297 419.983 330.682 420.636 327.535C421.557 322.66 420.516 317.619 417.738 313.509C416.601 311.718 415.033 310.239 413.178 309.21Z" fill="#F0C6BF"/>
<path d="M359.176 333.247C349.947 331.925 341.039 328.922 332.894 324.388C330.887 322.761 329.01 321.038 329.521 318.521L333.44 299.412C333.963 296.87 336.16 295.849 339.058 296.181C350.405 298.35 361.401 302.062 371.741 307.214C374.176 308.687 375.399 310.908 374.211 313.259L365.364 330.718C364.212 332.986 361.741 333.354 359.176 333.247Z" fill="white" stroke="black" stroke-miterlimit="10"/>
<path d="M384.033 341.644C392.174 346.18 401.078 349.183 410.304 350.503C412.893 350.432 415.422 350.207 416.551 347.879L425.006 330.302C426.123 327.927 425.006 325.836 422.489 324.364C412.151 319.206 401.154 315.494 389.805 313.331C386.979 313.034 384.663 314.055 384.176 316.644L380.613 335.896C380.174 338.425 381.919 340.159 384.033 341.644Z" fill="white" stroke="black" stroke-miterlimit="10"/>
<path d="M383.522 319.851C380.459 317.672 376.827 316.434 373.071 316.288L374.817 311.122C378.524 311.51 382.096 312.727 385.268 314.685L383.522 319.851Z" stroke="black" stroke-miterlimit="10"/>
<g style="mix-blend-mode:multiply" opacity="0.44">
<path d="M417.833 313.545C416.674 311.728 415.072 310.237 413.178 309.21C411.562 308.295 409.805 307.594 407.833 306.466C397.275 300.421 387.24 293.189 377.014 286.597C371.908 283.296 366.326 279.875 360.245 280.327C355.435 280.695 349.913 283.189 351.599 288.64C353.226 293.925 357.537 299.329 360.922 303.568C372.561 318.069 395.244 325.801 397.347 346.762C398.534 358.829 384.686 364.446 374.782 361.608C367.656 359.589 361.718 354.601 356.314 349.53C352.718 345.96 348.893 342.628 344.865 339.554C341.184 336.917 337.918 336.596 333.82 335.195C333.82 335.706 334.592 340.717 335.008 340.789C345.447 342.523 363.202 364.755 364.794 366.786C372.668 376.857 393.665 355.397 402.346 359.66C403.534 360.266 408.059 352.416 408.878 351.608C410.85 349.684 413.961 350.242 416.159 348.259C418.067 346.264 419.561 343.911 420.553 341.335C421.803 338.566 422.82 335.698 423.593 332.76C424.282 330.243 425.624 328.01 424.448 325.361C423.617 323.509 421.776 322.701 420.885 320.908C419.626 318.568 419.341 315.86 417.833 313.545Z" fill="#CF9B8E"/>
</g>
<path d="M453.153 288.438C447.985 288.244 443.076 286.127 439.388 282.5C444.471 281.502 450.54 274.828 452.749 270.125C454.958 265.422 455.611 260.315 456.312 255.232C453.486 260.066 447.654 262.952 441.942 263.32C435.339 263.747 428.878 261.396 422.797 258.676C416.717 255.956 389.983 234.235 375.292 250.22C364.437 244.923 345.791 251.408 339.224 265.909C335.064 275.307 334.084 285.807 336.433 295.813C338.859 295.657 341.291 296.03 343.559 296.906C344.666 294.592 346.016 292.403 347.585 290.374C348.333 289.459 358.273 283.141 358.273 284.246C358.273 288.426 362.026 293.747 364.378 297.072C367.596 301.633 372.086 305.267 375.755 309.447C381.088 315.492 391.515 319.53 399.021 321.977C410.137 325.599 425.398 327.796 436.479 323.307C447.749 318.746 456.063 308.426 461.846 298.046C463.112 295.79 464.193 293.435 465.077 291.003C465.587 289.614 466.098 284.388 467.06 283.581C463.179 286.854 458.228 288.583 453.153 288.438Z" fill="#06A5FF"/>
<path d="M375.364 337.238C375.838 338.319 376.131 339.47 376.231 340.646C376.27 341.236 376.166 341.826 375.926 342.367C375.686 342.907 375.317 343.38 374.853 343.746C373.535 344.625 371.765 344.173 370.245 343.746C370.242 344.151 370.32 344.553 370.474 344.928C370.628 345.303 370.856 345.643 371.144 345.928C371.431 346.214 371.773 346.439 372.149 346.59C372.525 346.742 372.928 346.816 373.333 346.81C374.149 346.74 374.925 346.426 375.56 345.909C376.195 345.392 376.661 344.697 376.896 343.912C377.329 342.317 377.134 340.617 376.349 339.162" fill="#CF9B8E"/>
<g style="mix-blend-mode:multiply">
<path d="M431.871 409.481C431.8 408.543 431.372 407.296 430.446 407.438C429.519 407.581 429.436 408.555 429.401 409.35C429.211 413.353 432.085 429.54 424.139 427.426C422.215 426.927 420.707 425.502 419.009 424.493C417.243 423.452 415.263 422.827 413.219 422.667C411.176 422.506 409.122 422.814 407.216 423.566C406.408 423.88 405.636 424.278 404.912 424.754C414.044 435.443 422.928 443.922 429.674 453.02H429.781C429.959 452.506 430.198 452.016 430.493 451.559C430.493 451.345 430.636 451.119 430.695 450.917C430.754 450.716 430.695 450.811 430.695 450.751C430.69 450.724 430.69 450.696 430.695 450.668H430.79C430.909 450.739 431.051 450.787 431.17 450.846L431.645 450.965C431.899 450.153 432.034 449.309 432.049 448.459C432.865 435.576 432.789 422.651 431.823 409.778L431.871 409.481Z" fill="#98D6FA"/>
</g>
<g style="mix-blend-mode:multiply">
<path d="M316.992 412.593C320.958 420.55 321.742 429.813 320.673 438.649C319.854 445.633 318.369 460.288 313.737 465.787C309.973 470.252 308.583 466.178 308.049 461.036C307.277 453.661 311.267 445.834 312.894 438.721C314.118 433.305 319.509 417.628 316.992 412.593Z" fill="#98D6FA"/>
</g>
<path d="M439.662 453.72C436.608 453.151 433.65 452.156 430.873 450.763H430.778C430.541 451.535 430.279 452.319 430.018 453.138L429.804 453.293C429.385 452.731 428.957 452.172 428.522 451.618C429.344 454.384 430.335 457.097 431.491 459.742C433.803 466.15 434.86 472.945 434.602 479.753C434.602 480.668 434.602 481.808 435.469 482.188C436.538 482.663 437.524 481.416 437.987 480.347C441.57 471.923 442.161 462.527 439.662 453.72Z" fill="#CF9B8E"/>
<g style="mix-blend-mode:multiply">
<path d="M443.593 382.724L442.845 382.189L442.144 381.738C440.017 380.324 437.79 379.066 435.481 377.973H435.422C427.857 374.51 419.731 372.435 411.432 371.845H410.517C409.65 371.774 408.784 371.726 407.905 371.691C407.026 371.655 405.981 371.608 404.995 371.596H403.807C402.537 371.596 401.254 371.596 399.948 371.596L399.805 371.501L399.663 371.406L399.449 371.715L398.119 373.662L397.501 374.589C397.145 375.099 396.8 375.622 396.444 376.156L395.684 377.344L394.722 378.805L393.926 380.052C393.617 380.527 393.321 381.002 393.024 381.477C392.727 381.952 392.489 382.332 392.228 382.759L391.361 384.208L390.613 385.479C390.316 386.002 390.043 386.512 389.758 387.023L389.14 388.211C388.689 389.066 388.261 389.909 387.869 390.74C391.634 392.213 397.857 389.861 401.551 387.985C416.111 380.586 435.339 383.864 446.681 395.669C458.023 407.474 465.588 424.445 464.709 441.179C464.59 443.554 464.376 446.274 465.897 448.186C466.438 448.843 467.143 449.346 467.939 449.647C468.296 449.445 468.676 449.255 469.032 449.029C471.547 447.527 473.808 445.635 475.73 443.424C470.077 417.058 461.217 395.182 443.593 382.724Z" fill="#98D6FA"/>
</g>
<path d="M468.937 448.875C459.293 454.813 446.099 455.822 435.956 452.735C434.484 457.485 436.051 463.744 440.909 465.133C444.852 466.262 449.804 463.566 452.856 466.321C455.908 469.076 454.044 473.566 452.179 476.926L439.531 499.753C439.947 499.622 440.351 499.456 440.719 499.313C449.032 494.1 468.212 475.893 469.056 449.184L468.937 448.875Z" fill="#CF9B8E"/>
<g style="mix-blend-mode:multiply">
<path d="M372.941 446.357C368.622 449.053 363.83 450.902 358.82 451.808C350.091 453.53 341.005 453.613 332.692 456.856C327.516 458.822 323.102 462.387 320.091 467.034C320.591 468.941 321.226 470.81 321.992 472.627L322.277 473.376C324.841 472.445 327.454 471.652 330.103 471C332.917 470.143 335.797 469.519 338.713 469.136L340.483 468.946C359.152 466.119 379.021 466.844 391.658 462.022L392.085 461.82C388.962 455.122 385.494 447.901 382.038 441.084C378.439 441.238 375.803 444.469 372.941 446.357Z" fill="#98D6FA"/>
</g>
<path d="M322.277 473.399C344.841 465.003 374.746 468.482 391.658 462.034L392.085 461.832C394.461 466.998 396.693 471.843 398.534 475.953C400.099 479.337 402.245 482.42 404.876 485.062C389.888 487.971 373.915 499.052 358.903 504.289C344.07 509.468 325.863 506.213 310.863 501.32V501.166C301.897 496.796 283.548 472.592 281.256 454.587C289.842 459.979 301.137 461.309 317.597 455.217C318.785 462.247 320.186 468.506 322.003 472.592L322.277 473.399Z" fill="#F0C6BF"/>
<path d="M318.025 457.853C317.87 457.01 317.728 456.155 317.585 455.276C301.125 461.369 289.83 460.027 281.244 454.647C281.891 458.897 283.089 463.045 284.807 466.986C296.065 468.245 307.265 463.126 318.025 457.853Z" fill="#CF9B8E"/>
<path d="M398.534 475.953C396.693 471.843 394.484 466.998 392.085 461.832L391.658 462.034C390.992 462.283 390.304 462.521 389.603 462.746C389.404 464.74 388.697 466.65 387.548 468.292C371.48 492.271 333.903 499.396 307.134 494.741C305.686 494.556 304.294 494.069 303.046 493.312C301.798 492.555 300.723 491.545 299.889 490.347L299.129 490.501C303.452 495.75 307.716 499.693 310.851 501.19V501.344C325.851 506.237 344.105 509.491 358.891 504.313C373.902 499.076 389.876 487.995 404.864 485.086C402.235 482.435 400.093 479.344 398.534 475.953Z" fill="#CF9B8E"/>
</svg>
