<svg width="511" height="351" viewBox="0 0 511 351" fill="none" xmlns="http://www.w3.org/2000/svg">
<path d="M510.792 308.066H0V308.301H510.792V308.066Z" fill="#EBEBEB"/>
<path d="M459.61 323.206H425.775V323.441H459.61V323.206Z" fill="#EBEBEB"/>
<path d="M338.369 325.765H329.491V326H338.369V325.765Z" fill="#EBEBEB"/>
<path d="M424.754 314.474H405.15V314.709H424.754V314.474Z" fill="#EBEBEB"/>
<path d="M97.7145 316.054H53.5923V316.29H97.7145V316.054Z" fill="#EBEBEB"/>
<path d="M113.283 316.054H106.817V316.29H113.283V316.054Z" fill="#EBEBEB"/>
<path d="M230.009 320.025H134.307V320.26H230.009V320.025Z" fill="#EBEBEB"/>
<path d="M242.115 266.1H44.8577C43.3124 266.097 41.8313 265.53 40.7396 264.523C39.6478 263.515 39.0347 262.15 39.0347 260.727V5.32575C39.0481 3.9106 39.6672 2.55747 40.7575 1.56029C41.8478 0.563117 43.3212 0.00242424 44.8577 0H242.115C243.662 0 245.146 0.566062 246.24 1.57366C247.334 2.58125 247.948 3.94785 247.948 5.3728V260.727C247.948 262.152 247.334 263.518 246.24 264.526C245.146 265.534 243.662 266.1 242.115 266.1ZM44.8577 0.18819C43.3801 0.190683 41.964 0.733058 40.9202 1.69627C39.8763 2.65948 39.2901 3.96482 39.2901 5.32575V260.727C39.2901 262.088 39.8763 263.393 40.9202 264.356C41.964 265.319 43.3801 265.862 44.8577 265.864H242.115C243.594 265.862 245.011 265.32 246.056 264.357C247.102 263.394 247.69 262.089 247.693 260.727V5.32575C247.69 3.96395 247.102 2.65864 246.056 1.69569C245.011 0.732753 243.594 0.190677 242.115 0.18819H44.8577Z" fill="#EBEBEB"/>
<path d="M463.094 266.1H265.826C264.28 266.097 262.798 265.53 261.704 264.523C260.611 263.516 259.996 262.151 259.993 260.727V5.32575C260.009 3.90974 260.63 2.55662 261.722 1.55971C262.814 0.562788 264.289 0.0023978 265.826 0H463.094C464.629 0.00489715 466.099 0.566684 467.188 1.5636C468.276 2.56051 468.893 3.91222 468.907 5.32575V260.727C468.907 262.148 468.295 263.512 467.205 264.519C466.116 265.526 464.637 266.095 463.094 266.1ZM265.826 0.18819C264.348 0.190677 262.93 0.732753 261.885 1.69569C260.84 2.65864 260.251 3.96395 260.248 5.32575V260.727C260.251 262.089 260.84 263.394 261.885 264.357C262.93 265.32 264.348 265.862 265.826 265.864H463.094C464.572 265.862 465.99 265.32 467.035 264.357C468.081 263.394 468.669 262.089 468.672 260.727V5.32575C468.669 3.96395 468.081 2.65864 467.035 1.69569C465.99 0.732753 464.572 0.190677 463.094 0.18819H265.826Z" fill="#EBEBEB"/>
<path d="M325.129 213.99H447.862C447.864 215.989 447.028 217.911 445.528 219.356C444.028 220.801 441.98 221.656 439.812 221.743C426.623 222.289 406.335 224.209 399.899 230.927C387.905 243.46 389.07 287.478 403.434 297.668C407.939 300.868 421.066 307.219 421.066 307.219H351.915C351.915 307.219 364.174 300.736 368.455 297.668C382.757 287.393 383.155 243.404 371.1 230.927C364.92 224.529 345.908 222.459 333.138 221.809C330.971 221.696 328.933 220.823 327.444 219.368C325.954 217.914 325.126 215.989 325.129 213.99Z" fill="#F5F5F5"/>
<path d="M432.661 222.148C420.187 223.089 405.252 225.338 399.899 230.927C398.151 232.858 396.769 235.046 395.812 237.401H375.228C374.266 235.048 372.885 232.86 371.141 230.927C365.768 225.366 350.71 223.079 338.451 222.148H432.661Z" fill="#E6E6E6"/>
<path d="M377.414 214.046L379.079 196.479H354.888L353.212 214.046H377.414Z" fill="#EBEBEB"/>
<path d="M377.414 214.046L379.079 196.479H380.376L378.711 214.046H377.414Z" fill="#E0E0E0"/>
<path d="M375.115 212.259L376.443 198.267H357.176L355.848 212.259H375.115Z" fill="#F0F0F0"/>
<path d="M373.634 211.111L374.747 199.424H358.657L357.544 211.111H373.634Z" fill="#FAFAFA"/>
<path d="M385.259 213.99H409.563L406.866 185.602H382.562L385.259 213.99Z" fill="#E6E6E6"/>
<path d="M385.26 213.99H384.095L381.398 185.602H382.563L385.26 213.99Z" fill="#E0E0E0"/>
<path d="M387.456 211.101H406.805L404.659 188.5H385.311L387.456 211.101Z" fill="#F0F0F0"/>
<path d="M388.876 209.238H405.037L403.239 190.363H387.078L388.876 209.238Z" fill="#FAFAFA"/>
<path d="M397.038 198.85C396.778 199.092 396.469 199.283 396.128 199.414C395.787 199.545 395.421 199.612 395.051 199.612C394.682 199.612 394.316 199.545 393.975 199.414C393.634 199.283 393.325 199.092 393.064 198.85C392.802 198.61 392.594 198.325 392.452 198.011C392.31 197.697 392.237 197.36 392.237 197.02C392.237 196.68 392.31 196.343 392.452 196.029C392.594 195.714 392.802 195.429 393.064 195.19C393.593 194.707 394.307 194.435 395.051 194.435C395.796 194.435 396.51 194.707 397.038 195.19C397.563 195.676 397.857 196.334 397.857 197.02C397.857 197.706 397.563 198.363 397.038 198.85Z" fill="#EBEBEB"/>
<path d="M395.853 202.031C396.043 201.853 396.27 201.712 396.52 201.615C396.77 201.519 397.038 201.469 397.309 201.469C397.58 201.469 397.848 201.519 398.098 201.615C398.348 201.712 398.575 201.853 398.765 202.031C399.061 202.293 399.264 202.632 399.348 203.003C399.431 203.373 399.392 203.759 399.234 204.108C399.076 204.458 398.808 204.756 398.463 204.962C398.119 205.169 397.715 205.275 397.304 205.267C396.894 205.273 396.491 205.166 396.149 204.958C395.806 204.751 395.539 204.453 395.382 204.104C395.226 203.755 395.187 203.37 395.271 203C395.355 202.631 395.558 202.293 395.853 202.031Z" fill="#F0F0F0"/>
<path d="M189.882 301.413H213.511L201.068 208.062C200.767 206.111 199.726 204.322 198.129 203.011C196.532 201.7 194.482 200.953 192.344 200.901H89.1025L104.202 301.413H189.882Z" fill="#F5F5F5"/>
<path d="M114.805 301.413H91.1354L78.6619 208.062C78.509 207.165 78.5719 206.247 78.8463 205.375C79.1207 204.503 79.5999 203.696 80.2499 203.013C80.8999 202.33 81.7048 201.787 82.6079 201.422C83.5109 201.057 84.49 200.879 85.4758 200.901H93.6485C95.7869 200.953 97.8363 201.7 99.4333 203.011C101.03 204.322 102.072 206.111 102.373 208.062L114.805 301.413Z" fill="#F0F0F0"/>
<path d="M123.53 301.3L119.239 256.135C119.144 255.154 118.686 254.233 117.943 253.526C117.199 252.819 116.214 252.368 115.153 252.249L113.386 252.032C111.966 251.867 110.651 251.258 109.66 250.308C108.67 249.358 108.062 248.123 107.941 246.81L107.154 238.577C107.079 237.78 107.185 236.977 107.464 236.219C107.744 235.462 108.191 234.766 108.778 234.176C109.365 233.586 110.078 233.114 110.873 232.792C111.668 232.469 112.527 232.302 113.396 232.301H73.8605C72.9918 232.302 72.1327 232.469 71.3377 232.792C70.5428 233.114 69.8293 233.586 69.2425 234.176C68.6557 234.766 68.2083 235.462 67.9288 236.219C67.6493 236.977 67.5436 237.78 67.6186 238.577L68.4052 246.81C68.5272 248.123 69.1343 249.358 70.1252 250.308C71.1161 251.258 72.431 251.867 73.8503 252.032L75.6176 252.249C76.6796 252.366 77.6654 252.816 78.4095 253.524C79.1536 254.232 79.6107 255.154 79.704 256.135L83.9946 301.3C84.1477 302.888 84.9404 304.365 86.2166 305.441C87.4927 306.517 89.16 307.115 90.8903 307.115H130.446C128.711 307.124 127.036 306.53 125.754 305.453C124.473 304.375 123.679 302.893 123.53 301.3Z" fill="#E6E6E6"/>
<path d="M232.39 244.844C232.716 241.426 234.42 238.244 237.165 235.925C239.91 233.605 243.498 232.316 247.223 232.31H212.796C209.069 232.314 205.478 233.602 202.731 235.921C199.984 238.241 198.279 241.424 197.952 244.844L194.55 280.6H228.988L232.39 244.844Z" fill="#E6E6E6"/>
<path d="M262.547 232.31H247.223C243.496 232.314 239.906 233.602 237.158 235.921C234.411 238.241 232.706 241.424 232.38 244.844L228.978 280.6H146.965L143.563 244.844C143.236 241.424 141.532 238.241 138.784 235.921C136.037 233.602 132.446 232.314 128.72 232.31H113.396C112.527 232.311 111.668 232.478 110.873 232.801C110.078 233.124 109.365 233.595 108.778 234.185C108.191 234.775 107.744 235.471 107.464 236.229C107.185 236.986 107.079 237.789 107.154 238.586L107.941 246.82C108.062 248.133 108.67 249.367 109.66 250.318C110.651 251.268 111.966 251.877 113.386 252.042L115.153 252.258C116.214 252.377 117.199 252.828 117.943 253.535C118.686 254.243 119.144 255.164 119.239 256.144L123.53 301.31C123.678 302.897 124.468 304.376 125.743 305.452C127.018 306.529 128.686 307.126 130.415 307.125H245.538C247.268 307.124 248.935 306.527 250.211 305.451C251.487 304.374 252.28 302.897 252.433 301.31L256.714 256.144C256.809 255.164 257.266 254.243 258.01 253.535C258.754 252.828 259.739 252.377 260.8 252.258L262.567 252.051C263.987 251.882 265.301 251.271 266.291 250.32C267.282 249.368 267.889 248.133 268.012 246.82L268.799 238.586C268.874 237.788 268.768 236.985 268.488 236.227C268.208 235.468 267.76 234.772 267.172 234.182C266.584 233.592 265.869 233.12 265.073 232.798C264.277 232.476 263.417 232.31 262.547 232.31Z" fill="#F0F0F0"/>
<path d="M401.135 71.7848C401.135 71.7848 402.34 64.5207 396.579 59.8536C390.817 55.1865 391.328 52.4201 392.972 52.0626C394.617 51.705 396.139 56.3627 398.663 57.6424C398.663 57.6424 398.744 50.9993 396.18 48.5528C393.616 46.1064 392.257 39.802 394.699 39.6891C397.14 39.5762 397.406 43.4529 397.907 46.1628C398.407 48.8728 401.135 52.7495 401.135 52.7495C401.135 52.7495 401.666 46.8027 403.331 44.3562C404.996 41.9098 400.563 36.3111 402.31 33.8647C404.057 31.4182 407.06 36.0853 406.805 41.3264C406.549 46.5674 402.718 52.1661 403.638 57.6424C403.638 57.6424 405.313 53.7939 406.825 53.4458C408.337 53.0976 409.839 50.5476 410.85 49.6067C411.862 48.6658 413.128 51.9308 410.85 54.9607C408.572 57.9905 402.759 66.0921 403.638 72.6505L401.135 71.7848Z" fill="#E6E6E6"/>
<path d="M397.702 68.4821L395.812 79.3782C395.675 80.169 395.725 80.9779 395.96 81.749C396.196 82.5201 396.61 83.235 397.174 83.8443C397.738 84.4536 398.44 84.9428 399.229 85.278C400.019 85.6133 400.878 85.7866 401.748 85.7861H403.791C404.661 85.7864 405.52 85.613 406.311 85.2778C407.101 84.9426 407.802 84.4536 408.368 83.8446C408.933 83.2355 409.348 82.5208 409.584 81.7497C409.82 80.9787 409.872 80.1696 409.737 79.3782L407.847 68.4821H397.702Z" fill="#E6E6E6"/>
<path d="M426.215 81.7681H292.959V88.0724H426.215V81.7681Z" fill="#E0E0E0"/>
<path d="M304.963 58.5175H299.089V81.7588H304.963V58.5175Z" fill="#EBEBEB"/>
<path d="M333.353 58.5175H327.479V81.7588H333.353V58.5175Z" fill="#EBEBEB"/>
<path d="M365.576 57.926L359.787 58.8451L364.073 81.7487L369.862 80.8297L365.576 57.926Z" fill="#EBEBEB"/>
<path d="M312.237 61.5848H306.363V81.7681H312.237V61.5848Z" fill="#EBEBEB"/>
<path d="M325.732 61.5848H319.858V81.7681H325.732V61.5848Z" fill="#EBEBEB"/>
<path d="M359.791 61.5848H353.917V81.7681H359.791V61.5848Z" fill="#EBEBEB"/>
<path d="M341.069 60.8701L335.334 62.0439L340.089 81.7465L345.823 80.5727L341.069 60.8701Z" fill="#EBEBEB"/>
<path d="M317.304 57.3695H314.372V81.7682H317.304V57.3695Z" fill="#EBEBEB"/>
<path d="M352.221 57.3695H349.29V81.7682H352.221V57.3695Z" fill="#EBEBEB"/>
<path d="M292.949 135.148L426.205 135.148V128.844L292.949 128.844V135.148Z" fill="#E0E0E0"/>
<path d="M414.201 128.844H420.075V105.602H414.201V128.844Z" fill="#EBEBEB"/>
<path d="M385.811 128.844H391.685V105.602H385.811V128.844Z" fill="#EBEBEB"/>
<path d="M349.317 127.911L355.105 128.83L359.392 105.926L353.603 105.007L349.317 127.911Z" fill="#EBEBEB"/>
<path d="M406.938 128.844H412.812V108.66H406.938V128.844Z" fill="#EBEBEB"/>
<path d="M393.432 128.844H399.306V108.66H393.432V128.844Z" fill="#EBEBEB"/>
<path d="M359.372 128.844H365.247V108.66H359.372V128.844Z" fill="#EBEBEB"/>
<path d="M373.359 127.653L379.093 128.827L383.847 109.125L378.113 107.951L373.359 127.653Z" fill="#EBEBEB"/>
<path d="M401.85 128.844H404.782V104.445H401.85V128.844Z" fill="#EBEBEB"/>
<path d="M366.932 128.844H369.864V104.445H366.932V128.844Z" fill="#EBEBEB"/>
<path d="M305.75 128.627H334.354V110.439H305.75V128.627Z" fill="#EBEBEB"/>
<path d="M237.283 44.1304H74.5245C73.3284 44.1304 72.3588 45.0235 72.3588 46.1252V48.2611C72.3588 49.3628 73.3284 50.2559 74.5245 50.2559H237.283C238.479 50.2559 239.449 49.3628 239.449 48.2611V46.1252C239.449 45.0235 238.479 44.1304 237.283 44.1304Z" fill="#E0E0E0"/>
<path d="M229.529 49.0044H82.2886V169.351H229.529V49.0044Z" fill="#E6E6E6"/>
<path d="M225.658 52.2979H85.9766V166.105H225.658V52.2979Z" fill="#F0F0F0"/>
<path d="M118.759 52.2979L85.9766 165.861V112.5L103.282 52.2979H118.759Z" fill="white"/>
<path d="M130.364 52.2979L97.2955 166.115H92.0242L125.093 52.2979H130.364Z" fill="white"/>
<path d="M225.658 124.12V142.299L218.966 166.115H213.685L225.658 124.12Z" fill="white"/>
<path d="M134.686 50.256H132.336V168.655H134.686V50.256Z" fill="#E6E6E6"/>
<path d="M180.289 50.256H177.939V168.655H180.289V50.256Z" fill="#E6E6E6"/>
<path d="M205.532 46.1063C205.532 46.1063 208.924 86.8211 228.405 107.569C228.405 107.569 214.216 159.97 214.226 178.243L240.593 173.755L231.092 107.889L235.638 46.1063H205.532Z" fill="#E0E0E0"/>
<path d="M106.245 46.1063C106.245 46.1063 102.853 86.8211 83.3713 107.569C83.3713 107.569 97.5611 159.97 97.5509 178.243L71.1838 173.755L80.6846 107.889L76.1794 46.1063H106.245Z" fill="#E0E0E0"/>
<path d="M255.396 350.559C364.79 350.559 453.471 345.79 453.471 339.907C453.471 334.025 364.79 329.256 255.396 329.256C146.002 329.256 57.321 334.025 57.321 339.907C57.321 345.79 146.002 350.559 255.396 350.559Z" fill="#F5F5F5"/>
<path d="M393.381 312.893C393.381 312.592 392.278 282.848 387.047 278.172C382.011 273.655 376.198 278.002 375.953 278.172L375.299 277.447C375.37 277.4 382.062 272.366 387.762 277.447C393.289 282.397 394.362 311.575 394.403 312.808L393.381 312.893Z" fill="#06A5FF"/>
<path d="M393.841 318.745C393.687 317.287 390.234 282.989 404.302 268.104L405.068 268.715C391.297 283.272 394.852 318.303 394.852 318.651L393.841 318.745Z" fill="#06A5FF"/>
<path d="M393.514 315.001L392.492 314.935C392.492 314.539 395.24 274.747 384.984 266.062L385.678 265.366C396.293 274.361 393.636 313.335 393.514 315.001Z" fill="#06A5FF"/>
<path d="M394.852 314.972H393.83C393.83 313.871 394.178 288.014 402.187 283.789C402.955 283.332 403.831 283.051 404.741 282.971C405.651 282.89 406.569 283.013 407.417 283.328C412.27 285.21 414.671 293.105 414.773 293.443L413.751 293.688C413.751 293.613 411.391 285.869 406.999 284.194C406.292 283.935 405.529 283.838 404.773 283.91C404.016 283.982 403.291 284.221 402.657 284.608C395.189 288.56 394.862 314.709 394.852 314.972Z" fill="#06A5FF"/>
<path d="M391.757 314.991L390.735 314.944C390.735 314.737 391.93 294.582 386.046 287.497C384.626 285.803 383.104 285.003 381.5 285.097C377.669 285.342 374.451 290.517 374.42 290.574L373.521 290.113C373.664 289.877 377.056 284.467 381.418 284.156C383.38 284.034 385.218 284.956 386.853 286.923C392.972 294.29 391.808 314.154 391.757 314.991Z" fill="#06A5FF"/>
<path d="M392.86 317.739C392.696 315.781 388.988 269.656 395.526 261.498L396.354 262.063C390.03 269.929 393.83 317.193 393.871 317.673L392.86 317.739Z" fill="#06A5FF"/>
<path d="M409.154 288.071C409.154 288.071 405.242 289.397 406.406 292.531C407.571 295.664 419.942 300.83 419.942 300.83C419.942 300.83 425.122 296.454 420.361 289.35C415.6 282.246 409.256 285.831 409.154 288.071Z" fill="#06A5FF"/>
<path opacity="0.2" d="M409.154 288.071C409.154 288.071 405.242 289.397 406.406 292.531C407.571 295.664 419.942 300.83 419.942 300.83C419.942 300.83 425.122 296.454 420.361 289.35C415.6 282.246 409.256 285.831 409.154 288.071Z" fill="white"/>
<path d="M392.145 282.105C392.145 282.105 396.313 281.945 396.548 285.248C396.783 288.551 387.527 297.706 387.527 297.706C387.527 297.706 380.918 295.504 382.338 287.252C383.758 279 391.113 280.063 392.145 282.105Z" fill="#06A5FF"/>
<path opacity="0.2" d="M392.145 282.105C392.145 282.105 396.313 281.945 396.548 285.248C396.783 288.551 387.527 297.706 387.527 297.706C387.527 297.706 380.918 295.504 382.338 287.252C383.758 279 391.113 280.063 392.145 282.105Z" fill="white"/>
<path d="M388.62 266.288C388.62 266.288 391.399 266.015 391.174 264.462C390.95 262.91 380.376 258.892 374.145 265.403C374.145 265.403 378.139 271.726 383.911 271.802C389.683 271.877 388.62 266.288 388.62 266.288Z" fill="#06A5FF"/>
<path opacity="0.2" d="M388.62 266.288C388.62 266.288 391.399 266.015 391.174 264.462C390.95 262.91 380.376 258.892 374.145 265.403C374.145 265.403 378.139 271.726 383.911 271.802C389.683 271.877 388.62 266.288 388.62 266.288Z" fill="white"/>
<path d="M393.8 262.524C393.8 262.524 391.287 263.644 390.582 262.213C389.877 260.783 396.538 252.23 405.558 254.686C405.558 254.686 405.803 261.997 400.941 264.876C396.078 267.756 393.8 262.524 393.8 262.524Z" fill="#06A5FF"/>
<path opacity="0.2" d="M393.8 262.524C393.8 262.524 391.287 263.644 390.582 262.213C389.877 260.783 396.538 252.23 405.558 254.686C405.558 254.686 405.803 261.997 400.941 264.876C396.078 267.756 393.8 262.524 393.8 262.524Z" fill="white"/>
<path d="M380.652 286.81C380.652 286.81 382.562 285.389 380.499 284.693C378.435 283.996 368.24 284.194 368.168 293.453C368.168 293.453 379.988 295.26 381.449 291.731C382.91 288.202 380.652 286.81 380.652 286.81Z" fill="#06A5FF"/>
<path opacity="0.2" d="M380.652 286.81C380.652 286.81 382.562 285.389 380.499 284.693C378.435 283.996 368.24 284.194 368.168 293.453C368.168 293.453 379.988 295.26 381.449 291.731C382.91 288.202 380.652 286.81 380.652 286.81Z" fill="white"/>
<path d="M404.751 266.043C404.751 266.043 402.841 264.613 404.905 263.917C406.968 263.22 417.163 263.418 417.225 272.686C417.225 272.686 405.405 274.493 403.944 270.964C402.483 267.436 404.751 266.043 404.751 266.043Z" fill="#06A5FF"/>
<path opacity="0.2" d="M404.751 266.043C404.751 266.043 402.841 264.613 404.905 263.917C406.968 263.22 417.163 263.418 417.225 272.686C417.225 272.686 405.405 274.493 403.944 270.964C402.483 267.436 404.751 266.043 404.751 266.043Z" fill="white"/>
<path d="M398.499 273.505C398.499 273.505 398.336 271.764 399.858 272.451C401.38 273.138 406.662 278.388 401.176 283.375C401.176 283.375 393.8 278.341 395.128 275.716C396.456 273.091 398.499 273.505 398.499 273.505Z" fill="#06A5FF"/>
<path opacity="0.2" d="M398.499 273.505C398.499 273.505 398.336 271.764 399.858 272.451C401.38 273.138 406.662 278.388 401.176 283.375C401.176 283.375 393.8 278.341 395.128 275.716C396.456 273.091 398.499 273.505 398.499 273.505Z" fill="white"/>
<path d="M378.936 275.97C378.936 275.97 380.08 274.587 378.405 274.418C376.729 274.248 369.21 276.092 370.957 283.008C370.957 283.008 380.151 282.378 380.509 279.499C380.867 276.619 378.936 275.97 378.936 275.97Z" fill="#06A5FF"/>
<path opacity="0.2" d="M378.936 275.97C378.936 275.97 380.08 274.587 378.405 274.418C376.729 274.248 369.21 276.092 370.957 283.008C370.957 283.008 380.151 282.378 380.509 279.499C380.867 276.619 378.936 275.97 378.936 275.97Z" fill="white"/>
<path d="M409.89 340.641H378.445L375.064 308.941H413.281L409.89 340.641Z" fill="#263238"/>
<path d="M414.947 305.44H373.378V312.432H414.947V305.44Z" fill="#263238"/>
<path opacity="0.2" d="M414.947 305.44H373.378V312.432H414.947V305.44Z" fill="white"/>
<path d="M337.531 340.622H242.698C241.337 340.643 239.986 340.397 238.737 339.9C237.487 339.403 236.366 338.667 235.449 337.741C234.532 336.814 233.84 335.718 233.418 334.526C232.996 333.335 232.855 332.073 233.003 330.827L257.521 72.8951C257.817 70.2442 259.157 67.7851 261.288 65.9822C263.419 64.1792 266.192 63.1573 269.085 63.1092H363.888C365.249 63.0857 366.6 63.3297 367.851 63.8249C369.102 64.3201 370.224 65.0552 371.143 65.9811C372.061 66.907 372.754 68.0026 373.177 69.1948C373.599 70.387 373.741 71.6484 373.593 72.8951L349.075 330.827C348.783 333.477 347.448 335.937 345.321 337.742C343.194 339.547 340.423 340.572 337.531 340.622Z" fill="#06A5FF"/>
<path opacity="0.4" d="M337.531 340.622H242.698C241.337 340.643 239.986 340.397 238.737 339.9C237.487 339.403 236.366 338.667 235.449 337.741C234.532 336.814 233.84 335.718 233.418 334.526C232.996 333.335 232.855 332.073 233.003 330.827L257.521 72.8951C257.817 70.2442 259.157 67.7851 261.288 65.9822C263.419 64.1792 266.192 63.1573 269.085 63.1092H363.888C365.249 63.0857 366.6 63.3297 367.851 63.8249C369.102 64.3201 370.224 65.0552 371.143 65.9811C372.061 66.907 372.754 68.0026 373.177 69.1948C373.599 70.387 373.741 71.6484 373.593 72.8951L349.075 330.827C348.783 333.477 347.448 335.937 345.321 337.742C343.194 339.547 340.423 340.572 337.531 340.622Z" fill="white"/>
<path d="M327.315 340.622H232.482C231.121 340.643 229.771 340.397 228.521 339.9C227.271 339.403 226.151 338.667 225.234 337.741C224.317 336.814 223.624 335.718 223.202 334.526C222.78 333.335 222.639 332.073 222.787 330.827L247.305 72.8951C247.601 70.2442 248.942 67.7851 251.072 65.9822C253.203 64.1792 255.976 63.1573 258.869 63.1092H353.672C355.033 63.0857 356.385 63.3297 357.636 63.8249C358.886 64.3201 360.008 65.0552 360.927 65.9811C361.845 66.907 362.539 68.0026 362.961 69.1948C363.384 70.387 363.525 71.6484 363.377 72.8951L338.859 330.827C338.568 333.477 337.232 335.937 335.105 337.742C332.978 339.547 330.207 340.572 327.315 340.622Z" fill="#263238"/>
<path d="M327.315 340.622H232.482C231.121 340.643 229.771 340.397 228.521 339.9C227.271 339.403 226.151 338.667 225.234 337.741C224.317 336.814 223.624 335.718 223.202 334.526C222.78 333.335 222.639 332.073 222.787 330.827L247.305 72.8951C247.601 70.2442 248.942 67.7851 251.072 65.9822C253.203 64.1792 255.976 63.1573 258.869 63.1092H353.672C355.033 63.0857 356.385 63.3297 357.636 63.8249C358.886 64.3201 360.008 65.0552 360.927 65.9811C361.845 66.907 362.539 68.0026 362.961 69.1948C363.384 70.387 363.525 71.6484 363.377 72.8951L338.859 330.827C338.568 333.477 337.232 335.937 335.105 337.742C332.978 339.547 330.207 340.572 327.315 340.622Z" fill="#06A5FF"/>
<path d="M359.505 72.4528L334.987 330.874C334.783 333.001 333.343 334.638 331.739 334.638H228.927C227.456 334.638 226.495 333.123 226.679 331.175L251.309 72.1141C251.473 70.4204 252.546 68.9431 253.823 68.9431H279.515C280.241 68.9431 280.843 69.5735 281.027 70.4768L281.763 73.9584C281.947 74.8993 282.55 75.4827 283.275 75.4827H327.019C327.445 75.4244 327.844 75.2513 328.164 74.985C328.484 74.7188 328.711 74.3715 328.817 73.9866L330.217 70.4863C330.32 70.0955 330.545 69.7412 330.865 69.4669C331.184 69.1927 331.584 69.0106 332.015 68.9431H357.34C358.719 68.9431 359.679 70.5709 359.505 72.4528Z" fill="#263238"/>
<path d="M358.3 85.0898L337.235 306.824H228.988L250.053 85.0898H358.3Z" fill="#06A5FF"/>
<path opacity="0.6" d="M262.526 79.3593H263.865L264.09 76.9882H262.751L262.526 79.3593Z" fill="white"/>
<path opacity="0.6" d="M260.34 79.3593H261.679L261.985 76.1978H260.647L260.34 79.3593Z" fill="white"/>
<path opacity="0.6" d="M258.164 79.3594H259.503L259.881 75.4075H258.542L258.164 79.3594Z" fill="white"/>
<path opacity="0.6" d="M255.988 79.3594H257.327L257.776 74.6171H256.438L255.988 79.3594Z" fill="white"/>
<path opacity="0.6" d="M346.674 78.4937H345.877L346.112 76.1226H346.899L346.674 78.4937Z" fill="white"/>
<path opacity="0.6" d="M347.134 79.3594H353.458L353.846 75.2568H347.532L347.134 79.3594Z" fill="white"/>
<path opacity="0.6" d="M305.658 69.2819C305.556 70.3734 304.81 71.2579 303.982 71.2579C303.155 71.2579 302.583 70.3734 302.685 69.2819C302.787 68.1904 303.543 67.3059 304.36 67.3059C305.178 67.3059 305.76 68.1904 305.658 69.2819Z" fill="#263238"/>
<path opacity="0.6" d="M308.661 69.2819C308.6 69.9782 308.12 70.5427 307.589 70.5427C307.057 70.5427 306.7 69.9782 306.761 69.2819C306.822 68.5856 307.313 68.0116 307.834 68.0116C308.355 68.0116 308.733 68.5856 308.661 69.2819Z" fill="#263238"/>
<path opacity="0.7" d="M358.3 85.0898L355.378 115.849L354.878 121.156L352.538 145.8L352.17 149.629L348.85 184.567L348.493 188.396L345.305 221.941L344.846 226.768L337.245 306.824H228.988L250.053 85.0898H358.3Z" fill="white"/>
<path d="M254.987 139.768L252.117 144.623L257.858 147.983L254.987 139.768Z" fill="#06A5FF"/>
<path d="M263.364 236.846L267.062 233.054L262.128 227.972L263.364 236.846Z" fill="#06A5FF"/>
<path d="M305.821 94.2264L305.545 88.1196L299.528 90.472L305.821 94.2264Z" fill="#06A5FF"/>
<path d="M244.618 234.503L241.758 239.348L247.489 242.708L244.618 234.503Z" fill="#06A5FF"/>
<path d="M248.112 213.698L245.946 218.968L241.492 215.486L245.068 209.822L248.112 213.698Z" fill="#06A5FF"/>
<path d="M292.673 288.485L297.26 288.861L296.688 295.579L291.243 293.716L292.673 288.485Z" fill="#06A5FF"/>
<path d="M255.396 174.452L258.267 175.195C258.267 175.195 253.966 178.959 255.968 181.913C257.97 184.868 254.538 187.512 254.538 187.512L251.953 185.272C252.622 184.57 253.08 183.718 253.28 182.802C253.481 181.886 253.418 180.937 253.097 180.05C251.953 177.067 255.396 174.452 255.396 174.452Z" fill="#06A5FF"/>
<path d="M294.533 153.224L297.403 153.967C297.403 153.967 293.102 157.731 295.105 160.685C297.107 163.64 293.674 166.284 293.674 166.284L291.151 164.045C291.817 163.34 292.273 162.489 292.474 161.573C292.675 160.657 292.613 159.709 292.295 158.822C291.151 155.83 294.533 153.224 294.533 153.224Z" fill="#06A5FF"/>
<path d="M255.682 117.825L253.046 122.897L258.93 125.795L255.682 117.825Z" fill="#06A5FF"/>
<path d="M307.18 120.403L304.544 125.475L310.429 128.373L307.18 120.403Z" fill="#06A5FF"/>
<path d="M282.366 112.349L283.959 106.59L277.717 105.659L282.366 112.349Z" fill="#06A5FF"/>
<path d="M281.181 135.261L282.018 129.38L287.075 130.942L284.991 137.755L281.181 135.261Z" fill="#06A5FF"/>
<path d="M341.25 126.783L342.087 120.902L347.134 122.464L345.05 129.277L341.25 126.783Z" fill="#06A5FF"/>
<path d="M337.051 161.448L337.889 155.567L342.946 157.129L340.862 163.941L337.051 161.448Z" fill="#06A5FF"/>
<path d="M322.82 154.165L319.919 154.588C319.919 154.588 323.147 149.328 320.542 147.277C317.937 145.226 320.593 141.377 320.593 141.377L323.576 142.497C323.576 142.497 321.911 145.536 323.709 147.926C325.507 150.316 322.82 154.165 322.82 154.165Z" fill="#06A5FF"/>
<path d="M298.701 223.908L295.83 228.763L301.561 232.122L298.701 223.908Z" fill="#06A5FF"/>
<path d="M280.813 242.708L277.942 247.563L283.673 250.922L280.813 242.708Z" fill="#06A5FF"/>
<path d="M313.268 200.845L317.855 201.212L317.283 207.94L311.838 206.067L313.268 200.845Z" fill="#06A5FF"/>
<path d="M330.411 257.527L334.987 257.894L334.415 264.613L328.97 262.75L330.411 257.527Z" fill="#06A5FF"/>
<path d="M307.772 263.55L310.643 264.302C310.643 264.302 306.342 268.066 308.344 271.021C310.347 273.975 306.914 276.666 306.914 276.666L304.34 274.427C305.018 273.71 305.478 272.84 305.674 271.907C305.869 270.973 305.793 270.008 305.453 269.111C304.34 266.165 307.772 263.55 307.772 263.55Z" fill="#06A5FF"/>
<path d="M333.087 236.573L331.279 237.118C331.279 237.118 332.055 232.141 329.808 230.419C327.56 228.697 328.337 225.037 328.337 225.037L330.584 225.883C330.439 227.64 330.959 229.389 332.055 230.833C333.853 232.912 333.087 236.573 333.087 236.573Z" fill="#06A5FF"/>
<path d="M334.344 102.695L332.536 103.25C332.536 103.25 333.312 98.2724 331.065 96.5504C328.817 94.8285 329.583 91.1682 329.583 91.1682L331.831 92.0151C331.692 93.7727 332.215 95.5207 333.312 96.9644C335.079 99.0345 334.344 102.695 334.344 102.695Z" fill="#06A5FF"/>
<path d="M263.201 291.496L260.504 292.926C260.504 292.926 262.547 286.725 259.574 285.671C256.601 284.617 258.409 279.969 258.409 279.969H261.474C261.474 279.969 260.504 283.488 262.721 285.163C264.937 286.838 263.201 291.496 263.201 291.496Z" fill="#06A5FF"/>
<path d="M262.026 94.2263C262.026 95.7694 261.066 97.0491 259.881 97.0491C258.695 97.0491 257.725 95.7977 257.725 94.2263C257.725 92.6549 258.685 91.4034 259.881 91.4034C261.076 91.4034 262.026 92.6831 262.026 94.2263Z" fill="#06A5FF"/>
<path d="M285.829 201.88C285.829 203.433 284.807 204.703 283.673 204.703C282.539 204.703 281.528 203.451 281.528 201.88C281.528 200.309 282.488 199.057 283.673 199.057C284.858 199.057 285.829 200.337 285.829 201.88Z" fill="#06A5FF"/>
<path d="M342.149 193.873C343.333 193.873 344.294 192.617 344.294 191.069C344.294 189.52 343.333 188.265 342.149 188.265C340.964 188.265 340.003 189.52 340.003 191.069C340.003 192.617 340.964 193.873 342.149 193.873Z" fill="#06A5FF"/>
<path d="M352.64 96.2683C352.64 97.8208 351.68 99.0911 350.485 99.0911C349.289 99.0911 348.339 97.8397 348.339 96.2683C348.339 94.6969 349.3 93.4454 350.485 93.4454C351.67 93.4454 352.64 94.7251 352.64 96.2683Z" fill="#06A5FF"/>
<path d="M239.612 270.39L241.89 265.036L235.832 262.825L239.612 270.39Z" fill="#06A5FF"/>
<path d="M325.344 296.492L324.138 302.411L330.421 302.627L325.344 296.492Z" fill="#06A5FF"/>
<path d="M237.099 300.886C236.987 299.343 237.865 297.979 239.051 297.847C240.236 297.715 241.278 298.844 241.38 300.388C241.482 301.931 240.614 303.286 239.428 303.427C238.243 303.568 237.201 302.42 237.099 300.886Z" fill="#06A5FF"/>
<g opacity="0.5">
<path opacity="0.5" d="M254.987 139.768L252.117 144.623L257.858 147.983L254.987 139.768Z" fill="white"/>
<path opacity="0.5" d="M263.364 236.846L267.062 233.054L262.128 227.972L263.364 236.846Z" fill="white"/>
<path opacity="0.5" d="M305.821 94.2264L305.545 88.1196L299.528 90.472L305.821 94.2264Z" fill="white"/>
<path opacity="0.5" d="M244.618 234.503L241.758 239.348L247.489 242.708L244.618 234.503Z" fill="white"/>
<path opacity="0.5" d="M248.112 213.698L245.946 218.968L241.492 215.486L245.068 209.822L248.112 213.698Z" fill="white"/>
<path opacity="0.5" d="M292.673 288.485L297.26 288.861L296.688 295.579L291.243 293.716L292.673 288.485Z" fill="white"/>
<path opacity="0.5" d="M255.396 174.451L258.266 175.195C258.266 175.195 253.966 178.958 255.968 181.913C257.97 184.868 254.538 187.512 254.538 187.512L251.953 185.272C252.622 184.569 253.08 183.718 253.28 182.801C253.481 181.885 253.418 180.937 253.097 180.05C251.953 177.067 255.396 174.451 255.396 174.451Z" fill="white"/>
<path opacity="0.5" d="M294.533 153.224L297.403 153.967C297.403 153.967 293.102 157.731 295.105 160.685C297.107 163.64 293.675 166.284 293.675 166.284L291.151 164.045C291.818 163.34 292.273 162.489 292.474 161.573C292.675 160.657 292.613 159.709 292.295 158.822C291.151 155.83 294.533 153.224 294.533 153.224Z" fill="white"/>
<path opacity="0.5" d="M255.682 117.825L253.046 122.897L258.93 125.795L255.682 117.825Z" fill="white"/>
<path opacity="0.5" d="M307.18 120.403L304.544 125.475L310.428 128.373L307.18 120.403Z" fill="white"/>
<path opacity="0.5" d="M282.366 112.349L283.959 106.59L277.717 105.659L282.366 112.349Z" fill="white"/>
<path opacity="0.5" d="M281.181 135.261L282.018 129.38L287.075 130.942L284.991 137.755L281.181 135.261Z" fill="white"/>
<path opacity="0.5" d="M341.25 126.783L342.087 120.902L347.134 122.464L345.05 129.277L341.25 126.783Z" fill="white"/>
<path opacity="0.5" d="M337.051 161.448L337.889 155.567L342.946 157.129L340.862 163.941L337.051 161.448Z" fill="white"/>
<path opacity="0.5" d="M322.82 154.165L319.919 154.588C319.919 154.588 323.147 149.328 320.542 147.277C317.937 145.226 320.593 141.377 320.593 141.377L323.576 142.497C323.576 142.497 321.911 145.536 323.709 147.926C325.507 150.316 322.82 154.165 322.82 154.165Z" fill="white"/>
<path opacity="0.5" d="M298.701 223.907L295.83 228.763L301.561 232.122L298.701 223.907Z" fill="white"/>
<path opacity="0.5" d="M280.813 242.708L277.942 247.563L283.673 250.922L280.813 242.708Z" fill="white"/>
<path opacity="0.5" d="M313.268 200.845L317.855 201.212L317.283 207.94L311.838 206.067L313.268 200.845Z" fill="white"/>
<path opacity="0.5" d="M330.411 257.527L334.987 257.894L334.415 264.613L328.97 262.75L330.411 257.527Z" fill="white"/>
<path opacity="0.5" d="M307.772 263.55L310.643 264.302C310.643 264.302 306.342 268.066 308.344 271.021C310.347 273.975 306.914 276.666 306.914 276.666L304.34 274.427C305.018 273.71 305.478 272.84 305.674 271.907C305.869 270.973 305.793 270.008 305.453 269.111C304.34 266.165 307.772 263.55 307.772 263.55Z" fill="white"/>
<path opacity="0.5" d="M333.087 236.573L331.279 237.118C331.279 237.118 332.055 232.141 329.808 230.419C327.56 228.697 328.337 225.037 328.337 225.037L330.584 225.883C330.439 227.64 330.959 229.389 332.055 230.833C333.853 232.912 333.087 236.573 333.087 236.573Z" fill="white"/>
<path opacity="0.5" d="M334.344 102.695L332.536 103.25C332.536 103.25 333.312 98.2724 331.065 96.5504C328.817 94.8285 329.583 91.1682 329.583 91.1682L331.831 92.0151C331.692 93.7727 332.215 95.5207 333.312 96.9644C335.079 99.0345 334.344 102.695 334.344 102.695Z" fill="white"/>
<path opacity="0.5" d="M263.201 291.496L260.504 292.926C260.504 292.926 262.547 286.725 259.574 285.671C256.601 284.617 258.409 279.969 258.409 279.969H261.474C261.474 279.969 260.504 283.488 262.721 285.163C264.937 286.838 263.201 291.496 263.201 291.496Z" fill="white"/>
<path opacity="0.5" d="M262.026 94.2263C262.026 95.7694 261.066 97.0491 259.881 97.0491C258.695 97.0491 257.725 95.7977 257.725 94.2263C257.725 92.6549 258.685 91.4034 259.881 91.4034C261.076 91.4034 262.026 92.6831 262.026 94.2263Z" fill="white"/>
<path opacity="0.5" d="M285.829 201.88C285.829 203.433 284.807 204.703 283.673 204.703C282.539 204.703 281.528 203.451 281.528 201.88C281.528 200.309 282.488 199.057 283.673 199.057C284.858 199.057 285.829 200.337 285.829 201.88Z" fill="white"/>
<path opacity="0.5" d="M342.149 193.873C343.333 193.873 344.294 192.617 344.294 191.069C344.294 189.52 343.333 188.265 342.149 188.265C340.964 188.265 340.003 189.52 340.003 191.069C340.003 192.617 340.964 193.873 342.149 193.873Z" fill="white"/>
<path opacity="0.5" d="M352.64 96.2682C352.64 97.8207 351.68 99.091 350.485 99.091C349.29 99.091 348.339 97.8395 348.339 96.2682C348.339 94.6968 349.3 93.4453 350.485 93.4453C351.67 93.4453 352.64 94.725 352.64 96.2682Z" fill="white"/>
<path opacity="0.5" d="M239.612 270.39L241.89 265.036L235.832 262.825L239.612 270.39Z" fill="white"/>
<path opacity="0.5" d="M325.344 296.492L324.138 302.411L330.421 302.627L325.344 296.492Z" fill="white"/>
<path opacity="0.5" d="M237.099 300.886C236.987 299.343 237.865 297.979 239.051 297.847C240.236 297.715 241.278 298.844 241.38 300.388C241.482 301.931 240.614 303.286 239.428 303.427C238.243 303.568 237.201 302.42 237.099 300.886Z" fill="white"/>
</g>
<path d="M306.036 269.863H264.151C262.744 269.905 261.344 269.669 260.044 269.171C258.744 268.673 257.576 267.925 256.616 266.977C255.656 266.029 254.927 264.902 254.479 263.673C254.031 262.444 253.873 261.141 254.017 259.852C254.359 257.108 255.781 254.575 258.013 252.732C260.246 250.889 263.135 249.864 266.133 249.849H308.018C309.423 249.808 310.823 250.044 312.121 250.541C313.42 251.038 314.589 251.786 315.548 252.733C316.508 253.68 317.237 254.805 317.686 256.033C318.135 257.261 318.294 258.563 318.152 259.852C317.812 262.597 316.391 265.132 314.158 266.977C311.925 268.822 309.035 269.849 306.036 269.863Z" fill="#06A5FF"/>
<path d="M261.117 114.118C261.139 113.353 261.475 112.624 262.056 112.078C262.638 111.532 263.423 111.208 264.253 111.173C264.633 111.159 265.012 111.234 265.353 111.39C265.694 111.546 265.986 111.779 266.204 112.067L265.652 112.584C265.493 112.37 265.277 112.196 265.026 112.077C264.774 111.959 264.494 111.9 264.212 111.907C263.593 111.937 263.009 112.182 262.577 112.592C262.145 113.002 261.897 113.547 261.883 114.118C261.821 114.381 261.823 114.653 261.889 114.915C261.954 115.177 262.082 115.422 262.263 115.634C262.443 115.845 262.672 116.017 262.933 116.137C263.194 116.257 263.481 116.323 263.773 116.329C264.075 116.327 264.372 116.264 264.644 116.144C264.916 116.023 265.156 115.849 265.346 115.633L265.795 116.16C265.537 116.452 265.211 116.688 264.842 116.85C264.473 117.013 264.069 117.098 263.66 117.101C262.036 117.063 260.943 115.821 261.117 114.118Z" fill="#06A5FF"/>
<path d="M266.551 114.118C266.576 113.352 266.914 112.623 267.498 112.077C268.081 111.531 268.867 111.208 269.698 111.173C270.089 111.179 270.473 111.265 270.824 111.424C271.175 111.582 271.483 111.811 271.727 112.092C271.971 112.373 272.144 112.701 272.235 113.051C272.326 113.401 272.332 113.765 272.252 114.118C272.23 114.883 271.894 115.612 271.312 116.158C270.73 116.704 269.946 117.028 269.116 117.063C268.725 117.056 268.34 116.971 267.989 116.812C267.638 116.653 267.329 116.425 267.084 116.144C266.839 115.863 266.665 115.536 266.573 115.186C266.481 114.835 266.473 114.471 266.551 114.118ZM271.486 114.118C271.549 113.857 271.549 113.587 271.486 113.326C271.423 113.066 271.298 112.821 271.12 112.61C270.943 112.399 270.717 112.226 270.459 112.105C270.2 111.983 269.916 111.915 269.626 111.907C269.01 111.94 268.43 112.186 268.002 112.596C267.574 113.006 267.329 113.549 267.318 114.118C267.254 114.379 267.254 114.65 267.318 114.912C267.382 115.173 267.508 115.418 267.686 115.63C267.865 115.841 268.092 116.013 268.352 116.134C268.611 116.255 268.896 116.322 269.187 116.329C269.802 116.294 270.379 116.047 270.805 115.637C271.231 115.227 271.474 114.685 271.486 114.118Z" fill="#06A5FF"/>
<path d="M278.341 111.239L277.769 116.997H277.135L274.336 112.707L273.917 116.997H273.151L273.723 111.239H274.346L277.145 115.529L277.574 111.239H278.341Z" fill="#06A5FF"/>
<path d="M283.387 114.08H284.123L283.908 116.329C283.325 116.799 282.578 117.06 281.804 117.063C281.411 117.06 281.024 116.976 280.671 116.818C280.318 116.661 280.007 116.433 279.761 116.151C279.515 115.869 279.339 115.541 279.247 115.189C279.155 114.838 279.149 114.472 279.229 114.118C279.254 113.349 279.595 112.618 280.183 112.071C280.771 111.524 281.562 111.203 282.396 111.173C282.781 111.157 283.165 111.23 283.511 111.386C283.858 111.543 284.156 111.777 284.378 112.067L283.847 112.575C283.675 112.361 283.449 112.189 283.19 112.073C282.93 111.957 282.644 111.9 282.355 111.907C281.731 111.93 281.139 112.172 280.701 112.583C280.263 112.994 280.01 113.542 279.995 114.118C279.944 114.381 279.955 114.651 280.026 114.911C280.097 115.17 280.227 115.412 280.408 115.621C280.589 115.831 280.816 116.002 281.074 116.124C281.332 116.246 281.616 116.316 281.906 116.329C282.37 116.337 282.824 116.208 283.203 115.962L283.387 114.08Z" fill="#06A5FF"/>
<path d="M288.893 116.997L287.872 115.228H287.535H286.207L286.033 116.978H285.267L285.839 111.22H287.933C288.222 111.185 288.516 111.214 288.791 111.304C289.065 111.395 289.313 111.544 289.512 111.74C289.712 111.936 289.858 112.172 289.939 112.43C290.019 112.688 290.032 112.961 289.976 113.224C289.964 113.616 289.828 113.997 289.585 114.32C289.342 114.642 289.002 114.892 288.607 115.04L289.69 116.978L288.893 116.997ZM289.251 113.233C289.333 112.415 288.863 111.944 287.882 111.944H286.574L286.319 114.532H287.627C287.827 114.554 288.03 114.538 288.223 114.484C288.416 114.43 288.595 114.339 288.748 114.218C288.901 114.096 289.024 113.947 289.111 113.779C289.198 113.611 289.245 113.429 289.251 113.243V113.233Z" fill="#06A5FF"/>
<path d="M294.451 115.558H291.601L290.865 116.997H290.13L293.133 111.239H293.889L295.759 116.997H294.952L294.451 115.558ZM294.247 114.899L293.368 112.076L291.928 114.899H294.247Z" fill="#06A5FF"/>
<path d="M297.802 111.973H295.963L296.034 111.257H300.478L300.407 111.973H298.568L298.067 117.016H297.281L297.802 111.973Z" fill="#06A5FF"/>
<path d="M300.846 114.513L301.173 111.239H301.939L301.612 114.476C301.49 115.755 301.98 116.357 302.94 116.357C303.901 116.357 304.524 115.783 304.646 114.476L304.973 111.239H305.709L305.392 114.513C305.218 116.179 304.279 117.063 302.869 117.063C301.459 117.063 300.683 116.179 300.846 114.513Z" fill="#06A5FF"/>
<path d="M307.292 111.239H308.058L307.558 116.282H310.459L310.398 116.997H306.72L307.292 111.239Z" fill="#06A5FF"/>
<path d="M314.862 115.558H312.012L311.276 116.997H310.49L313.493 111.239H314.249L316.119 116.997H315.312L314.862 115.558ZM314.658 114.899L313.779 112.076L312.349 114.899H314.658Z" fill="#06A5FF"/>
<path d="M318.213 111.973H316.374L316.446 111.257H320.89L320.777 111.973H318.938L318.438 117.016H317.712L318.213 111.973Z" fill="#06A5FF"/>
<path d="M321.727 111.239H322.493L321.921 116.997H321.155L321.727 111.239Z" fill="#06A5FF"/>
<path d="M323.382 114.118C323.412 113.352 323.753 112.624 324.337 112.079C324.922 111.533 325.708 111.21 326.539 111.173C326.93 111.179 327.314 111.265 327.665 111.424C328.016 111.582 328.324 111.811 328.568 112.092C328.812 112.373 328.985 112.701 329.076 113.051C329.167 113.401 329.173 113.765 329.093 114.118C329.07 114.883 328.735 115.612 328.153 116.158C327.571 116.704 326.786 117.028 325.957 117.063C325.565 117.058 325.179 116.973 324.826 116.815C324.474 116.657 324.164 116.429 323.918 116.148C323.672 115.866 323.497 115.539 323.404 115.188C323.312 114.837 323.304 114.472 323.382 114.118ZM328.327 114.118C328.388 113.857 328.387 113.588 328.323 113.328C328.259 113.068 328.134 112.824 327.957 112.613C327.78 112.402 327.554 112.23 327.297 112.108C327.04 111.986 326.757 111.917 326.467 111.907C325.85 111.94 325.269 112.185 324.839 112.595C324.409 113.005 324.163 113.548 324.148 114.118C324.087 114.38 324.088 114.651 324.154 114.913C324.219 115.174 324.345 115.419 324.525 115.63C324.704 115.841 324.932 116.013 325.192 116.134C325.452 116.255 325.737 116.321 326.028 116.329C326.643 116.294 327.22 116.047 327.646 115.637C328.072 115.227 328.315 114.685 328.327 114.118Z" fill="#06A5FF"/>
<path d="M335.171 111.239L334.609 116.997H333.976L331.177 112.707L330.758 116.997H329.971L330.543 111.239H331.177L333.976 115.529L334.395 111.239H335.171Z" fill="#06A5FF"/>
<path d="M335.794 116.339L336.101 115.736C336.32 115.949 336.585 116.117 336.879 116.231C337.172 116.344 337.489 116.4 337.807 116.395C338.737 116.395 339.176 116.009 339.217 115.511C339.36 114.109 336.019 114.993 336.234 112.857C336.298 112.371 336.565 111.927 336.979 111.619C337.393 111.312 337.921 111.165 338.451 111.21C339.056 111.195 339.649 111.375 340.126 111.719L339.809 112.377C339.403 112.077 338.9 111.911 338.379 111.907C337.47 111.907 337.041 112.321 336.99 112.848C336.847 114.259 340.187 113.375 339.983 115.492C339.916 115.982 339.643 116.428 339.223 116.734C338.803 117.04 338.268 117.182 337.735 117.129C337.371 117.126 337.01 117.054 336.677 116.918C336.343 116.782 336.043 116.585 335.794 116.339Z" fill="#06A5FF"/>
<path d="M267.91 260.021H269.167L268.911 262.609C268.204 263.123 267.331 263.408 266.429 263.418C264.549 263.418 263.313 262.044 263.497 260.125C263.528 259.254 263.918 258.428 264.589 257.814C265.259 257.2 266.158 256.845 267.103 256.822C267.57 256.799 268.034 256.888 268.452 257.082C268.869 257.275 269.225 257.565 269.483 257.923L268.462 258.798C268.305 258.574 268.088 258.39 267.833 258.265C267.577 258.14 267.291 258.077 267.001 258.083C266.424 258.097 265.876 258.319 265.473 258.7C265.07 259.082 264.845 259.593 264.845 260.125C264.783 260.366 264.78 260.618 264.837 260.861C264.894 261.104 265.01 261.332 265.175 261.528C265.341 261.724 265.553 261.883 265.795 261.994C266.036 262.104 266.302 262.163 266.572 262.166C266.961 262.171 267.344 262.073 267.675 261.884L267.91 260.021Z" fill="white"/>
<path d="M270.72 256.935H272.099L271.465 263.314H270.086L270.72 256.935Z" fill="white"/>
<path d="M274.806 258.12L274.642 259.805H277.401L277.278 260.99H274.52L274.295 263.314H272.916L273.549 256.935H278.044L277.932 258.12H274.806Z" fill="white"/>
<path d="M280.128 258.13H278.218L278.341 256.935H283.53L283.408 258.13H281.508L280.986 263.314H279.618L280.128 258.13Z" fill="white"/>
<path d="M285.635 262.684L286.217 261.574C286.745 261.994 287.419 262.227 288.117 262.232C288.924 262.232 289.292 261.941 289.333 261.555C289.445 260.36 285.9 261.178 286.135 258.807C286.171 258.513 286.269 258.228 286.424 257.969C286.58 257.709 286.789 257.481 287.041 257.296C287.293 257.112 287.581 256.975 287.89 256.894C288.199 256.812 288.523 256.788 288.842 256.822C289.573 256.794 290.292 256.993 290.886 257.386L290.354 258.506C289.889 258.19 289.328 258.016 288.75 258.007C287.933 258.007 287.586 258.337 287.545 258.732C287.433 259.908 290.967 259.099 290.743 261.442C290.705 261.737 290.604 262.022 290.446 262.281C290.288 262.539 290.077 262.767 289.824 262.951C289.57 263.134 289.28 263.27 288.97 263.35C288.659 263.43 288.335 263.453 288.015 263.418C287.151 263.449 286.304 263.188 285.635 262.684Z" fill="white"/>
<path d="M296.198 262.129L296.075 263.314H291.468L292.101 256.935H296.596L296.484 258.12H293.348L293.215 259.503H295.973L295.861 260.651H293.102L292.949 262.129H296.198Z" fill="white"/>
<path d="M303.267 256.935L302.634 263.314H301.5L298.915 259.438L298.527 263.314H297.168L297.802 256.935H298.946L301.52 260.802L301.908 256.935H303.267Z" fill="white"/>
<path d="M305.79 258.13H303.88L304.003 256.935H309.192L309.07 258.13H307.17L306.649 263.314H305.28L305.79 258.13Z" fill="white"/>
<path d="M329.152 191.357C334.403 167.66 322.949 145.497 303.569 141.855C284.189 138.212 264.222 154.468 258.972 178.165C253.721 201.862 265.175 224.025 284.555 227.668C303.935 231.311 323.902 215.054 329.152 191.357Z" fill="#06A5FF"/>
<path opacity="0.3" d="M329.152 191.357C334.403 167.66 322.949 145.497 303.569 141.855C284.189 138.212 264.222 154.468 258.972 178.165C253.721 201.862 265.175 224.025 284.555 227.668C303.935 231.311 323.902 215.054 329.152 191.357Z" fill="white"/>
<path d="M237.906 187.295L249.9 179.542L257.888 183.635L280.813 179.683L279.791 187.832L257.664 188.669C257.664 188.669 247.223 194.522 245.18 194.776C243.137 195.03 237.906 187.295 237.906 187.295Z" fill="#FFBAAF"/>
<path d="M329.757 184.162C329.706 184.708 329.644 185.263 329.583 185.809L271.649 189.883H271.241V188.189V181.349V178.385L272.466 178.159L328.582 167.488C329.908 172.957 330.305 178.582 329.757 184.162Z" fill="#06A5FF"/>
<path opacity="0.2" d="M329.757 184.162C329.706 184.708 329.644 185.263 329.583 185.809L271.649 189.883H271.241V188.189V181.349V178.385L272.466 178.159L328.582 167.488C329.908 172.957 330.305 178.582 329.757 184.162Z" fill="black"/>
<path d="M268.636 178.046L272.589 177.368L271.496 192.094L267.083 191.577L268.636 178.046Z" fill="#06A5FF"/>
<path opacity="0.5" d="M268.636 178.046L272.589 177.368L271.496 192.094L267.083 191.577L268.636 178.046Z" fill="white"/>
<path d="M209.813 163.856L209.977 163.837L209.967 163.818L209.988 163.809L209.977 163.772L209.813 163.856Z" fill="#263238"/>
<path d="M272.344 151.85L271.762 151.925L229.928 154.635L210.313 163.48L209.966 163.499L216.381 198.859L256.162 196.281L277.84 186.589L272.344 151.85Z" fill="#263238"/>
<path opacity="0.2" d="M215.023 165.983L216.749 167.263L218.874 166.67L218.088 168.58L219.344 170.255L217.138 170.161L215.799 171.779L215.217 169.813L213.123 169.135L214.972 168.025L215.023 165.983Z" fill="white"/>
<path opacity="0.2" d="M237.906 167.441V169.483L239.735 170.631L237.63 171.262L237.007 173.219L235.7 171.572L233.493 171.638L234.79 169.982L234.045 168.062L236.149 168.683L237.906 167.441Z" fill="white"/>
<path opacity="0.2" d="M238.836 189.394V191.435L240.665 192.583L238.57 193.223L237.947 195.18L236.64 193.534L234.423 193.59L235.72 191.934L234.974 190.015L237.079 190.645L238.836 189.394Z" fill="white"/>
<path opacity="0.2" d="M228.753 184.548L228.763 186.58L230.592 187.738L228.487 188.368L227.864 190.325L226.557 188.678L224.34 188.744L225.637 187.088L224.891 185.169L227.006 185.79L228.753 184.548Z" fill="white"/>
<path opacity="0.2" d="M239.694 183.155L239.704 184.35L240.767 185.028L239.541 185.394L239.173 186.542L238.407 185.583L237.109 185.611L237.876 184.651L237.436 183.522L238.673 183.889L239.694 183.155Z" fill="white"/>
<path opacity="0.2" d="M221.745 192.583V193.778L222.818 194.447L221.592 194.823L221.224 195.961L220.458 195.002L219.16 195.039L219.916 194.07L219.487 192.941L220.723 193.308L221.745 192.583Z" fill="white"/>
<path opacity="0.2" d="M219.365 181.038L219.375 182.233L220.437 182.901L219.211 183.277L218.844 184.425L218.077 183.456L216.79 183.494L217.546 182.525L217.107 181.405L218.343 181.772L219.365 181.038Z" fill="white"/>
<path opacity="0.2" d="M245.558 162.134V163.329L246.631 164.007L245.405 164.374L245.037 165.522L244.271 164.562L242.973 164.6L243.729 163.631L243.3 162.501L244.536 162.868L245.558 162.134Z" fill="white"/>
<path opacity="0.2" d="M222.797 171.751L224.278 174.085L227.2 174.282L225.249 176.296L225.944 178.912L223.267 177.829L220.774 179.25L221.071 176.569L218.833 174.818L221.694 174.244L222.797 171.751Z" fill="white"/>
<path opacity="0.2" d="M242.258 175.421L244.986 176.39L247.407 174.875L247.244 177.566L249.552 179.213L246.723 179.909L245.742 182.44L244.148 180.182L241.226 180.097L243.076 178.008L242.258 175.421Z" fill="white"/>
<path opacity="0.2" d="M248.582 186.59L250.063 188.923L252.985 189.121L251.034 191.134L251.728 193.75L249.052 192.668L246.559 194.08L246.855 191.398L244.618 189.657L247.479 189.083L248.582 186.59Z" fill="white"/>
<path opacity="0.2" d="M253.996 162.229L255.008 163.358L256.029 162.586L255.825 164.562L256.632 166.124L255.498 166.218L254.977 167.959L254.476 166.039L253.342 165.55L254.17 164.27L253.996 162.229Z" fill="white"/>
<path opacity="0.2" d="M265.836 161.72L266.051 163.762L267.103 164.76L266.092 165.578L265.969 167.583L265.142 166.049L264.008 166.303L264.508 164.534L263.926 162.68L265.07 163.122L265.836 161.72Z" fill="white"/>
<path opacity="0.2" d="M268.554 183.616L268.758 185.649L269.81 186.646L268.799 187.465L268.676 189.469L267.849 187.935L266.715 188.189L267.216 186.42L266.643 184.567L267.777 185.009L268.554 183.616Z" fill="white"/>
<path opacity="0.2" d="M262.904 179.627L263.109 181.659L264.161 182.656L263.15 183.475L263.027 185.489L262.2 183.946L261.076 184.2L261.566 182.431L260.984 180.577L262.128 181.019L262.904 179.627Z" fill="white"/>
<path opacity="0.2" d="M268.36 177.302L268.482 178.488L269.095 179.071L268.503 179.551L268.431 180.728L267.941 179.834L267.287 179.975L267.573 178.94L267.236 177.858L267.91 178.112L268.36 177.302Z" fill="white"/>
<path opacity="0.2" d="M260.136 188.265L260.259 189.46L260.871 190.043L260.279 190.513L260.207 191.699L259.717 190.796L259.063 190.946L259.349 189.911L259.012 188.82L259.676 189.083L260.136 188.265Z" fill="white"/>
<path opacity="0.2" d="M257.745 176.917L257.868 178.112L258.481 178.695L257.888 179.175L257.817 180.351L257.327 179.448L256.673 179.598L256.959 178.563L256.622 177.472L257.296 177.735L257.745 176.917Z" fill="white"/>
<path opacity="0.2" d="M269.218 155.764L269.34 156.959L269.953 157.543L269.361 158.013L269.299 159.199L268.809 158.295L268.145 158.436L268.431 157.411L268.094 156.319L268.768 156.583L269.218 155.764Z" fill="white"/>
<path opacity="0.2" d="M258.552 167.328L259.543 169.54L261.055 169.483L260.269 171.666L260.892 174.226L259.411 173.369L258.277 175.007L258.154 172.297L256.836 170.744L258.246 169.925L258.552 167.328Z" fill="white"/>
<path opacity="0.2" d="M268.881 169.333L270.372 170.076L271.455 168.345L271.649 171.055L272.998 172.513L271.619 173.435L271.373 176.06L270.331 173.934L268.83 174.103L269.565 171.854L268.881 169.333Z" fill="white"/>
<path opacity="0.2" d="M273.253 179.965L274.244 182.167L275.756 182.12L274.969 184.303L275.593 186.862L274.111 186.006L272.977 187.643L272.855 184.934L271.537 183.381L272.936 182.562L273.253 179.965Z" fill="white"/>
<path opacity="0.2" d="M249.726 161.024L272.354 152.01L277.86 186.872L256.193 196.686L249.726 161.024Z" fill="black"/>
<path opacity="0.2" d="M209.803 163.649L229.928 154.635L272.048 151.906L249.716 160.789L209.803 163.649Z" fill="white"/>
<path d="M270.382 190.353L264.958 154.428L223.89 157.091L220.151 159.208L257.735 157.712L265.213 192.48L270.382 190.353Z" fill="#06A5FF"/>
<path d="M250.37 153.308L231.664 161.918L236.701 197.542L230.755 197.928L223.931 162.539L244.914 153.666L250.37 153.308Z" fill="#06A5FF"/>
<path opacity="0.2" d="M264.978 154.739L257.745 157.787L265.223 192.602L270.393 190.504L264.978 154.739Z" fill="black"/>
<path opacity="0.1" d="M223.952 162.69L231.675 162.003L236.701 197.542L230.755 197.928L223.952 162.69Z" fill="black"/>
<path d="M238.274 156.912C238.274 156.912 226.516 149.874 221.837 152.132C218.128 153.911 219.038 158.474 228.814 159.01C225.198 159.547 220.938 160.356 218.435 161.429L225.801 161.758C230.116 160.365 234.547 159.298 239.05 158.568C239.292 159.319 239.351 160.109 239.224 160.883L244.189 160.158C244.189 160.158 242.616 158.963 241.339 158.088C247.029 157.194 259.176 154.701 260.034 149.62C261.096 143.024 243.75 148.528 238.274 156.912ZM221.929 153.44C222.95 151.652 237.61 157.524 237.61 157.524C231.062 158.803 220.887 155.256 221.939 153.44H221.929ZM239.561 157.11C239.561 157.11 253.925 146.148 257.745 148.133C261.566 150.119 244.158 157.213 239.571 157.138L239.561 157.11Z" fill="#06A5FF"/>
<path opacity="0.1" d="M238.274 156.912C238.274 156.912 226.516 149.874 221.837 152.132C218.128 153.911 219.038 158.474 228.814 159.01C225.198 159.547 220.938 160.356 218.435 161.429L225.801 161.758C230.116 160.365 234.547 159.298 239.05 158.568C239.292 159.319 239.351 160.109 239.224 160.883L244.189 160.158C244.189 160.158 242.616 158.963 241.339 158.088C247.029 157.194 259.176 154.701 260.034 149.62C261.096 143.024 243.75 148.528 238.274 156.912ZM221.929 153.44C222.95 151.652 237.61 157.524 237.61 157.524C231.062 158.803 220.887 155.256 221.939 153.44H221.929ZM239.561 157.11C239.561 157.11 253.925 146.148 257.745 148.133C261.566 150.119 244.158 157.213 239.571 157.138L239.561 157.11Z" fill="black"/>
<path d="M261.76 187.474L275.102 181.885L282.131 187.267H305.453L302.828 195.096L280.935 192.169C280.935 192.169 269.494 196.15 267.45 196.102C265.407 196.055 261.76 187.474 261.76 187.474Z" fill="#FFBAAF"/>
<path d="M329.696 184.736C329.696 185.103 329.624 185.451 329.583 185.809C328.916 191.255 327.413 196.587 325.119 201.645L294.155 196.658L293.818 196.601L294.369 193.938L295.779 187.239L296.188 185.253H297.362L329.696 184.736Z" fill="#06A5FF"/>
<path d="M293.818 183.588H297.832L293.818 197.881L289.588 196.629L293.818 183.588Z" fill="#06A5FF"/>
<path opacity="0.7" d="M293.818 183.588H297.832L293.818 197.881L289.588 196.629L293.818 183.588Z" fill="white"/>
<path d="M200.077 68.6955L186.266 66.4937C184.215 66.1666 182.264 67.4332 181.909 69.3227L179.518 82.0433C179.163 83.9328 180.538 85.7297 182.59 86.0567L196.4 88.2585C198.452 88.5856 200.403 87.319 200.758 85.4295L203.148 72.7089C203.503 70.8194 202.128 69.0225 200.077 68.6955Z" fill="#06A5FF"/>
<path opacity="0.6" d="M197.901 74.4572C196.829 71.9731 193.815 72.3777 191.986 73.8832C190.842 71.9072 188.135 70.5899 186.214 72.5941C182.976 75.9721 187.522 80.3099 189.729 82.0695C189.974 82.2765 190.188 82.4458 190.362 82.5776L191.128 82.2953C193.856 81.3167 199.72 78.6444 197.901 74.4572Z" fill="white"/>
<path d="M192.058 86.0025C192.058 86.0025 188.166 91.4317 181.576 92.2692C181.576 92.2692 185.377 90.9895 186.255 84.8263L192.058 86.0025Z" fill="#06A5FF"/>
<path d="M196.747 123.518L200.527 114.758C200.527 114.758 200.19 111.38 200.527 110.919C200.864 110.458 210.109 104.718 210.109 104.718C210.109 104.718 211.539 107.861 211.447 109.263C211.355 110.665 205.134 114.118 205.134 114.118L201.364 122.709L196.747 123.518Z" fill="#FFCCBB"/>
<path d="M204.102 118.691C204.102 118.691 191.71 144.68 186.592 146.919C183.088 148.453 171.085 146.919 163.872 145.734C160.552 145.207 158.254 144.793 158.254 144.793L162.646 139.401L166.028 135.252C166.028 135.252 177.163 139.495 181.474 140.239C185.785 140.982 198.586 115.99 198.586 115.99L204.102 118.691Z" fill="#06A5FF"/>
<path opacity="0.2" d="M163.872 145.724C160.552 145.197 158.254 144.783 158.254 144.783L162.646 139.392C163.303 140.317 163.75 141.355 163.961 142.443C164.172 143.531 164.142 144.647 163.872 145.724Z" fill="black"/>
<path d="M164.281 95.2332C169.389 97.6514 172.29 101.02 173.056 107.522C173.822 114.024 169.818 116.085 173.056 118.691C176.295 121.297 174.343 125.278 172.035 125.795C169.726 126.313 173.669 128.91 173.669 128.91L172.096 129.945C172.096 129.945 172.453 130.98 169.419 129.945C166.385 128.91 167.703 131.215 162.912 131.732C158.121 132.25 148.998 133.012 145.167 128.91C141.336 124.807 142.899 118.559 140.825 115.943C138.751 113.328 143.686 99.3357 149.784 96.2494C155.883 93.1631 164.281 95.2332 164.281 95.2332Z" fill="#263238"/>
<path d="M107.706 96.2776L111.026 87.348C111.026 87.348 113.672 84.9957 113.723 84.4405C113.774 83.8853 110.842 73.9772 110.842 73.9772C110.842 73.9772 107.532 75.5203 106.602 76.6306C105.673 77.741 107.971 84.1018 107.971 84.1018L104.763 92.8902L107.706 96.2776Z" fill="#FFCCBB"/>
<path d="M133.817 330.385H127.065L129.128 321.785L131.049 313.89L139.507 312.695L136.494 322.067L133.817 330.385Z" fill="#FFCCBB"/>
<path opacity="0.2" d="M136.422 322.255L129.067 321.954L131.018 313.975L139.487 312.742L136.422 322.255Z" fill="black"/>
<path d="M119.832 330.385H113.079L115.143 321.785L117.063 313.89L125.522 312.695L122.508 322.067L119.832 330.385Z" fill="#FFCCBB"/>
<path opacity="0.2" d="M122.447 322.255L115.081 321.954L117.033 313.975L125.501 312.742L122.447 322.255Z" fill="black"/>
<path d="M107.603 165.992C107.603 165.992 107.266 166.66 106.725 167.874C104.181 173.661 97.2138 191.934 99.8188 213.124C101.351 225.658 116.389 248.222 118.626 260.51C121.231 274.813 114.417 300.03 116.164 318.538L126.911 319.404L130.15 317.522L139.344 316.261C139.344 316.261 163.32 266.053 162.84 248.692C162.493 235.058 139.344 186.176 139.344 186.176L141.551 168.1" fill="#263238"/>
<path opacity="0.2" d="M131.835 317.325L130.15 317.55L127.391 319.159C129.148 313.514 144.288 264.688 144.564 253.943C144.86 242.529 127.197 202.012 127.197 202.012L131.723 194.484L131.049 205.935C131.049 205.935 147.741 237.448 149.059 253.924C150.346 269.76 133.235 313.768 131.835 317.325Z" fill="black"/>
<path d="M125.154 330.122C125.154 329.435 134.348 329.971 134.348 329.971C134.348 329.971 139.977 335.24 145.443 336.426C150.908 337.612 147.864 340.641 141.745 340.641H126.625C122.263 340.623 124.981 337.226 125.154 330.122Z" fill="#263238"/>
<path d="M135.35 331.063L135.278 331.006C135.273 330.984 135.273 330.962 135.278 330.94C135.272 330.919 135.272 330.896 135.278 330.874C135.268 330.844 135.268 330.811 135.278 330.78C135.278 330.686 136.085 328.729 137.321 328.259C137.507 328.18 137.709 328.139 137.914 328.139C138.118 328.139 138.32 328.18 138.506 328.259C138.925 328.437 139.119 328.682 139.109 328.964C139.109 329.406 138.425 329.858 137.679 330.225C138.367 330.111 139.077 330.183 139.722 330.432C139.84 330.492 139.944 330.572 140.028 330.669C140.113 330.766 140.175 330.877 140.212 330.997C140.288 331.155 140.307 331.332 140.266 331.501C140.226 331.67 140.128 331.823 139.988 331.938C139.751 332.086 139.466 332.155 139.181 332.135C137.846 331.985 136.549 331.622 135.35 331.063ZM136.187 330.921C137.536 331.439 139.252 331.909 139.64 331.58C139.64 331.58 139.793 331.467 139.702 331.138C139.685 331.075 139.653 331.016 139.609 330.966C139.565 330.915 139.509 330.875 139.446 330.846C139.108 330.7 138.736 330.635 138.363 330.658C137.63 330.676 136.901 330.765 136.187 330.921ZM137.454 328.673C136.733 329.104 136.181 329.737 135.881 330.479C137.24 330.009 138.547 329.35 138.568 328.974C138.568 328.851 138.373 328.748 138.251 328.691C138.118 328.629 137.971 328.597 137.822 328.597C137.694 328.595 137.568 328.621 137.454 328.673Z" fill="#06A5FF"/>
<path d="M126.911 316.13L142.082 314.229L140.805 319.432L128.29 320.881L126.911 316.13Z" fill="#06A5FF"/>
<path d="M111.179 330.122C111.179 329.435 120.373 329.971 120.373 329.971C120.373 329.971 126.002 335.24 131.478 336.426C136.953 337.612 133.827 340.623 127.698 340.623H112.578C108.288 340.623 110.995 337.226 111.179 330.122Z" fill="#263238"/>
<path d="M121.364 331.062L121.293 331.006C121.287 330.984 121.287 330.962 121.293 330.94C121.293 330.94 121.293 330.94 121.293 330.874C121.288 330.843 121.288 330.811 121.293 330.78C121.293 330.686 122.1 328.729 123.336 328.258C123.522 328.179 123.724 328.138 123.928 328.138C124.133 328.138 124.335 328.179 124.521 328.258C124.94 328.437 125.144 328.682 125.124 328.964C125.124 329.406 124.439 329.858 123.693 330.225C124.382 330.111 125.092 330.182 125.737 330.432C125.858 330.488 125.964 330.567 126.049 330.665C126.133 330.762 126.194 330.875 126.227 330.997C126.306 331.155 126.326 331.332 126.286 331.502C126.245 331.672 126.146 331.824 126.002 331.938C125.765 332.086 125.481 332.155 125.195 332.135C123.86 331.985 122.564 331.622 121.364 331.062ZM122.202 330.921C123.55 331.439 125.267 331.909 125.655 331.58C125.655 331.58 125.808 331.467 125.716 331.138C125.699 331.075 125.668 331.016 125.624 330.966C125.579 330.915 125.524 330.874 125.461 330.846C125.123 330.7 124.75 330.635 124.378 330.658C123.645 330.676 122.915 330.765 122.202 330.921ZM123.469 328.672C122.75 329.104 122.202 329.738 121.906 330.479C123.254 330.009 124.562 329.35 124.592 328.974C124.592 328.851 124.388 328.748 124.265 328.691C124.133 328.629 123.985 328.597 123.836 328.597C123.709 328.595 123.583 328.621 123.469 328.672Z" fill="#06A5FF"/>
<path d="M113.948 316.13L130.15 314.229L128.791 319.432L115.429 320.881L113.948 316.13Z" fill="#06A5FF"/>
<path d="M109.565 161.927L107.981 166.124L139.947 173.906L141.816 168.938L109.565 161.927Z" fill="black"/>
<path d="M120.511 163.456L118.941 163.035L116.607 170.406L118.176 170.827L120.511 163.456Z" fill="#263238"/>
<path d="M134.067 167.596L127.052 165.976L125.718 170.877L132.734 172.497L134.067 167.596Z" fill="white"/>
<path d="M140.269 167.621L138.7 167.199L136.364 174.57L137.933 174.992L140.269 167.621Z" fill="#263238"/>
<path d="M166.028 135.223C164.638 136.889 163.351 138.451 162.166 139.928C157.508 145.668 154.188 149.742 151.654 153.026C148.797 156.56 146.32 160.342 144.258 164.317C143.43 165.926 142.613 167.686 141.704 169.766L109.565 161.871C112.228 152.552 115.42 143.369 119.127 134.358C120.016 132.25 120.823 130.434 121.538 128.872C122.253 127.31 122.876 126.049 123.397 124.92C123.397 124.864 123.397 124.807 123.479 124.741C124.268 123.117 125.661 121.806 127.406 121.044C129.152 120.281 131.135 120.118 133 120.582C135.309 121.156 138.016 121.881 140.519 122.662C145.178 124.252 149.711 126.138 154.085 128.307C158.241 130.346 162.232 132.657 166.028 135.223Z" fill="#06A5FF"/>
<path d="M145.279 134.169C139.875 128.524 140.335 124.619 140.335 124.619C147.425 124.393 149.774 115.962 149.774 115.962L155.904 123.179C154.811 123.977 153.786 124.852 152.839 125.795C148.855 129.851 150.796 131.525 150.796 131.525C150.06 134.79 145.279 134.169 145.279 134.169Z" fill="#FFCCBB"/>
<path opacity="0.2" d="M155.914 123.179C154.821 123.977 153.796 124.852 152.849 125.795C150.03 122.163 149.723 115.962 149.723 115.962L155.914 123.179Z" fill="black"/>
<path d="M162.585 96.5504C170.86 98.4323 172.443 103.081 170.972 111.069C169.133 121.053 164.935 127.489 155.138 123.076C141.847 117.082 148.845 93.4641 162.585 96.5504Z" fill="#FFCCBB"/>
<path d="M165.742 109.441C166.099 110.729 166.627 111.971 167.315 113.139C166.99 113.401 166.593 113.574 166.167 113.641C165.742 113.707 165.304 113.664 164.904 113.516L165.742 109.441Z" fill="#A24E3F"/>
<path d="M160.838 107.682C160.695 108.312 160.205 108.745 159.745 108.623C159.285 108.501 159.04 107.945 159.193 107.315C159.347 106.685 159.827 106.252 160.286 106.374C160.746 106.496 160.991 107.051 160.838 107.682Z" fill="#263238"/>
<path d="M160.092 106.374L161.706 106.129C161.706 106.129 160.685 107.136 160.092 106.374Z" fill="#263238"/>
<path d="M169.368 109.263C169.215 109.893 168.725 110.335 168.275 110.204C167.826 110.072 167.57 109.526 167.713 108.896C167.856 108.265 168.357 107.832 168.817 107.955C169.276 108.077 169.522 108.632 169.368 109.263Z" fill="#263238"/>
<path d="M168.612 107.955L170.227 107.719C170.227 107.719 169.215 108.717 168.612 107.955Z" fill="#263238"/>
<path d="M158.254 103.09C158.197 103.09 158.14 103.078 158.089 103.055C158.038 103.033 157.993 102.999 157.957 102.958C157.899 102.885 157.874 102.795 157.888 102.705C157.901 102.616 157.952 102.534 158.029 102.478C158.656 102.116 159.366 101.891 160.103 101.823C160.841 101.754 161.585 101.843 162.279 102.083C162.324 102.099 162.366 102.124 162.401 102.154C162.437 102.185 162.465 102.222 162.485 102.263C162.505 102.305 162.516 102.349 162.517 102.394C162.519 102.439 162.511 102.484 162.493 102.526C162.476 102.568 162.449 102.606 162.416 102.639C162.382 102.671 162.342 102.698 162.297 102.716C162.253 102.734 162.205 102.744 162.156 102.746C162.107 102.747 162.059 102.739 162.013 102.723C161.437 102.525 160.82 102.45 160.208 102.502C159.596 102.554 159.005 102.732 158.478 103.024C158.414 103.07 158.334 103.093 158.254 103.09Z" fill="#263238"/>
<path d="M171.381 105.141C171.329 105.142 171.277 105.132 171.23 105.112C171.182 105.093 171.14 105.064 171.105 105.029C170.77 104.635 170.342 104.317 169.853 104.098C169.365 103.88 168.828 103.767 168.285 103.768C168.237 103.773 168.188 103.769 168.142 103.756C168.095 103.744 168.051 103.723 168.013 103.695C167.975 103.667 167.944 103.633 167.92 103.593C167.897 103.554 167.882 103.511 167.877 103.467C167.871 103.422 167.876 103.377 167.889 103.334C167.903 103.291 167.925 103.251 167.956 103.216C167.986 103.181 168.023 103.152 168.066 103.13C168.109 103.109 168.155 103.095 168.204 103.09C168.862 103.078 169.514 103.205 170.111 103.461C170.708 103.717 171.233 104.095 171.646 104.567C171.682 104.598 171.71 104.635 171.73 104.677C171.749 104.718 171.759 104.762 171.759 104.807C171.759 104.852 171.749 104.897 171.73 104.938C171.71 104.979 171.682 105.017 171.646 105.047C171.575 105.109 171.479 105.143 171.381 105.141Z" fill="#263238"/>
<path d="M150.173 107.362C150.173 107.362 155.689 101.97 156.384 97.0116C156.384 97.0116 174.415 94.5275 171.166 110.034C171.166 110.034 176.366 96.7857 162.227 93.2854C148.089 89.7851 143.083 108.971 148.947 116.329C148.896 116.32 146.72 110.74 150.173 107.362Z" fill="#263238"/>
<path d="M151.072 109.272C151.228 108.377 150.994 107.46 150.42 106.724C149.846 105.987 148.978 105.489 148.007 105.339C145.371 105.028 142.899 109.601 148.937 112.198C149.785 112.565 150.52 111.86 151.072 109.272Z" fill="#FFCCBB"/>
<path d="M176.131 113.45C173.976 111.568 174.313 108.369 175.988 105.132C177.664 101.895 173.322 99.4862 173.322 99.4862C173.322 99.4862 172.964 95.4025 169.562 93.7558C168.939 93.4547 166.11 93.7558 166.11 93.7558C162.391 89.9921 156.415 86.9058 151.715 91.8081C148.957 94.6968 146.209 91.7328 141.827 97.7643C138.66 102.111 140.866 105.951 139.947 107.353C135.697 113.789 141.224 115.529 142.542 117.769C142.542 117.769 145.463 116.48 145.218 115.718C143.236 109.545 146.71 105.546 149.396 106.534C152.083 107.522 154.014 107.249 155.965 104.981C157.916 102.714 156.558 100.277 161.073 99.712C165.589 99.1475 166.038 96.7669 166.038 96.7669C166.115 97.8266 166.501 98.8476 167.156 99.722C167.81 100.596 168.709 101.292 169.757 101.735C173.516 103.551 172.035 105.744 171.514 108.839C170.993 111.935 172.648 113.13 175.6 115.369C178.552 117.609 175.426 119.246 175.426 119.246C175.988 118.986 176.47 118.6 176.829 118.125C177.189 117.65 177.413 117.099 177.483 116.524C177.553 115.948 177.466 115.366 177.23 114.829C176.994 114.292 176.616 113.818 176.131 113.45Z" fill="#263238"/>
<path d="M164.281 116.969C163.549 117.578 162.866 118.236 162.238 118.936L161.788 118.691C159.745 117.571 159.224 116.433 159.244 115.52C159.262 115.07 159.399 114.631 159.643 114.24C159.771 114.016 159.932 113.811 160.123 113.629C161.036 114.83 162.221 115.835 163.596 116.574C164.005 116.828 164.281 116.969 164.281 116.969Z" fill="#263238"/>
<path d="M163.596 116.574L162.973 117.138C161.073 116.085 159.908 115.106 159.643 114.24C159.771 114.016 159.932 113.811 160.123 113.629C161.036 114.83 162.221 115.835 163.596 116.574Z" fill="white"/>
<path d="M161.788 118.691C159.745 117.571 159.224 116.433 159.244 115.52C160.006 115.956 160.677 116.514 161.226 117.167C161.584 117.607 161.781 118.141 161.788 118.691Z" fill="#DE5753"/>
<path d="M143.287 120.375C143.287 120.375 149.069 127.178 155.914 127.31C155.914 127.31 152.512 132.391 153.585 134.997C153.585 134.997 149.274 139.091 143.369 135.496C137.464 131.902 136.494 122.323 136.494 122.323C136.494 122.323 140.733 122.135 143.287 120.375Z" fill="#06A5FF"/>
<path d="M131.069 120.375C131.069 120.375 118.391 117.552 109.504 116.282C100.616 115.012 111.424 89.2958 111.424 89.2958L106.03 86.8776C106.03 86.8776 93.6384 111.559 99.2469 119.265C102.281 123.443 121.568 128.91 121.568 128.91L131.069 120.375Z" fill="#06A5FF"/>
<path d="M172.086 128.176C172.086 128.176 172.77 126.567 174.762 128.176C176.754 129.785 177.296 127.235 178.512 127.461C179.727 127.687 179.85 125.72 182.823 125.09C185.795 124.459 186.184 124.45 186.725 123.208C187.266 121.966 189.422 121.966 189.422 121.966C189.422 121.966 187.379 120.234 188.881 118.682C190.382 117.129 188.748 113.666 188.748 113.666C188.748 113.666 191.578 112.904 192.65 114.767C193.723 116.63 193.6 117.129 193.6 117.129C193.6 117.129 193.999 114.118 193.059 113.506C193.059 113.506 197.37 116.009 195.613 118.926C194.721 120.569 193.177 121.832 191.302 122.455C191.302 122.455 190.362 125.504 188.881 125.786C187.567 126.149 186.366 126.794 185.377 127.668C184.304 128.411 184.437 128.373 182.414 128.703C180.391 129.032 179.717 131.723 178.512 131.742C177.573 131.62 176.62 131.62 175.682 131.742C174.466 132.015 174.006 134.019 172.086 133.022C170.165 132.024 169.164 132.467 168.245 131.742C167.325 131.017 163.045 132.015 162.902 129.531C162.759 127.047 169.695 125.447 172.086 128.176Z" fill="#263238"/>
<path opacity="0.2" d="M131.049 127.969C130.701 128.392 124.368 135.863 119.127 134.377C120.016 132.269 120.823 130.453 121.538 128.891C121.569 128.91 128.015 130.585 131.049 127.969Z" fill="black"/>
<path opacity="0.2" d="M138.476 122.107C138.476 122.107 140.59 130.396 146.189 132.551C151.787 134.706 152.839 132.165 152.839 132.165C152.839 132.165 152.287 139.439 146.189 136.719C143.239 135.512 140.847 133.384 139.436 130.71C138.024 128.036 137.684 124.989 138.476 122.107Z" fill="black"/>
<path opacity="0.7" d="M141.142 159.378L135.677 154.607L127.422 156.122L131.682 149.78L128.219 143.758L136.32 144.605L142.439 139.373L143.185 146.233L150.428 149.027L142.787 152.424L141.142 159.378Z" fill="white"/>
</svg>
