<svg width="522" height="362" viewBox="0 0 522 362" fill="none" xmlns="http://www.w3.org/2000/svg">
<path d="M99.8764 308.749C118.742 292.201 120.463 265.178 117.021 241.427C116.451 237.468 116.424 233.224 114.141 229.943C111.859 226.662 107.187 224.763 103.808 226.832C101.009 228.544 100.099 232.128 98.7619 235.15C96.9698 239.182 94.0776 242.628 90.4169 245.091C88.0275 246.687 84.9784 247.837 82.3215 246.732C78.6839 245.216 77.7567 240.491 77.3466 236.559L75.0463 214.421C74.6273 210.463 74.1994 206.397 72.55 202.831C70.9006 199.265 67.7979 196.019 63.9196 195.386C60.0413 194.753 55.6281 197.428 55.2536 201.387C55.102 203.036 55.6192 204.676 55.6905 206.326C55.7618 207.975 55.1912 209.892 53.6845 210.516C52.1777 211.14 50.4481 210.204 49.1375 209.179C44.6173 205.613 41.2739 200.789 38.1178 195.957C34.9616 191.125 31.8768 186.15 27.6865 182.218C23.4961 178.286 17.9952 175.38 12.2892 175.683C6.58315 175.986 0.93063 180.141 0.110391 185.873C-0.709848 191.606 3.17737 196.911 7.2429 201.03C13.2327 207.148 20.0766 212.368 27.5616 216.525C28.9079 217.274 30.3701 218.086 31.0031 219.494C32.1532 222.044 29.9421 224.933 27.4368 226.092C24.5927 227.402 21.3653 227.447 18.3161 228.151C15.267 228.856 12.0752 230.585 11.1836 233.626C10.0157 237.852 13.8583 241.721 17.4959 244.128C24.7791 248.953 32.8372 252.49 41.3185 254.586C44.3498 255.326 47.5148 255.924 50.0825 257.716C52.6502 259.508 54.469 262.896 53.3546 265.838C52.2401 268.78 48.7006 270.082 45.5891 269.85C42.4775 269.618 39.571 268.272 36.5397 267.496C30.8783 266.043 23.8973 267.193 20.9284 272.275C18.9848 275.618 19.2523 279.942 20.8214 283.5C22.3906 287.057 25.0831 289.963 27.9004 292.611C37.7076 301.875 49.8062 308.882 62.9032 311.86C76.0003 314.838 87.867 314.74 99.8586 308.775" fill="#EBEBEB"/>
<path d="M102.123 326.384C99.8024 315.452 96.4345 304.77 92.0662 294.484C86.6729 281.937 80.5676 269.709 73.7803 257.858C71.9971 254.702 70.2348 251.585 68.4933 248.506C66.7102 245.439 65.0251 242.399 63.1439 239.528C59.541 234.024 55.6328 228.725 51.4377 223.658C47.4702 218.79 43.5295 214.314 39.8473 210.151C36.1652 205.987 32.5633 202.198 29.1486 198.872C23.842 193.588 18.1207 188.737 12.0395 184.367C9.89081 182.815 8.18792 181.692 7.01997 180.907L5.69154 180.016C5.54446 179.912 5.38944 179.819 5.22792 179.74C5.35664 179.865 5.49694 179.979 5.64696 180.078L6.93973 180.97C8.08093 181.772 9.75707 182.949 11.8701 184.536C17.8752 188.988 23.5377 193.885 28.8098 199.184C32.1532 202.528 35.6748 206.317 39.3748 210.498C43.0748 214.68 46.9888 219.156 50.9652 224.023C55.1108 229.089 58.9799 234.375 62.5555 239.858C64.4188 242.72 66.1217 245.733 67.9049 248.773L73.1294 258.233C79.9113 270.065 86.0222 282.269 91.4332 294.787C95.8245 305.012 99.2482 315.627 101.659 326.491" fill="#E0E0E0"/>
<path d="M62.9389 239.51C63.064 238.942 63.1298 238.362 63.135 237.78C63.2242 236.666 63.2955 235.052 63.3579 233.046C63.4828 229.043 63.4649 223.515 63.4293 217.417C63.3936 211.319 63.4293 205.826 63.6343 201.806C63.7235 199.808 63.8037 198.195 63.884 197.08C63.9515 196.488 63.9515 195.89 63.884 195.297C63.7182 195.855 63.6136 196.429 63.5719 197.009C63.4114 198.114 63.242 199.728 63.0905 201.725C62.7695 205.719 62.6269 211.265 62.6714 217.372C62.716 223.479 62.7784 228.829 62.8141 232.992C62.8141 234.874 62.8141 236.461 62.8141 237.727C62.7856 238.324 62.8275 238.922 62.9389 239.51V239.51Z" fill="#E0E0E0"/>
<path d="M11.0141 235.623C11.6962 235.686 12.3827 235.686 13.0647 235.623C14.3842 235.623 16.2922 235.542 18.6459 235.551C23.3623 235.551 29.8796 235.756 37.0567 236.3C44.2338 236.844 50.7065 237.655 55.3783 238.36C57.7142 238.689 59.5954 239.01 60.8971 239.251C61.5669 239.409 62.251 239.499 62.9388 239.519C62.2935 239.279 61.6282 239.097 60.9506 238.975C59.6578 238.672 57.7855 238.27 55.4586 237.86C50.7957 237.031 44.3051 236.157 37.1102 235.596C30.9687 235.1 24.8059 234.919 18.6459 235.052C16.2743 235.114 14.3664 235.239 13.0469 235.355C12.3628 235.384 11.6825 235.474 11.0141 235.623V235.623Z" fill="#E0E0E0"/>
<path d="M91.3352 293.619C91.454 293.411 91.5468 293.19 91.6115 292.959C91.7988 292.433 92.0127 291.791 92.2802 291.016C92.8508 289.34 93.6176 286.879 94.518 283.83C96.3012 277.731 98.5747 269.226 100.911 259.811C103.246 250.396 105.413 241.873 107.098 235.739C107.918 232.752 108.605 230.309 109.104 228.481C109.327 227.697 109.496 227.037 109.648 226.502C109.724 226.274 109.769 226.038 109.782 225.798C109.668 226.008 109.575 226.229 109.505 226.458C109.327 226.984 109.104 227.626 108.837 228.392C108.266 230.077 107.499 232.538 106.599 235.587C104.816 241.686 102.551 250.191 100.206 259.615C97.8614 269.039 95.7038 277.544 94.0277 283.687C93.1985 286.674 92.5209 289.126 92.0127 290.944L91.4778 292.924C91.3984 293.148 91.3504 293.382 91.3352 293.619Z" fill="#E0E0E0"/>
<path d="M21.3207 279.282C21.545 279.383 21.782 279.452 22.025 279.488L24.0578 279.924L31.5559 281.476C37.8949 282.786 46.6144 284.694 56.2522 286.825C65.89 288.956 74.6451 290.775 81.002 291.961C84.1849 292.549 86.7615 292.995 88.5446 293.271L90.6041 293.574C90.8449 293.621 91.09 293.642 91.3352 293.637C91.111 293.536 90.874 293.467 90.6309 293.432L88.5981 292.986L81.1001 291.443C74.77 290.133 66.0416 288.225 56.4037 286.094C46.7659 283.963 38.0197 282.144 31.6539 280.968C28.48 280.379 25.9033 279.924 24.1113 279.657L22.0518 279.345C21.8124 279.289 21.5661 279.268 21.3207 279.282V279.282Z" fill="#E0E0E0"/>
<path d="M108.587 15.1746L162.134 49.1521L140.255 86.3481L85.3974 50.2487L108.587 15.1746Z" fill="#EBEBEB"/>
<path d="M162.134 49.1521C162.072 49.1794 162.006 49.1974 161.938 49.2056L161.341 49.3215L159.058 49.7405L150.642 51.167L122.683 55.7585H122.486L122.424 55.5713C122.281 55.1701 122.13 54.6798 121.978 54.2875C118.243 43.4995 114.846 33.7815 112.412 26.649C111.226 23.1362 110.254 20.2743 109.568 18.2594C109.247 17.2876 108.997 16.4763 108.819 15.9681C108.739 15.7273 108.685 15.5223 108.632 15.3618C108.622 15.2938 108.622 15.2248 108.632 15.1567C108.665 15.2203 108.695 15.2858 108.721 15.3529L108.953 15.9324C109.149 16.4852 109.434 17.243 109.782 18.197C110.504 20.203 111.52 23.0471 112.768 26.542C115.256 33.6745 118.679 43.3836 122.46 54.1805L122.906 55.4732L122.647 55.3217L150.633 50.8639L159.032 49.6068L161.332 49.2769L161.929 49.2056C161.993 49.1738 162.063 49.1555 162.134 49.1521V49.1521Z" fill="#E0E0E0"/>
<path d="M85.3974 50.2488C85.3974 50.124 92.628 48.2071 101.624 45.9515C110.62 43.6958 117.939 41.984 117.966 42.1088C117.993 42.2336 110.736 44.1594 101.74 46.4062C92.7439 48.6529 85.4241 50.3736 85.3974 50.2488Z" fill="#E0E0E0"/>
<path d="M140.255 86.3481C140.13 86.3481 138.9 79.1264 137.509 70.1751C136.118 61.2238 135.102 53.9487 135.227 53.9308C135.352 53.913 136.582 61.1525 137.973 70.1038C139.364 79.0551 140.38 86.3213 140.255 86.3481Z" fill="#E0E0E0"/>
<path d="M463.724 116.938L514.997 108.601L521.845 143.283L468.609 151.04L463.724 116.938Z" fill="#F5F5F5"/>
<path d="M514.997 108.601C514.886 108.794 514.758 108.976 514.614 109.145L513.446 110.643C512.394 112.016 510.887 113.799 509.104 116.108L494.491 134.145L494.367 134.296L494.197 134.207L493.217 133.663L472.327 121.921L466.015 118.355L464.294 117.366C464.092 117.252 463.898 117.124 463.715 116.982C463.93 117.065 464.138 117.163 464.339 117.276L466.122 118.168L472.505 121.645L493.466 133.235L494.438 133.779L494.144 133.842L508.872 115.886L513.33 110.536C513.847 109.942 514.257 109.46 514.561 109.092C514.694 108.918 514.84 108.754 514.997 108.601V108.601Z" fill="#E0E0E0"/>
<path d="M468.609 151.04C468.502 150.969 471.89 145.824 476.179 139.557C480.467 133.289 484.015 128.252 484.122 128.332C484.229 128.412 480.842 133.539 476.562 139.815C472.283 146.092 468.716 151.111 468.609 151.04Z" fill="#E0E0E0"/>
<path d="M521.845 143.283C521.764 143.382 517.057 139.628 511.333 134.903C505.609 130.177 501.08 126.281 501.125 126.174C501.169 126.067 505.912 129.821 511.636 134.546C517.36 139.271 521.925 143.221 521.845 143.283Z" fill="#E0E0E0"/>
<g opacity="0.4">
<path opacity="0.4" d="M402.785 91.6619C383.01 71.5572 352.706 62.4276 325.112 68.2673C297.518 74.1071 273.508 94.7022 263.55 121.092C257.701 136.615 256.061 154.49 244.952 166.812C230.499 182.86 205.955 183.35 184.379 182.682C162.803 182.013 138.231 182.584 123.851 198.685C114.837 208.76 111.975 223.096 112.706 236.603C114.623 272.346 139.845 304.309 171.924 320.196C204.002 336.084 241.778 337.502 276.888 330.512C326.066 320.705 372.838 293.842 400.949 252.313C429.06 210.784 436.183 154.241 413.689 109.395" fill="#FAFAFA"/>
</g>
<path d="M321.056 74.2583L408.741 50.7567L426.733 109.85L335.543 132.674L321.056 74.2583Z" fill="#98D6FA"/>
<path d="M335.543 132.673C335.428 132.62 340.26 123.535 346.322 112.399C352.385 101.264 357.396 92.2856 357.512 92.3391C357.627 92.3926 352.795 101.478 346.733 112.622C340.67 123.767 335.659 132.736 335.543 132.673Z" fill="#263238"/>
<path d="M426.732 109.85C426.661 109.957 417.817 104.179 407.029 96.9486C396.241 89.718 387.522 83.7713 387.593 83.6643C387.664 83.5573 396.508 89.3257 407.287 96.5652C418.066 103.805 426.804 109.743 426.732 109.85Z" fill="#263238"/>
<path d="M321.056 74.2583C321.156 74.29 321.255 74.3287 321.35 74.3742L322.188 74.7665L325.38 76.3089L337.113 82.0417L375.717 101.121L376.19 101.353L375.887 101.433L399.067 65.5299C402.036 60.974 404.417 57.274 406.12 54.6974L408.054 51.7642L408.571 51.0064C408.625 50.9171 408.688 50.8335 408.759 50.7567C408.715 50.8525 408.665 50.9449 408.607 51.0331L408.135 51.8177L406.271 54.7955L399.344 65.7082L376.261 101.683L376.154 101.861L375.967 101.763L375.494 101.531L336.943 82.3359L325.282 76.4694L322.125 74.8468L321.305 74.4188C321.216 74.3755 321.132 74.3216 321.056 74.2583V74.2583Z" fill="#263238"/>
<path d="M18.5746 99.0261L104.619 107.63L100.741 166.339L11.8077 155.961L18.5746 99.0261Z" fill="#98D6FA"/>
<path d="M11.8078 155.961C11.7186 155.863 19.074 149.399 28.2304 141.518C37.3867 133.636 44.8848 127.324 44.965 127.422C45.0453 127.52 37.6988 133.984 28.5335 141.865C19.3682 149.747 11.888 156.059 11.8078 155.961Z" fill="#263238"/>
<path d="M100.768 166.339C100.67 166.419 94.7499 158.315 87.555 148.214C80.36 138.112 74.6184 129.892 74.7164 129.821C74.8145 129.749 80.7434 137.845 87.9383 147.946C95.1333 158.048 100.848 166.268 100.768 166.339Z" fill="#263238"/>
<path d="M18.5746 99.0261C18.5746 99.0261 18.6548 99.0885 18.7975 99.2312L19.4127 99.8553L21.7486 102.307L30.263 111.365L58.2403 141.366L58.5791 141.732H58.2759L91.0053 117.553L100.946 110.233L103.621 108.281L104.334 107.781C104.41 107.718 104.494 107.664 104.584 107.621C104.584 107.621 104.512 107.692 104.361 107.817L103.674 108.352L101 110.385C98.6459 112.168 95.2937 114.664 91.1925 117.776L58.5434 142.071L58.374 142.196L58.2314 142.044L57.8926 141.679L30.0134 111.579L21.6059 102.423L19.3324 99.9088L18.7529 99.249C18.6876 99.1796 18.628 99.1051 18.5746 99.0261Z" fill="#263238"/>
<path d="M509.871 187.469C509.871 187.469 502.15 182.459 492.931 200.905C483.712 219.352 480.262 229.97 480.262 229.97C480.262 229.97 477.819 233.84 475.153 231.343C472.488 228.847 468.805 221.75 464.33 223.069C459.676 224.442 458.187 229.658 459.141 237.29C460.095 244.922 461.566 261.728 461.691 263.252C461.816 264.777 460.978 266.952 458.891 265.544C456.805 264.135 444.751 250.94 438.831 257.029C432.911 263.118 439.063 283.954 439.723 286.246C440.382 288.537 439.91 289.527 438.831 290.097C437.752 290.668 434.115 285.862 430.531 282.243C426.947 278.623 422.168 275.11 419.047 278.872C415.927 282.635 415.044 298.353 430.174 323.682L437.948 334.961L451.679 334.069C480.957 330.396 492.771 320.054 493.849 315.257C494.928 310.46 489.169 308.874 484.114 308.276C479.058 307.679 473.031 307.786 472.817 306.573C472.604 305.361 473.112 304.407 475.305 303.488C477.498 302.57 497.701 294.573 498.86 286.183C500.019 277.794 482.197 276.376 479.807 275.609C477.418 274.843 478.639 272.819 479.888 271.998C481.136 271.178 495.321 261.977 501.918 258.028C508.516 254.078 511.725 249.7 509.942 245.189C508.23 240.847 500.367 242.318 496.756 241.748C493.145 241.177 494.696 236.88 494.696 236.88C494.696 236.88 500.937 227.616 509.853 209.001C518.769 190.385 509.782 187.362 509.782 187.362" fill="#1490FF"/>
<path d="M501.588 203.972C501.542 204.109 501.488 204.243 501.428 204.373L500.902 205.532L498.842 209.946C497.059 213.779 494.384 219.316 491.121 226.136C484.559 239.777 475.323 258.545 465.061 279.247C454.799 299.949 445.518 318.699 438.876 332.304C435.568 339.089 432.893 344.599 431.03 348.423C430.138 350.305 429.389 351.785 428.89 352.801L428.32 353.933L428.115 354.317C428.161 354.18 428.214 354.046 428.275 353.915L428.801 352.765L430.861 348.307C432.644 344.474 435.318 338.946 438.582 332.126C445.143 318.476 454.38 299.708 464.651 279.006C474.922 258.304 484.185 239.563 490.827 225.958L498.682 209.83L500.822 205.452L501.383 204.32L501.588 203.972Z" fill="#263238"/>
<path d="M469.082 233.215C469.241 233.496 469.364 233.795 469.447 234.107C469.652 234.713 469.92 235.587 470.241 236.684C470.883 238.868 471.694 241.908 472.523 245.278C473.352 248.648 474.048 251.599 474.601 253.917C474.859 254.943 475.073 255.816 475.243 256.53C475.354 256.843 475.42 257.17 475.439 257.502C475.284 257.219 475.161 256.92 475.073 256.61C474.868 256.013 474.601 255.13 474.289 254.033C473.664 251.84 472.898 248.791 472.069 245.421C471.239 242.051 470.499 239.117 469.929 236.799C469.67 235.774 469.447 234.909 469.269 234.196C469.169 233.878 469.106 233.548 469.082 233.215V233.215Z" fill="#263238"/>
<path d="M476.696 257.769C476.696 257.644 482.857 255.7 490.533 253.427C498.209 251.153 504.459 249.406 504.495 249.531C504.531 249.656 498.334 251.599 490.658 253.873C482.981 256.146 476.732 257.894 476.696 257.769Z" fill="#263238"/>
<path d="M459.498 288.849C459.832 288.786 460.174 288.765 460.514 288.787H463.26C465.578 288.787 468.788 288.733 472.318 288.573C475.849 288.412 479.05 288.154 481.359 287.957L484.105 287.726C484.44 287.688 484.777 287.688 485.112 287.726C484.793 287.84 484.46 287.912 484.123 287.94C483.481 288.047 482.553 288.18 481.394 288.323C479.085 288.608 475.885 288.911 472.345 289.072C468.806 289.232 465.578 289.223 463.26 289.152C462.092 289.152 461.156 289.072 460.505 289.027C460.164 289.004 459.826 288.944 459.498 288.849Z" fill="#263238"/>
<path d="M447.729 268.156C447.941 268.385 448.124 268.639 448.273 268.914C448.603 269.413 449.066 270.153 449.619 271.071C450.742 272.899 452.294 275.44 453.925 278.266C455.557 281.093 457.055 283.616 458.107 285.533L459.328 287.761C459.49 288.028 459.622 288.312 459.72 288.608C459.503 288.382 459.317 288.127 459.168 287.851C458.838 287.351 458.383 286.611 457.821 285.702C456.698 283.874 455.147 281.324 453.524 278.498C451.901 275.672 450.386 273.104 449.343 271.232C448.816 270.296 448.397 269.538 448.121 269.003C447.946 268.744 447.813 268.458 447.729 268.156V268.156Z" fill="#263238"/>
<path d="M429.059 293.663C429.32 293.964 429.55 294.289 429.746 294.635L431.529 297.399C432.982 299.735 434.953 302.98 437.11 306.573C439.268 310.166 441.203 313.447 442.576 315.828C443.218 316.969 443.761 317.914 444.189 318.663C444.4 319.003 444.579 319.361 444.724 319.733C444.458 319.432 444.225 319.103 444.029 318.752L442.237 315.997C440.784 313.661 438.804 310.416 436.647 306.814C434.489 303.212 432.563 299.94 431.19 297.56L429.577 294.733C429.368 294.396 429.194 294.037 429.059 293.663V293.663Z" fill="#263238"/>
<path d="M444.484 319.002C444.919 318.919 445.36 318.871 445.803 318.859L449.289 318.708C452.231 318.583 456.288 318.396 460.772 318.066C465.257 317.736 469.296 317.335 472.229 317.031L475.697 316.675C476.118 316.601 476.546 316.574 476.972 316.595C476.564 316.715 476.146 316.801 475.724 316.853C474.904 316.987 473.727 317.165 472.265 317.352C469.34 317.745 465.293 318.199 460.808 318.529C456.324 318.859 452.249 318.993 449.298 319.038C447.827 319.038 446.623 319.038 445.803 319.038C445.363 319.076 444.921 319.064 444.484 319.002V319.002Z" fill="#263238"/>
<path d="M61.5391 309.426C57.2952 310.006 53.515 312.377 50.4213 315.373C48.7808 316.987 47.2295 318.939 46.9442 321.186C46.6589 323.433 48.1478 326.09 50.4391 326.268C51.8197 326.252 53.1498 325.746 54.1926 324.841C56.8673 322.907 59.542 320.33 62.8586 320.437C64.7487 320.499 66.6477 321.471 68.4487 320.892C69.3151 320.552 70.0459 319.936 70.529 319.141C71.0122 318.345 71.221 317.413 71.1234 316.487C70.8667 314.636 69.9093 312.955 68.4487 311.789C67.5565 310.89 66.4688 310.209 65.2703 309.799C64.0718 309.389 62.7949 309.262 61.5391 309.426V309.426Z" fill="#1490FF"/>
<g opacity="0.3">
<path opacity="0.3" d="M61.5391 309.426C57.2952 310.006 53.515 312.377 50.4213 315.373C48.7808 316.987 47.2295 318.939 46.9442 321.186C46.6589 323.433 48.1478 326.09 50.4391 326.268C51.8197 326.252 53.1498 325.746 54.1926 324.841C56.8673 322.907 59.542 320.33 62.8586 320.437C64.7487 320.499 66.6477 321.471 68.4487 320.892C69.3151 320.552 70.0459 319.936 70.529 319.141C71.0122 318.345 71.221 317.413 71.1234 316.487C70.8667 314.636 69.9093 312.955 68.4487 311.789C67.5565 310.89 66.4688 310.209 65.2703 309.799C64.0718 309.389 62.7949 309.262 61.5391 309.426V309.426Z" fill="black"/>
</g>
<path d="M59.025 290.641C59.025 294.698 54.692 296.392 51.8122 295.937C48.9325 295.482 46.5163 293.583 44.2429 291.756C39.054 287.565 33.6689 283.134 31.0477 277C30.1797 275.193 29.828 273.181 30.0313 271.187C30.1483 270.194 30.5224 269.25 31.1166 268.446C31.7108 267.642 32.5045 267.007 33.4193 266.605C35.6393 265.793 38.0821 266.81 40.1417 267.96C46.2179 271.36 51.4573 276.075 55.4766 281.761C57.3488 284.436 58.9893 287.405 59.0428 290.677" fill="#1490FF"/>
<g opacity="0.3">
<path opacity="0.3" d="M59.025 290.641C59.025 294.698 54.692 296.392 51.8122 295.937C48.9325 295.482 46.5163 293.583 44.2429 291.756C39.054 287.565 33.6689 283.134 31.0477 277C30.1797 275.193 29.828 273.181 30.0313 271.187C30.1483 270.194 30.5224 269.25 31.1166 268.446C31.7108 267.642 32.5045 267.007 33.4193 266.605C35.6393 265.793 38.0821 266.81 40.1417 267.96C46.2179 271.36 51.4573 276.075 55.4766 281.761C57.3488 284.436 58.9893 287.405 59.0428 290.677" fill="white"/>
</g>
<path d="M66.9955 290.873C63.2064 289.874 60.2999 286.567 59.0606 282.849C57.9707 279.066 57.9398 275.057 58.9714 271.258C60.0304 266.77 61.9533 262.53 64.6329 258.777C65.6225 257.255 66.9267 255.963 68.4577 254.987C69.2305 254.511 70.1078 254.231 71.0135 254.17C71.9193 254.109 72.8262 254.271 73.6555 254.64C76.036 255.861 76.7047 258.901 76.9989 261.558C77.5142 266.247 77.6602 270.969 77.4357 275.681C77.2574 279.47 76.776 283.419 74.6541 286.558C72.5321 289.696 69.4295 291.684 66.4784 290.757" fill="#1490FF"/>
<path d="M87.9562 331.599C87.5709 331.265 87.2213 330.891 86.9131 330.485L84.2384 327.338C82.9049 325.793 81.4914 324.32 80.0034 322.924C78.1652 321.241 76.1944 319.709 74.1102 318.342C72.0386 316.97 69.7847 315.895 67.4145 315.15C65.4844 314.545 63.444 314.378 61.4411 314.66C60.0947 314.869 58.7893 315.287 57.5717 315.899C57.1453 316.175 56.6911 316.405 56.2165 316.585C56.5984 316.247 57.0136 315.948 57.4558 315.694C58.6661 314.977 59.9945 314.482 61.3787 314.232C63.4455 313.879 65.5656 314.008 67.575 314.606C70.0117 315.336 72.3277 316.421 74.449 317.825C76.5667 319.212 78.5595 320.781 80.4046 322.514C81.8852 323.945 83.2785 325.463 84.5772 327.061C85.6916 328.425 86.5386 329.558 87.127 330.342C87.4477 330.73 87.7257 331.152 87.9562 331.599V331.599Z" fill="#263238"/>
<path d="M85.9056 329.166C85.7391 328.999 85.5924 328.814 85.4687 328.613L84.3186 326.972C83.329 325.546 81.8757 323.486 80.0213 320.999C76.3213 315.997 70.9541 309.275 64.6864 302.151C58.4187 295.028 52.4095 288.867 47.8804 284.605C46.7659 283.527 45.7317 282.573 44.8045 281.752C43.8773 280.932 43.1105 280.201 42.4508 279.639L40.944 278.311C40.7599 278.167 40.5924 278.002 40.4448 277.821C40.6549 277.924 40.8499 278.056 41.0243 278.213L42.6023 279.452C43.2889 279.987 44.1002 280.682 45.0363 281.494C45.9725 282.305 47.0423 283.223 48.1835 284.284C54.1382 289.793 59.7929 295.618 65.1233 301.732C71.3642 308.865 76.7136 315.659 80.3333 320.732C82.1165 323.264 83.5519 325.368 84.488 326.839L85.5401 328.551C85.6846 328.741 85.8072 328.948 85.9056 329.166V329.166Z" fill="#263238"/>
<path d="M76.3302 315.605C75.8916 315.059 75.4952 314.481 75.1444 313.875C74.4312 312.734 73.4683 311.031 72.4073 308.865C71.1844 306.32 70.104 303.71 69.171 301.046C68.0091 297.784 67.0795 294.444 66.3893 291.051C64.9969 284.894 64.7341 278.535 65.6136 272.284C65.7719 271.206 66.0012 270.14 66.3001 269.092C66.416 268.628 66.5052 268.2 66.6389 267.799L67.0312 266.747C67.2401 266.081 67.5056 265.434 67.8247 264.812C67.9852 264.866 66.737 267.612 66.0416 272.346C65.302 278.548 65.6216 284.831 66.9866 290.926C67.6613 294.289 68.5547 297.603 69.6613 300.849C70.5611 303.509 71.5937 306.121 72.755 308.677C73.7536 310.862 74.6541 312.582 75.296 313.759C75.6971 314.341 76.0433 314.959 76.3302 315.605V315.605Z" fill="#263238"/>
<path d="M428.988 121.244H96.8005C89.6263 121.244 83.8104 127.06 83.8104 134.234V345.107C83.8104 352.281 89.6263 358.097 96.8005 358.097H428.988C436.163 358.097 441.978 352.281 441.978 345.107V134.234C441.978 127.06 436.163 121.244 428.988 121.244Z" fill="#263238"/>
<path d="M68.8321 340.577H456.876V345.436C456.876 349.645 455.204 353.682 452.228 356.658C449.252 359.634 445.215 361.306 441.007 361.306H84.7198C82.6357 361.306 80.5721 360.896 78.6466 360.098C76.7212 359.301 74.9718 358.132 73.4981 356.658C72.0245 355.185 70.8555 353.435 70.058 351.51C69.2604 349.584 68.8499 347.521 68.8499 345.436V340.577H68.8321Z" fill="#263238"/>
<path d="M431.36 130.65H93.4214V330.672H431.36V130.65Z" fill="#98D6FA"/>
<path d="M227.584 340.577L232.398 348.236H300.157L304.633 340.577H227.584Z" fill="#98D6FA"/>
<path d="M422.177 137.426H103.3C101.69 137.426 100.385 138.731 100.385 140.341V327.115C100.385 328.725 101.69 330.03 103.3 330.03H422.177C423.787 330.03 425.092 328.725 425.092 327.115V140.341C425.092 138.731 423.787 137.426 422.177 137.426Z" fill="#EBEBEB"/>
<path d="M425.092 151.539H100.385V330.03H425.092V151.539Z" fill="#FAFAFA"/>
<path d="M127.016 144.861C127.016 145.374 126.863 145.876 126.578 146.303C126.293 146.729 125.888 147.062 125.414 147.258C124.94 147.455 124.418 147.506 123.915 147.406C123.412 147.306 122.949 147.059 122.587 146.696C122.224 146.333 121.977 145.871 121.876 145.367C121.776 144.864 121.828 144.343 122.024 143.868C122.22 143.394 122.553 142.989 122.98 142.704C123.406 142.419 123.908 142.267 124.421 142.267C125.109 142.267 125.769 142.54 126.256 143.027C126.742 143.513 127.016 144.173 127.016 144.861V144.861Z" fill="#98D6FA"/>
<path d="M111.297 144.861C111.297 145.374 111.145 145.876 110.86 146.303C110.575 146.729 110.17 147.062 109.696 147.258C109.222 147.455 108.7 147.506 108.197 147.406C107.693 147.306 107.231 147.059 106.868 146.696C106.505 146.333 106.258 145.871 106.158 145.367C106.058 144.864 106.11 144.343 106.306 143.868C106.502 143.394 106.835 142.989 107.261 142.704C107.688 142.419 108.19 142.267 108.703 142.267C109.391 142.267 110.051 142.54 110.537 143.027C111.024 143.513 111.297 144.173 111.297 144.861V144.861Z" fill="#98D6FA"/>
<path d="M118.84 144.861C118.84 145.375 118.688 145.877 118.402 146.304C118.117 146.73 117.711 147.063 117.236 147.259C116.762 147.455 116.24 147.506 115.736 147.405C115.233 147.304 114.77 147.056 114.408 146.693C114.045 146.329 113.799 145.866 113.7 145.362C113.601 144.858 113.653 144.336 113.851 143.862C114.049 143.388 114.383 142.984 114.811 142.7C115.238 142.416 115.741 142.265 116.254 142.267C116.595 142.267 116.932 142.334 117.246 142.465C117.56 142.595 117.846 142.786 118.086 143.027C118.326 143.268 118.516 143.554 118.646 143.869C118.775 144.184 118.841 144.521 118.84 144.861V144.861Z" fill="#98D6FA"/>
<path d="M438.903 340.578C438.903 340.702 359.402 340.809 261.365 340.809C163.329 340.809 83.8283 340.702 83.8283 340.578C83.8283 340.453 163.311 340.346 261.383 340.346C359.455 340.346 438.903 340.453 438.903 340.578Z" fill="#98D6FA"/>
<path d="M164.381 266.649C164.304 264.48 164.378 262.308 164.604 260.149C164.669 257.978 164.895 255.814 165.282 253.677C165.359 255.849 165.285 258.023 165.059 260.185C164.988 262.353 164.761 264.513 164.381 266.649V266.649Z" fill="#FAFAFA"/>
<path d="M392.149 249.317C373.907 221.117 354.971 189.475 354.971 189.475C338.494 169.379 325.183 162.354 299.212 161.266L248.687 161.052C238.755 161.614 215.699 156.496 194.302 187.184L194.204 187.032C194.204 187.032 175.258 218.674 157.026 246.883C136.582 278.507 148.814 311.343 170.658 313.26C192.742 315.194 206.436 315.783 213.774 315.934L213.426 330.092L330.568 329.905L329.374 314.044C341.125 314.044 373.658 313.919 378.463 313.322C400.226 310.674 412.592 280.976 392.149 249.317ZM215.432 243.076L214.701 275.939L194.195 276.001L215.432 243.076ZM331.594 278.355L334.794 247.15L354.971 278.444L331.594 278.355Z" fill="#1490FF"/>
<path d="M297.251 159.786C297.272 160.032 297.272 160.28 297.251 160.526C297.244 161.227 297.193 161.927 297.099 162.621C296.959 163.727 296.748 164.823 296.466 165.902C296.069 167.327 295.562 168.719 294.951 170.066C293.322 173.574 290.92 176.668 287.925 179.115C284.213 182.1 279.663 183.855 274.908 184.135C270.144 184.471 265.403 183.216 261.428 180.568C258.236 178.37 255.65 175.402 253.912 171.938C252.745 169.618 251.971 167.12 251.621 164.547C251.518 163.85 251.461 163.147 251.451 162.443C251.428 162.2 251.428 161.955 251.451 161.712C251.502 161.953 251.531 162.197 251.54 162.443C251.54 162.924 251.656 163.62 251.799 164.52C252.214 167.054 253.027 169.506 254.206 171.786C255.952 175.176 258.517 178.075 261.668 180.221C265.578 182.781 270.22 183.987 274.881 183.653C279.543 183.379 284.006 181.669 287.658 178.758C290.619 176.366 293.007 173.341 294.647 169.905C295.771 167.594 296.537 165.126 296.921 162.586C297.033 161.894 297.111 161.198 297.153 160.499C297.166 160.259 297.198 160.021 297.251 159.786V159.786Z" fill="#263238"/>
<path d="M334.429 251.573C334.295 251.573 334.786 238.074 335.517 221.447C336.248 204.819 336.943 191.365 337.032 191.365C337.121 191.365 336.676 204.863 335.945 221.5C335.214 238.137 334.554 251.581 334.429 251.573Z" fill="#263238"/>
<path d="M217.821 191.365C217.862 191.544 217.88 191.726 217.875 191.909V193.451C217.875 194.789 217.919 196.724 217.875 199.122C217.875 203.918 217.75 210.534 217.411 217.845C217.072 225.156 216.582 231.753 216.145 236.568C215.931 238.957 215.735 240.883 215.575 242.22C215.503 242.844 215.441 243.352 215.387 243.745C215.373 243.925 215.343 244.104 215.298 244.28C215.275 244.099 215.275 243.916 215.298 243.736C215.298 243.334 215.361 242.844 215.396 242.202C215.503 240.802 215.646 238.886 215.815 236.541C216.172 231.771 216.609 225.164 216.948 217.871C217.286 210.578 217.456 203.963 217.554 199.149C217.554 196.795 217.625 194.878 217.652 193.478C217.652 192.845 217.652 192.337 217.697 191.936C217.723 191.743 217.765 191.552 217.821 191.365V191.365Z" fill="#263238"/>
<path d="M325.05 312.876C324.999 312.66 324.969 312.439 324.961 312.217C324.961 311.744 324.854 311.102 324.773 310.282C324.631 308.561 324.426 306.127 324.167 303.078C323.677 296.899 322.999 288.278 322.215 278.355V278.105H322.464L333.983 278.293L366.632 278.89L376.529 279.122L379.203 279.211H379.899C379.979 279.199 380.06 279.199 380.139 279.211C380.06 279.225 379.978 279.225 379.899 279.211H379.203H376.529L366.632 279.122L333.965 278.738L322.437 278.542L322.66 278.301C323.382 288.225 324.007 296.855 324.443 303.042C324.64 306.092 324.809 308.534 324.916 310.255C324.969 311.075 325.005 311.717 325.032 312.19C325.052 312.418 325.058 312.647 325.05 312.876Z" fill="#263238"/>
<path d="M375.673 272.497C375.673 272.578 374.407 272.497 372.392 272.604C369.762 272.753 367.158 273.211 364.635 273.969C362.118 274.749 359.701 275.821 357.431 277.16C355.693 278.195 354.694 278.943 354.65 278.899C354.605 278.854 354.864 278.667 355.301 278.302C355.924 277.788 356.579 277.314 357.262 276.884C359.507 275.434 361.944 274.306 364.502 273.532C367.056 272.755 369.705 272.332 372.374 272.275C373.183 272.259 373.993 272.289 374.799 272.364C375.095 272.371 375.388 272.416 375.673 272.497V272.497Z" fill="#263238"/>
<path d="M220.478 316.184C220.465 316.116 220.465 316.047 220.478 315.979C220.478 315.819 220.478 315.622 220.541 315.382C220.612 314.82 220.71 314.062 220.826 313.081C221.102 311.049 221.495 308.16 221.976 304.576C223.001 297.327 224.41 287.288 226.015 275.93L226.238 276.197L219.997 276.108C207.06 276.019 195.336 276.26 186.848 276.215C182.605 276.215 179.172 276.153 176.801 276.09L174.072 276.001H173.359H173.118C173.198 275.988 173.279 275.988 173.359 276.001H176.801H186.848C195.327 275.957 207.051 275.671 220.006 275.761L226.247 275.85H226.478V276.108C224.82 287.449 223.349 297.506 222.288 304.727C221.744 308.294 221.307 311.191 221.004 313.215C220.844 314.187 220.719 314.945 220.63 315.498C220.63 315.738 220.559 315.934 220.523 316.095C220.487 316.255 220.487 316.184 220.478 316.184Z" fill="#263238"/>
<path d="M193.696 276.349C193.045 275.907 192.447 275.393 191.913 274.815C190.86 273.808 189.461 272.355 188.016 270.661C186.572 268.967 185.342 267.353 184.539 266.149C184.055 265.524 183.645 264.845 183.318 264.126C183.865 264.691 184.363 265.303 184.807 265.953C185.698 267.103 186.938 268.628 188.373 270.366C189.808 272.105 191.155 273.523 192.153 274.584C192.715 275.129 193.231 275.719 193.696 276.349V276.349Z" fill="#263238"/>
<path d="M246.093 200.174C244.732 197.992 243.505 195.729 242.42 193.398C241.197 191.136 240.108 188.805 239.156 186.417C240.517 188.599 241.744 190.862 242.83 193.193C244.056 195.452 245.146 197.783 246.093 200.174V200.174Z" fill="#FAFAFA"/>
<path d="M296.243 199.496C295.72 200.182 295.122 200.807 294.46 201.36C291.426 204.173 288.075 206.624 284.475 208.662C283.747 209.112 282.977 209.488 282.174 209.785C282.849 209.259 283.565 208.788 284.314 208.376C285.643 207.538 287.47 206.344 289.414 204.926C291.357 203.508 293.034 202.135 294.237 201.11C294.87 200.529 295.54 199.99 296.243 199.496V199.496Z" fill="#FAFAFA"/>
<path d="M320.36 195.136C318.54 193.12 316.837 191 315.26 188.788C313.557 186.672 311.977 184.461 310.526 182.164C312.346 184.183 314.052 186.302 315.635 188.512C317.336 190.627 318.914 192.839 320.36 195.136V195.136Z" fill="#FAFAFA"/>
<path d="M318.702 226.475C317.034 227.644 315.282 228.687 313.459 229.595C311.706 230.639 309.876 231.548 307.985 232.315C309.653 231.141 311.408 230.098 313.236 229.194C314.986 228.15 316.813 227.241 318.702 226.475V226.475Z" fill="#FAFAFA"/>
<path d="M353.464 229.069C353.294 226.237 353.276 223.398 353.41 220.564C353.394 217.726 353.531 214.89 353.82 212.067C353.991 214.899 354.009 217.739 353.874 220.573C353.895 223.41 353.758 226.247 353.464 229.069V229.069Z" fill="#FAFAFA"/>
<path d="M367.881 253.391C364.841 253.806 361.782 254.068 358.715 254.176C353.642 254.479 349.532 254.622 349.523 254.497C352.563 254.082 355.622 253.82 358.689 253.712C363.779 253.409 367.872 253.266 367.881 253.391Z" fill="#FAFAFA"/>
<path d="M391.213 271.437C390.786 268.544 390.518 265.63 390.41 262.708C390.141 259.795 390.031 256.869 390.08 253.944C390.496 256.841 390.761 259.757 390.874 262.681C391.138 265.592 391.251 268.514 391.213 271.437V271.437Z" fill="#FAFAFA"/>
<path d="M381.379 294.082C379.326 296.368 377.157 298.546 374.879 300.608C372.717 302.787 370.444 304.852 368.068 306.796C367.979 306.707 370.885 303.782 374.558 300.27C378.232 296.757 381.29 293.993 381.379 294.082Z" fill="#FAFAFA"/>
<path d="M342.578 301.348C341.987 301.207 341.426 300.962 340.92 300.626C338.363 299.196 336.175 297.191 334.527 294.769C334.14 294.296 333.838 293.759 333.636 293.182C334.879 294.783 336.225 296.302 337.665 297.729C339.22 299.044 340.861 300.253 342.578 301.348V301.348Z" fill="#FAFAFA"/>
<path d="M240.744 220.457C238.893 222.355 236.931 224.142 234.868 225.806C232.905 227.581 230.842 229.242 228.69 230.781C230.54 228.883 232.502 227.097 234.565 225.432C236.528 223.657 238.591 221.996 240.744 220.457V220.457Z" fill="#FAFAFA"/>
<path d="M265.422 232.645C263.451 230.391 262.208 227.594 261.856 224.62C261.989 224.62 262.471 226.52 263.46 228.731C264.45 230.942 265.538 232.573 265.422 232.645Z" fill="#FAFAFA"/>
<path d="M222.11 171.011C222.19 171.118 218.873 173.926 214.692 177.252C210.511 180.577 207.069 183.27 206.989 183.172C206.909 183.074 210.225 180.256 214.407 176.931C218.588 173.605 222.021 170.913 222.11 171.011Z" fill="#FAFAFA"/>
<path d="M204.974 217.907C204.84 217.951 203.824 214.974 202.121 211.505C200.418 208.037 198.697 205.407 198.813 205.327C199.303 205.816 199.725 206.368 200.07 206.967C200.981 208.36 201.806 209.807 202.54 211.3C203.273 212.793 203.908 214.333 204.439 215.91C204.703 216.55 204.882 217.221 204.974 217.907V217.907Z" fill="#FAFAFA"/>
<path d="M197.868 237.575C197.169 237.977 196.424 238.291 195.648 238.511C191.95 239.755 188.075 240.393 184.174 240.401C183.367 240.445 182.559 240.388 181.767 240.232C182.561 240.122 183.363 240.068 184.165 240.071C186.094 239.991 188.016 239.803 189.924 239.51C191.823 239.187 193.704 238.764 195.559 238.244C196.31 237.959 197.082 237.736 197.868 237.575V237.575Z" fill="#FAFAFA"/>
<path d="M179.065 287.199C176.585 289.033 174.014 290.741 171.362 292.317C167.038 294.992 163.481 297.158 163.409 297.051C165.887 295.211 168.459 293.5 171.112 291.925C173.682 290.217 176.337 288.64 179.065 287.199V287.199Z" fill="#FAFAFA"/>
<path d="M203.458 305.2C203.342 305.244 201.541 300.573 199.446 294.769C197.351 288.965 195.737 284.221 195.88 284.177C196.023 284.132 197.797 288.804 199.901 294.608C202.005 300.412 203.583 305.155 203.458 305.2Z" fill="#FAFAFA"/>
<path d="M229.715 267.745C228.616 265.914 227.648 264.007 226.817 262.039C225.848 260.133 225.023 258.157 224.348 256.128C225.446 257.962 226.412 259.872 227.236 261.843C228.206 263.747 229.035 265.72 229.715 267.745V267.745Z" fill="#FAFAFA"/>
<path d="M328.928 251.564C328.75 252.256 328.502 252.928 328.188 253.57C327.689 254.791 326.993 256.467 326.271 258.339C325.549 260.212 324.934 261.906 324.488 263.163C324.289 263.85 324.023 264.516 323.695 265.151C323.771 264.439 323.932 263.738 324.176 263.065C324.55 261.79 325.121 260.06 325.852 258.179C326.583 256.298 327.323 254.613 327.903 253.436C328.174 252.776 328.518 252.148 328.928 251.564V251.564Z" fill="#FAFAFA"/>
<path d="M245.567 324.012C244.748 324.066 243.926 324.066 243.106 324.012C241.138 323.988 239.17 324.08 237.213 324.288C235.255 324.502 233.312 324.826 231.391 325.26C230.604 325.486 229.803 325.658 228.993 325.777C229.726 325.399 230.505 325.117 231.311 324.939C233.229 324.407 235.189 324.035 237.168 323.825C239.143 323.612 241.132 323.564 243.115 323.682C243.943 323.69 244.767 323.8 245.567 324.012V324.012Z" fill="#FAFAFA"/>
<path d="M269.603 325.733C269.479 325.804 268.097 323.299 265.796 320.678C263.496 318.056 261.223 316.318 261.339 316.22C261.908 316.484 262.434 316.833 262.899 317.254C264.086 318.191 265.182 319.239 266.171 320.383C267.173 321.523 268.069 322.753 268.846 324.057C269.174 324.578 269.429 325.142 269.603 325.733Z" fill="#FAFAFA"/>
<path d="M296.154 318.725C294.423 320.042 292.599 321.234 290.698 322.291C288.878 323.476 286.977 324.53 285.01 325.448C286.735 324.126 288.556 322.934 290.457 321.881C292.278 320.694 294.182 319.639 296.154 318.725V318.725Z" fill="#FAFAFA"/>
<path d="M324.319 324.485C322.996 324.575 321.668 324.512 320.36 324.297C319.035 324.237 317.721 324.022 316.446 323.655C317.768 323.565 319.097 323.628 320.405 323.843C321.73 323.898 323.045 324.114 324.319 324.485V324.485Z" fill="#FAFAFA"/>
<path d="M290.27 98.9188C290.089 99.6717 290.133 100.461 290.397 101.189C290.66 101.917 291.131 102.552 291.752 103.015C292.372 103.478 293.115 103.749 293.888 103.795C294.661 103.84 295.43 103.657 296.101 103.27C298.633 101.799 298.775 98.1877 298.08 95.3436C297.385 92.4995 296.252 89.486 297.313 86.7578C298.116 84.6716 300.041 83.2718 301.504 81.5868C302.797 80.1188 303.731 78.3707 304.234 76.4802C304.737 74.5897 304.794 72.6083 304.401 70.6919C303.964 68.7855 303.008 67.0371 301.639 65.6399C300.27 64.2428 298.542 63.2512 296.645 62.7748C292.757 61.8832 288.112 63.3721 285.108 60.7598C282.923 58.8697 282.611 55.5888 280.882 53.2796C278.207 49.7134 272.911 49.4102 268.525 50.2661C264.138 51.122 259.698 52.7982 255.303 51.969C251.63 51.2736 248.509 48.911 245.023 47.5112C241.219 46.0398 237.052 45.7907 233.1 46.7984C229.148 47.8062 225.608 50.0208 222.974 53.134C220.339 56.2472 218.741 60.1042 218.401 64.1683C218.06 68.2324 218.995 72.3015 221.076 75.8094C222.479 78.3926 224.749 80.3975 227.486 81.4709" fill="#263238"/>
<path d="M275.514 181.772C269.634 182.266 263.798 180.409 259.286 176.606C254.773 172.804 251.953 167.368 251.442 161.489C250.836 154.499 250.346 148.615 250.346 148.615C250.346 148.615 232.514 147.108 231.043 129.464C229.572 111.82 229.795 73.4025 229.795 73.4025V71.0755C249.615 60.8582 273.535 64.1035 292.115 76.4249L292.338 80.0625L295.896 159.269C295.97 164.901 293.91 170.352 290.129 174.527C286.348 178.702 281.126 181.29 275.514 181.772V181.772Z" fill="#FFBE9D"/>
<path d="M238.452 100.969C238.933 100.764 239.34 100.419 239.621 99.9789C239.903 99.5385 240.044 99.0236 240.028 98.5014C240.011 97.9792 239.838 97.4741 239.53 97.0523C239.221 96.6304 238.793 96.3114 238.301 96.1371C237.722 95.9231 237.082 95.9423 236.517 96.1905C236.034 96.3939 235.623 96.7391 235.34 97.1805C235.057 97.622 234.914 98.1389 234.93 98.6632C234.947 99.1875 235.122 99.6945 235.432 100.117C235.742 100.54 236.174 100.859 236.669 101.032C237.249 101.243 237.888 101.221 238.452 100.969Z" fill="#263238"/>
<path d="M232.113 97.2783C232.407 97.5636 234.048 96.1104 236.482 95.932C238.916 95.7537 240.761 96.8771 241.011 96.5472C241.136 96.3956 240.815 95.8696 240.004 95.3347C238.91 94.6522 237.625 94.3409 236.34 94.4469C235.055 94.5529 233.838 95.0706 232.871 95.9231C232.193 96.574 231.971 97.1535 232.113 97.2783Z" fill="#263238"/>
<path d="M261.41 96.788C260.994 97.0817 260.676 97.4921 260.494 97.9673C260.312 98.4424 260.275 98.9609 260.389 99.4569C260.502 99.9529 260.76 100.404 261.13 100.753C261.5 101.102 261.966 101.333 262.468 101.417C262.969 101.501 263.485 101.435 263.949 101.225C264.412 101.016 264.803 100.673 265.072 100.241C265.341 99.8094 265.475 99.3073 265.458 98.7988C265.441 98.2903 265.273 97.7984 264.976 97.3854C264.579 96.8376 263.983 96.4679 263.315 96.3561C262.648 96.2443 261.964 96.3995 261.41 96.788V96.788Z" fill="#263238"/>
<path d="M258.022 97.6885C258.316 97.9738 259.957 96.5205 262.391 96.3422C264.825 96.1639 266.67 97.2873 266.92 96.9574C267.036 96.8058 266.724 96.2798 265.912 95.7449C264.818 95.0624 263.534 94.7511 262.249 94.8571C260.964 94.9631 259.747 95.4808 258.78 96.3333C258.102 96.9841 257.879 97.5636 258.022 97.6885Z" fill="#263238"/>
<path d="M249.659 118.435C249.659 118.248 248.135 118.061 245.665 117.9C245.032 117.9 244.497 117.775 244.417 117.419C244.344 116.774 244.456 116.122 244.738 115.538L246.316 110.465C248.473 103.234 249.953 97.2962 249.606 97.1981C249.258 97.1001 247.225 102.86 245.059 110.09C244.55 111.873 244.06 113.54 243.588 115.19C243.229 116.036 243.169 116.98 243.418 117.865C243.526 118.091 243.686 118.29 243.884 118.445C244.082 118.599 244.313 118.706 244.559 118.756C244.917 118.827 245.283 118.848 245.647 118.819C248.144 118.756 249.659 118.613 249.659 118.435Z" fill="#263238"/>
<path d="M257.763 120.566C260.188 118.881 251.05 124.756 246.084 124.863C246.084 124.863 249.24 129.205 254.197 126.985C259.35 124.676 257.763 120.566 257.763 120.566Z" fill="white"/>
<path d="M250.328 148.356C250.328 148.356 261.544 148.49 272.884 140.207C272.884 140.207 268.337 153.295 250.595 152.939L250.328 148.356Z" fill="#EB996E"/>
<path d="M292.107 91.8577C292.49 91.7062 305.195 89.9498 304.125 104.982C303.055 120.013 288.219 113.951 288.219 113.523C288.219 113.095 292.107 91.8577 292.107 91.8577Z" fill="#FFBE9D"/>
<path d="M293.203 108.575C293.274 108.575 293.453 108.78 293.881 109.012C294.486 109.316 295.183 109.38 295.833 109.19C297.465 108.726 298.98 106.292 299.248 103.591C299.383 102.306 299.225 101.007 298.784 99.7928C298.677 99.312 298.455 98.8644 298.137 98.4886C297.818 98.1128 297.413 97.8199 296.957 97.6352C296.661 97.5352 296.339 97.542 296.048 97.6543C295.756 97.7667 295.513 97.9776 295.361 98.2504C295.129 98.6516 295.209 98.9637 295.129 98.9815C295.049 98.9993 294.817 98.7051 294.986 98.0899C295.099 97.7265 295.331 97.4121 295.646 97.1984C296.081 96.9172 296.61 96.818 297.117 96.922C297.726 97.086 298.282 97.4045 298.732 97.8465C299.182 98.2885 299.51 98.8391 299.685 99.4451C300.235 100.794 300.446 102.257 300.3 103.707C299.988 106.729 298.232 109.448 296.012 109.948C295.6 110.039 295.174 110.035 294.764 109.936C294.355 109.837 293.973 109.646 293.649 109.377C293.203 108.94 293.15 108.601 293.203 108.575Z" fill="#EB996E"/>
<path d="M268.293 88.1845C267.901 88.7194 265.253 87.391 261.793 87.4267C258.334 87.4623 255.668 88.6481 255.285 88.1043C255.115 87.8546 255.606 87.1325 256.756 86.4192C258.294 85.5437 260.036 85.0885 261.806 85.0994C263.576 85.1104 265.312 85.5871 266.84 86.4816C267.981 87.2127 268.462 87.9438 268.293 88.1845Z" fill="#263238"/>
<path d="M240.619 89.2097C240.476 89.8427 238.586 89.9408 236.366 90.0121C234.146 90.0834 232.247 90.0567 232.069 89.4326C231.89 88.8085 233.745 87.7475 236.304 87.6495C238.862 87.5514 240.744 88.6034 240.619 89.2097Z" fill="#263238"/>
<path d="M226.051 80.8915C226.051 80.8915 236.91 85.6525 250.533 78.2169C259.449 73.3311 270.005 70.7188 272.421 72.4573C274.837 74.1959 275.666 83.5751 284.796 85.9735C284.796 85.9735 284.796 103.903 291.928 103.002C299.061 102.102 293.551 74.5258 293.551 74.5258L276.772 63.3634L257.576 60.4658L236.633 63.5863L224.954 71.2805L226.051 80.8915Z" fill="#263238"/>
<path d="M294.3 59.485C292.953 59.5932 291.629 59.8934 290.368 60.3765C289.163 60.9853 288.05 61.7595 287.06 62.6768C287.016 62.6768 287.23 62.2221 287.747 61.6604C288.437 60.9323 289.266 60.3498 290.184 59.9471C291.103 59.5444 292.093 59.3296 293.096 59.3156C293.845 59.2977 294.309 59.4136 294.3 59.485Z" fill="#263238"/>
<path d="M286.686 52.718C286.905 53.2272 287.038 53.7697 287.078 54.3228C287.292 55.64 287.343 56.9785 287.23 58.3081C287.119 59.6445 286.775 60.9512 286.213 62.1686C286.012 62.6898 285.709 63.1657 285.322 63.5684C285.476 63.0452 285.673 62.5353 285.91 62.0438C286.376 60.8296 286.676 59.5581 286.802 58.2635C286.915 56.9643 286.915 55.6577 286.802 54.3585C286.702 53.8176 286.664 53.2674 286.686 52.718Z" fill="#263238"/>
<path d="M285.981 60.3855C285.951 60.5449 285.912 60.7026 285.866 60.858C285.737 61.3228 285.57 61.7761 285.366 62.2132C284.684 63.669 283.692 64.9585 282.46 65.9917C281.229 67.025 279.786 67.7771 278.234 68.1956C276.675 68.6156 275.037 68.6463 273.464 68.2848C271.652 67.8732 269.97 67.0185 268.569 65.7973C266.983 64.4387 265.838 62.6384 265.279 60.6262C264.977 59.5385 264.91 58.3986 265.083 57.2829C265.266 56.1009 265.826 55.0096 266.679 54.1713C267.118 53.7272 267.644 53.3779 268.224 53.1448C268.803 52.9117 269.425 52.7999 270.049 52.8161C270.7 52.8644 271.331 53.0615 271.894 53.3923C272.457 53.7231 272.936 54.1788 273.294 54.7241C274.066 55.8205 274.437 57.1488 274.347 58.4865C274.192 59.8507 273.672 61.1477 272.84 62.24C271.075 64.4481 268.728 66.1188 266.064 67.0633C263.299 68.1075 260.332 68.5069 257.389 68.2313C254.312 67.9484 251.357 66.8868 248.803 65.1465C247.479 64.2471 246.373 63.0619 245.567 61.6783C245.166 60.9649 244.894 60.1862 244.764 59.378C244.65 58.5573 244.692 57.7222 244.889 56.9173C245.1 56.1061 245.477 55.3472 245.995 54.6884C246.533 54.0239 247.246 53.5236 248.054 53.2441C248.878 53.0205 249.741 52.9845 250.581 53.1388C251.42 53.2931 252.214 53.6338 252.904 54.1356C254.292 55.1023 255.351 56.4715 255.936 58.0585C256.522 59.607 256.703 61.2795 256.462 62.9175C256.165 64.5042 255.52 66.0051 254.571 67.3112C253.623 68.6174 252.396 69.6961 250.979 70.4691C248.262 71.9636 245.12 72.4946 242.063 71.9758C239.121 71.5664 236.346 70.361 234.039 68.4898C232.935 67.5638 232.052 66.4033 231.453 65.093C230.88 63.8007 230.668 62.3773 230.838 60.9739C231.011 59.6058 231.661 58.3427 232.675 57.4077C233.165 56.9466 233.747 56.5958 234.384 56.379C235.021 56.1621 235.697 56.0842 236.366 56.1506C237.007 56.2586 237.619 56.5001 238.161 56.8595C238.703 57.2189 239.164 57.6881 239.513 58.2368C240.191 59.2965 240.504 60.5489 240.405 61.8031C240.321 62.9581 239.967 64.0773 239.37 65.0701C238.774 66.0629 237.952 66.9014 236.972 67.518C235.161 68.5678 233.063 69.0173 230.981 68.8019C229.138 68.635 227.351 68.0789 225.738 67.1703C222.707 65.4852 220.915 62.7125 220.728 60.2607C220.611 59.3225 220.681 58.3704 220.935 57.4597C221.189 56.549 221.622 55.6979 222.208 54.9559C222.511 54.5816 222.865 54.2515 223.26 53.9752L223.679 53.7166C223.152 54.0808 222.681 54.5193 222.279 55.0183C221.161 56.4923 220.659 58.3433 220.879 60.1804C221.093 62.552 222.859 65.2534 225.837 66.885C227.419 67.7611 229.169 68.2928 230.972 68.4452C232.993 68.6404 235.023 68.1943 236.776 67.1703C237.706 66.5797 238.484 65.7791 239.047 64.833C239.611 63.8868 239.945 62.8215 240.021 61.7228C240.091 60.5528 239.778 59.3918 239.13 58.4151C238.814 57.9183 238.398 57.4928 237.908 57.1658C237.418 56.8388 236.866 56.6175 236.286 56.5161C235.672 56.458 235.052 56.5322 234.47 56.7337C233.887 56.9352 233.354 57.2592 232.907 57.6841C231.955 58.56 231.354 59.7509 231.213 61.0363C231.052 62.3644 231.255 63.7112 231.801 64.9325C232.372 66.1848 233.219 67.2913 234.28 68.1689C236.529 69.9817 239.228 71.1496 242.09 71.5479C245.061 72.0507 248.114 71.5354 250.756 70.0857C252.112 69.3443 253.286 68.3111 254.194 67.0607C255.102 65.8103 255.721 64.3739 256.007 62.8551C256.238 61.2954 256.066 59.7024 255.508 58.2279C254.948 56.7348 253.95 55.4453 252.646 54.5279C252.016 54.0577 251.289 53.7337 250.517 53.5795C249.746 53.4253 248.951 53.4447 248.188 53.6364C247.464 53.8954 246.828 54.3526 246.351 54.9559C245.872 55.56 245.525 56.2589 245.335 57.0065C245.154 57.7503 245.115 58.5216 245.219 59.28C245.343 60.034 245.596 60.7609 245.968 61.4286C246.737 62.7524 247.795 63.8859 249.062 64.7453C251.552 66.4442 254.432 67.4841 257.434 67.7677C260.309 68.0415 263.209 67.6542 265.912 66.6354C268.501 65.7226 270.785 64.1082 272.51 61.9725C273.309 60.9394 273.806 59.7049 273.945 58.4062C274.027 57.18 273.687 55.9627 272.982 54.9559C272.658 54.4544 272.224 54.0333 271.712 53.7244C271.201 53.4155 270.626 53.2269 270.031 53.1727C269.457 53.1598 268.885 53.2638 268.352 53.4783C267.819 53.6929 267.334 54.0136 266.929 54.4209C266.124 55.2041 265.596 56.2271 265.422 57.3364C265.254 58.4034 265.312 59.4937 265.591 60.5371C266.128 62.4906 267.233 64.2407 268.765 65.5655C270.123 66.7627 271.755 67.605 273.517 68.0173C275.045 68.4026 276.644 68.4026 278.171 68.0173C279.454 67.6934 280.664 67.1308 281.738 66.359C283.254 65.2967 284.48 63.8713 285.304 62.2132C285.515 61.7842 285.693 61.3402 285.839 60.8848C285.919 60.5371 285.981 60.3855 285.981 60.3855Z" fill="#98D6FA"/>
<path d="M303.465 78.0027C303.465 78.0027 303.465 78.0562 303.349 78.1364C303.233 78.2167 303.144 78.3326 302.957 78.4663C302.43 78.8623 301.851 79.1833 301.236 79.4203C300.259 79.7975 299.216 79.9734 298.169 79.9374C296.768 79.898 295.408 79.4519 294.255 78.6536C292.85 77.682 291.799 76.2802 291.26 74.6593C290.919 73.7573 290.844 72.7762 291.046 71.8331C291.152 71.3112 291.436 70.8421 291.848 70.5047C292.076 70.3321 292.345 70.223 292.628 70.1885C292.912 70.1541 293.199 70.1955 293.462 70.3085C293.969 70.5559 294.37 70.9766 294.594 71.4943C294.837 71.9923 294.97 72.5364 294.986 73.0902C294.986 74.8177 294.366 76.4877 293.239 77.7967C292.111 79.1056 290.552 79.9665 288.843 80.2227C287.684 80.3847 286.502 80.2588 285.403 79.8561C284.304 79.4533 283.321 78.7862 282.54 77.9136C282.165 77.4858 281.89 76.9796 281.736 76.432C281.582 75.8844 281.552 75.3092 281.648 74.7485C281.732 74.1935 281.987 73.6787 282.38 73.2771C282.772 72.8755 283.28 72.6074 283.833 72.5107C284.357 72.4471 284.888 72.5186 285.377 72.7183C285.865 72.9181 286.294 73.2395 286.623 73.6519C287.215 74.4165 287.53 75.3597 287.515 76.3266C287.49 77.1907 287.274 78.0385 286.882 78.8092C286.491 79.58 285.933 80.2545 285.25 80.7844C284.151 81.6798 282.751 82.1229 281.336 82.0237C280.285 81.9356 279.274 81.5762 278.403 80.9805C277.857 80.6076 277.383 80.1395 277.003 79.5986C276.865 79.4149 276.751 79.2141 276.665 79.0013C277.16 79.7054 277.783 80.3103 278.501 80.7844C279.356 81.3372 280.338 81.6597 281.354 81.7205C282.697 81.7858 284.014 81.3433 285.045 80.4813C285.666 79.9821 286.171 79.3549 286.526 78.6424C286.882 77.9299 287.079 77.1491 287.105 76.3533C287.13 75.4692 286.85 74.6034 286.311 73.9015C286.027 73.5469 285.656 73.2707 285.235 73.0991C284.814 72.9275 284.356 72.8661 283.904 72.9208C283.446 73.0146 283.028 73.2486 282.708 73.5905C282.389 73.9323 282.184 74.3651 282.121 74.8287C282.046 75.3276 282.083 75.8369 282.23 76.3196C282.376 76.8023 282.628 77.2463 282.968 77.6193C283.698 78.431 284.617 79.0507 285.643 79.4238C286.669 79.797 287.771 79.9121 288.852 79.7591C290.453 79.5163 291.913 78.7085 292.97 77.4819C294.026 76.2554 294.609 74.6912 294.612 73.0724C294.627 72.5992 294.52 72.1301 294.301 71.7102C294.082 71.2902 293.76 70.9334 293.364 70.6741C293.17 70.5881 292.957 70.5561 292.747 70.5812C292.536 70.6063 292.337 70.6876 292.169 70.8167C291.834 71.0991 291.602 71.4848 291.509 71.9133C291.32 72.7811 291.385 73.6849 291.696 74.5167C292.202 76.0651 293.189 77.4115 294.514 78.3593C295.609 79.1394 296.906 79.5881 298.249 79.6521C299.266 79.7063 300.284 79.561 301.245 79.2242C302.037 78.9185 302.783 78.5077 303.465 78.0027V78.0027Z" fill="#98D6FA"/>
<path d="M237.391 257.145L312.354 258.437L313.201 309.444L235.608 306.822L237.391 257.145Z" fill="#98D6FA"/>
<path d="M237.391 257.145L276.192 227.286L312.354 258.437" fill="#263238"/>
<path d="M235.608 306.823C235.51 306.734 241.68 300.332 249.365 292.558C257.05 284.783 263.362 278.489 263.452 278.578C263.541 278.667 257.389 285.069 249.695 292.888C242.001 300.707 235.697 306.912 235.608 306.823Z" fill="#263238"/>
<path d="M313.201 309.444C313.103 309.524 307.415 302.962 300.496 294.787C293.578 286.611 288.059 279.915 288.157 279.835C288.255 279.755 293.934 286.308 300.853 294.492C307.771 302.677 313.299 309.364 313.201 309.444Z" fill="#263238"/>
<path d="M312.354 258.437L273.981 287.583L237.391 257.145" fill="#263238"/>
<path d="M241.1 260.024L241.519 238.217H307.21L307.334 262.093L273.99 287.19L241.1 260.024Z" fill="#EBEBEB"/>
<path d="M236.731 275.511C236.731 275.511 235.608 286.843 238.354 286.789C243.151 286.709 261.535 281.984 262.828 285.523C264.12 289.063 258.129 292.379 258.129 292.379C258.129 292.379 263.995 293.485 261.107 296.543C258.218 299.601 248.366 314.668 242.027 314.98C232.916 315.426 221.174 312.35 221.174 312.35L225.97 279.148L236.731 275.511Z" fill="#FFBE9D"/>
<path d="M260.358 290.703C260.118 290.916 259.854 291.101 259.573 291.256C259.056 291.595 258.289 292.041 257.327 292.567C252.275 295.296 246.831 297.227 241.189 298.291C240.11 298.496 239.228 298.629 238.622 298.692C238.307 298.75 237.987 298.771 237.668 298.754C237.668 298.683 238.996 298.451 241.127 297.97C246.686 296.724 252.075 294.811 257.175 292.273C259.136 291.31 260.358 290.641 260.358 290.703Z" fill="#EB996E"/>
<path d="M259.85 298.701C259.667 298.959 259.451 299.193 259.208 299.396C258.582 299.999 257.924 300.567 257.237 301.099C252.688 304.645 247.297 306.949 241.59 307.786C240.734 307.918 239.871 308.001 239.005 308.035C238.688 308.074 238.368 308.074 238.051 308.035C238.051 307.955 239.397 307.857 241.537 307.474C247.14 306.467 252.441 304.202 257.041 300.849C258.798 299.557 259.796 298.638 259.85 298.701Z" fill="#EB996E"/>
<path d="M312.63 275.252C312.63 275.252 313.656 284.712 310.063 285.951C305.533 287.547 286.882 281.146 285.58 284.676C284.279 288.207 290.288 291.541 290.288 291.541C290.288 291.541 284.412 292.647 287.301 295.705C290.19 298.763 300.041 313.821 306.38 314.133C312.631 314.327 318.885 313.897 325.05 312.85L322.437 278.31L312.63 275.252Z" fill="#FFBE9D"/>
<path d="M288.059 289.892C288.059 289.829 289.28 290.489 291.233 291.461C296.333 293.999 301.722 295.912 307.281 297.158C309.421 297.639 310.758 297.862 310.74 297.942C310.421 297.959 310.101 297.938 309.786 297.88C309.18 297.809 308.297 297.675 307.218 297.479C301.579 296.404 296.137 294.474 291.081 291.755C290.118 291.229 289.352 290.783 288.834 290.444C288.553 290.295 288.292 290.109 288.059 289.892Z" fill="#EB996E"/>
<path d="M289.084 297.889C289.138 297.827 290.118 298.718 291.83 299.993C294.048 301.653 296.439 303.067 298.963 304.21C301.505 305.334 304.172 306.154 306.906 306.653C309.011 307.036 310.33 307.126 310.33 307.206C310.034 307.243 309.734 307.243 309.438 307.206C308.587 307.175 307.739 307.095 306.898 306.965C304.112 306.549 301.395 305.761 298.82 304.62C296.253 303.469 293.841 301.998 291.643 300.243C290.805 299.556 290.154 298.986 289.726 298.558C289.486 298.361 289.271 298.136 289.084 297.889V297.889Z" fill="#EB996E"/>
<path d="M125.304 231.887C122.733 232.196 120.135 232.196 117.565 231.887C120.135 231.578 122.733 231.578 125.304 231.887V231.887Z" fill="#98D6FA"/>
<path d="M129.414 219.583C129.723 222.633 129.723 225.707 129.414 228.757C129.105 225.707 129.105 222.633 129.414 219.583V219.583Z" fill="#98D6FA"/>
<path d="M133.756 231.593C136.326 231.284 138.924 231.284 141.495 231.593C138.924 231.902 136.326 231.902 133.756 231.593Z" fill="#98D6FA"/>
<path d="M129.681 243.896C129.372 240.843 129.372 237.766 129.681 234.713C129.991 237.766 129.991 240.843 129.681 243.896V243.896Z" fill="#98D6FA"/>
<path d="M135.94 238.618C135.833 238.689 135.129 237.887 134.371 236.835C133.847 236.231 133.445 235.532 133.185 234.775C133.292 234.704 133.988 235.498 134.754 236.559C135.276 237.164 135.679 237.863 135.94 238.618V238.618Z" fill="#98D6FA"/>
<path d="M135.539 224.665C135.637 224.745 135.075 225.557 134.291 226.502C133.506 227.447 132.784 228.116 132.686 228.035C132.588 227.955 133.15 227.144 133.934 226.199C134.719 225.254 135.477 224.585 135.539 224.665Z" fill="#98D6FA"/>
<path d="M126.704 228.223C126.614 228.312 125.937 227.795 125.179 227.063C124.421 226.332 123.895 225.664 123.984 225.575C124.073 225.485 124.76 226.003 125.509 226.734C126.258 227.465 126.793 228.124 126.704 228.223Z" fill="#98D6FA"/>
<path d="M126.356 234.366C126.454 234.446 125.963 235.257 125.241 236.149C124.519 237.04 123.868 237.745 123.761 237.664C124.007 237 124.386 236.393 124.876 235.881C125.589 234.972 126.258 234.285 126.356 234.366Z" fill="#98D6FA"/>
<path d="M376.475 188.191C374.765 188.501 373.014 188.501 371.304 188.191C373.014 187.882 374.765 187.882 376.475 188.191V188.191Z" fill="#98D6FA"/>
<path d="M379.23 181.148C379.539 182.885 379.539 184.662 379.23 186.399C378.921 184.662 378.921 182.885 379.23 181.148Z" fill="#98D6FA"/>
<path d="M382.154 188.022C383.867 187.713 385.621 187.713 387.334 188.022C385.621 188.331 383.867 188.331 382.154 188.022V188.022Z" fill="#98D6FA"/>
<path d="M379.408 195.056C379.099 193.32 379.099 191.542 379.408 189.805C379.717 191.542 379.717 193.32 379.408 195.056V195.056Z" fill="#98D6FA"/>
<path d="M383.59 192.043C383.492 192.123 383.001 191.695 382.493 191.089C381.985 190.483 381.655 189.921 381.753 189.841C381.851 189.76 382.342 190.179 382.85 190.786C383.358 191.392 383.688 191.963 383.59 192.043Z" fill="#98D6FA"/>
<path d="M383.394 184.054C383.483 184.144 383.126 184.652 382.6 185.187C382.074 185.722 381.575 186.078 381.486 185.98C381.397 185.882 381.744 185.392 382.27 184.857C382.796 184.322 383.26 183.965 383.394 184.054Z" fill="#98D6FA"/>
<path d="M377.411 186.087C377.331 186.185 376.858 185.927 376.359 185.517C375.86 185.107 375.512 184.679 375.592 184.581C375.673 184.483 376.154 184.741 376.653 185.151C377.153 185.561 377.5 186.016 377.411 186.087Z" fill="#98D6FA"/>
<path d="M377.153 189.582C377.251 189.671 376.939 190.162 376.457 190.688C375.976 191.214 375.512 191.579 375.423 191.49C375.334 191.401 375.637 190.902 376.119 190.376C376.6 189.85 377.09 189.52 377.153 189.582Z" fill="#98D6FA"/>
<path d="M413.038 182.173L413.288 182.789C413.737 183.853 414.59 184.696 415.659 185.133L416.319 185.401L415.686 185.659C415.148 185.877 414.659 186.201 414.249 186.612C413.838 187.022 413.515 187.511 413.297 188.049L413.119 188.495L412.851 187.933C412.36 186.917 411.494 186.13 410.435 185.74L409.855 185.535L410.613 185.169C411.564 184.709 412.312 183.916 412.717 182.94L413.038 182.173Z" fill="#98D6FA"/>
<path d="M164.265 193.398L164.515 194.004C164.734 194.532 165.056 195.011 165.461 195.413C165.867 195.816 166.348 196.134 166.877 196.349L167.546 196.617L166.904 196.875C166.368 197.095 165.882 197.42 165.473 197.83C165.064 198.24 164.741 198.728 164.524 199.265L164.345 199.71L164.078 199.149C163.59 198.132 162.722 197.348 161.662 196.964L161.082 196.75L161.84 196.385C162.787 195.919 163.534 195.128 163.944 194.156L164.265 193.398Z" fill="#98D6FA"/>
<path d="M132.695 278.667L132.82 278.97C133.044 279.504 133.47 279.927 134.005 280.147L134.335 280.281L134.014 280.406C133.746 280.516 133.502 280.678 133.297 280.883C133.092 281.088 132.93 281.332 132.82 281.601L132.731 281.823L132.597 281.547C132.353 281.039 131.922 280.646 131.393 280.45L131.099 280.343L131.482 280.165C131.955 279.931 132.328 279.536 132.534 279.051L132.695 278.667Z" fill="#98D6FA"/>
<path d="M348.837 155.774L349.086 156.38C349.306 156.908 349.628 157.386 350.033 157.789C350.439 158.191 350.92 158.51 351.449 158.725L352.118 158.992L351.476 159.251C350.94 159.471 350.453 159.795 350.045 160.206C349.636 160.616 349.313 161.104 349.095 161.64L348.917 162.086L348.65 161.524C348.161 160.508 347.294 159.724 346.233 159.34L345.654 159.126L346.412 158.761C347.36 158.297 348.108 157.505 348.516 156.532L348.837 155.774Z" fill="#98D6FA"/>
</svg>
