<svg width="200" height="200" viewBox="0 0 200 200" fill="none" xmlns="http://www.w3.org/2000/svg">
<path d="M162.72 149.38C168.513 149.38 173.21 147.244 173.21 144.61C173.21 141.976 168.513 139.84 162.72 139.84C156.926 139.84 152.23 141.976 152.23 144.61C152.23 147.244 156.926 149.38 162.72 149.38Z" stroke="#27B1FF" stroke-width="0.52" stroke-linecap="round" stroke-linejoin="round"/>
<path d="M162.72 164.23C168.513 164.23 173.21 162.094 173.21 159.46C173.21 156.826 168.513 154.69 162.72 154.69C156.926 154.69 152.23 156.826 152.23 159.46C152.23 162.094 156.926 164.23 162.72 164.23Z" stroke="#27B1FF" stroke-width="0.52" stroke-linecap="round" stroke-linejoin="round"/>
<path d="M162.72 181.69C168.513 181.69 173.21 179.554 173.21 176.92C173.21 174.286 168.513 172.15 162.72 172.15C156.926 172.15 152.23 174.286 152.23 176.92C152.23 179.554 156.926 181.69 162.72 181.69Z" stroke="#27B1FF" stroke-width="0.52" stroke-linecap="round" stroke-linejoin="round"/>
<path d="M152.23 145.03V176.51" stroke="#27B1FF" stroke-width="0.52" stroke-linecap="round" stroke-linejoin="round"/>
<path d="M173.22 145.03V176.51" stroke="#27B1FF" stroke-width="0.52" stroke-linecap="round" stroke-linejoin="round"/>
<path d="M162.72 176.51V145.03" stroke="#27B1FF" stroke-width="0.52" stroke-linecap="round" stroke-linejoin="round" stroke-dasharray="3 3"/>
<path d="M152.23 164.91L162.39 154.75" stroke="#27B1FF" stroke-width="0.52" stroke-linecap="round" stroke-linejoin="round"/>
<path d="M152.25 161.39L158.56 155.08" stroke="#27B1FF" stroke-width="0.52" stroke-linecap="round" stroke-linejoin="round"/>
<path d="M165.1 154.81L152.35 167.56" stroke="#27B1FF" stroke-width="0.52" stroke-linecap="round" stroke-linejoin="round"/>
<path d="M168.18 155.38L152.28 171.28" stroke="#27B1FF" stroke-width="0.52" stroke-linecap="round" stroke-linejoin="round"/>
<path d="M152.23 174L169.95 156.28" stroke="#27B1FF" stroke-width="0.52" stroke-linecap="round" stroke-linejoin="round"/>
<path d="M152.23 177.27L172.14 157.36" stroke="#27B1FF" stroke-width="0.52" stroke-linecap="round" stroke-linejoin="round"/>
<path d="M153.15 178.88L173.23 158.8" stroke="#27B1FF" stroke-width="0.52" stroke-linecap="round" stroke-linejoin="round"/>
<path d="M154.6 179.94L173.13 161.42" stroke="#27B1FF" stroke-width="0.52" stroke-linecap="round" stroke-linejoin="round"/>
<path d="M156.33 180.71L173.16 163.88" stroke="#27B1FF" stroke-width="0.52" stroke-linecap="round" stroke-linejoin="round"/>
<path d="M158.22 181.23L173.15 166.3" stroke="#27B1FF" stroke-width="0.52" stroke-linecap="round" stroke-linejoin="round"/>
<path d="M160.17 181.55L172.95 168.76" stroke="#27B1FF" stroke-width="0.52" stroke-linecap="round" stroke-linejoin="round"/>
<path d="M162.11 181.68L173.01 170.78" stroke="#27B1FF" stroke-width="0.52" stroke-linecap="round" stroke-linejoin="round"/>
<path d="M165.39 181.54L173.22 173.71" stroke="#27B1FF" stroke-width="0.52" stroke-linecap="round" stroke-linejoin="round"/>
<path d="M168.76 180.82L173.15 176.44" stroke="#27B1FF" stroke-width="0.52" stroke-linecap="round" stroke-linejoin="round"/>
<path d="M140 100C140.015 109.796 136.629 119.293 130.42 126.87C128.76 128.87 142.15 137.54 145.02 138.26C139.28 141.84 120.51 135.84 118.07 137.19C109.914 141.7 100.502 143.403 91.2829 142.037C82.0639 140.671 73.5497 136.312 67.0517 129.631C60.5537 122.951 56.4324 114.319 55.3225 105.066C54.2126 95.8124 56.1758 86.4509 60.9096 78.4231C65.6434 70.3952 72.8852 64.1464 81.5197 60.6391C90.1541 57.1319 99.7022 56.5607 108.693 59.0135C117.684 61.4664 125.619 66.8073 131.276 74.2135C136.934 81.6197 139.999 90.6804 140 100V100Z" fill="#F1F5F9"/>
<path d="M115.54 84.16H82.54C81.7205 84.16 80.9345 84.4855 80.3551 85.065C79.7756 85.6445 79.45 86.4305 79.45 87.25C79.45 88.0695 79.7756 88.8554 80.3551 89.4349C80.9345 90.0144 81.7205 90.34 82.54 90.34H91.07C89.98 100.27 87.67 107.8 80.91 115.34C80.363 115.949 80.08 116.75 80.1232 117.568C80.1663 118.385 80.532 119.152 81.14 119.7C81.7024 120.221 82.4431 120.508 83.21 120.5C83.6402 120.501 84.066 120.413 84.4602 120.241C84.8545 120.069 85.2086 119.816 85.5 119.5C93.5 110.66 96.11 101.66 97.29 90.4H101.21C99.96 96.91 99.05 104.86 99.67 110.92C100.67 120.37 106.6 121.16 112.12 121.16C112.54 121.184 112.96 121.122 113.355 120.978C113.75 120.833 114.112 120.61 114.418 120.321C114.723 120.032 114.967 119.684 115.133 119.298C115.3 118.912 115.386 118.496 115.386 118.075C115.386 117.654 115.3 117.238 115.133 116.852C114.967 116.466 114.723 116.118 114.418 115.829C114.112 115.54 113.75 115.317 113.355 115.172C112.96 115.028 112.54 114.966 112.12 114.99C107.05 114.99 106.23 114.37 105.81 110.29C105.23 104.52 106.23 96.63 107.51 90.4H115.51C116.33 90.4 117.115 90.0744 117.695 89.4949C118.274 88.9154 118.6 88.1295 118.6 87.31C118.6 86.4904 118.274 85.7045 117.695 85.125C117.115 84.5455 116.33 84.22 115.51 84.22L115.54 84.16Z" fill="#06A5FF"/>
<path d="M110.45 166.88L109.68 165.47H109.46V166.88H108.55V163.14H110.08C110.339 163.132 110.597 163.187 110.83 163.3C111.025 163.39 111.189 163.536 111.3 163.72C111.401 163.904 111.453 164.11 111.45 164.32C111.454 164.557 111.381 164.789 111.24 164.98C111.088 165.187 110.869 165.335 110.62 165.4L111.48 166.88H110.45ZM109.45 164.82H110C110.068 164.826 110.137 164.818 110.202 164.798C110.267 164.777 110.328 164.744 110.38 164.7C110.421 164.654 110.453 164.6 110.474 164.542C110.494 164.484 110.503 164.422 110.5 164.36C110.505 164.298 110.496 164.236 110.476 164.177C110.455 164.119 110.422 164.065 110.38 164.02C110.328 163.976 110.267 163.943 110.202 163.922C110.137 163.902 110.068 163.894 110 163.9H109.44L109.45 164.82Z" fill="#27B1FF"/>
<path d="M114.48 168.84L101.57 166.4" stroke="#27B1FF" stroke-width="0.5" stroke-miterlimit="10"/>
<path d="M114.48 182.02C121.759 182.02 127.66 176.119 127.66 168.84C127.66 161.561 121.759 155.66 114.48 155.66C107.201 155.66 101.3 161.561 101.3 168.84C101.3 176.119 107.201 182.02 114.48 182.02Z" stroke="#27B1FF" stroke-width="0.5" stroke-miterlimit="10"/>
<path d="M157.8 100.88C157.95 100.545 158.197 100.263 158.51 100.07C158.81 99.8816 159.156 99.7811 159.51 99.78C159.802 99.775 160.091 99.8438 160.35 99.98C160.578 100.098 160.771 100.274 160.91 100.49V99.85H162.29V104.36H160.91V103.73C160.765 103.944 160.569 104.12 160.34 104.24C160.082 104.368 159.798 104.434 159.51 104.43C159.156 104.429 158.81 104.328 158.51 104.14C158.199 103.941 157.952 103.656 157.8 103.32C157.614 102.941 157.521 102.522 157.53 102.1C157.52 101.677 157.612 101.259 157.8 100.88ZM160.63 101.29C160.541 101.193 160.433 101.116 160.312 101.064C160.192 101.012 160.061 100.987 159.93 100.99C159.668 100.991 159.416 101.095 159.23 101.28C159.029 101.504 158.924 101.799 158.94 102.1C158.927 102.401 159.031 102.695 159.23 102.92C159.417 103.103 159.668 103.206 159.93 103.206C160.192 103.206 160.443 103.103 160.63 102.92C160.818 102.69 160.92 102.402 160.92 102.105C160.92 101.808 160.818 101.52 160.63 101.29Z" fill="#27B1FF"/>
<path d="M159.75 113.1C160.009 112.964 160.298 112.895 160.59 112.9C160.944 112.899 161.291 113 161.59 113.19C161.898 113.388 162.144 113.668 162.3 114C162.487 114.379 162.58 114.797 162.57 115.22C162.578 115.646 162.485 116.067 162.3 116.45C162.144 116.782 161.898 117.062 161.59 117.26C161.291 117.45 160.944 117.55 160.59 117.55C160.298 117.558 160.01 117.493 159.75 117.36C159.524 117.239 159.331 117.064 159.19 116.85V117.49H157.81V111.49H159.19V113.61C159.328 113.394 159.522 113.218 159.75 113.1ZM160.88 114.41C160.693 114.224 160.439 114.119 160.175 114.119C159.911 114.119 159.657 114.224 159.47 114.41C159.282 114.64 159.18 114.928 159.18 115.225C159.18 115.522 159.282 115.81 159.47 116.04C159.559 116.136 159.668 116.212 159.788 116.264C159.909 116.316 160.039 116.342 160.17 116.34C160.302 116.339 160.433 116.313 160.555 116.261C160.677 116.21 160.787 116.134 160.88 116.04C161.079 115.815 161.183 115.521 161.17 115.22C161.178 115.072 161.157 114.925 161.107 114.785C161.058 114.646 160.98 114.519 160.88 114.41Z" fill="#27B1FF"/>
<path d="M170.24 100.88C170.417 100.535 170.697 100.252 171.04 100.07C171.401 99.8724 171.808 99.7725 172.22 99.78C172.731 99.7628 173.232 99.9217 173.64 100.23C174.032 100.543 174.299 100.987 174.39 101.48H172.91C172.867 101.324 172.772 101.188 172.641 101.094C172.51 100.999 172.351 100.952 172.19 100.96C172.072 100.958 171.955 100.984 171.848 101.036C171.742 101.088 171.65 101.165 171.58 101.26C171.435 101.518 171.359 101.809 171.359 102.105C171.359 102.401 171.435 102.692 171.58 102.95C171.65 103.045 171.742 103.122 171.848 103.174C171.955 103.226 172.072 103.252 172.19 103.25C172.351 103.258 172.51 103.211 172.641 103.116C172.772 103.022 172.867 102.886 172.91 102.73H174.39C174.292 103.223 174.023 103.666 173.63 103.98C173.226 104.288 172.728 104.447 172.22 104.43C171.809 104.436 171.404 104.34 171.04 104.15C170.7 103.963 170.422 103.682 170.24 103.34C170.049 102.958 169.949 102.537 169.949 102.11C169.949 101.683 170.049 101.262 170.24 100.88Z" fill="#27B1FF"/>
<path d="M170.21 114C170.371 113.669 170.62 113.389 170.93 113.19C171.229 113 171.576 112.899 171.93 112.9C172.211 112.899 172.489 112.964 172.74 113.09C172.975 113.2 173.176 113.373 173.32 113.59V111.49H174.71V117.49H173.32V116.84C173.186 117.059 172.996 117.238 172.77 117.36C172.51 117.493 172.221 117.558 171.93 117.55C171.576 117.55 171.229 117.45 170.93 117.26C170.62 117.061 170.371 116.781 170.21 116.45C170.033 116.064 169.944 115.644 169.95 115.22C169.942 114.799 170.031 114.381 170.21 114ZM173.05 114.41C172.863 114.224 172.609 114.119 172.345 114.119C172.081 114.119 171.827 114.224 171.64 114.41C171.541 114.519 171.465 114.647 171.417 114.786C171.369 114.926 171.349 115.073 171.36 115.22C171.343 115.519 171.443 115.814 171.64 116.04C171.827 116.226 172.081 116.331 172.345 116.331C172.609 116.331 172.863 116.226 173.05 116.04C173.231 115.807 173.329 115.52 173.329 115.225C173.329 114.93 173.231 114.643 173.05 114.41Z" fill="#27B1FF"/>
<path d="M158.78 91.77C150.3 96.66 149.49 117.83 158.94 125.01" stroke="#27B1FF" stroke-width="0.25" stroke-linecap="round" stroke-linejoin="round"/>
<path d="M174.13 91.77C182.61 96.66 183.42 117.83 173.96 125.01" stroke="#27B1FF" stroke-width="0.25" stroke-linecap="round" stroke-linejoin="round"/>
<path d="M154.2 30.8799L120.6 47.1899L169.11 69.4599L154.2 30.8799Z" stroke="#27B1FF" stroke-width="0.5" stroke-linecap="round" stroke-linejoin="round"/>
<path d="M154.2 30.8799L153.4 33.2499" stroke="#27B1FF" stroke-width="0.5" stroke-miterlimit="10"/>
<path d="M152.11 37.1L150.17 42.87" stroke="#27B1FF" stroke-width="0.5" stroke-miterlimit="10" stroke-dasharray="4.06 4.06"/>
<path d="M149.52 44.79L148.72 47.16" stroke="#27B1FF" stroke-width="0.5" stroke-miterlimit="10"/>
<path d="M120.6 47.19L148.72 47.16" stroke="#27B1FF" stroke-width="0.5" stroke-miterlimit="10" stroke-dasharray="5 5"/>
<path d="M148.72 47.16L169.11 69.46" stroke="#27B1FF" stroke-width="0.5" stroke-miterlimit="10" stroke-dasharray="5 5"/>
<path d="M149.85 43.67L151.97 45.77L150.79 49.18" stroke="#27B1FF" stroke-width="0.5" stroke-miterlimit="10"/>
<path d="M151.514 28.4879H150.073L149.842 29.1699H148.858L150.255 25.3089H151.344L152.741 29.1699H151.745L151.514 28.4879ZM151.272 27.7619L150.794 26.3484L150.321 27.7619H151.272Z" fill="#06A5FF"/>
<path d="M117.528 47.2108C117.856 47.2775 118.12 47.4387 118.32 47.6942C118.521 47.9443 118.623 48.2329 118.626 48.5598C118.63 49.0315 118.467 49.4081 118.137 49.6898C117.813 49.9661 117.356 50.1068 116.766 50.1121L114.137 50.1355L114.087 44.4916L116.627 44.469C117.201 44.4639 117.649 44.5912 117.973 44.851C118.303 45.1107 118.469 45.4657 118.473 45.9159C118.476 46.2482 118.39 46.525 118.215 46.7463C118.046 46.9676 117.817 47.1224 117.528 47.2108ZM115.482 46.7626L116.382 46.7546C116.607 46.7526 116.778 46.7029 116.896 46.6053C117.018 46.5024 117.078 46.3545 117.077 46.1615C117.075 45.9686 117.012 45.8217 116.888 45.721C116.769 45.6202 116.597 45.5708 116.372 45.5728L115.471 45.5808L115.482 46.7626ZM116.515 49.0047C116.745 49.0027 116.922 48.9502 117.044 48.8473C117.172 48.7389 117.235 48.5856 117.233 48.3873C117.231 48.189 117.163 48.0341 117.028 47.9228C116.898 47.8114 116.718 47.7567 116.488 47.7587L115.491 47.7676L115.502 49.0138L116.515 49.0047Z" fill="#06A5FF"/>
<path d="M171.339 73.9864C171.339 73.3791 171.47 72.8389 171.733 72.3658C171.996 71.8869 172.361 71.5161 172.828 71.2533C173.301 70.9847 173.836 70.8503 174.431 70.8503C175.161 70.8503 175.786 71.0431 176.306 71.4285C176.826 71.8139 177.173 72.3395 177.348 73.0053H175.701C175.579 72.7483 175.404 72.5527 175.176 72.4184C174.954 72.2841 174.7 72.2169 174.414 72.2169C173.952 72.2169 173.579 72.3775 173.292 72.6987C173.006 73.0199 172.863 73.4491 172.863 73.9864C172.863 74.5237 173.006 74.9529 173.292 75.2741C173.579 75.5953 173.952 75.7559 174.414 75.7559C174.7 75.7559 174.954 75.6888 175.176 75.5545C175.404 75.4201 175.579 75.2245 175.701 74.9675H177.348C177.173 75.6333 176.826 76.1589 176.306 76.5443C175.786 76.9239 175.161 77.1137 174.431 77.1137C173.836 77.1137 173.301 76.9823 172.828 76.7195C172.361 76.4509 171.996 76.0801 171.733 75.607C171.47 75.134 171.339 74.5938 171.339 73.9864Z" fill="#06A5FF"/>
<path d="M146.686 49.8763C147.043 49.8763 147.355 49.947 147.621 50.0884C147.888 50.2298 148.094 50.429 148.238 50.6861C148.386 50.9399 148.46 51.2339 148.46 51.5681C148.46 51.8991 148.386 52.1931 148.238 52.4502C148.094 52.7073 147.887 52.9065 147.617 53.0479C147.35 53.1893 147.04 53.2599 146.686 53.2599H145.419V49.8763H146.686ZM146.633 52.5466C146.945 52.5466 147.188 52.4614 147.361 52.2911C147.535 52.1208 147.621 51.8798 147.621 51.5681C147.621 51.2564 147.535 51.0138 147.361 50.8403C147.188 50.6668 146.945 50.58 146.633 50.58H146.243V52.5466H146.633Z" fill="#06A5FF"/>
<path d="M37.5801 51.2799C37.3522 51.2749 37.129 51.214 36.9302 51.1023C36.7314 50.9907 36.5631 50.8319 36.4401 50.6399C36.3292 50.4796 36.2601 50.294 36.2392 50.1002C36.2182 49.9063 36.2461 49.7103 36.3201 49.5299C36.376 49.4267 36.4684 49.3482 36.5793 49.3097C36.6902 49.2712 36.8114 49.2755 36.9192 49.3219C37.027 49.3683 37.1136 49.4533 37.1619 49.5603C37.2101 49.6673 37.2167 49.7884 37.1801 49.9C37.1617 49.9355 37.1521 49.9749 37.1521 50.0149C37.1521 50.055 37.1617 50.0944 37.1801 50.1299C37.2215 50.1919 37.2762 50.2437 37.3402 50.2818C37.4043 50.3199 37.476 50.3431 37.5501 50.3499C37.7281 50.3228 37.8955 50.248 38.0345 50.1336C38.1736 50.0192 38.2792 49.8694 38.3401 49.6999C38.4848 49.2379 38.5425 48.753 38.5101 48.2699V30.6999C38.411 29.7965 38.6734 28.8905 39.2401 28.1799C39.4789 27.9606 39.7773 27.8169 40.0977 27.767C40.4181 27.7172 40.746 27.7635 41.0401 27.8999C41.263 27.9841 41.4545 28.1348 41.5886 28.3316C41.7228 28.5284 41.7932 28.7618 41.7901 28.9999C41.789 29.0617 41.7752 29.1226 41.7495 29.1788C41.7238 29.235 41.6868 29.2853 41.6409 29.3266C41.5949 29.3678 41.5409 29.3992 41.4823 29.4187C41.4237 29.4382 41.3617 29.4455 41.3001 29.4399C41.179 29.4322 41.0656 29.378 40.9835 29.2885C40.9015 29.199 40.8573 29.0813 40.8601 28.9599C40.8601 28.9599 40.8601 28.8099 40.6701 28.7299C40.5453 28.6755 40.4082 28.6552 40.273 28.671C40.1377 28.6868 40.009 28.7382 39.9001 28.8199C39.5246 29.3627 39.3642 30.0256 39.4501 30.6799V48.2499C39.4876 48.8573 39.4026 49.4661 39.2001 50.0399C39.0781 50.3806 38.8603 50.6788 38.573 50.8988C38.2856 51.1188 37.9409 51.2511 37.5801 51.2799Z" fill="#27B1FF"/>
<path d="M37.5901 55.2499C37.4206 55.4813 37.2052 55.6752 36.9575 55.8197C36.7098 55.9642 36.4349 56.0562 36.1501 56.0899C35.9963 56.0972 35.8427 56.072 35.6992 56.0162C35.5558 55.9603 35.4256 55.8749 35.3172 55.7656C35.2088 55.6563 35.1246 55.5254 35.07 55.3814C35.0154 55.2375 34.9915 55.0837 35.0001 54.9299C35.0014 54.7768 35.033 54.6253 35.0932 54.4844C35.1533 54.3435 35.2408 54.216 35.3505 54.109C35.4602 54.0021 35.59 53.918 35.7324 53.8615C35.8748 53.805 36.0269 53.7773 36.1801 53.7799C36.7318 53.8633 37.2279 54.1617 37.5601 54.6099C37.7319 54.3817 37.9479 54.1906 38.1954 54.0479C38.4428 53.9053 38.7166 53.8142 39.0001 53.7799C39.151 53.7756 39.3011 53.8025 39.4409 53.8592C39.5808 53.9158 39.7074 54.0009 39.8127 54.109C39.9179 54.2171 39.9996 54.3459 40.0526 54.4872C40.1055 54.6285 40.1285 54.7793 40.1201 54.9299C40.1178 55.23 40.0003 55.5178 39.7919 55.7337C39.5834 55.9496 39.3 56.0771 39.0001 56.0899C38.7206 56.0523 38.4515 55.9585 38.2092 55.8141C37.9669 55.6698 37.7563 55.4779 37.5901 55.2499ZM37.2801 54.9299C36.9801 54.6499 36.6601 54.2499 36.2101 54.2499C36.0288 54.2499 35.8548 54.3212 35.7257 54.4485C35.5966 54.5757 35.5227 54.7487 35.5201 54.9299C35.5146 55.0195 35.5276 55.1091 35.5584 55.1934C35.5893 55.2776 35.6372 55.3545 35.6992 55.4193C35.7612 55.4841 35.8359 55.5354 35.9187 55.5699C36.0014 55.6045 36.0904 55.6215 36.1801 55.6199C36.6301 55.6199 37.0001 55.2399 37.2801 54.9299ZM39.6601 54.9299C39.6642 54.8412 39.6501 54.7526 39.6187 54.6696C39.5872 54.5866 39.5391 54.5109 39.4772 54.4471C39.4154 54.3834 39.3412 54.3331 39.2591 54.2991C39.177 54.2652 39.0889 54.2485 39.0001 54.2499C38.5601 54.2499 38.2001 54.6299 37.9001 54.9299C38.2101 55.2099 38.5201 55.6199 38.9801 55.6199C39.0703 55.62 39.1595 55.602 39.2427 55.5672C39.3258 55.5324 39.4012 55.4815 39.4645 55.4173C39.5278 55.353 39.5777 55.2769 39.6113 55.1932C39.6448 55.1096 39.6614 55.0201 39.6601 54.9299Z" fill="#27B1FF"/>
<path d="M40.0701 22.5099C40.2049 22.3393 40.3766 22.2014 40.5723 22.1066C40.768 22.0118 40.9827 21.9625 41.2001 21.9625C41.4176 21.9625 41.6322 22.0118 41.8279 22.1066C42.0236 22.2014 42.1953 22.3393 42.3301 22.5099C42.5661 22.9912 42.6762 23.5245 42.6501 24.0599C42.6783 24.6019 42.5682 25.1422 42.3301 25.6299C42.1976 25.804 42.0267 25.9452 41.8307 26.0423C41.6347 26.1395 41.4189 26.19 41.2001 26.19C40.9814 26.19 40.7655 26.1395 40.5695 26.0423C40.3735 25.9452 40.2026 25.804 40.0701 25.6299C39.8273 25.1439 39.7169 24.6023 39.7501 24.0599C39.719 23.5242 39.8294 22.9896 40.0701 22.5099ZM42.0701 23.2099C42.0419 22.9993 41.9473 22.8032 41.8001 22.6499C41.7225 22.5743 41.6299 22.5156 41.5283 22.4778C41.4267 22.4399 41.3184 22.4236 41.2101 22.4299C41.1005 22.4246 40.9909 22.4413 40.8878 22.4791C40.7847 22.5169 40.6903 22.575 40.6101 22.6499C40.4717 22.8091 40.3784 23.0025 40.3401 23.2099C40.2966 23.4911 40.2765 23.7754 40.2801 24.0599C40.2758 24.3511 40.2959 24.6421 40.3401 24.9299C40.3763 25.1411 40.4696 25.3382 40.6101 25.4999C40.6908 25.5736 40.7856 25.6302 40.8887 25.6663C40.9918 25.7024 41.1011 25.7172 41.2101 25.7099C41.3177 25.7182 41.4258 25.7038 41.5274 25.6676C41.6291 25.6315 41.722 25.5743 41.8001 25.4999C41.9493 25.344 42.044 25.1441 42.0701 24.9299C42.1233 24.6431 42.1468 24.3516 42.1401 24.0599C42.1427 23.7746 42.1159 23.4898 42.0601 23.2099H42.0701Z" fill="#27B1FF"/>
<path d="M41.8401 40.24C41.9797 39.9588 42.2034 39.7281 42.4801 39.58C42.792 39.4179 43.1411 39.3409 43.4922 39.3567C43.8433 39.3725 44.1841 39.4805 44.4801 39.67C44.7749 39.8952 44.9804 40.2176 45.0601 40.58H44.4001C44.3459 40.3666 44.2185 40.179 44.0401 40.05C43.8393 39.9163 43.6012 39.8497 43.3601 39.86C43.2022 39.8542 43.045 39.8835 42.8998 39.9458C42.7545 40.008 42.6249 40.1017 42.5201 40.22C42.3211 40.5155 42.2147 40.8637 42.2147 41.22C42.2147 41.5763 42.3211 41.9244 42.5201 42.22C42.6249 42.3383 42.7545 42.4319 42.8998 42.4941C43.045 42.5564 43.2022 42.5857 43.3601 42.58C43.5996 42.5886 43.8363 42.526 44.0401 42.4C44.2168 42.265 44.3435 42.075 44.4001 41.86H45.0601C44.9764 42.2204 44.7673 42.5394 44.4701 42.76C44.1503 42.9978 43.7582 43.1179 43.3601 43.1C43.0388 43.1036 42.7219 43.0244 42.4401 42.87C42.165 42.7151 41.9422 42.4819 41.8001 42.2C41.6423 41.8906 41.5633 41.5471 41.5701 41.2C41.5809 40.8628 41.6736 40.5333 41.8401 40.24Z" fill="#27B1FF"/>
<path d="M46.5801 42.9099C46.3015 42.7531 46.0727 42.5209 45.9201 42.2399C45.7635 41.9302 45.6845 41.587 45.6901 41.2399C45.6816 40.8914 45.7643 40.5467 45.9301 40.2399C46.0867 39.9586 46.3188 39.7266 46.6001 39.5699C46.8923 39.4191 47.2163 39.3404 47.5451 39.3404C47.8739 39.3404 48.1979 39.4191 48.4901 39.5699C48.7714 39.7266 49.0035 39.9586 49.1601 40.2399C49.3259 40.5467 49.4086 40.8914 49.4001 41.2399C49.409 41.5898 49.3226 41.9354 49.1501 42.2399C48.9899 42.522 48.7545 42.7539 48.4701 42.9099C48.1773 43.064 47.8509 43.143 47.5201 43.1399C47.1927 43.1414 46.8699 43.0624 46.5801 42.9099ZM48.1401 42.4499C48.3316 42.3446 48.4906 42.189 48.6001 41.9999C48.7187 41.7659 48.7805 41.5073 48.7805 41.2449C48.7805 40.9826 48.7187 40.7239 48.6001 40.4899C48.4988 40.2955 48.3422 40.1355 48.1501 40.0299C47.96 39.9317 47.7491 39.8805 47.5351 39.8805C47.3211 39.8805 47.1102 39.9317 46.9201 40.0299C46.7331 40.1388 46.5806 40.2983 46.4801 40.4899C46.3621 40.7255 46.3037 40.9865 46.3101 41.2499C46.3006 41.5093 46.3556 41.767 46.4701 41.9999C46.5677 42.1936 46.7209 42.3538 46.9101 42.4599C47.0978 42.5598 47.3075 42.6114 47.5201 42.6099C47.7366 42.6071 47.9493 42.5522 48.1401 42.4499Z" fill="#27B1FF"/>
<path d="M50.7501 43C50.5404 42.9124 50.3576 42.7709 50.2201 42.59C50.0852 42.4221 50.008 42.2152 50.0001 42H50.6301C50.6383 42.0893 50.6658 42.1758 50.7107 42.2535C50.7556 42.3312 50.8168 42.3982 50.8901 42.45C51.0646 42.574 51.2765 42.634 51.4901 42.62C51.685 42.6324 51.8785 42.5796 52.0401 42.47C52.1039 42.4274 52.1558 42.3692 52.1908 42.301C52.2258 42.2327 52.2428 42.1566 52.2401 42.08C52.2428 42.0062 52.2244 41.9333 52.1872 41.8696C52.1501 41.8058 52.0956 41.754 52.0301 41.72C51.8198 41.6178 51.5983 41.5407 51.3701 41.49C51.1404 41.4378 50.916 41.3642 50.7001 41.27C50.5277 41.1994 50.3762 41.0858 50.2601 40.94C50.1251 40.7819 50.057 40.5774 50.0701 40.37C50.0715 40.1832 50.1309 40.0015 50.2401 39.85C50.3624 39.6883 50.5243 39.5609 50.7101 39.48C50.9349 39.3857 51.1764 39.3381 51.4201 39.34C51.7794 39.3233 52.1332 39.433 52.4201 39.65C52.5439 39.7547 52.6436 39.8848 52.7126 40.0314C52.7817 40.1781 52.8183 40.3379 52.8201 40.5H52.2101C52.2125 40.4065 52.1951 40.3136 52.1588 40.2274C52.1226 40.1412 52.0685 40.0637 52.0001 40C51.8349 39.8803 51.6339 39.8204 51.4301 39.83C51.2465 39.8218 51.0648 39.8707 50.9101 39.97C50.8485 40.01 50.798 40.0649 50.7631 40.1295C50.7281 40.1941 50.7099 40.2665 50.7101 40.34C50.7088 40.3955 50.7187 40.4507 50.7393 40.5023C50.76 40.5539 50.7908 40.6007 50.8301 40.64C50.915 40.7197 51.0131 40.784 51.1201 40.83C51.2401 40.83 51.4101 40.93 51.6201 40.98C51.8371 41.0422 52.0507 41.1157 52.2601 41.2C52.4287 41.2627 52.5773 41.3698 52.6901 41.51C52.8143 41.6618 52.8784 41.854 52.8701 42.05C52.8752 42.2439 52.8154 42.434 52.7001 42.59C52.5864 42.7621 52.4222 42.8948 52.2301 42.97C52.0092 43.0654 51.7707 43.1131 51.5301 43.11C51.2655 43.1238 51.0006 43.0865 50.7501 43Z" fill="#27B1FF"/>
<path d="M55.6301 43.08L54.7601 41.71L53.9201 43.08H53.2801L54.4701 41.26L53.2801 39.4H54.0001L54.8701 40.77L55.7101 39.4H56.3401L55.1601 41.22L56.3501 43.08H55.6301Z" fill="#27B1FF"/>
<path d="M58.7201 40.2399C58.8584 39.9645 59.0738 39.7352 59.3401 39.5799C59.6125 39.4192 59.9238 39.3362 60.2401 39.3399C60.5192 39.3395 60.7941 39.4082 61.0401 39.5399C61.2691 39.6613 61.4622 39.8406 61.6001 40.0599V38.1199H62.2201V43.1199H61.6001V42.4299C61.4736 42.6565 61.2867 42.8435 61.0601 42.9699C60.8082 43.1155 60.5209 43.1882 60.2301 43.1799C59.9171 43.1824 59.6094 43.0994 59.3401 42.9399C59.0749 42.7746 58.8603 42.5393 58.7201 42.2599C58.5578 41.9523 58.4785 41.6076 58.4901 41.2599C58.475 40.9056 58.5544 40.5535 58.7201 40.2399ZM61.4301 40.5099C61.3408 40.3009 61.1911 40.1233 61.0001 39.9999C60.8091 39.888 60.5915 39.8293 60.3701 39.8299C60.1535 39.832 59.9407 39.8869 59.7501 39.9899C59.5597 40.1022 59.404 40.2648 59.3001 40.4599C59.1842 40.6856 59.1258 40.9363 59.1301 41.1899C59.1245 41.4437 59.183 41.6948 59.3001 41.9199C59.4006 42.12 59.5569 42.2867 59.7501 42.3999C59.9417 42.505 60.1566 42.56 60.3751 42.56C60.5936 42.56 60.8085 42.505 61.0001 42.3999C61.1933 42.2867 61.3496 42.12 61.4501 41.9199C61.5703 41.6995 61.629 41.4508 61.6201 41.1999C61.6163 40.9575 61.5509 40.7201 61.4301 40.5099Z" fill="#27B1FF"/>
<path d="M65.1701 43.08L64.3001 41.71L63.4601 43.08H62.8201L64.0001 41.26L62.8201 39.4H63.5101L64.3901 40.77L65.2201 39.4H65.8601L64.6701 41.22L65.8601 43.08H65.1701Z" fill="#27B1FF"/>
<path d="M71.9101 39.65V40.16H68.4201V39.65H71.9101ZM71.9101 41.09V41.6H68.4201V41.09H71.9101Z" fill="#27B1FF"/>
<path d="M75.44 43C75.2303 42.9124 75.0475 42.7709 74.91 42.59C74.7787 42.4209 74.705 42.214 74.7 42H75.33C75.3382 42.0893 75.3657 42.1758 75.4106 42.2535C75.4555 42.3312 75.5167 42.3982 75.59 42.45C75.7645 42.574 75.9764 42.634 76.19 42.62C76.3849 42.6324 76.5784 42.5796 76.74 42.47C76.805 42.4279 76.8583 42.3701 76.8951 42.3019C76.9318 42.2337 76.9507 42.1574 76.95 42.08C76.9505 42.0054 76.9302 41.9322 76.8913 41.8686C76.8525 41.805 76.7966 41.7535 76.73 41.72C76.5197 41.6178 76.2982 41.5407 76.07 41.49C75.8403 41.4378 75.6159 41.3642 75.4 41.27C75.2276 41.1994 75.0761 41.0858 74.96 40.94C74.825 40.7819 74.7569 40.5774 74.77 40.37C74.7713 40.1832 74.8308 40.0015 74.94 39.85C75.0641 39.6859 75.2298 39.5582 75.42 39.48C75.6409 39.3846 75.8794 39.3369 76.12 39.34C76.4793 39.3233 76.8331 39.433 77.12 39.65C77.2438 39.7547 77.3435 39.8848 77.4125 40.0314C77.4815 40.1781 77.5182 40.3379 77.52 40.5H76.9C76.8976 40.4097 76.8758 40.321 76.8361 40.24C76.7964 40.1589 76.7398 40.0872 76.67 40.03C76.5048 39.9103 76.3038 39.8504 76.1 39.86C75.9164 39.8518 75.7347 39.9007 75.58 40C75.5184 40.04 75.4679 40.0949 75.4329 40.1595C75.398 40.2241 75.3798 40.2965 75.38 40.37C75.3787 40.4255 75.3886 40.4807 75.4092 40.5323C75.4298 40.5839 75.4607 40.6307 75.5 40.67C75.5866 40.7524 75.6885 40.8169 75.8 40.86C75.9603 40.9195 76.1239 40.9696 76.29 41.01C76.507 41.0722 76.7206 41.1457 76.93 41.23C77.0986 41.2927 77.2472 41.3998 77.36 41.54C77.4842 41.6918 77.5482 41.884 77.54 42.08C77.5438 42.2722 77.4879 42.4608 77.38 42.62C77.26 42.7903 77.0933 42.9222 76.9 43C76.6794 43.0962 76.4407 43.144 76.2 43.14C75.9401 43.1417 75.6823 43.0942 75.44 43Z" fill="#27B1FF"/>
<path d="M78.42 38.69C78.3807 38.6507 78.3498 38.6039 78.3292 38.5523C78.3086 38.5007 78.2987 38.4455 78.3 38.39C78.2982 38.3359 78.308 38.282 78.3287 38.232C78.3494 38.182 78.3805 38.137 78.42 38.1C78.4572 38.0573 78.5034 38.0235 78.5553 38.0011C78.6072 37.9786 78.6635 37.9679 78.72 37.97C78.7735 37.9688 78.8266 37.9799 78.8751 38.0024C78.9237 38.025 78.9664 38.0583 79 38.1C79.0395 38.137 79.0707 38.182 79.0914 38.232C79.112 38.282 79.1218 38.3359 79.12 38.39C79.1214 38.4455 79.1114 38.5007 79.0908 38.5523C79.0702 38.6039 79.0393 38.6507 79 38.69C78.9641 38.7282 78.9208 38.7586 78.8726 38.7793C78.8244 38.7999 78.7724 38.8104 78.72 38.81C78.6645 38.8113 78.6093 38.8014 78.5577 38.7808C78.5061 38.7601 78.4593 38.7292 78.42 38.69ZM79.01 39.4V43.08H78.4V39.4H79.01Z" fill="#27B1FF"/>
<path d="M82.93 39.7399C83.077 39.8954 83.1902 40.0796 83.2624 40.281C83.3347 40.4823 83.3645 40.6965 83.35 40.9099V43.0799H82.74V40.9999C82.762 40.6956 82.6653 40.3945 82.47 40.1599C82.3719 40.0623 82.2546 39.9861 82.1255 39.9362C81.9964 39.8863 81.8583 39.8637 81.72 39.8699C81.5777 39.8622 81.4354 39.8849 81.3026 39.9367C81.1698 39.9884 81.0496 40.0679 80.95 40.1699C80.7423 40.4143 80.6383 40.73 80.66 41.0499V43.0499H80.05V39.3999H80.66V39.9299C80.7814 39.7387 80.9549 39.586 81.16 39.4899C81.4482 39.3584 81.7679 39.312 82.0815 39.3563C82.3952 39.4006 82.6896 39.5337 82.93 39.7399Z" fill="#27B1FF"/>
<path d="M86.27 43.08L85.39 41.71L84.55 43.08H83.92L85.1 41.26L83.92 39.4H84.61L85.48 40.77L86.31 39.4H87L85.82 41.22L87 43.08H86.27Z" fill="#27B1FF"/>
<path d="M92.84 40.89H91.41V42.34H90.84V40.89H89.42V40.37H90.84V38.91H91.41V40.37H92.84V40.89Z" fill="#27B1FF"/>
<path d="M95.81 39.51C96.0034 39.1499 96.2946 38.8518 96.65 38.65C97.0094 38.445 97.4163 38.3381 97.83 38.34C98.3029 38.3325 98.768 38.4609 99.17 38.71C99.5445 38.9482 99.8348 39.298 100 39.71H99.27C99.1511 39.4431 98.9564 39.217 98.71 39.06C98.4436 38.9034 98.139 38.8237 97.83 38.83C97.5215 38.8277 97.2179 38.9071 96.95 39.06C96.6892 39.2145 96.4776 39.4399 96.34 39.71C96.1872 40.0207 96.1117 40.3638 96.12 40.71C96.1129 41.056 96.1883 41.3988 96.34 41.71C96.4805 41.9754 96.6916 42.1969 96.95 42.35C97.2179 42.5029 97.5215 42.5822 97.83 42.58C98.138 42.5892 98.4426 42.5131 98.71 42.36C98.9564 42.2029 99.1511 41.9769 99.27 41.71H100C99.836 42.1227 99.5454 42.4728 99.17 42.71C98.7671 42.9561 98.302 43.081 97.83 43.07C97.4171 43.0754 97.0101 42.9719 96.65 42.77C96.2972 42.5692 96.0066 42.2751 95.81 41.92C95.5991 41.5448 95.4921 41.1202 95.5 40.69C95.4995 40.2764 95.6063 39.8699 95.81 39.51Z" fill="#27B1FF"/>
<path d="M65.0501 175.99L23.3401 158.21L42.7501 139.37L84.4501 157.14L65.0501 175.99Z" stroke="#27B1FF" stroke-miterlimit="10"/>
<path d="M42.7501 139.37L44.0501 141.5" stroke="#27B1FF" stroke-linecap="round" stroke-linejoin="round"/>
<path d="M46.8601 146.12L62.3401 171.54" stroke="#27B1FF" stroke-linecap="round" stroke-linejoin="round" stroke-dasharray="5.41 5.41"/>
<path d="M63.7501 173.85L65.0501 175.99" stroke="#27B1FF" stroke-linecap="round" stroke-linejoin="round"/>
<path d="M23.3401 158.21L84.4501 157.14" stroke="#27B1FF" stroke-linecap="round" stroke-linejoin="round" stroke-dasharray="5 5"/>
<path d="M41.5958 137.446L40.27 137.195L39.9387 137.782L39.033 137.61L40.9907 134.302L41.9926 134.491L42.6054 138.287L41.6895 138.113L41.5958 137.446ZM41.4996 136.736L41.3056 135.352L40.6242 136.57L41.4996 136.736Z" fill="#27B1FF"/>
<path d="M89.721 158.33C89.9185 158.413 90.0643 158.547 90.1585 158.733C90.2533 158.915 90.2812 159.109 90.2423 159.315C90.1861 159.611 90.0368 159.828 89.7944 159.964C89.5561 160.097 89.2514 160.128 88.8803 160.058L87.2256 159.745L87.8981 156.192L89.4971 156.495C89.8581 156.563 90.1241 156.699 90.2952 156.903C90.4697 157.107 90.5301 157.351 90.4765 157.634C90.4369 157.844 90.3483 158.007 90.2108 158.124C90.0767 158.242 89.9134 158.311 89.721 158.33ZM88.4913 157.793L89.0581 157.901C89.1997 157.927 89.3134 157.917 89.3992 157.871C89.4889 157.821 89.5452 157.736 89.5682 157.615C89.5912 157.493 89.57 157.393 89.5045 157.314C89.4424 157.236 89.3406 157.184 89.1989 157.157L88.6321 157.049L88.4913 157.793ZM88.8607 159.331C89.0057 159.358 89.1231 159.347 89.2128 159.298C89.3066 159.246 89.3653 159.157 89.3889 159.032C89.4125 158.908 89.3889 158.802 89.318 158.715C89.2504 158.629 89.1441 158.572 88.999 158.545L88.3716 158.426L88.2231 159.21L88.8607 159.331Z" fill="#27B1FF"/>
<path d="M66.6162 179.376C66.6826 179.025 66.8176 178.727 67.0211 178.483C67.2253 178.235 67.4767 178.06 67.7753 177.96C68.0779 177.856 68.4013 177.837 68.7454 177.902C69.167 177.982 69.5069 178.162 69.765 178.441C70.0231 178.721 70.1663 179.062 70.1947 179.466L69.2434 179.286C69.2007 179.124 69.1209 178.992 69.004 178.889C68.8905 178.787 68.7511 178.721 68.5858 178.69C68.3193 178.639 68.0858 178.691 67.8854 178.845C67.685 179 67.5554 179.232 67.4967 179.542C67.4379 179.853 67.4736 180.116 67.6038 180.333C67.734 180.55 67.9323 180.683 68.1988 180.734C68.3641 180.765 68.5182 180.754 68.6611 180.701C68.8073 180.648 68.9299 180.554 69.0288 180.419L69.9802 180.599C69.8061 180.965 69.5479 181.23 69.2056 181.396C68.8638 181.559 68.4821 181.6 68.0604 181.52C67.7163 181.455 67.422 181.321 67.1775 181.117C66.937 180.911 66.7668 180.657 66.6667 180.355C66.5666 180.053 66.5498 179.726 66.6162 179.376Z" fill="#27B1FF"/>
<path d="M20.739 154.764C21.1135 154.835 21.4267 154.971 21.6785 155.173C21.9304 155.374 22.1067 155.624 22.2075 155.923C22.3122 156.219 22.3313 156.542 22.2649 156.893C22.1991 157.24 22.0631 157.534 21.8568 157.775C21.654 158.016 21.3968 158.184 21.0853 158.279C20.7772 158.374 20.4376 158.387 20.0666 158.316L18.7357 158.064L19.4082 154.512L20.739 154.764ZM20.1527 157.557C20.4799 157.619 20.7515 157.578 20.9675 157.433C21.1835 157.289 21.3225 157.053 21.3845 156.726C21.4464 156.399 21.4035 156.127 21.2559 155.91C21.1082 155.694 20.8707 155.554 20.5435 155.492L20.1336 155.415L19.7428 157.479L20.1527 157.557Z" fill="#27B1FF"/>
<path d="M36.8101 82.5099V119.15" stroke="#27B1FF" stroke-width="0.5" stroke-linecap="round" stroke-linejoin="round"/>
<path d="M34.7601 84.17L35.1301 84.51L36.8001 82.7L38.4801 84.51L38.8501 84.17L36.8001 81.97L34.7601 84.17Z" fill="#27B1FF"/>
<path d="M28.4701 82.9999C28.4701 98.4299 31.8701 110.84 36.8101 110.84C41.7501 110.84 45.1401 98.3899 45.1401 82.9999" stroke="#5BC3FE" stroke-linecap="round" stroke-linejoin="round"/>
<path d="M21.8701 103.2H51.2001" stroke="#27B1FF" stroke-width="0.5" stroke-linecap="round" stroke-linejoin="round"/>
<path d="M49.5501 105.25L49.2001 104.88L51.0101 103.2L49.2001 101.52L49.5501 101.16L51.7401 103.2L49.5501 105.25Z" fill="#27B1FF"/>
<path d="M46.6901 60C46.8094 60.1354 46.8986 60.2945 46.952 60.4668C47.0055 60.6392 47.0219 60.8208 47.0001 61V62.73H46.1001V61.08C46.1092 60.9133 46.0557 60.7492 45.9501 60.62C45.8972 60.5655 45.8333 60.523 45.7625 60.4954C45.6918 60.4678 45.6159 60.4557 45.5401 60.46C45.3845 60.4558 45.2335 60.5133 45.1201 60.62C45.0131 60.7523 44.9595 60.92 44.9701 61.09V62.69H44.0701V59.74H45.0001V60.14C45.094 60.0059 45.2217 59.8989 45.3701 59.83C45.5315 59.7494 45.7097 59.7082 45.8901 59.71C46.0366 59.6965 46.1842 59.7155 46.3225 59.7656C46.4608 59.8157 46.5863 59.8958 46.6901 60Z" fill="#27B1FF"/>
<path d="M58.4901 63.11C58.7801 63.4518 58.927 63.8924 58.9001 64.34V66.63H57.7001V64.5C57.7126 64.2787 57.6412 64.0608 57.5001 63.89C57.4297 63.8158 57.3441 63.7578 57.2492 63.7199C57.1542 63.6819 57.0522 63.6649 56.9501 63.67C56.8479 63.6635 56.7454 63.6799 56.6503 63.7179C56.5552 63.756 56.4697 63.8147 56.4001 63.89C56.3266 63.9728 56.2703 64.0693 56.2342 64.174C56.1982 64.2787 56.1832 64.3895 56.1901 64.5V66.63H55.0001V62.7H56.2001V63.22C56.3311 63.0448 56.5027 62.9041 56.7001 62.81C56.9155 62.7075 57.1516 62.6562 57.3901 62.66C57.5949 62.653 57.7987 62.6895 57.9883 62.7671C58.1779 62.8446 58.349 62.9615 58.4901 63.11Z" fill="#27B1FF"/>
<path d="M50.4901 68.1699C50.3914 68.1694 50.295 68.1397 50.2132 68.0846C50.1313 68.0294 50.0676 67.9512 50.0301 67.8599L48.4001 63.7199C48.3724 63.6594 48.3573 63.5939 48.3557 63.5274C48.3541 63.4609 48.3661 63.3948 48.3909 63.333C48.4157 63.2713 48.4528 63.2152 48.5 63.1683C48.5472 63.1214 48.6034 63.0846 48.6653 63.0601C48.7272 63.0356 48.7934 63.024 48.8599 63.026C48.9264 63.0279 48.9918 63.0434 49.0521 63.0714C49.1125 63.0995 49.1665 63.1395 49.2108 63.1891C49.2552 63.2387 49.289 63.2968 49.3101 63.3599L50.2101 65.6199L51.2101 55.8499C51.2246 55.7297 51.2823 55.6188 51.3724 55.5378C51.4626 55.4569 51.579 55.4115 51.7001 55.4099H61.8201C61.9527 55.4099 62.0799 55.4626 62.1737 55.5564C62.2674 55.6501 62.3201 55.7773 62.3201 55.9099C62.3201 56.0425 62.2674 56.1697 62.1737 56.2635C62.0799 56.3572 61.9527 56.4099 61.8201 56.4099H52.1201L51.0001 67.7299C50.9878 67.8381 50.9398 67.939 50.8638 68.0169C50.7877 68.0947 50.6879 68.1451 50.5801 68.1599L50.4901 68.1699Z" fill="#27B1FF"/>
</svg>
