<svg width="585" height="436" viewBox="0 0 585 436" fill="none" xmlns="http://www.w3.org/2000/svg">
<path d="M585 383.058H0V383.35H585V383.058Z" fill="#EBEBEB"/>
<path d="M520.954 396.454H461.401V396.747H520.954V396.454Z" fill="#EBEBEB"/>
<path d="M116.614 392.991H61.3782V393.284H116.614V392.991Z" fill="#EBEBEB"/>
<path d="M465.66 391.026H443.208V391.318H465.66V391.026Z" fill="#EBEBEB"/>
<path d="M387.527 398.783H371.054V399.075H387.527V398.783Z" fill="#EBEBEB"/>
<path d="M360.629 398.783H319.164V399.075H360.629V398.783Z" fill="#EBEBEB"/>
<path d="M295.086 393.845H228.407V394.138H295.086V393.845Z" fill="#EBEBEB"/>
<path d="M277.29 330.876H51.3747C49.6049 330.873 47.9086 330.168 46.6583 328.915C45.4079 327.663 44.7057 325.965 44.7057 324.195V6.6222C44.7211 4.86255 45.4302 3.18004 46.6788 1.94012C47.9275 0.700196 49.615 0.00301437 51.3747 0H277.29C279.062 0 280.761 0.703858 282.014 1.95673C283.267 3.20961 283.971 4.90887 283.971 6.6807V324.195C283.971 325.967 283.267 327.666 282.014 328.919C280.761 330.172 279.062 330.876 277.29 330.876ZM51.3747 0.234001C49.6825 0.2371 48.0606 0.911506 46.8651 2.10919C45.6696 3.30687 44.9982 4.92997 44.9982 6.6222V324.195C44.9982 325.888 45.6696 327.511 46.8651 328.708C48.0606 329.906 49.6825 330.58 51.3747 330.583H277.29C278.983 330.58 280.606 329.906 281.804 328.709C283.001 327.512 283.675 325.889 283.678 324.195V6.6222C283.675 4.92889 283.001 3.30583 281.804 2.10848C280.606 0.911126 278.983 0.237094 277.29 0.234001H51.3747Z" fill="#EBEBEB"/>
<path d="M530.373 330.876H304.446C302.675 330.873 300.977 330.168 299.725 328.916C298.473 327.664 297.768 325.966 297.765 324.195V6.6222C297.783 4.86148 298.495 3.17898 299.746 1.93938C300.996 0.699787 302.685 0.0029815 304.446 0H530.373C532.13 0.00608926 533.815 0.704632 535.061 1.94422C536.307 3.18381 537.015 4.86457 537.03 6.6222V324.195C537.03 325.963 536.329 327.659 535.082 328.911C533.834 330.163 532.14 330.87 530.373 330.876ZM304.446 0.234001C302.752 0.237094 301.129 0.911126 299.932 2.10848C298.735 3.30583 298.061 4.92889 298.057 6.6222V324.195C298.061 325.889 298.735 327.512 299.932 328.709C301.129 329.906 302.752 330.58 304.446 330.583H530.373C532.066 330.58 533.689 329.906 534.886 328.709C536.084 327.512 536.758 325.889 536.761 324.195V6.6222C536.758 4.92889 536.084 3.30583 534.886 2.10848C533.689 0.911126 532.066 0.237094 530.373 0.234001H304.446Z" fill="#EBEBEB"/>
<path d="M84.4038 273.242H243.173L243.173 35.6148L84.4038 35.6148L84.4038 273.242Z" fill="#E6E6E6"/>
<path d="M80.8821 273.242H239.651L239.651 35.6148L80.8821 35.6148L80.8821 273.242Z" fill="#F5F5F5"/>
<path d="M233.31 266.128V42.7284L87.2118 42.7284V266.128H233.31Z" fill="white"/>
<path d="M89.8794 266.128L89.8794 42.7284H87.2118L87.2118 266.128H89.8794Z" fill="#E6E6E6"/>
<path d="M83.5029 121.926L237.03 121.926V112.378L83.5029 112.378V121.926Z" fill="#F5F5F5"/>
<path d="M73.9674 23.833H250.076C250.334 23.8361 250.581 23.941 250.763 24.125C250.945 24.3089 251.047 24.5572 251.047 24.8158C251.047 25.0734 250.945 25.3204 250.762 25.5025C250.58 25.6846 250.333 25.7869 250.076 25.7869H73.9674C73.7098 25.7869 73.4628 25.6846 73.2807 25.5025C73.0986 25.3204 72.9963 25.0734 72.9963 24.8158C72.9963 24.5572 73.0982 24.3089 73.28 24.125C73.4618 23.941 73.7088 23.8361 73.9674 23.833Z" fill="#E6E6E6"/>
<path d="M68.1174 24.8157C68.1266 25.7786 68.4206 26.7173 68.9623 27.5134C69.504 28.3096 70.2692 28.9276 71.1614 29.2897C72.0537 29.6518 73.0332 29.7418 73.9765 29.5483C74.9198 29.3548 75.7848 28.8865 76.4624 28.2023C77.1401 27.5182 77.6001 26.6488 77.7846 25.7037C77.9691 24.7585 77.8698 23.78 77.4992 22.8912C77.1286 22.0024 76.5032 21.2432 75.702 20.7091C74.9007 20.1751 73.9593 19.8901 72.9963 19.89C72.3516 19.89 71.7134 20.0177 71.1184 20.2658C70.5234 20.5139 69.9834 20.8775 69.5298 21.3355C69.0761 21.7935 68.7177 22.3369 68.4753 22.9343C68.2329 23.5316 68.1112 24.1711 68.1174 24.8157Z" fill="#E6E6E6"/>
<path d="M241.851 30.2679C242.199 30.2679 242.534 30.1302 242.781 29.8848C243.029 29.6394 243.17 29.3061 243.173 28.9575V26.1261C243.17 25.7775 243.029 25.4442 242.781 25.1988C242.534 24.9534 242.199 24.8157 241.851 24.8157C241.503 24.8157 241.17 24.9537 240.924 25.1995C240.678 25.4452 240.54 25.7785 240.54 26.1261V28.9575C240.54 29.305 240.678 29.6383 240.924 29.8841C241.17 30.1298 241.503 30.2679 241.851 30.2679Z" fill="#E6E6E6"/>
<path d="M88.6743 30.2679C89.0229 30.2679 89.3574 30.1302 89.605 29.8848C89.8526 29.6394 89.9933 29.3061 89.9964 28.9575V26.1261C89.9933 25.7775 89.8526 25.4442 89.605 25.1988C89.3574 24.9534 89.0229 24.8157 88.6743 24.8157C88.3267 24.8157 87.9934 24.9537 87.7477 25.1995C87.5019 25.4452 87.3639 25.7785 87.3639 26.1261V28.9575C87.3639 29.305 87.5019 29.6383 87.7477 29.8841C87.9934 30.1298 88.3267 30.2679 88.6743 30.2679Z" fill="#E6E6E6"/>
<path opacity="0.5" d="M74.2716 248.812L237.019 248.812L237.019 24.804L74.2716 24.804L74.2716 248.812Z" fill="#E0E0E0"/>
<path d="M221.305 24.8157C221.315 25.7791 221.609 26.7182 222.151 27.5146C222.693 28.311 223.459 28.9291 224.352 29.2908C225.245 29.6526 226.225 29.7419 227.169 29.5474C228.113 29.353 228.977 28.8835 229.655 28.1982C230.332 27.5128 230.791 26.6424 230.974 25.6965C231.157 24.7506 231.056 23.7717 230.684 22.8831C230.311 21.9945 229.684 21.2361 228.882 20.7034C228.079 20.1708 227.136 19.8878 226.173 19.89C225.529 19.89 224.891 20.0178 224.296 20.266C223.702 20.5143 223.163 20.878 222.71 21.3362C222.257 21.7944 221.9 22.3379 221.659 22.9352C221.418 23.5324 221.298 24.1717 221.305 24.8157Z" fill="#E6E6E6"/>
<path d="M218.369 378.507H249.701V309.02H218.369V378.507Z" fill="#F0F0F0"/>
<path d="M89.1306 382.906H243.676V378.507H89.1306V382.906Z" fill="#F0F0F0"/>
<path d="M218.357 309.02H83.1168V378.507H218.357V309.02Z" fill="#F5F5F5"/>
<path d="M206.037 317.573H95.4369V340.365H206.037V317.573Z" fill="#F0F0F0"/>
<path d="M206.037 347.162H95.4369V369.954H206.037V347.162Z" fill="#F0F0F0"/>
<path d="M136.644 330.525H164.83C165.592 330.525 166.21 329.907 166.21 329.144V328.782C166.21 328.019 165.592 327.401 164.83 327.401H136.644C135.882 327.401 135.264 328.019 135.264 328.782V329.144C135.264 329.907 135.882 330.525 136.644 330.525Z" fill="#F5F5F5"/>
<path d="M136.644 360.114H164.83C165.592 360.114 166.21 359.496 166.21 358.734V358.371C166.21 357.609 165.592 356.99 164.83 356.99H136.644C135.882 356.99 135.264 357.609 135.264 358.371V358.734C135.264 359.496 135.882 360.114 136.644 360.114Z" fill="#F5F5F5"/>
<path d="M143.816 297.332C143.816 297.332 143.43 309.032 128.993 309.032C114.555 309.032 114.18 297.332 114.18 297.332H143.816Z" fill="#F0F0F0"/>
<path d="M177.594 297.332C177.594 297.332 177.22 309.032 162.77 309.032C148.321 309.032 147.958 297.332 147.958 297.332H177.594Z" fill="#F0F0F0"/>
<path d="M143.816 289.575C143.816 289.575 143.43 301.275 128.993 301.275C114.555 301.275 114.18 289.575 114.18 289.575H143.816Z" fill="#F0F0F0"/>
<path d="M177.594 289.575C177.594 289.575 177.22 301.275 162.77 301.275C148.321 301.275 147.958 289.575 147.958 289.575H177.594Z" fill="#F0F0F0"/>
<path d="M211.372 297.332C211.372 297.332 210.998 309.032 196.56 309.032C182.122 309.032 181.736 297.332 181.736 297.332H211.372Z" fill="#F0F0F0"/>
<path d="M211.372 289.575C211.372 289.575 210.998 301.275 196.56 301.275C182.122 301.275 181.736 289.575 181.736 289.575H211.372Z" fill="#F0F0F0"/>
<path d="M402.433 172.704H497.051V36.3051H402.433V172.704Z" fill="#E6E6E6"/>
<path d="M376.167 172.704H486.369V36.3051H376.167V172.704Z" fill="#F5F5F5"/>
<path d="M472.282 163.94V45.0684L390.254 45.0684V163.94H472.282Z" fill="white"/>
<path d="M432.022 165.461V43.5474H430.525V165.461H432.022Z" fill="#F5F5F5"/>
<path d="M495.706 375.921H519.351V220.884H495.706V375.921Z" fill="#F0F0F0"/>
<path d="M318.111 383.035H513.115V375.909H318.111V383.035Z" fill="#F0F0F0"/>
<path d="M495.706 220.873H311.875V375.909H495.706V220.873Z" fill="#F5F5F5"/>
<path d="M482.929 276.904H324.652V313.782H482.929V276.904Z" fill="#F0F0F0"/>
<path d="M482.929 325.19H324.652V362.068H482.929V325.19Z" fill="#F0F0F0"/>
<path d="M358.149 279.443H449.444C450.768 279.443 451.842 278.369 451.842 277.044V276.787C451.842 275.462 450.768 274.388 449.444 274.388H358.149C356.824 274.388 355.75 275.462 355.75 276.787V277.044C355.75 278.369 356.824 279.443 358.149 279.443Z" fill="#F5F5F5"/>
<path d="M358.149 327.717H449.444C450.768 327.717 451.842 326.643 451.842 325.318V325.061C451.842 323.736 450.768 322.663 449.444 322.663H358.149C356.824 322.663 355.75 323.736 355.75 325.061V325.318C355.75 326.643 356.824 327.717 358.149 327.717Z" fill="#F5F5F5"/>
<path d="M482.929 228.63H324.652V265.508H482.929V228.63Z" fill="#F0F0F0"/>
<path d="M358.149 231.169H449.444C450.768 231.169 451.842 230.095 451.842 228.77V228.513C451.842 227.188 450.768 226.114 449.444 226.114H358.149C356.824 226.114 355.75 227.188 355.75 228.513V228.77C355.75 230.095 356.824 231.169 358.149 231.169Z" fill="#F5F5F5"/>
<path d="M345.864 114.8C349.479 114.8 352.946 113.364 355.502 110.808C358.058 108.252 359.494 104.785 359.494 101.17C359.494 97.5549 358.058 94.0879 355.502 91.5317C352.946 88.9755 349.479 87.5394 345.864 87.5394H344.202V114.8H345.864Z" fill="#E0E0E0"/>
<path d="M344.202 114.8C351.73 114.8 357.833 108.698 357.833 101.17C357.833 93.642 351.73 87.5394 344.202 87.5394C336.674 87.5394 330.572 93.642 330.572 101.17C330.572 108.698 336.674 114.8 344.202 114.8Z" fill="#F5F5F5"/>
<path d="M342.81 103.744C335.54 103.734 328.571 100.842 323.432 95.7003C318.293 90.5588 315.403 83.5886 315.397 76.319V59.939C315.397 59.2563 315.668 58.6016 316.151 58.1189C316.634 57.6362 317.288 57.365 317.971 57.365C318.654 57.365 319.308 57.6362 319.791 58.1189C320.274 58.6016 320.545 59.2563 320.545 59.939V76.319C320.563 82.2091 322.911 87.8526 327.076 92.0175C331.241 96.1825 336.885 98.5305 342.775 98.549C343.113 98.549 343.448 98.6156 343.76 98.7449C344.072 98.8743 344.356 99.0639 344.595 99.3029C344.834 99.5419 345.024 99.8257 345.153 100.138C345.282 100.45 345.349 100.785 345.349 101.123C345.349 101.461 345.282 101.796 345.153 102.108C345.024 102.42 344.834 102.704 344.595 102.943C344.356 103.182 344.072 103.372 343.76 103.501C343.448 103.63 343.113 103.697 342.775 103.697L342.81 103.744Z" fill="#E0E0E0"/>
<path d="M294.84 74.3653H341.125C341.849 74.3641 342.563 74.2077 343.221 73.9066C343.879 73.6056 344.464 73.1668 344.938 72.62C345.412 72.0732 345.762 71.431 345.966 70.737C346.17 70.043 346.223 69.3133 346.121 68.5972L342.143 40.9501C341.684 37.7746 340.096 34.8708 337.67 32.7713C335.244 30.6718 332.142 29.5172 328.934 29.5192H307.055C303.846 29.5172 300.745 30.6718 298.318 32.7713C295.892 34.8708 294.304 37.7746 293.845 40.9501L289.856 68.5504C289.744 69.2694 289.79 70.004 289.989 70.7038C290.188 71.4035 290.537 72.0519 291.01 72.6043C291.484 73.1567 292.071 73.6002 292.732 73.9041C293.393 74.2081 294.112 74.3654 294.84 74.3653Z" fill="#F5F5F5"/>
<path d="M292.5 435.895C417.786 435.895 519.351 429.965 519.351 422.651C519.351 415.336 417.786 409.406 292.5 409.406C167.213 409.406 65.6487 415.336 65.6487 422.651C65.6487 429.965 167.213 435.895 292.5 435.895Z" fill="#F5F5F5"/>
<path d="M343.758 403.884L334.901 401.111L338.972 379.852L347.829 382.637L343.758 403.884Z" fill="#FF8B7B"/>
<path d="M424.195 413.174H414.905L407.675 391.669H416.953L424.195 413.174Z" fill="#FF8B7B"/>
<path d="M413.665 412.097H424.991C425.174 412.096 425.353 412.158 425.495 412.274C425.638 412.389 425.737 412.55 425.775 412.729L427.612 420.978C427.656 421.179 427.654 421.387 427.606 421.587C427.558 421.787 427.465 421.974 427.334 422.133C427.204 422.292 427.038 422.419 426.851 422.505C426.664 422.59 426.46 422.632 426.254 422.627C422.604 422.569 419.948 422.358 415.362 422.358C412.542 422.358 404.036 422.651 400.152 422.651C396.267 422.651 395.752 418.79 397.344 418.451C404.492 416.883 409.886 414.73 412.179 412.671C412.587 412.303 413.116 412.098 413.665 412.097Z" fill="#263238"/>
<path d="M335.287 400.14L344.963 403.17C345.137 403.227 345.287 403.341 345.389 403.494C345.491 403.647 345.539 403.83 345.524 404.013L344.799 412.437C344.783 412.64 344.72 412.837 344.617 413.013C344.513 413.189 344.371 413.339 344.201 413.452C344.03 413.565 343.837 413.637 343.634 413.664C343.432 413.691 343.226 413.671 343.032 413.607C339.522 412.437 334.585 410.67 330.162 409.301C325.038 407.686 320.112 406.236 314.098 404.34C310.459 403.17 310.588 399.216 312.226 399.356C319.632 400.011 325.751 401.977 332.9 400.163C333.677 399.927 334.505 399.919 335.287 400.14Z" fill="#263238"/>
<path d="M389.364 134.55C387.808 136.738 386.123 139.078 384.532 141.383C382.941 143.688 381.361 146.063 379.794 148.403C376.705 153.083 373.721 157.821 371.077 162.595C370.387 163.765 369.825 164.935 369.182 166.187C368.538 167.439 368.012 168.527 367.497 169.697C366.982 170.867 366.491 172.037 366.046 173.207L365.777 173.909C365.758 173.967 365.73 174.022 365.695 174.073C365.695 174.073 365.695 174.073 365.695 173.558V173.312C365.695 173.195 365.695 173.09 365.695 172.961C365.675 172.768 365.64 172.576 365.59 172.388C365.59 172.236 365.508 172.084 365.461 171.943L365.391 171.721L365.251 171.393C365.147 171.16 365.03 170.934 364.9 170.715C364.704 170.396 364.476 170.098 364.221 169.825C363.541 169.076 362.678 168.516 361.717 168.199C361.263 168.047 360.791 167.953 360.313 167.918C360.095 167.901 359.876 167.901 359.658 167.918H359.19C358.708 167.973 358.236 168.091 357.786 168.269C357.546 168.365 357.312 168.475 357.084 168.597C356.95 168.671 356.821 168.753 356.698 168.843L356.464 169.03L356.312 169.159C356.22 169.23 356.138 169.313 356.066 169.404C355.984 169.545 356.171 169.404 356.323 169.217C357.025 168.457 357.938 167.345 358.757 166.269L361.331 162.899C363.086 160.641 364.841 158.336 366.713 156.113L372.867 159.389C372.013 162.267 370.995 165.017 369.884 167.778C369.299 169.147 368.714 170.528 368.07 171.896C367.385 173.385 366.604 174.827 365.73 176.214C365.4 176.738 365.028 177.235 364.619 177.7C364.42 177.922 364.209 178.133 363.987 178.331L363.73 178.542L363.379 178.799C363.218 178.915 363.05 179.021 362.875 179.115C362.61 179.264 362.337 179.397 362.056 179.513C361.564 179.703 361.049 179.828 360.524 179.888H360.021C359.81 179.888 359.564 179.888 359.33 179.888C358.832 179.855 358.34 179.756 357.868 179.595C357.346 179.426 356.85 179.186 356.394 178.881C355.961 178.607 355.568 178.277 355.224 177.899C354.953 177.609 354.714 177.291 354.51 176.951C354.365 176.714 354.236 176.468 354.124 176.214L353.972 175.851L353.89 175.605C353.831 175.441 353.785 175.266 353.738 175.102C353.691 174.938 353.644 174.623 353.609 174.389V173.897V173.523C353.601 172.991 353.632 172.459 353.703 171.931C353.703 171.58 353.796 171.288 353.843 171.031C353.937 170.504 354.03 170.071 354.136 169.638C354.517 168.052 354.99 166.49 355.551 164.958C356.078 163.449 356.721 162.01 357.271 160.559C357.821 159.108 358.523 157.716 359.202 156.37C361.847 150.971 364.789 145.722 368.012 140.646C369.603 138.142 371.229 135.662 372.937 133.24C374.646 130.818 376.319 128.419 378.214 125.986L389.364 134.55Z" fill="#FF8B7B"/>
<path d="M394.29 128.173C396.092 136.855 376.67 158.593 376.67 158.593L359.88 145.723C363.807 138.637 368.483 131.993 373.827 125.904C381.771 117.281 392.242 118.638 394.29 128.173Z" fill="#3B78FF"/>
<path opacity="0.2" d="M380.25 134.222C375.57 135.931 373.101 147.291 370.41 153.832L376.623 158.582C381.265 153.317 385.512 147.717 389.329 141.827C387.094 136.89 385.597 132.28 380.25 134.222Z" fill="black"/>
<path opacity="0.2" d="M338.972 379.864L336.878 390.815L345.735 393.588L347.841 382.637L338.972 379.864Z" fill="black"/>
<path opacity="0.2" d="M416.965 391.681H407.675L411.407 402.761H420.697L416.965 391.681Z" fill="black"/>
<path d="M435.778 127.741C432.215 137.493 429.384 147.496 427.307 157.669C425.821 164.759 424.71 171.557 423.797 177.735C421.785 192.196 421.165 203.311 420.416 206.985C413.221 205.815 386.123 201.649 371.358 199.333C369.123 146.156 384.228 120.147 384.228 120.147C388.196 119.746 392.186 119.594 396.174 119.691C397.004 119.691 397.858 119.691 398.724 119.808C405.734 120.493 412.7 121.579 419.585 123.061C420.896 123.33 422.206 123.634 423.493 123.95C430.104 125.635 435.778 127.741 435.778 127.741Z" fill="#3B78FF"/>
<path opacity="0.2" d="M428.992 146.929L418.708 158.348C418.708 158.348 416.836 178.834 422.417 189.388C422.803 185.878 423.271 181.935 423.856 177.688C424.71 171.51 425.821 164.713 427.366 157.622C428.138 153.925 429.016 150.146 429.998 146.332L428.992 146.929Z" fill="black"/>
<path d="M421.27 99.2979C418.93 105.803 415.678 117.889 419.679 123.107C417.275 124.938 414.506 126.232 411.559 126.902C408.612 127.572 405.556 127.603 402.597 126.992C396.841 125.962 397.18 121.891 398.818 119.855C406.587 119.235 407.254 113.654 406.762 108.237L421.27 99.2979Z" fill="#FF8B7B"/>
<path opacity="0.2" d="M415.35 102.96L406.762 108.237C406.892 109.5 406.912 110.772 406.821 112.039C409.746 112.039 414.168 109.547 414.929 106.599C415.285 105.421 415.428 104.188 415.35 102.96Z" fill="black"/>
<path d="M405.58 71.3699C399.028 68.3279 396.057 90.3239 400.655 93.4946C405.253 96.6653 417.83 77.0327 405.58 71.3699Z" fill="#263238"/>
<path d="M423.645 89.3295C421.668 98.3268 420.966 103.697 415.654 107.64C407.663 113.584 397.098 107.64 396.337 98.28C395.659 89.8209 399.005 76.5297 408.459 74.295C410.54 73.794 412.714 73.833 414.776 74.4083C416.838 74.9835 418.719 76.0759 420.24 77.5819C421.761 79.0878 422.872 80.9575 423.468 83.0134C424.064 85.0693 424.125 87.2435 423.645 89.3295Z" fill="#FF8B7B"/>
<path d="M421.621 98.1278C417.538 100.468 417.702 72.8324 425.681 76.8923C439.206 83.7602 431.274 92.5469 421.621 98.1278Z" fill="#263238"/>
<path d="M431.227 81.9C427.518 85.293 393.307 64.0341 407.92 60.606C424.289 56.7333 438.34 75.348 431.227 81.9Z" fill="#263238"/>
<path d="M424.125 82.2393C419.948 85.0356 380.308 77.1849 389.961 65.6838C401.497 51.9246 432.783 76.4361 424.125 82.2393Z" fill="#263238"/>
<path d="M426.184 99.9882C424.657 101.73 422.504 102.798 420.194 102.96C417.128 103.147 416.239 100.257 417.631 97.695C418.872 95.355 421.972 92.5236 424.792 93.5415C427.612 94.5594 428.033 97.8237 426.184 99.9882Z" fill="#FF8B7B"/>
<path d="M334.199 387.726L349.198 392.406C349.198 392.406 364.338 337.557 369.498 309.102C371.065 300.444 374.412 288.487 378.425 275.722C383.479 259.646 389.587 242.307 394.536 228.758C399.754 214.473 403.662 204.387 403.662 204.387L371.405 199.356C371.405 199.356 345.208 274.377 341.839 302.515C338.341 331.777 334.199 387.726 334.199 387.726Z" fill="#3B78FF"/>
<path opacity="0.6" d="M334.199 387.726L349.198 392.406C349.198 392.406 364.338 337.557 369.498 309.102C371.065 300.444 374.412 288.487 378.425 275.722C383.479 259.646 389.587 242.307 394.536 228.758C399.754 214.473 403.662 204.387 403.662 204.387L371.405 199.356C371.405 199.356 345.208 274.377 341.839 302.515C338.341 331.777 334.199 387.726 334.199 387.726Z" fill="black"/>
<path opacity="0.2" d="M378.425 275.746C383.479 259.67 389.587 242.33 394.536 228.782L391.786 221.247C382.929 230.116 378.238 259.529 378.425 275.746Z" fill="black"/>
<path d="M388.803 202.094C388.803 202.094 385.562 281.584 387.176 308.728C388.943 338.458 407.066 400.62 407.066 400.62H424.066C424.066 400.62 416.766 344.179 413.887 315.28C410.611 282.368 420.486 207.032 420.486 207.032L388.803 202.094Z" fill="#3B78FF"/>
<path opacity="0.6" d="M388.803 202.094C388.803 202.094 385.562 281.584 387.176 308.728C388.943 338.458 407.066 400.62 407.066 400.62H424.066C424.066 400.62 416.766 344.179 413.887 315.28C410.611 282.368 420.486 207.032 420.486 207.032L388.803 202.094Z" fill="black"/>
<path d="M405.007 400.982H425.026V395.004L402.644 394.606L405.007 400.982Z" fill="#3B78FF"/>
<path d="M332.198 387.492L350.076 393.097L351.889 387.317L331.999 380.753L332.198 387.492Z" fill="#3B78FF"/>
<path d="M409.5 89.7155C409.383 90.4526 408.903 90.9908 408.424 90.8855C407.944 90.7802 407.64 90.1484 407.757 89.4113C407.874 88.6742 408.353 88.136 408.833 88.2413C409.313 88.3466 409.582 88.9784 409.5 89.7155Z" fill="#263238"/>
<path d="M401.111 88.4169C400.994 89.154 400.503 89.6922 400.023 89.5869C399.543 89.4816 399.239 88.8615 399.356 88.1127C399.473 87.3639 399.953 86.8374 400.444 86.9427C400.936 87.048 401.216 87.6681 401.111 88.4169Z" fill="#263238"/>
<path d="M403.708 89.2007C402.473 91.3203 400.954 93.2609 399.192 94.9688C399.644 95.4011 400.185 95.7298 400.777 95.9318C401.369 96.1339 401.998 96.2045 402.62 96.1388L403.708 89.2007Z" fill="#FF5652"/>
<path d="M405.428 98.6544C405.103 98.6453 404.778 98.614 404.457 98.5608C404.428 98.558 404.4 98.5492 404.375 98.5351C404.35 98.521 404.328 98.5018 404.31 98.4788C404.292 98.4557 404.28 98.4293 404.273 98.4011C404.266 98.3729 404.265 98.3436 404.27 98.315C404.281 98.2593 404.312 98.2096 404.358 98.1752C404.403 98.1407 404.459 98.1239 404.516 98.1278C405.433 98.2987 406.378 98.2476 407.271 97.979C408.165 97.7103 408.981 97.2318 409.652 96.5835C409.673 96.5626 409.697 96.546 409.724 96.5347C409.752 96.5234 409.781 96.5176 409.81 96.5176C409.839 96.5176 409.868 96.5234 409.896 96.5347C409.923 96.546 409.947 96.5626 409.968 96.5835C409.988 96.6031 410.005 96.6267 410.016 96.6529C410.027 96.679 410.033 96.7071 410.033 96.7355C410.033 96.764 410.027 96.7921 410.016 96.8182C410.005 96.8444 409.988 96.868 409.968 96.8876C409.371 97.4756 408.661 97.9355 407.88 98.2393C407.1 98.5431 406.265 98.6843 405.428 98.6544Z" fill="#263238"/>
<path d="M412.472 87.4224C412.393 87.4171 412.317 87.3931 412.25 87.3524C412.183 87.3117 412.127 87.2555 412.086 87.1884C411.838 86.6963 411.478 86.2694 411.035 85.9422C410.592 85.6149 410.078 85.3966 409.535 85.3047C409.471 85.3087 409.408 85.2989 409.348 85.2761C409.289 85.2533 409.235 85.2179 409.19 85.1725C409.146 85.1271 409.111 85.0726 409.09 85.0127C409.068 84.9528 409.059 84.889 409.064 84.8255C409.07 84.762 409.088 84.7004 409.119 84.6447C409.15 84.5891 409.193 84.5408 409.244 84.503C409.295 84.4652 409.354 84.4389 409.416 84.4258C409.479 84.4128 409.543 84.4133 409.605 84.4272C410.295 84.5291 410.95 84.7948 411.516 85.2019C412.082 85.609 412.542 86.1458 412.858 86.7672C412.912 86.8699 412.925 86.9898 412.892 87.1014C412.859 87.2129 412.784 87.3072 412.682 87.3639C412.618 87.3994 412.546 87.4194 412.472 87.4224Z" fill="#263238"/>
<path d="M397.952 84.9771C397.864 84.9711 397.78 84.943 397.706 84.8952C397.659 84.8625 397.619 84.8207 397.588 84.7722C397.557 84.7238 397.536 84.6697 397.526 84.613C397.516 84.5564 397.518 84.4984 397.531 84.4424C397.544 84.3864 397.568 84.3335 397.601 84.2868C397.989 83.705 398.509 83.2235 399.12 82.8818C399.73 82.5401 400.412 82.348 401.111 82.3212C401.229 82.3212 401.342 82.368 401.425 82.4514C401.509 82.5348 401.556 82.6478 401.556 82.7658C401.556 82.8837 401.509 82.9968 401.425 83.0801C401.342 83.1635 401.229 83.2104 401.111 83.2104C400.558 83.2268 400.018 83.3796 399.538 83.6551C399.058 83.9307 398.654 84.3205 398.362 84.7899C398.313 84.8514 398.251 84.9006 398.179 84.9331C398.108 84.9657 398.03 84.9808 397.952 84.9771Z" fill="#263238"/>
<path d="M410.6 413.712C409.968 413.76 409.337 413.595 408.81 413.244C408.645 413.1 408.517 412.919 408.438 412.715C408.359 412.511 408.33 412.291 408.353 412.074C408.352 411.945 408.387 411.817 408.456 411.708C408.524 411.598 408.623 411.51 408.739 411.454C409.757 410.916 412.753 412.764 413.092 412.975C413.128 412.999 413.157 413.032 413.176 413.071C413.195 413.11 413.202 413.154 413.197 413.197C413.187 413.238 413.167 413.276 413.138 413.306C413.109 413.337 413.073 413.36 413.033 413.373C412.237 413.574 411.421 413.687 410.6 413.712ZM409.219 411.84C409.122 411.838 409.026 411.858 408.938 411.898C408.893 411.923 408.855 411.961 408.83 412.006C408.805 412.052 408.794 412.104 408.798 412.156C408.777 412.302 408.792 412.452 408.843 412.591C408.894 412.73 408.979 412.854 409.09 412.951C409.605 413.384 410.81 413.443 412.39 413.127C411.426 412.497 410.349 412.06 409.219 411.84Z" fill="#3B78FF"/>
<path d="M413.01 413.384C412.976 413.395 412.939 413.395 412.905 413.384C411.945 412.87 410.085 410.834 410.284 409.792C410.318 409.631 410.407 409.487 410.534 409.383C410.662 409.278 410.821 409.221 410.986 409.219C411.153 409.202 411.321 409.217 411.482 409.265C411.643 409.314 411.792 409.393 411.922 409.5C412.998 410.389 413.221 413.01 413.232 413.174C413.234 413.213 413.225 413.253 413.207 413.288C413.188 413.323 413.161 413.352 413.127 413.373C413.09 413.388 413.049 413.392 413.01 413.384ZM411.138 409.629H411.033C410.752 409.629 410.728 409.804 410.717 409.851C410.6 410.471 411.781 412.004 412.741 412.729C412.674 411.67 412.29 410.655 411.641 409.816C411.492 409.687 411.3 409.62 411.103 409.629H411.138Z" fill="#3B78FF"/>
<path d="M334.023 401.052C332.502 400.889 329.858 400.444 329.156 399.274C329.049 399.1 328.986 398.902 328.974 398.698C328.962 398.494 329 398.29 329.086 398.104C329.127 397.992 329.196 397.893 329.286 397.815C329.376 397.738 329.484 397.684 329.601 397.659C330.876 397.39 333.859 400.315 334.199 400.655C334.225 400.69 334.238 400.733 334.238 400.778C334.238 400.822 334.225 400.865 334.199 400.9C334.188 400.94 334.165 400.976 334.134 401.003C334.103 401.03 334.064 401.047 334.023 401.052ZM329.753 398.104H329.671C329.625 398.113 329.582 398.133 329.547 398.164C329.512 398.195 329.486 398.235 329.472 398.28C329.408 398.396 329.375 398.527 329.375 398.66C329.375 398.793 329.408 398.923 329.472 399.04C329.87 399.695 331.297 400.21 333.356 400.526C332.198 399.426 330.502 398.081 329.753 398.104Z" fill="#3B78FF"/>
<path d="M334.023 401.053C333.974 401.067 333.921 401.067 333.871 401.053C332.959 400.245 331.438 397.66 331.917 396.712C332.034 396.49 332.292 396.244 332.877 396.373C333.094 396.412 333.3 396.497 333.481 396.622C333.663 396.747 333.816 396.909 333.93 397.098C334.772 398.373 334.257 400.83 334.234 400.936C334.229 400.973 334.213 401.009 334.188 401.038C334.163 401.067 334.13 401.088 334.093 401.099L334.023 401.053ZM332.561 396.712C332.374 396.712 332.327 396.817 332.315 396.852C332.023 397.414 332.994 399.379 333.871 400.362C334.092 399.322 333.986 398.239 333.567 397.262C333.481 397.126 333.369 397.009 333.236 396.918C333.103 396.827 332.953 396.765 332.795 396.735L332.561 396.712Z" fill="#3B78FF"/>
<path d="M440.692 138.657C440.517 140.271 440.341 141.664 440.095 143.15C439.85 144.635 439.616 146.063 439.347 147.514C438.844 150.415 438.177 153.282 437.451 156.16C435.977 161.991 434.02 167.689 431.601 173.195L430.63 175.289L429.565 177.372L429.296 177.899L429.168 178.156L428.957 178.53C428.54 179.28 428.038 179.979 427.459 180.613C426.056 182.138 424.189 183.158 422.148 183.515C420.585 183.766 418.985 183.662 417.468 183.21C416.396 182.89 415.361 182.459 414.379 181.923C412.822 181.056 411.363 180.024 410.026 178.846C408.827 177.815 407.69 176.713 406.622 175.547C405.557 174.377 404.574 173.277 403.638 172.095C401.76 169.771 400.044 167.32 398.502 164.759L403.884 160.325C407.886 163.832 412.132 167.05 416.59 169.954C417.496 170.503 418.452 170.965 419.445 171.335C419.723 171.453 420.021 171.517 420.322 171.522C420.463 171.522 420.322 171.382 419.808 171.428C419.165 171.52 418.568 171.81 418.099 172.259C417.924 172.435 417.842 172.552 417.795 172.587V172.481L417.877 172.259L418.064 171.815L418.79 170.048L419.457 168.234C421.224 163.218 422.658 158.09 423.751 152.884C424.347 150.24 424.921 147.584 425.377 144.916C425.833 142.249 426.301 139.487 426.687 137.007L440.692 138.657Z" fill="#FF8B7B"/>
<path d="M442.506 133.146C447.548 140.447 439.674 165.415 439.674 165.415L417.444 160.115C418.543 152.393 420.344 144.787 422.826 137.393C427.05 125.611 436.41 124.301 442.506 133.146Z" fill="#3B78FF"/>
<path d="M404.563 160.933L399.099 153.27L393.178 163.542C393.178 163.542 399.286 169.053 402.538 166.152L404.563 160.933Z" fill="#FF8B7B"/>
<path d="M391.681 150.989L387.188 159.717L393.19 163.519L399.099 153.247L391.681 150.989Z" fill="#FF8B7B"/>
<path d="M367.731 155.282L373.499 147.83L378.986 158.36C378.986 158.36 372.668 163.601 369.509 160.571L367.731 155.282Z" fill="#FF8B7B"/>
<path d="M381.01 145.887L385.141 154.791L378.986 158.348L373.499 147.829L381.01 145.887Z" fill="#FF8B7B"/>
<path d="M167.076 90.09C165.064 86.2875 166.304 79.8291 177.126 79.7355C187.949 79.6419 200.175 80.145 198.303 70.2936C207.663 71.8497 214.098 80.2269 209.582 85.7376C202.34 94.5477 207.418 100.784 202.316 104.177C195.214 108.927 192.956 132.257 177.384 126.512C178.834 117.877 154.498 97.9524 167.076 90.09Z" fill="#263238"/>
<path d="M217.409 148.59C217.667 151.386 218.006 154.44 218.427 157.353C218.848 160.267 219.27 163.203 219.855 166.152C220.92 171.925 222.414 177.612 224.324 183.164L225.085 185.176L225.435 186.089C225.435 186.147 225.436 186.089 225.354 186.089C225.119 185.869 224.819 185.733 224.5 185.702C224.336 185.702 224.57 185.784 224.932 185.702C226.016 185.417 227.053 184.975 228.01 184.392C229.226 183.719 230.399 182.969 231.52 182.146C233.918 180.429 236.226 178.59 238.434 176.635C240.692 174.681 242.962 172.622 245.127 170.586L249.011 173.862C245.359 179.103 241.163 183.943 236.492 188.3C235.237 189.44 233.916 190.506 232.537 191.494C230.946 192.646 229.191 193.553 227.331 194.185C226.004 194.617 224.6 194.76 223.213 194.606C222.296 194.498 221.407 194.22 220.592 193.787C219.763 193.348 219.022 192.761 218.404 192.056C217.878 191.46 217.437 190.795 217.093 190.078C217.028 189.965 216.969 189.848 216.918 189.727L216.789 189.446L216.532 188.885L215.526 186.638C213.08 180.68 211.192 174.507 209.886 168.199C209.219 165.087 208.623 161.975 208.19 158.839C207.757 155.704 207.371 152.603 207.172 149.269L217.409 148.59Z" fill="#FFC3BD"/>
<path d="M213.525 136.96C217.035 137.873 219.071 161.308 219.071 161.308L209.641 166.982C209.641 166.982 203.943 149.666 204.808 142.19C205.44 136.75 210.857 136.282 213.525 136.96Z" fill="#FFC3BD"/>
<path d="M245.01 169.884L250.427 161.32L253.504 171.042C253.504 171.042 249.058 175.722 245.033 174.552L245.01 169.884Z" fill="#FFC3BD"/>
<path d="M258.383 158.476L260.512 166.772L253.504 171.042L250.427 161.32L258.383 158.476Z" fill="#FFC3BD"/>
<path d="M193.378 412.448H203.416L207.675 375.582H193.904L193.378 412.448Z" fill="#FFC3BD"/>
<path d="M130.338 398.9L140.061 401.415L154.99 367.579L141.535 363.776L130.338 398.9Z" fill="#FFC3BD"/>
<path d="M141.57 399.801L131.192 395.39C131.015 395.308 130.814 395.295 130.628 395.353C130.442 395.412 130.284 395.537 130.186 395.706L125.506 403.416C125.396 403.614 125.329 403.833 125.31 404.059C125.29 404.284 125.318 404.511 125.392 404.726C125.466 404.94 125.584 405.136 125.739 405.301C125.893 405.467 126.081 405.598 126.29 405.686C129.94 407.16 131.777 407.686 136.34 409.629C139.148 410.799 143.126 412.858 146.999 414.508C150.871 416.157 152.72 412.402 151.246 411.372C144.67 406.692 144.436 404.106 142.869 401.017C142.591 400.473 142.132 400.042 141.57 399.801Z" fill="#263238"/>
<path d="M203.755 411.278H192.477C192.283 411.277 192.095 411.346 191.948 411.473C191.802 411.6 191.707 411.776 191.681 411.969L190.394 420.896C190.371 421.121 190.396 421.349 190.467 421.564C190.537 421.779 190.653 421.977 190.805 422.145C190.957 422.313 191.143 422.446 191.35 422.538C191.558 422.629 191.782 422.675 192.009 422.674C195.94 422.604 197.859 422.382 202.796 422.382C205.838 422.382 212.156 422.698 216.368 422.698C220.58 422.698 220.802 418.532 219.047 418.146C211.185 416.461 208.084 414.121 205.44 411.898C204.968 411.502 204.372 411.282 203.755 411.278Z" fill="#263238"/>
<path d="M214.11 136.949C214.11 136.949 218.884 138.633 209.313 197.531H168.585C169.276 180.941 169.287 170.715 161.366 136.691C167.07 135.492 172.853 134.71 178.671 134.351C184.833 133.912 191.018 133.912 197.18 134.351C205.136 135.1 214.11 136.949 214.11 136.949Z" fill="#263238"/>
<path d="M180.508 113.49C181.678 119.445 182.848 130.361 178.671 134.328C183.877 139.854 189.942 144.504 196.63 148.099C202.41 138.739 197.18 134.328 197.18 134.328C190.546 132.748 190.71 127.822 191.868 123.189L180.508 113.49Z" fill="#FFC3BD"/>
<path d="M180.976 129.32C184.483 129.62 188.013 129.55 191.506 129.109C191.539 129.104 191.574 129.111 191.604 129.128C191.633 129.145 191.657 129.171 191.669 129.203C191.775 129.472 192.055 130.209 192.278 130.712C192.294 130.745 192.298 130.783 192.287 130.818C192.276 130.853 192.251 130.882 192.219 130.9C191.049 131.496 185.258 132.257 180.519 131.368C180.498 131.364 180.477 131.355 180.459 131.343C180.441 131.33 180.426 131.314 180.415 131.295C180.404 131.276 180.397 131.255 180.395 131.233C180.393 131.211 180.395 131.189 180.402 131.169C180.589 130.467 180.788 129.718 180.859 129.437C180.861 129.407 180.874 129.379 180.896 129.357C180.917 129.336 180.945 129.323 180.976 129.32Z" fill="#3B78FF"/>
<path opacity="0.2" d="M185.141 117.491L191.868 123.236C191.582 124.309 191.39 125.405 191.295 126.512C188.756 126.149 185.269 123.365 185 120.662C184.863 119.605 184.91 118.532 185.141 117.491Z" fill="black"/>
<path d="M174.225 102.609C176.565 112.297 177.337 116.438 183.175 120.592C191.95 126.828 203.334 121.844 203.943 111.665C204.493 102.492 200.573 88.1945 190.3 85.9949C188.037 85.4985 185.685 85.5891 183.467 86.2582C181.249 86.9272 179.239 88.1525 177.628 89.8174C176.017 91.4824 174.858 93.5317 174.263 95.7706C173.667 98.0095 173.654 100.364 174.225 102.609Z" fill="#FFC3BD"/>
<path d="M209.36 197.531C209.36 197.531 217.269 274.856 216.614 305.463C215.935 337.311 209.594 376.681 209.594 376.681H192.091C192.091 376.681 192.839 339.171 191.634 307.897C190.336 273.803 179.501 197.531 179.501 197.531H209.36Z" fill="#3B78FF"/>
<path d="M190.593 378.425H210.331L211.77 373.347L189.669 372.727L190.593 378.425Z" fill="#263238"/>
<path opacity="0.2" d="M191.775 216.778C201.778 236.913 193.775 273.663 190.242 287.329C188.428 266.795 185.363 241.699 182.976 223.271C184.497 212.846 187.2 207.488 191.775 216.778Z" fill="black"/>
<path d="M198.584 197.531C198.584 197.531 189.353 277.922 182.38 303.732C174.096 334.363 157.178 368.199 157.178 368.199L139.628 363.25C139.628 363.25 149.467 321.949 155.797 305.803C169.311 271.358 157.739 220.018 168.538 197.531H198.584Z" fill="#3B78FF"/>
<path d="M138.586 365.917L156.78 370.96L160.056 366.292L139.873 359.564L138.586 365.917Z" fill="#263238"/>
<path d="M190.581 102.808C190.722 103.604 191.26 104.177 191.751 104.083C192.243 103.99 192.582 103.264 192.442 102.469C192.301 101.673 191.763 101.1 191.272 101.193C190.78 101.287 190.441 102.012 190.581 102.808Z" fill="#263238"/>
<path d="M199.59 101.205C199.742 102.001 200.269 102.574 200.76 102.48C201.252 102.387 201.591 101.673 201.451 100.877C201.31 100.082 200.772 99.5085 200.281 99.6021C199.789 99.6957 199.45 100.409 199.59 101.205Z" fill="#263238"/>
<path d="M200.07 99.6839L201.895 98.7947C201.895 98.7947 201.158 100.456 200.07 99.6839Z" fill="#263238"/>
<path d="M197.04 102.96C198.073 104.652 199.333 106.195 200.784 107.546C200.427 107.906 199.996 108.185 199.522 108.362C199.047 108.54 198.54 108.613 198.034 108.576L197.04 102.96Z" fill="#ED847E"/>
<path d="M193.822 112.32C194.277 112.319 194.731 112.28 195.179 112.203C195.21 112.197 195.24 112.186 195.266 112.168C195.293 112.151 195.315 112.129 195.333 112.102C195.35 112.076 195.362 112.047 195.368 112.016C195.374 111.985 195.373 111.953 195.367 111.922C195.362 111.892 195.352 111.862 195.336 111.836C195.32 111.81 195.299 111.787 195.273 111.769C195.248 111.752 195.219 111.74 195.189 111.734C195.159 111.728 195.128 111.728 195.097 111.735C194.109 111.933 193.087 111.895 192.115 111.625C191.144 111.354 190.249 110.859 189.505 110.179C189.484 110.156 189.459 110.138 189.431 110.126C189.402 110.113 189.372 110.107 189.341 110.107C189.31 110.107 189.28 110.113 189.252 110.126C189.223 110.138 189.198 110.156 189.177 110.179C189.134 110.225 189.109 110.285 189.109 110.349C189.109 110.412 189.134 110.473 189.177 110.518C190.435 111.696 192.099 112.342 193.822 112.32Z" fill="#263238"/>
<path d="M170.972 88.7211C176.728 91.5525 182.473 90.324 182.766 97.4727C183.058 104.621 173.218 116.193 170.972 108.003C168.726 99.8127 170.972 88.7211 170.972 88.7211Z" fill="#263238"/>
<path d="M172.692 92.4301C180.121 95.437 200.585 96.2209 200.14 87.0481C199.696 77.8753 182.005 81.9352 176.939 83.9008C171.873 85.8664 172.692 92.4301 172.692 92.4301Z" fill="#263238"/>
<path d="M173.815 109.91C174.182 110.79 174.72 111.59 175.396 112.262C176.073 112.935 176.875 113.467 177.758 113.829C180.098 114.789 181.584 112.729 181.163 110.319C180.777 108.178 179.092 105.089 176.6 105.16C176.051 105.18 175.517 105.338 175.046 105.62C174.574 105.901 174.182 106.297 173.904 106.771C173.627 107.244 173.473 107.78 173.457 108.329C173.442 108.877 173.565 109.421 173.815 109.91Z" fill="#FFC3BD"/>
<path d="M187.095 97.4726C187.159 97.474 187.223 97.4611 187.281 97.4348C187.34 97.4085 187.392 97.3695 187.434 97.3205C187.835 96.8788 188.334 96.5367 188.89 96.3214C189.447 96.1061 190.046 96.0236 190.64 96.0803C190.763 96.1014 190.891 96.0744 190.995 96.0048C191.099 95.9352 191.173 95.8282 191.201 95.7059C191.222 95.5805 191.193 95.452 191.121 95.3473C191.049 95.2426 190.94 95.1698 190.815 95.1443C190.064 95.0556 189.303 95.1472 188.595 95.4118C187.887 95.6763 187.252 96.1061 186.744 96.6653C186.656 96.7567 186.608 96.8782 186.608 97.0046C186.608 97.131 186.656 97.2525 186.744 97.3439C186.84 97.4303 186.965 97.4764 187.095 97.4726Z" fill="#263238"/>
<path d="M201.848 96.2442C201.909 96.2462 201.969 96.2358 202.025 96.2137C202.082 96.1915 202.133 96.1581 202.176 96.1155C202.22 96.072 202.255 96.0201 202.279 95.9628C202.303 95.9056 202.316 95.8441 202.316 95.7821C202.316 95.72 202.303 95.6586 202.279 95.6013C202.255 95.5441 202.22 95.4922 202.176 95.4486C201.67 94.8868 201.035 94.456 200.326 94.1932C199.617 93.9303 198.854 93.8432 198.104 93.9393C198.043 93.9505 197.985 93.9737 197.934 94.0075C197.882 94.0413 197.837 94.085 197.802 94.1362C197.768 94.1873 197.743 94.2448 197.731 94.3054C197.718 94.366 197.718 94.4285 197.73 94.4892C197.753 94.6128 197.823 94.7224 197.926 94.7946C198.029 94.8668 198.156 94.8958 198.28 94.8753C198.868 94.8052 199.465 94.8746 200.022 95.0779C200.579 95.2811 201.08 95.6125 201.486 96.0453C201.528 96.1028 201.582 96.1505 201.645 96.1848C201.708 96.2192 201.777 96.2394 201.848 96.2442Z" fill="#263238"/>
<path d="M166.456 151.269C164.432 156.558 162.49 162.115 160.77 167.579C159.053 172.969 157.72 178.474 156.78 184.053C156.651 184.731 156.593 185.398 156.523 186.065L156.417 187.06V187.481C156.534 188.258 156.817 189 157.248 189.657C158.633 191.913 160.244 194.022 162.057 195.952C165.812 200.152 170.141 204.142 174.412 208.096L171.452 212.238C166.145 209.173 161.135 205.62 156.487 201.626C153.969 199.501 151.714 197.081 149.772 194.419C148.462 192.653 147.596 190.599 147.244 188.428C147.195 188.04 147.171 187.65 147.174 187.258C147.174 187.013 147.174 187.001 147.174 186.872V186.568V185.398C147.174 184.579 147.244 183.76 147.338 182.976C148.004 176.798 149.229 170.693 151 164.736C152.646 158.854 154.63 153.072 156.944 147.42L166.456 151.269Z" fill="#FFC3BD"/>
<path d="M161.46 136.656C157.459 138.294 152.451 160.185 152.451 160.185L160.957 167.205C160.957 167.205 168.971 150.825 169.322 143.36C169.533 137.662 164.97 135.217 161.46 136.656Z" fill="#FFC3BD"/>
<path d="M146.18 402.96C146.363 402.865 146.523 402.731 146.648 402.567C146.774 402.403 146.861 402.214 146.905 402.012C146.95 401.876 146.958 401.73 146.927 401.59C146.896 401.45 146.828 401.321 146.73 401.216C145.864 400.269 142.284 400.889 141.874 400.959C141.829 400.971 141.789 400.995 141.756 401.028C141.723 401.061 141.699 401.101 141.687 401.146C141.676 401.192 141.679 401.24 141.696 401.283C141.713 401.327 141.742 401.365 141.781 401.392C142.857 402.176 144.846 403.439 146.039 403.018C146.089 403.006 146.136 402.986 146.18 402.96ZM142.529 401.31C143.968 401.111 145.922 401.018 146.379 401.509C146.413 401.563 146.431 401.626 146.431 401.69C146.431 401.754 146.413 401.817 146.379 401.872C146.353 402.022 146.289 402.164 146.193 402.283C146.096 402.402 145.971 402.494 145.829 402.55C145.232 402.796 144.004 402.34 142.529 401.31Z" fill="#3B78FF"/>
<path d="M143.547 400.889C144.589 400.386 145.653 399.613 145.805 398.9C145.843 398.714 145.816 398.521 145.728 398.353C145.641 398.185 145.499 398.052 145.326 397.975C145.168 397.884 144.992 397.827 144.811 397.808C144.629 397.79 144.445 397.811 144.273 397.87C142.904 398.338 141.745 400.994 141.699 401.099C141.678 401.135 141.667 401.175 141.667 401.216C141.667 401.257 141.678 401.298 141.699 401.333C141.721 401.368 141.753 401.395 141.79 401.412C141.827 401.428 141.869 401.434 141.909 401.427C142.48 401.334 143.032 401.152 143.547 400.889ZM144.284 398.385L144.425 398.327C144.533 398.286 144.649 398.271 144.765 398.281C144.88 398.291 144.992 398.327 145.092 398.385C145.349 398.537 145.361 398.689 145.337 398.794C145.197 399.485 143.512 400.538 142.33 400.865C142.753 399.882 143.427 399.026 144.284 398.385Z" fill="#3B78FF"/>
<path d="M207.523 413.01C208.385 413.089 209.248 412.871 209.968 412.39C210.13 412.245 210.253 412.062 210.326 411.858C210.4 411.654 210.422 411.435 210.389 411.22C210.383 411.088 210.343 410.959 210.273 410.847C210.204 410.734 210.107 410.641 209.992 410.576C208.822 409.91 204.762 411.957 204.305 412.191C204.26 412.213 204.224 412.248 204.201 412.293C204.177 412.337 204.169 412.387 204.177 412.437C204.185 412.485 204.207 412.529 204.24 412.565C204.273 412.6 204.316 412.625 204.364 412.636C205.403 412.855 206.461 412.98 207.523 413.01ZM209.313 410.939C209.466 410.93 209.618 410.958 209.758 411.021C209.806 411.045 209.847 411.081 209.876 411.127C209.905 411.172 209.92 411.225 209.921 411.278C209.943 411.419 209.929 411.562 209.88 411.695C209.831 411.828 209.748 411.947 209.641 412.039C209.032 412.589 207.382 412.682 205.159 412.32C206.456 411.634 207.861 411.175 209.313 410.962V410.939Z" fill="#3B78FF"/>
<path d="M204.411 412.682H204.516C205.686 412.144 208.026 409.98 207.886 408.845C207.886 408.576 207.652 408.236 206.996 408.166C206.762 408.144 206.525 408.169 206.3 408.239C206.075 408.31 205.866 408.424 205.686 408.576C204.422 409.629 204.188 412.331 204.177 412.448C204.175 412.49 204.184 412.53 204.202 412.567C204.221 412.604 204.248 412.636 204.282 412.659C204.32 412.683 204.366 412.691 204.411 412.682ZM206.751 408.611H206.891C207.324 408.611 207.359 408.821 207.359 408.88C207.476 409.57 205.873 411.22 204.645 412.004C204.742 410.865 205.192 409.786 205.932 408.915C206.049 408.807 206.188 408.724 206.339 408.672C206.49 408.62 206.65 408.599 206.809 408.611H206.751Z" fill="#3B78FF"/>
<path d="M167.977 195.144L166.936 198.795C166.795 199.075 167.123 199.356 167.602 199.356H209.559C209.921 199.356 210.226 199.181 210.249 198.947L210.623 195.296C210.623 195.051 210.331 194.84 209.921 194.84H168.644C168.516 194.828 168.387 194.85 168.27 194.903C168.153 194.957 168.052 195.04 167.977 195.144Z" fill="#3B78FF"/>
<path opacity="0.8" d="M167.977 195.144L166.936 198.795C166.795 199.075 167.123 199.356 167.602 199.356H209.559C209.921 199.356 210.226 199.181 210.249 198.947L210.623 195.296C210.623 195.051 210.331 194.84 209.921 194.84H168.644C168.516 194.828 168.387 194.85 168.27 194.903C168.153 194.957 168.052 195.04 167.977 195.144Z" fill="white"/>
<path d="M173.523 199.754H172.411C172.201 199.754 172.025 199.649 172.048 199.508L172.563 194.758C172.563 194.629 172.774 194.512 172.984 194.512H174.154C174.377 194.512 174.541 194.629 174.529 194.758L174.014 199.508C173.932 199.649 173.745 199.754 173.523 199.754Z" fill="#3B78FF"/>
<path d="M206.446 199.754H205.347C205.124 199.754 204.961 199.649 204.972 199.508L205.487 194.758C205.487 194.629 205.698 194.512 205.92 194.512H207.02C207.242 194.512 207.406 194.629 207.394 194.758L206.879 199.508C206.868 199.649 206.669 199.754 206.446 199.754Z" fill="#3B78FF"/>
<path d="M189.985 199.754H188.885C188.662 199.754 188.487 199.649 188.51 199.508L189.025 194.758C189.025 194.629 189.236 194.512 189.458 194.512H190.558C190.78 194.512 190.944 194.629 190.932 194.758L190.417 199.508C190.394 199.649 190.207 199.754 189.985 199.754Z" fill="#3B78FF"/>
<path d="M173.23 207.219L184.041 208.143L176.822 215.35C176.822 215.35 170.633 213.56 169.802 209.5L173.23 207.219Z" fill="#FFC3BD"/>
<path d="M246.051 156.78L239.031 190.359C238.94 190.792 238.936 191.239 239.018 191.674C239.1 192.109 239.266 192.524 239.509 192.894C239.751 193.265 240.064 193.584 240.43 193.834C240.795 194.083 241.207 194.258 241.64 194.349L305.569 207.757C306.446 207.934 307.358 207.758 308.107 207.268C308.856 206.777 309.382 206.011 309.57 205.136L316.59 171.557C316.768 170.681 316.593 169.771 316.105 169.022C315.617 168.273 314.854 167.747 313.981 167.556L250.052 154.159C249.217 153.992 248.349 154.142 247.619 154.58C247.219 154.818 246.874 155.137 246.604 155.516C246.334 155.894 246.146 156.325 246.051 156.78Z" fill="#3B78FF"/>
<path opacity="0.5" d="M246.051 156.78L239.031 190.359C238.94 190.792 238.936 191.239 239.018 191.674C239.1 192.109 239.266 192.524 239.509 192.894C239.751 193.265 240.064 193.584 240.43 193.834C240.795 194.083 241.207 194.258 241.64 194.349L305.569 207.757C306.446 207.934 307.358 207.758 308.107 207.268C308.856 206.777 309.382 206.011 309.57 205.136L316.59 171.557C316.768 170.681 316.593 169.771 316.105 169.022C315.617 168.273 314.854 167.747 313.981 167.556L250.052 154.159C249.217 153.992 248.349 154.142 247.619 154.58C247.219 154.818 246.874 155.137 246.604 155.516C246.334 155.894 246.146 156.325 246.051 156.78Z" fill="black"/>
<path d="M316.04 168.96L305.943 174.096L285.913 184.263C283.124 185.688 279.931 186.117 276.865 185.479C273.798 184.84 271.042 183.173 269.053 180.753L255.189 163.8L247.607 154.569C248.344 154.135 249.213 153.985 250.052 154.147L255.633 155.317L306.364 165.953L313.969 167.544C314.814 167.736 315.555 168.242 316.04 168.96Z" fill="#3B78FF"/>
<path d="M308.365 128.103L306.364 166L305.943 174.096L285.913 184.263C283.124 185.688 279.931 186.117 276.865 185.479C273.798 184.84 271.042 183.173 269.053 180.753L255.189 163.8L255.633 155.318L257.213 125.366C257.261 124.553 257.627 123.793 258.231 123.248C258.835 122.703 259.629 122.417 260.442 122.452L305.452 124.792C305.862 124.814 306.263 124.918 306.633 125.097C307.002 125.277 307.332 125.528 307.604 125.836C307.875 126.144 308.082 126.504 308.213 126.893C308.344 127.282 308.395 127.694 308.365 128.103Z" fill="#3B78FF"/>
<path opacity="0.9" d="M308.365 128.103L306.364 166L305.943 174.096L285.913 184.263C283.124 185.688 279.931 186.117 276.865 185.479C273.798 184.84 271.042 183.173 269.053 180.753L255.189 163.8L255.633 155.318L257.213 125.366C257.261 124.553 257.627 123.793 258.231 123.248C258.835 122.703 259.629 122.417 260.442 122.452L305.452 124.792C305.862 124.814 306.263 124.918 306.633 125.097C307.002 125.277 307.332 125.528 307.604 125.836C307.875 126.144 308.082 126.504 308.213 126.893C308.344 127.282 308.395 127.694 308.365 128.103Z" fill="white"/>
<path opacity="0.1" d="M271.44 176.073L255.376 160.29L255.189 163.8L269.1 180.73C271.089 183.149 273.845 184.817 276.911 185.455C279.978 186.093 283.17 185.665 285.96 184.24L305.99 174.073L306.189 170.282L285.995 178.799C283.572 179.838 280.894 180.134 278.303 179.649C275.712 179.163 273.323 177.919 271.44 176.073Z" fill="black"/>
<path d="M262.08 136.796L262.571 127.518L264.443 127.624L263.952 136.89L262.08 136.796Z" fill="#3B78FF"/>
<path d="M265.754 136.995L266.245 127.717L268.07 127.811L271.58 134.211L271.896 128.01L273.64 128.103L273.148 137.381L271.276 137.288L267.813 131.04L267.497 137.089L265.754 136.995Z" fill="#3B78FF"/>
<path d="M277.465 137.615L274.634 128.162L276.67 128.267L278.659 135.287L281.291 128.548L283.28 128.653L279.466 137.756L277.465 137.615Z" fill="#3B78FF"/>
<path d="M283.69 137.943L284.181 128.665L286.053 128.759L285.562 138.037L283.69 137.943Z" fill="#3B78FF"/>
<path d="M289.434 138.247L289.844 130.537L287.094 130.385L287.176 128.817L294.547 129.203L294.465 130.771L291.716 130.631L291.306 138.341L289.434 138.247Z" fill="#3B78FF"/>
<path d="M295.261 138.551L295.753 129.273L302.632 129.636L302.55 131.204L297.543 130.935L297.437 132.994L302.117 133.24L302.035 134.807L297.355 134.562L297.227 137.089L302.41 137.358L302.328 138.926L295.261 138.551Z" fill="#3B78FF"/>
<path d="M190.219 213.888L183.842 219.597L175.278 214.777L184.041 208.143L190.219 213.888Z" fill="#FFC3BD"/>
<path d="M191.049 101.275L192.863 100.386C192.863 100.386 192.149 102.059 191.049 101.275Z" fill="#263238"/>
</svg>
