<svg width="24" height="24" viewBox="0 0 24 24" fill="none" xmlns="http://www.w3.org/2000/svg">
<path d="M17.9906 10.1924C17.3348 13.94 14.9363 16.7508 12.06 16.7508C9.18364 16.7508 6.79451 13.94 6.13867 10.1924" stroke="#94A3B8" stroke-width="2" stroke-linecap="round" stroke-linejoin="round"/>
<path d="M17.0818 3.32471C15.8264 7.65325 10.4578 10.4546 6.13867 10.2672" stroke="#94A3B8" stroke-width="2" stroke-linecap="round" stroke-linejoin="round"/>
<path d="M15.03 6.73511C15.7353 8.12768 16.7476 9.34186 17.9907 10.286" stroke="#94A3B8" stroke-width="2" stroke-linecap="round" stroke-linejoin="round"/>
<path d="M6.13875 10.2861C2.79397 3.65273 12.06 -2.29668 17.2506 3.09995C18.8995 5.02999 18.7496 8.24361 17.9907 10.2861" stroke="#94A3B8" stroke-width="2" stroke-linecap="round" stroke-linejoin="round"/>
<path d="M14.7207 16.3386V17.9126L13.4043 19.0182L12.088 20.1238L9.38965 17.9126V16.3386" stroke="#94A3B8" stroke-width="2" stroke-linecap="round" stroke-linejoin="round"/>
<path d="M9.45534 17.978L4.77077 19.7582C4.5176 19.8551 4.28848 20.0058 4.09923 20.2C3.90997 20.3941 3.76509 20.6269 3.67458 20.8825L3 22.9999H12.1255" stroke="#94A3B8" stroke-width="2" stroke-linecap="round" stroke-linejoin="round"/>
<path d="M14.7957 17.978L19.4803 19.7582C19.7334 19.8551 19.9626 20.0058 20.1518 20.2C20.3411 20.3941 20.4859 20.6269 20.5765 20.8825L21.2698 22.9999H12.1255" stroke="#94A3B8" stroke-width="2" stroke-linecap="round" stroke-linejoin="round"/>
</svg>
